<?xml version="1.0" encoding="UTF-8" standalone="no"?>
<svg xmlns:ffdec="https://www.free-decompiler.com/flash" xmlns:xlink="http://www.w3.org/1999/xlink" ffdec:objectType="shape" height="135.95px" width="140.9px" xmlns="http://www.w3.org/2000/svg">
  <g transform="matrix(1.0, 0.0, 0.0, 1.0, 76.8, 103.85)">
    <path d="M-64.0 -78.85 L-64.0 -24.55 -64.0 20.65 -76.8 -1.95 -76.8 -69.8 -64.0 -78.85" fill="#000000" fill-opacity="0.2509804" fill-rule="evenodd" stroke="none"/>
    <path d="M64.0 -24.55 L48.0 -13.25 -48.0 -13.25 -64.0 -24.55 -64.0 -92.45 -48.0 -103.75 48.0 -103.75 64.0 -92.45 64.0 -24.55" fill="#ffffff" fill-rule="evenodd" stroke="none"/>
    <path d="M48.0 -13.25 L48.0 32.0 -48.0 32.0 -48.0 -13.25 48.0 -13.25" fill="#888888" fill-rule="evenodd" stroke="none"/>
    <path d="M48.0 -13.25 L64.0 -24.55 64.0 20.7 48.0 32.0 48.0 -13.25" fill="#bbbbbb" fill-rule="evenodd" stroke="none"/>
    <path d="M-64.0 -24.55 L-48.0 -13.25 -48.0 32.0 -64.0 20.7 -64.0 -24.55" fill="#9b9b9b" fill-rule="evenodd" stroke="none"/>
    <path d="M48.0 -103.75 L-48.0 -103.75 -64.0 -92.45 -64.0 -24.55 -64.0 20.7 -48.0 32.0 48.0 32.0 64.0 20.7 64.0 -92.45 48.0 -103.75 Z" ffdec:has-small-stroke="true" ffdec:original-stroke-width="0.25" fill="none" stroke="#000000" stroke-linecap="round" stroke-linejoin="miter-clip" stroke-miterlimit="1.0" stroke-width="1.0"/>
  </g>
</svg>
