<?xml version="1.0" encoding="UTF-8" standalone="no"?>
<svg xmlns:ffdec="https://www.free-decompiler.com/flash" xmlns:xlink="http://www.w3.org/1999/xlink" ffdec:objectType="shape" height="231.95px" width="268.9px" xmlns="http://www.w3.org/2000/svg">
  <g transform="matrix(1.0, 0.0, 0.0, 1.0, 140.8, 103.85)">
    <path d="M-128.0 -78.8 L-128.0 64.0 -128.0 71.5 -128.0 116.7 -140.8 94.1 -140.8 -69.75 -128.0 -78.8" fill="#000000" fill-opacity="0.2509804" fill-rule="evenodd" stroke="none"/>
    <path d="M-128.0 71.45 L-128.0 -57.05 -128.0 -92.45 -112.0 -103.75 112.0 -103.75 128.0 -92.45 128.0 -57.05 128.0 71.45 112.0 82.75 -112.0 82.75 -128.0 71.45" fill="#ffffff" fill-rule="evenodd" stroke="none"/>
    <path d="M112.0 128.0 L70.5 128.0 48.0 128.0 -64.0 128.0 -112.0 128.0 -112.0 82.75 112.0 82.75 112.0 128.0" fill="#888888" fill-rule="evenodd" stroke="none"/>
    <path d="M128.0 71.45 L128.0 116.7 112.0 128.0 112.0 82.75 128.0 71.45" fill="#bbbbbb" fill-rule="evenodd" stroke="none"/>
    <path d="M-112.0 128.0 L-128.0 116.7 -128.0 79.9 -128.0 71.45 -112.0 82.75 -112.0 128.0" fill="#9b9b9b" fill-rule="evenodd" stroke="none"/>
    <path d="M128.0 -57.05 L128.0 -92.45 112.0 -103.75 -112.0 -103.75 -128.0 -92.45 -128.0 -57.05 -128.0 71.45 -128.0 79.9 -128.0 116.7 -112.0 128.0 -64.0 128.0 48.0 128.0 70.5 128.0 112.0 128.0 128.0 116.7 128.0 -57.05 Z" ffdec:has-small-stroke="true" ffdec:original-stroke-width="0.25" fill="none" stroke="#000000" stroke-linecap="round" stroke-linejoin="miter-clip" stroke-miterlimit="1.0" stroke-width="1.0"/>
  </g>
</svg>
