<?xml version="1.0" encoding="UTF-8" standalone="no"?>
<svg xmlns:ffdec="https://www.free-decompiler.com/flash" xmlns:xlink="http://www.w3.org/1999/xlink" ffdec:objectType="shape" height="183.85px" width="256.2px" xmlns="http://www.w3.org/2000/svg">
  <g transform="matrix(1.0, 0.0, 0.0, 1.0, 128.1, 103.85)">
    <path d="M-128.0 71.45 L-128.0 -57.05 -128.0 -92.45 -112.0 -103.75 112.0 -103.75 128.0 -92.45 128.0 -57.05 128.0 71.45 116.0 79.9 -116.05 79.9 -128.0 71.45" fill="#ffffff" fill-rule="evenodd" stroke="none"/>
    <path d="M-128.0 71.45 L-116.05 79.9 -128.0 79.9 -128.0 71.45" fill="#9b9b9b" fill-rule="evenodd" stroke="none"/>
    <path d="M116.0 79.9 L128.0 71.45 128.0 79.9 116.0 79.9" fill="#bbbbbb" fill-rule="evenodd" stroke="none"/>
    <path d="M128.0 71.45 L128.0 -57.05 128.0 -92.45 112.0 -103.75 -112.0 -103.75 -128.0 -92.45 -128.0 -57.05 -128.0 71.45 -128.0 79.9 M128.0 71.45 L128.0 79.9" ffdec:has-small-stroke="true" ffdec:original-stroke-width="0.25" fill="none" stroke="#000000" stroke-linecap="round" stroke-linejoin="miter-clip" stroke-miterlimit="1.0" stroke-width="1.0"/>
  </g>
</svg>
