<?xml version="1.0" encoding="UTF-8" standalone="no"?>
<svg xmlns:ffdec="https://www.free-decompiler.com/flash" xmlns:xlink="http://www.w3.org/1999/xlink" ffdec:objectType="shape" height="106.7px" width="89.65px" xmlns="http://www.w3.org/2000/svg">
  <g transform="matrix(1.0, 0.0, 0.0, 1.0, 57.55, 74.6)">
    <path d="M-57.55 -27.75 L-57.55 -43.15 -41.55 -58.5 -9.6 -58.5 6.4 -43.15 32.0 2.1 32.0 20.7 16.0 32.0 -16.0 32.0 -31.95 17.5 -57.55 -27.75" fill="#000000" fill-opacity="0.2509804" fill-rule="evenodd" stroke="none"/>
    <path d="M-32.0 -8.0 L-32.0 -9.1 -32.0 -8.0" fill="#000000" fill-opacity="0.2509804" fill-rule="evenodd" stroke="none"/>
    <path d="M-32.0 -43.8 L-32.0 -59.15 -16.0 -74.5 16.0 -74.5 32.0 -59.15 32.0 -40.55 16.0 -29.25 -16.0 -29.25 -32.0 -43.8" fill="#ffffff" fill-rule="evenodd" stroke="none"/>
    <path d="M-32.0 -43.8 L-16.0 -29.25 -16.0 32.0 -32.0 17.5 -32.0 -8.0 -32.0 -9.1 -32.0 -43.8" fill="#a4a4a4" fill-rule="evenodd" stroke="none"/>
    <path d="M-16.0 -29.25 L16.0 -29.25 16.0 32.0 -16.0 32.0 -16.0 -29.25" fill="#888888" fill-rule="evenodd" stroke="none"/>
    <path d="M16.0 -29.25 L32.0 -40.55 32.0 20.7 16.0 32.0 16.0 -29.25" fill="#bbbbbb" fill-rule="evenodd" stroke="none"/>
    <path d="M16.0 -74.5 L-16.0 -74.5 -32.0 -59.15 -32.0 17.5 -16.0 32.0 16.0 32.0 32.0 20.7 32.0 -59.15 16.0 -74.5 Z" ffdec:has-small-stroke="true" ffdec:original-stroke-width="0.25" fill="none" stroke="#000000" stroke-linecap="round" stroke-linejoin="miter-clip" stroke-miterlimit="1.0" stroke-width="1.0"/>
  </g>
</svg>
