<?xml version="1.0" encoding="UTF-8" standalone="no"?>
<svg xmlns:ffdec="https://www.free-decompiler.com/flash" xmlns:xlink="http://www.w3.org/1999/xlink" ffdec:objectType="shape" height="24.4px" width="69.1px" xmlns="http://www.w3.org/2000/svg">
  <g transform="matrix(1.0, 0.0, 0.0, 1.0, 31.4, 14.55)">
    <path d="M3.65 5.1 L-0.05 5.55 -0.2 5.55 Q-5.25 5.0 -5.45 1.2 -5.75 -2.4 -5.2 -2.9 -5.0 -3.25 -4.6 -3.3 L-3.85 -3.15 -3.4 -2.55 Q-3.35 -2.15 -3.55 -1.8 L-3.45 1.05 Q-3.15 3.2 0.0 3.55 4.3 3.35 8.7 1.15 13.3 -1.15 16.2 -3.45 L27.0 -12.7 Q29.9 -15.15 32.0 -14.35 34.0 -13.65 35.45 -11.2 L35.45 -11.15 Q36.7 -8.9 37.25 -6.95 37.85 -4.65 37.65 -4.4 L37.15 -3.85 36.4 -3.8 35.8 -4.3 Q35.6 -4.7 35.75 -5.05 L35.6 -5.35 34.4 -6.6 32.25 -8.2 30.65 -8.7 Q28.85 -8.5 25.85 -6.45 22.95 -4.55 19.0 -1.0 L15.75 1.05 Q12.5 2.8 9.05 3.75 L5.15 4.75 3.65 5.1 M4.6 6.1 L16.7 4.95 Q21.65 3.8 26.65 0.9 L30.95 -2.35 32.6 -5.15 31.5 -1.1 31.5 -1.05 25.2 4.2 Q21.45 6.7 18.05 6.9 L4.6 6.1 M-30.6 -7.25 L-30.75 -7.15 -29.55 -9.95 -28.85 -11.0 -29.0 -11.0 -29.7 -11.3 -30.0 -12.0 Q-30.3 -12.65 -27.4 -13.8 L-27.35 -13.85 Q-24.8 -14.75 -22.95 -13.4 -21.4 -12.35 -20.05 -10.45 -18.7 -8.5 -17.05 -5.1 L-17.05 -5.15 -14.6 -0.25 -14.65 -0.35 Q-13.45 1.5 -12.25 1.85 L-12.4 1.55 -12.45 1.45 Q-13.2 -0.8 -12.85 -2.35 -12.5 -4.6 -12.0 -4.55 L-11.2 -4.6 Q-10.85 -4.45 -10.65 -4.1 -10.45 -3.7 -10.6 -3.3 L-11.1 -2.75 Q-10.8 -2.75 -10.9 -2.0 -11.1 -0.9 -10.55 0.8 -9.85 2.35 -9.05 3.1 L-9.1 3.05 Q-8.6 3.45 -8.75 3.6 -8.35 3.6 -8.05 3.9 -7.75 4.2 -7.75 4.6 -7.75 5.0 -8.05 5.3 -8.35 5.6 -8.75 5.6 L-10.4 4.6 -10.4 4.55 -10.85 4.05 -12.7 3.8 -13.1 3.7 Q-14.3 3.3 -15.4 1.95 L-15.8 1.75 Q-18.6 0.3 -20.25 -1.8 L-22.3 -5.3 -22.5 -5.65 Q-23.55 -7.4 -25.65 -8.15 L-29.35 -8.0 -30.6 -7.25 M-31.4 -3.5 L-31.2 -5.2 Q-28.45 -1.9 -24.9 -0.05 L-13.1 3.7 Q-18.6 4.5 -24.45 2.35 -29.3 -0.1 -31.4 -3.5 M-28.0 -11.8 L-27.95 -11.85 -28.0 -12.0 -28.0 -11.8" fill="#47290f" fill-rule="evenodd" stroke="none"/>
    <path d="M31.8 0.1 L31.75 0.35 Q30.45 3.6 28.15 5.3 L26.25 6.65 25.45 7.1 24.6 7.55 22.6 8.4 21.75 8.7 21.15 8.85 Q19.3 8.15 18.1 6.9 L18.05 6.9 Q21.45 6.7 25.2 4.2 L31.5 -1.05 31.8 0.1 M-13.1 3.7 L-14.3 4.7 -14.4 4.8 -14.5 4.85 -14.55 4.9 -16.4 5.65 -18.85 5.9 -21.4 5.45 -22.3 5.2 Q-23.8 4.0 -24.45 2.35 -18.6 4.5 -13.1 3.7" fill="#000000" fill-rule="evenodd" stroke="none"/>
    <path d="M32.6 -5.15 Q32.65 -2.45 31.8 0.1 L31.5 -1.05 31.5 -1.1 32.6 -5.15 M21.75 8.7 L17.5 9.65 Q13.15 10.2 9.8 9.15 6.5 7.95 4.75 6.25 L4.6 6.1 18.05 6.9 18.1 6.9 Q19.3 8.15 21.15 8.85 L21.75 8.7 M-22.3 5.2 L-25.4 4.1 Q-28.8 2.65 -30.0 0.6 -31.05 -1.25 -31.35 -2.75 L-31.4 -3.5 Q-29.3 -0.1 -24.45 2.35 -23.8 4.0 -22.3 5.2 M-28.0 -11.8 L-28.0 -12.0 -27.95 -11.85 -28.0 -11.8" fill="#ffffff" fill-rule="evenodd" stroke="none"/>
    <path d="M3.65 5.1 L5.15 4.75 9.05 3.75 Q12.5 2.8 15.75 1.05 L19.0 -1.0 Q22.95 -4.55 25.85 -6.45 28.85 -8.5 30.65 -8.7 L32.25 -8.2 32.3 -8.0 32.6 -5.15 30.95 -2.35 26.65 0.9 Q21.65 3.8 16.7 4.95 L4.6 6.1 3.65 5.1 M-30.6 -7.25 L-29.35 -8.0 -25.65 -8.15 Q-23.55 -7.4 -22.5 -5.65 L-22.3 -5.3 -20.25 -1.8 Q-18.6 0.3 -15.8 1.75 L-15.4 1.95 Q-14.3 3.3 -13.1 3.7 L-24.9 -0.05 Q-28.45 -1.9 -31.2 -5.2 L-30.85 -6.65 -30.6 -7.25" fill="#d79358" fill-rule="evenodd" stroke="none"/>
  </g>
</svg>
