<?xml version="1.0" encoding="UTF-8" standalone="no"?>
<svg xmlns:ffdec="https://www.free-decompiler.com/flash" xmlns:xlink="http://www.w3.org/1999/xlink" ffdec:objectType="shape" height="125.45px" width="65.65px" xmlns="http://www.w3.org/2000/svg">
  <g transform="matrix(1.0, 0.0, 0.0, 1.0, 34.25, 95.45)">
    <path d="M-33.7 -62.5 L-29.35 -66.15 -29.85 5.25 -26.7 18.75 -9.65 29.85 -28.9 25.85 -34.25 20.05 -33.7 -62.5" fill="#000000" fill-opacity="0.2509804" fill-rule="evenodd" stroke="none"/>
    <path d="M-29.85 5.25 L-29.25 -77.25 -18.2 -92.25 10.2 -95.35 27.55 -83.45 31.3 -67.2 30.75 15.3 27.0 -0.95 9.65 -12.85 -18.75 -9.75 -29.85 5.25" fill="#ffffff" fill-rule="evenodd" stroke="none"/>
    <path d="M29.1 16.95 L29.05 20.9 19.05 26.6 29.1 16.95" fill="#000000" fill-opacity="0.2509804" fill-rule="evenodd" stroke="none"/>
    <path d="M-29.85 5.25 L-18.75 -9.75 9.65 -12.85 27.0 -0.95 30.75 15.3 29.1 16.95 19.05 26.6 18.85 26.8 -9.55 29.9 -9.65 29.85 -26.7 18.75 -29.85 5.25" fill="#868686" fill-rule="evenodd" stroke="none"/>
    <path d="M10.2 -95.35 L-18.2 -92.25 -29.25 -77.25 -29.85 5.25 -26.7 18.75 -9.65 29.85 -9.55 29.9 18.85 26.8 30.75 15.3 31.3 -67.2 27.55 -83.45 10.2 -95.35 Z" ffdec:has-small-stroke="true" ffdec:original-stroke-width="0.25" fill="none" stroke="#000000" stroke-linecap="round" stroke-linejoin="miter-clip" stroke-miterlimit="1.0" stroke-width="1.0"/>
  </g>
</svg>
