<?xml version="1.0" encoding="UTF-8" standalone="no"?>
<svg xmlns:ffdec="https://www.free-decompiler.com/flash" xmlns:xlink="http://www.w3.org/1999/xlink" ffdec:objectType="shape" height="120.7px" width="64.2px" xmlns="http://www.w3.org/2000/svg">
  <g transform="matrix(1.0, 0.0, 0.0, 1.0, 32.1, 0.1)">
    <path d="M32.0 33.95 L16.0 45.25 -16.0 45.25 -32.0 30.7 -32.0 15.35 -16.0 0.0 16.0 0.0 32.0 15.35 32.0 33.95" fill="#ffffff" fill-rule="evenodd" stroke="none"/>
    <path d="M16.0 45.25 L32.0 33.95 32.0 119.5 16.0 119.5 16.0 45.25" fill="#bbbbbb" fill-rule="evenodd" stroke="none"/>
    <path d="M-16.0 45.25 L16.0 45.25 16.0 119.5 -16.0 119.5 -16.0 45.25" fill="#888888" fill-rule="evenodd" stroke="none"/>
    <path d="M-32.0 30.7 L-16.0 45.25 -16.0 119.5 -32.0 119.5 -32.0 30.7" fill="#a4a4a4" fill-rule="evenodd" stroke="none"/>
    <path d="M-32.0 120.5 L-32.0 15.35 -16.0 0.0 16.0 0.0 32.0 15.35 32.0 120.5" ffdec:has-small-stroke="true" ffdec:original-stroke-width="0.25" fill="none" stroke="#000000" stroke-linecap="round" stroke-linejoin="miter-clip" stroke-miterlimit="1.0" stroke-width="1.0"/>
  </g>
</svg>
