<?xml version="1.0" encoding="UTF-8" standalone="no"?>
<svg xmlns:ffdec="https://www.free-decompiler.com/flash" xmlns:xlink="http://www.w3.org/1999/xlink" ffdec:objectType="shape" height="480.0px" width="640.0px" xmlns="http://www.w3.org/2000/svg">
  <g transform="matrix(1.0, 0.0, 0.0, 1.0, 0.0, 0.0)">
    <path d="M575.0 385.35 Q561.95 397.95 546.25 409.7 452.55 480.0 320.0 480.0 187.45 480.0 93.7 409.7 74.35 395.2 59.0 379.45 0.0 318.9 0.0 240.0 0.0 140.6 93.7 70.3 100.15 65.45 106.8 60.95 118.15 53.25 130.0 46.55 212.15 0.0 320.0 0.0 402.55 0.0 470.0 27.25 510.9 43.75 546.25 70.3 640.0 140.6 640.0 240.0 640.0 322.75 575.0 385.35 L470.0 27.25 59.0 379.45 575.0 385.35" fill="#0000ff" fill-rule="evenodd" stroke="none"/>
    <path d="M575.0 385.35 Q561.95 397.95 546.25 409.7 452.55 480.0 320.0 480.0 187.45 480.0 93.7 409.7 74.35 395.2 59.0 379.45 0.0 318.9 0.0 240.0 0.0 140.6 93.7 70.3 100.15 65.45 106.8 60.95 118.15 53.25 130.0 46.55 212.15 0.0 320.0 0.0 402.55 0.0 470.0 27.25 510.9 43.75 546.25 70.3 640.0 140.6 640.0 240.0 640.0 322.75 575.0 385.35 Z" ffdec:has-small-stroke="true" ffdec:original-stroke-width="0.05" fill="none" stroke="#ff0000" stroke-linecap="round" stroke-linejoin="round" stroke-width="1.0"/>
  </g>
</svg>
