<?xml version="1.0" encoding="UTF-8" standalone="no"?>
<svg xmlns:ffdec="https://www.free-decompiler.com/flash" xmlns:xlink="http://www.w3.org/1999/xlink" ffdec:objectType="shape" height="70.0px" width="80.0px" xmlns="http://www.w3.org/2000/svg">
  <g transform="matrix(1.0, 0.0, 0.0, 1.0, 0.0, 0.0)">
    <path d="M80.0 35.0 Q80.0 49.5 68.25 59.75 56.55 70.0 40.0 70.0 23.45 70.0 11.7 59.75 0.0 49.5 0.0 35.0 0.0 20.5 11.7 10.25 23.45 0.0 40.0 0.0 56.55 0.0 68.25 10.25 80.0 20.5 80.0 35.0" fill="#ff0000" fill-rule="evenodd" stroke="none"/>
    <path d="M80.0 35.0 Q80.0 49.5 68.25 59.75 56.55 70.0 40.0 70.0 23.45 70.0 11.7 59.75 0.0 49.5 0.0 35.0 0.0 20.5 11.7 10.25 23.45 0.0 40.0 0.0 56.55 0.0 68.25 10.25 80.0 20.5 80.0 35.0 Z" ffdec:has-small-stroke="true" ffdec:original-stroke-width="0.05" fill="none" stroke="#ff0000" stroke-linecap="round" stroke-linejoin="round" stroke-width="1.0"/>
  </g>
</svg>
