<?xml version="1.0" encoding="UTF-8" standalone="no"?>
<svg xmlns:ffdec="https://www.free-decompiler.com/flash" xmlns:xlink="http://www.w3.org/1999/xlink" ffdec:objectType="shape" height="32.05px" width="113.55px" xmlns="http://www.w3.org/2000/svg">
  <g transform="matrix(1.0, 0.0, 0.0, 1.0, 55.95, -225.25)">
    <path d="M57.5 228.8 L57.6 230.6 57.55 231.8 57.45 232.6 57.3 233.0 57.05 233.15 56.45 232.7 55.3 231.75 Q54.6 231.25 53.65 230.85 L51.35 230.4 Q49.95 230.4 48.85 231.2 47.75 231.95 46.95 233.4 46.15 234.8 45.7 236.8 45.3 238.8 45.3 241.2 45.3 243.9 45.75 245.9 46.15 247.9 46.95 249.3 47.7 250.65 48.85 251.35 49.9 252.05 51.25 252.05 L52.5 251.8 53.7 251.1 53.7 243.9 50.1 243.9 Q49.85 243.9 49.7 243.4 49.55 242.85 49.55 241.55 L49.6 240.4 49.7 239.7 49.85 239.3 Q49.95 239.15 50.1 239.15 L56.5 239.15 56.95 239.3 57.25 239.65 57.45 240.3 57.55 241.15 57.55 253.45 57.4 254.75 56.75 255.6 55.6 256.2 54.1 256.8 52.6 257.15 51.05 257.3 Q48.75 257.3 46.95 256.2 45.15 255.15 43.9 253.15 42.65 251.1 42.0 248.2 41.3 245.3 41.3 241.6 41.3 237.8 42.05 234.8 42.75 231.75 44.05 229.65 45.3 227.5 47.15 226.4 49.0 225.25 51.25 225.25 L53.5 225.55 Q54.5 225.8 55.25 226.2 L56.5 227.05 57.2 227.85 57.5 228.8 M14.55 226.2 L14.85 225.9 15.45 225.7 16.35 225.65 17.3 225.7 17.9 225.9 18.2 226.2 18.3 226.65 18.3 255.9 18.2 256.3 17.9 256.65 17.3 256.8 16.35 256.9 15.45 256.8 14.85 256.65 14.55 256.3 14.4 255.9 14.4 226.65 Q14.4 226.4 14.55 226.2 M1.25 230.7 L-0.7 230.7 -0.7 251.75 1.3 251.75 Q2.9 251.75 3.95 251.1 5.05 250.45 5.8 249.1 6.5 247.75 6.9 245.7 7.25 243.7 7.25 241.05 L6.95 236.95 Q6.6 235.05 5.9 233.65 5.2 232.25 4.1 231.5 3.0 230.7 1.25 230.7 M8.75 229.65 Q9.95 231.55 10.6 234.35 11.25 237.15 11.25 240.8 11.25 245.05 10.55 248.1 9.85 251.15 8.6 253.05 7.3 254.95 5.5 255.85 3.65 256.75 1.1 256.75 L-3.45 256.75 Q-3.9 256.75 -4.25 256.3 -4.6 255.8 -4.6 254.75 L-4.6 227.8 Q-4.6 226.7 -4.25 226.25 -3.9 225.8 -3.45 225.8 L1.45 225.8 Q4.0 225.8 5.8 226.75 7.55 227.75 8.75 229.65 M38.15 226.7 L38.15 254.55 38.05 255.55 37.75 256.25 37.25 256.7 36.7 256.8 35.05 256.8 34.2 256.65 33.5 256.05 32.85 254.85 32.2 252.85 27.45 238.4 26.65 235.6 25.85 232.7 25.95 236.15 25.95 239.65 25.95 255.85 25.9 256.3 25.6 256.65 25.05 256.8 24.2 256.9 23.35 256.8 22.8 256.65 22.55 256.3 22.45 255.85 22.45 228.05 Q22.45 226.9 22.9 226.35 23.3 225.8 23.85 225.8 L25.95 225.8 26.9 225.95 27.6 226.45 28.15 227.45 28.7 229.0 32.4 240.35 33.05 242.35 33.65 244.35 34.2 246.3 34.75 248.2 34.7 244.7 34.7 241.25 34.7 226.7 34.75 226.3 35.05 225.95 Q35.25 225.8 35.6 225.75 L36.5 225.7 37.3 225.75 37.85 225.95 38.1 226.3 38.15 226.7 M-26.6 233.95 Q-26.05 236.9 -26.05 240.9 -26.05 244.75 -26.65 247.8 -27.25 250.85 -28.4 252.95 -29.55 255.1 -31.25 256.2 -33.0 257.3 -35.25 257.3 -37.45 257.3 -39.1 256.35 -40.75 255.4 -41.85 253.45 -42.95 251.55 -43.5 248.55 -44.05 245.55 -44.05 241.45 -44.05 237.7 -43.5 234.7 -42.9 231.7 -41.75 229.6 -40.55 227.5 -38.85 226.35 -37.15 225.25 -34.9 225.25 -32.7 225.25 -31.05 226.15 -29.4 227.1 -28.3 229.05 -27.2 231.0 -26.6 233.95 M-32.65 231.2 Q-33.6 230.4 -35.0 230.4 -36.45 230.4 -37.4 231.3 -38.35 232.15 -38.95 233.6 -39.55 235.05 -39.75 237.05 L-40.0 241.15 -39.8 245.7 -39.0 249.15 Q-38.45 250.6 -37.5 251.35 -36.55 252.1 -35.1 252.1 -33.7 252.1 -32.75 251.25 -31.8 250.4 -31.2 248.9 -30.6 247.4 -30.35 245.45 -30.1 243.45 -30.1 241.25 -30.1 238.8 -30.35 236.8 -30.6 234.8 -31.15 233.4 -31.7 231.95 -32.65 231.2 M-13.3 226.25 L-13.1 226.95 -7.25 254.4 -7.0 255.75 Q-6.95 256.25 -7.15 256.55 L-7.7 256.85 -8.85 256.9 -10.0 256.85 -10.65 256.75 -10.95 256.4 -11.1 255.9 -12.4 249.7 -19.55 249.7 -20.75 255.75 -20.9 256.3 -21.2 256.7 -21.8 256.85 -22.85 256.9 -23.9 256.8 -24.4 256.5 -24.5 255.7 -24.3 254.35 -18.45 226.9 -18.2 226.25 -17.85 225.85 -17.15 225.7 -15.95 225.65 -14.55 225.7 -13.75 225.85 -13.3 226.25 M-16.0 231.7 L-18.7 244.85 -13.3 244.85 -15.95 231.7 -16.0 231.7 M-52.05 226.65 L-52.05 251.55 -46.05 251.55 Q-45.9 251.55 -45.8 251.7 L-45.6 252.15 -45.5 252.9 -45.45 254.1 -45.5 255.35 -45.6 256.15 -45.8 256.6 Q-45.9 256.75 -46.05 256.75 L-54.8 256.75 Q-55.25 256.75 -55.6 256.3 -55.95 255.8 -55.95 254.75 L-55.95 226.65 -55.8 226.2 -55.5 225.9 -54.9 225.7 -54.0 225.65 -53.05 225.7 -52.45 225.9 -52.15 226.2 -52.05 226.65" fill="#ff0000" fill-rule="evenodd" stroke="none"/>
  </g>
</svg>
