<?xml version="1.0" encoding="UTF-8" standalone="no"?>
<svg xmlns:ffdec="https://www.free-decompiler.com/flash" xmlns:xlink="http://www.w3.org/1999/xlink" ffdec:objectType="shape" height="76.0px" width="207.95px" xmlns="http://www.w3.org/2000/svg">
  <g transform="matrix(1.0, 0.0, 0.0, 1.0, 104.0, -48.65)">
    <path d="M15.35 116.25 L20.0 109.35 26.85 114.0 22.25 120.9 15.35 116.25" fill="#f19900" fill-rule="evenodd" stroke="none"/>
    <path d="M-75.2 90.9 Q-73.75 90.5 -73.65 89.05 -73.55 87.65 -75.1 86.65 -76.0 86.1 -76.85 86.35 L-77.95 87.0 -78.4 88.2 Q-78.45 89.6 -76.95 90.55 -76.05 91.1 -75.2 90.9 M-80.75 49.75 Q-78.0 50.45 -75.4 52.95 -70.8 57.05 -69.55 63.7 L-69.25 66.8 -79.1 67.55 Q-79.0 66.5 -79.05 65.45 -79.6 61.95 -81.8 60.15 -83.25 58.85 -85.8 58.6 -88.4 58.35 -90.3 59.6 -93.4 62.05 -93.65 64.65 -93.9 67.2 -92.15 69.8 L-91.25 70.9 -88.6 69.0 -90.9 65.8 -85.2 64.0 -78.3 73.6 -90.95 82.7 Q-94.35 81.15 -97.05 78.45 -107.95 66.75 -100.5 55.9 -95.7 49.0 -86.55 49.15 L-80.75 49.75 M-58.7 85.3 L-57.9 83.5 -49.6 86.5 -51.05 89.75 Q-49.9 88.8 -48.5 88.4 -45.2 87.65 -42.35 89.5 -40.95 90.4 -40.6 91.4 -40.3 92.35 -40.2 94.0 L-40.2 94.9 -39.45 94.4 Q-35.35 92.3 -31.65 94.2 -26.15 96.1 -29.95 105.95 L-30.6 107.3 -36.0 119.4 -44.7 116.1 -38.9 103.2 -38.65 102.45 Q-37.85 100.7 -39.65 100.15 -41.1 99.55 -42.2 101.65 L-42.65 102.4 -47.85 113.95 -56.25 110.95 -50.25 97.55 Q-49.45 96.0 -50.3 95.35 -51.9 94.15 -53.15 96.8 L-53.5 97.45 -53.55 97.45 -58.75 109.15 -67.85 105.8 -61.05 90.5 -71.05 102.45 -78.05 96.55 -76.05 94.2 -76.9 94.3 Q-82.3 94.6 -85.05 90.9 -88.35 86.25 -85.9 81.75 -82.7 76.15 -77.2 77.2 -72.5 78.1 -70.3 83.95 L-69.95 85.0 -69.05 83.9 -68.85 83.7 Q-68.4 83.1 -68.35 82.3 -67.8 80.1 -71.1 77.6 L-72.6 76.6 -75.5 74.85 -76.55 74.35 -71.15 70.45 Q-70.2 70.95 -69.35 71.55 -57.75 78.8 -58.7 85.3 M-21.3 108.55 L-15.35 105.45 Q-15.9 104.55 -16.9 104.2 -21.05 103.2 -21.4 107.7 L-21.3 108.55 M5.2 98.1 L10.75 98.55 11.8 98.8 11.0 106.1 9.2 105.9 7.65 105.85 5.95 105.95 5.55 105.95 Q4.0 106.25 4.0 106.95 L4.0 107.2 Q3.9 107.95 4.7 108.15 L5.1 108.3 6.15 108.6 Q10.0 109.65 11.6 111.0 13.25 112.35 13.55 114.8 14.15 118.45 11.35 121.05 8.6 123.6 2.55 124.1 L-2.95 123.85 -5.55 123.5 -4.9 115.9 -1.85 116.35 1.15 116.2 Q2.65 115.75 2.85 115.15 3.15 114.4 2.85 114.2 L2.75 114.15 2.6 114.0 1.65 113.7 0.7 113.4 Q-5.6 111.95 -6.25 107.8 L-18.4 114.15 -17.25 114.7 -13.0 114.95 -10.6 114.15 -9.95 113.85 -6.95 121.1 Q-10.6 123.2 -15.95 123.15 -21.35 122.9 -25.25 119.8 -31.9 114.1 -29.65 106.15 -26.55 97.35 -17.5 97.3 -10.0 97.7 -6.3 105.45 -6.15 101.85 -1.8 99.6 0.35 98.35 5.2 98.1" fill="#f19900" fill-rule="evenodd" stroke="none"/>
    <path d="M-31.65 94.2 Q-35.35 92.3 -39.45 94.4 L-40.2 94.9 -40.2 94.0 Q-40.3 92.35 -40.6 91.4 -40.95 90.4 -42.35 89.5 -45.2 87.65 -48.5 88.4 -49.9 88.8 -51.05 89.75 L-49.6 86.5 -57.9 83.5 -58.7 85.3 Q-57.75 78.8 -69.35 71.55 -70.2 70.95 -71.15 70.45 L-76.55 74.35 -75.5 74.85 -72.6 76.6 -71.1 77.6 Q-67.8 80.1 -68.35 82.3 -68.4 83.1 -68.85 83.7 L-69.05 83.9 -69.95 85.0 -70.3 83.95 Q-72.5 78.1 -77.2 77.2 -82.7 76.15 -85.9 81.75 -88.35 86.25 -85.05 90.9 -82.3 94.6 -76.9 94.3 L-76.05 94.2 -78.05 96.55 -71.05 102.45 -61.05 90.5 -67.85 105.8 -58.75 109.15 -53.55 97.45 -53.5 97.45 -53.15 96.8 Q-51.9 94.15 -50.3 95.35 -49.45 96.0 -50.25 97.55 L-56.25 110.95 -47.85 113.95 -42.65 102.4 -42.2 101.65 Q-41.1 99.55 -39.65 100.15 -37.85 100.7 -38.65 102.45 L-38.9 103.2 M-80.75 49.75 L-86.55 49.15 Q-95.7 49.0 -100.5 55.9 -107.95 66.75 -97.05 78.45 -94.35 81.15 -90.95 82.7 L-78.3 73.6 -85.2 64.0 -90.9 65.8 -88.6 69.0 -91.25 70.9 -92.15 69.8 Q-93.9 67.2 -93.65 64.65 -93.4 62.05 -90.3 59.6 -88.4 58.35 -85.8 58.6 -83.25 58.85 -81.8 60.15 -79.6 61.95 -79.05 65.45 -79.0 66.5 -79.1 67.55 L-69.25 66.8 -69.55 63.7 Q-70.8 57.05 -75.4 52.95 -78.0 50.45 -80.75 49.75 Z" fill="none" stroke="#000000" stroke-linecap="round" stroke-linejoin="round" stroke-width="1.0"/>
    <path d="M9.2 105.9 L11.0 106.1 11.8 98.8 10.75 98.55 5.2 98.1 Q0.35 98.35 -1.8 99.6 -6.15 101.85 -6.3 105.45 -10.0 97.7 -17.5 97.3 -26.55 97.35 -29.65 106.15 -31.9 114.1 -25.25 119.8 -21.35 122.9 -15.95 123.15 -10.6 123.2 -6.95 121.1 L-9.95 113.85 -10.6 114.15 -13.0 114.95 -17.25 114.7 -18.4 114.15 -6.25 107.8 Q-5.6 111.95 0.7 113.4 L1.65 113.7 2.6 114.0 2.75 114.15 2.85 114.2 Q3.15 114.4 2.85 115.15 2.65 115.75 1.15 116.2 L-1.85 116.35 -4.9 115.9 -5.55 123.5 -2.95 123.85 2.55 124.1 Q8.6 123.6 11.35 121.05 14.15 118.45 13.55 114.8 13.25 112.35 11.6 111.0 10.0 109.65 6.15 108.6 L5.1 108.3 4.7 108.15 Q3.9 107.95 4.0 107.2 L4.0 106.95 Q4.0 106.25 5.55 105.95 L5.95 105.95 7.65 105.85 9.2 105.9 M-21.3 108.55 L-21.4 107.7 Q-21.05 103.2 -16.9 104.2 -15.9 104.55 -15.35 105.45 L-21.3 108.55 M-75.2 90.9 Q-76.05 91.1 -76.95 90.55 -78.45 89.6 -78.4 88.2 L-77.95 87.0 -76.85 86.35 Q-76.0 86.1 -75.1 86.65 -73.55 87.65 -73.65 89.05 -73.75 90.5 -75.2 90.9 M-38.95 103.3 L-44.7 116.1 -36.0 119.4 -30.6 107.3 -29.95 105.95 Q-26.15 96.1 -31.65 94.2" fill="none" stroke="#000000" stroke-linecap="round" stroke-linejoin="round" stroke-width="1.0"/>
    <path d="M61.05 94.85 Q62.7 93.15 61.85 91.0 60.05 87.65 57.1 88.8 L56.1 89.5 Q54.15 91.45 55.7 94.0 57.45 96.5 60.0 95.55 L61.05 94.85 M42.15 98.5 Q40.5 97.75 38.75 98.45 36.0 99.8 36.2 102.4 37.1 106.55 41.55 105.35 43.15 104.65 43.95 103.25 L51.8 108.4 50.2 110.15 Q44.0 115.7 37.4 115.1 30.75 114.5 27.4 109.0 23.05 100.7 28.9 94.05 31.95 90.6 37.75 89.35 39.8 88.95 42.9 89.35 L44.95 89.65 42.15 98.5 M71.75 93.5 Q71.3 97.8 67.8 101.2 62.55 105.8 56.9 105.1 51.25 104.35 47.55 99.3 43.65 93.5 46.5 87.1 48.0 83.65 51.55 81.4 56.6 78.25 61.5 79.3 66.4 80.3 69.55 85.0 72.2 89.2 71.75 93.5 M94.0 58.35 L103.45 67.85 97.05 74.8 86.5 64.3 Q85.15 63.0 84.5 63.85 83.5 65.0 85.05 66.7 L85.6 67.4 94.65 76.5 87.95 83.8 77.6 73.35 Q76.35 72.15 75.4 72.8 73.7 73.85 75.75 76.0 L76.2 76.55 76.2 76.6 85.35 85.75 79.15 92.65 62.15 75.45 68.1 68.6 70.45 71.0 Q70.0 69.55 70.1 68.1 70.3 65.0 72.85 63.2 75.35 61.25 78.3 62.25 L79.15 62.6 78.95 61.7 Q78.4 57.35 81.35 54.65 85.25 49.95 92.95 57.3 L94.0 58.35" fill="#f19900" fill-rule="evenodd" stroke="none"/>
    <path d="M92.95 57.3 Q85.25 49.95 81.35 54.65 78.4 57.35 78.95 61.7 L79.15 62.6 78.3 62.25 Q75.35 61.25 72.85 63.2 70.3 65.0 70.1 68.1 70.0 69.55 70.45 71.0 L68.1 68.6 62.15 75.45 79.15 92.65 85.35 85.75 76.2 76.6 76.2 76.55 75.75 76.0 Q73.7 73.85 75.4 72.8 76.35 72.15 77.6 73.35 L87.95 83.8 94.65 76.5 85.6 67.4 85.05 66.7 Q83.5 65.0 84.5 63.85 85.15 63.0 86.5 64.3 L97.05 74.8 103.45 67.85 94.0 58.35 92.95 57.3 M71.75 93.5 Q72.2 89.2 69.55 85.0 66.4 80.3 61.5 79.3 56.6 78.25 51.55 81.4 48.0 83.65 46.5 87.1 43.65 93.5 47.55 99.3 51.25 104.35 56.9 105.1 62.55 105.8 67.8 101.2 71.3 97.8 71.75 93.5 M42.15 98.5 L44.95 89.65 42.9 89.35 Q39.8 88.95 37.75 89.35 31.95 90.6 28.9 94.05 23.05 100.7 27.4 109.0 30.75 114.5 37.4 115.1 44.0 115.7 50.2 110.15 L51.8 108.4 43.95 103.25 Q43.15 104.65 41.55 105.35 37.1 106.55 36.2 102.4 36.0 99.8 38.75 98.45 40.5 97.75 42.15 98.5 M61.05 94.85 L60.0 95.55 Q57.45 96.5 55.7 94.0 54.15 91.45 56.1 89.5 L57.1 88.8 Q60.05 87.65 61.85 91.0 62.7 93.15 61.05 94.85 Z" fill="none" stroke="#000000" stroke-linecap="round" stroke-linejoin="round" stroke-width="1.0"/>
  </g>
</svg>
