<?xml version="1.0" encoding="UTF-8" standalone="no"?>
<svg xmlns:ffdec="https://www.free-decompiler.com/flash" xmlns:xlink="http://www.w3.org/1999/xlink" ffdec:objectType="shape" height="63.7px" width="191.85px" xmlns="http://www.w3.org/2000/svg">
  <g transform="matrix(1.0, 0.0, 0.0, 1.0, 0.0, 0.0)">
    <path d="M20.4 28.0 L20.75 28.05 Q25.45 28.95 27.65 34.8 L27.7 34.95 20.4 28.0 M9.4 15.9 L12.75 14.85 19.65 24.45 18.05 25.6 Q13.45 20.8 9.4 15.9 M22.55 3.8 Q27.15 7.9 28.4 14.55 L28.7 17.65 18.85 18.4 18.9 16.3 Q18.35 12.8 16.15 11.0 14.7 9.7 12.15 9.45 9.55 9.2 7.7 10.45 6.75 11.15 6.1 11.85 L0.0 3.8 Q4.45 -0.05 11.4 0.0 L17.25 0.6 Q19.95 1.3 22.55 3.8 M47.55 48.75 L47.75 48.4 Q48.5 46.85 47.65 46.2 46.05 44.95 44.8 47.65 L44.65 47.95 Q40.45 45.3 36.5 42.25 L36.9 41.35 36.3 42.1 Q32.15 38.9 28.3 35.5 L28.9 34.75 29.1 34.55 Q29.55 33.95 29.6 33.15 30.15 30.95 26.85 28.45 L25.35 27.45 22.45 25.65 21.45 25.2 26.8 21.3 28.65 22.4 Q40.2 29.65 39.25 36.15 L40.05 34.35 48.35 37.35 46.9 40.6 Q48.1 39.65 49.45 39.25 52.75 38.5 55.6 40.35 57.0 41.25 57.35 42.25 57.65 43.2 57.75 44.85 L57.75 45.7 58.5 45.25 Q62.6 43.15 66.3 45.05 71.8 46.95 68.0 56.8 L67.4 58.15 67.0 59.0 Q62.6 57.5 58.4 55.55 L59.3 53.3 Q60.1 51.6 58.3 50.95 56.85 50.4 55.75 52.5 L55.3 53.2 55.05 53.85 55.0 53.95 47.2 49.6 47.55 48.75 M82.6 56.3 Q82.05 55.4 81.05 55.05 76.9 54.05 76.55 58.55 L76.65 59.4 82.6 56.3 M103.15 48.95 L108.7 49.4 109.75 49.65 108.95 56.95 107.15 56.75 105.6 56.7 103.95 56.8 103.5 56.8 Q101.95 57.1 101.95 57.8 L101.95 58.05 Q101.85 58.8 102.65 59.0 L103.05 59.15 104.1 59.45 Q108.55 60.65 110.05 62.3 L96.7 63.7 Q92.3 62.15 91.7 58.65 L83.45 62.95 Q75.35 61.85 67.8 59.3 L68.3 56.95 Q71.45 48.2 80.45 48.15 87.95 48.55 91.65 56.3 91.85 52.7 96.15 50.45 98.3 49.2 103.15 48.95 M144.45 37.95 Q145.95 34.5 149.5 32.25 154.05 29.4 158.55 30.0 163.05 30.6 166.25 34.25 162.5 37.3 158.55 40.2 157.0 38.85 155.05 39.65 154.45 39.9 154.05 40.35 152.45 41.9 153.2 43.95 L144.9 49.15 Q141.85 43.8 144.45 37.95 M135.7 40.2 Q137.75 39.8 140.85 40.2 L142.9 40.5 140.1 49.35 Q138.45 48.6 136.7 49.3 133.95 50.65 134.15 53.25 134.2 53.95 134.5 54.5 129.7 56.7 124.7 58.45 121.55 50.95 126.85 44.9 129.9 41.45 135.7 40.2 M185.5 16.15 L184.45 15.15 Q183.1 13.85 182.45 14.7 181.45 15.85 183.0 17.55 L183.5 18.2 176.5 25.2 176.1 24.75 175.8 24.5 175.55 24.2 Q174.25 23.0 173.35 23.65 171.65 24.7 173.7 26.85 L174.15 27.35 167.2 33.45 160.1 26.3 166.05 19.45 168.4 21.85 Q167.95 20.4 168.05 18.95 168.25 15.85 170.75 14.05 173.3 12.1 176.25 13.1 L177.1 13.45 176.9 12.55 Q176.35 8.2 179.3 5.5 183.2 0.8 190.9 8.15 L191.85 9.1 185.5 16.15" fill="#ffffff" fill-rule="evenodd" stroke="none"/>
  </g>
</svg>
