<?xml version="1.0" encoding="UTF-8" standalone="no"?>
<svg xmlns:ffdec="https://www.free-decompiler.com/flash" xmlns:xlink="http://www.w3.org/1999/xlink" ffdec:objectType="shape" height="93.75px" width="230.8px" xmlns="http://www.w3.org/2000/svg">
  <g transform="matrix(1.0, 0.0, 0.0, 1.0, 115.35, 124.65)">
    <path d="M-87.55 -36.75 Q-91.6 -32.65 -97.1 -31.6 -102.6 -30.6 -108.4 -35.0 -117.25 -42.55 -114.0 -53.25 -113.1 -56.55 -111.7 -58.6 L-110.7 -60.2 -100.95 -56.1 -102.7 -54.75 Q-103.95 -53.65 -104.6 -52.25 -106.6 -47.05 -101.95 -43.55 -101.2 -42.9 -98.45 -42.7 -95.7 -42.5 -93.4 -45.25 -91.25 -48.35 -91.35 -51.3 L-83.2 -45.9 -84.2 -42.1 Q-85.5 -38.65 -87.55 -36.75" fill="#f19900" fill-rule="evenodd" stroke="none"/>
    <path d="M-87.55 -36.75 Q-91.6 -32.65 -97.1 -31.6 -102.6 -30.6 -108.4 -35.0 -117.25 -42.55 -114.0 -53.25 -113.1 -56.55 -111.7 -58.6 L-110.7 -60.2 -100.95 -56.1 -102.7 -54.75 Q-103.95 -53.65 -104.6 -52.25 -106.6 -47.05 -101.95 -43.55 -101.2 -42.9 -98.45 -42.7 -95.7 -42.5 -93.4 -45.25 -91.25 -48.35 -91.35 -51.3 L-83.2 -45.9 -84.2 -42.1 Q-85.5 -38.65 -87.55 -36.75 Z" fill="none" stroke="#000000" stroke-linecap="round" stroke-linejoin="round" stroke-width="1.0"/>
    <path d="M-85.6 -67.75 Q-87.95 -64.8 -85.7 -62.0 L-83.75 -60.0 -75.85 -54.2 -81.15 -45.95 -100.8 -60.45 -95.9 -68.15 -92.35 -65.55 -92.65 -66.25 Q-94.15 -69.8 -93.35 -71.75 -92.85 -73.1 -91.8 -74.15 L-91.1 -74.65 -85.15 -68.25 -85.6 -67.75" fill="#f19900" fill-rule="evenodd" stroke="none"/>
    <path d="M-85.6 -67.75 Q-87.95 -64.8 -85.7 -62.0 L-83.75 -60.0 -75.85 -54.2 -81.15 -45.95 -100.8 -60.45 -95.9 -68.15 -92.35 -65.55 -92.65 -66.25 Q-94.15 -69.8 -93.35 -71.75 -92.85 -73.1 -91.8 -74.15 L-91.1 -74.65 -85.15 -68.25 -85.6 -67.75 Z" fill="none" stroke="#000000" stroke-linecap="round" stroke-linejoin="round" stroke-width="1.0"/>
    <path d="M-58.15 -71.5 L-64.7 -65.2 -66.85 -67.45 -66.85 -66.55 Q-66.9 -63.9 -67.65 -62.45 -68.4 -60.95 -70.3 -59.85 -75.35 -57.3 -79.65 -60.4 -84.6 -64.0 -82.8 -69.1 -81.4 -73.7 -75.35 -75.25 L-74.3 -75.5 -75.3 -76.5 -75.45 -76.7 -76.8 -77.4 Q-78.95 -78.1 -81.75 -75.15 L-82.9 -73.75 -85.0 -71.0 -85.6 -70.05 -88.85 -75.85 -87.6 -77.55 Q-81.65 -85.25 -77.2 -86.0 -72.7 -86.75 -68.95 -82.8 L-58.15 -71.5 M-75.2 -67.7 Q-72.7 -66.25 -71.15 -68.2 -69.75 -70.1 -71.15 -71.85 -72.8 -73.0 -74.7 -71.55 -76.55 -69.05 -75.2 -67.7" fill="#f19900" fill-rule="evenodd" stroke="none"/>
    <path d="M-58.15 -71.5 L-64.7 -65.2 -66.85 -67.45 -66.85 -66.55 Q-66.9 -63.9 -67.65 -62.45 -68.4 -60.95 -70.3 -59.85 -75.35 -57.3 -79.65 -60.4 -84.6 -64.0 -82.8 -69.1 -81.4 -73.7 -75.35 -75.25 L-74.3 -75.5 -75.3 -76.5 -75.45 -76.7 -76.8 -77.4 Q-78.95 -78.1 -81.75 -75.15 L-82.9 -73.75 -85.0 -71.0 -85.6 -70.05 -88.85 -75.85 -87.6 -77.55 Q-81.65 -85.25 -77.2 -86.0 -72.7 -86.75 -68.95 -82.8 L-58.15 -71.5 M-75.2 -67.7 Q-72.7 -66.25 -71.15 -68.2 -69.75 -70.1 -71.15 -71.85 -72.8 -73.0 -74.7 -71.55 -76.55 -69.05 -75.2 -67.7 Z" fill="none" stroke="#000000" stroke-linecap="round" stroke-linejoin="round" stroke-width="1.0"/>
    <path d="M-58.95 -70.5 L-61.2 -87.95 -66.6 -84.5 -69.7 -92.65 -54.65 -102.35 -52.65 -85.05 -45.95 -89.35 -42.75 -81.0 -58.95 -70.5" fill="#f19900" fill-rule="evenodd" stroke="none"/>
    <path d="M-58.95 -70.5 L-61.2 -87.95 -66.6 -84.5 -69.7 -92.65 -54.65 -102.35 -52.65 -85.05 -45.95 -89.35 -42.75 -81.0 -58.95 -70.5 Z" fill="none" stroke="#000000" stroke-linecap="round" stroke-linejoin="round" stroke-width="1.0"/>
    <path d="M-54.4 -101.8 L-46.0 -106.7 -39.0 -95.7 -40.7 -108.7 -31.5 -110.45 -29.6 -78.65 -39.2 -76.75 -39.45 -85.2 -54.4 -101.8" fill="#f19900" fill-rule="evenodd" stroke="none"/>
    <path d="M-54.4 -101.8 L-46.0 -106.7 -39.0 -95.7 -40.7 -108.7 -31.5 -110.45 -29.6 -78.65 -39.2 -76.75 -39.45 -85.2 -54.4 -101.8 Z" fill="none" stroke="#000000" stroke-linecap="round" stroke-linejoin="round" stroke-width="1.0"/>
    <path d="M11.5 -124.15 L15.5 -92.85 5.65 -91.45 3.7 -107.7 -1.85 -90.8 -8.6 -107.2 -9.4 -90.9 -19.35 -91.5 -17.5 -123.0 -7.5 -123.4 -2.55 -110.8 1.55 -123.75 11.5 -124.15" fill="#f19900" fill-rule="evenodd" stroke="none"/>
    <path d="M11.5 -124.15 L15.5 -92.85 5.65 -91.45 3.7 -107.7 -1.85 -90.8 -8.6 -107.2 -9.4 -90.9 -19.35 -91.5 -17.5 -123.0 -7.5 -123.4 -2.55 -110.8 1.55 -123.75 11.5 -124.15 Z" fill="none" stroke="#000000" stroke-linecap="round" stroke-linejoin="round" stroke-width="1.0"/>
    <path d="M41.45 -97.0 Q38.4 -87.1 28.25 -87.45 21.3 -88.2 18.05 -92.9 14.8 -97.55 16.05 -103.7 17.75 -110.5 24.4 -112.7 27.95 -113.85 32.0 -112.75 37.75 -111.1 40.3 -106.8 42.8 -102.45 41.45 -97.0 M29.1 -103.85 Q26.4 -104.0 25.55 -101.2 24.9 -98.3 27.3 -97.1 L28.45 -96.8 Q30.75 -96.75 31.7 -98.75 32.95 -102.2 30.2 -103.55 L29.1 -103.85" fill="#f19900" fill-rule="evenodd" stroke="none"/>
    <path d="M41.45 -97.0 Q38.4 -87.1 28.25 -87.45 21.3 -88.2 18.05 -92.9 14.8 -97.55 16.05 -103.7 17.75 -110.5 24.4 -112.7 27.95 -113.85 32.0 -112.75 37.75 -111.1 40.3 -106.8 42.8 -102.45 41.45 -97.0 M29.1 -103.85 Q26.4 -104.0 25.55 -101.2 24.9 -98.3 27.3 -97.1 L28.45 -96.8 Q30.75 -96.75 31.7 -98.75 32.95 -102.2 30.2 -103.55 L29.1 -103.85 Z" fill="none" stroke="#000000" stroke-linecap="round" stroke-linejoin="round" stroke-width="1.0"/>
    <path d="M63.8 -89.55 L56.35 -75.8 47.85 -79.95 54.8 -92.75 55.05 -93.35 Q55.5 -95.2 54.35 -95.45 52.9 -96.0 51.55 -93.8 L45.25 -82.25 Q41.0 -84.0 36.7 -85.8 L48.35 -107.25 56.65 -103.45 54.95 -100.3 55.7 -100.75 Q58.5 -102.35 61.65 -100.75 67.95 -97.2 63.8 -89.55" fill="#f19900" fill-rule="evenodd" stroke="none"/>
    <path d="M63.8 -89.55 L56.35 -75.8 47.85 -79.95 54.8 -92.75 55.05 -93.35 Q55.5 -95.2 54.35 -95.45 52.9 -96.0 51.55 -93.8 L45.25 -82.25 Q41.0 -84.0 36.7 -85.8 L48.35 -107.25 56.65 -103.45 54.95 -100.3 55.7 -100.75 Q58.5 -102.35 61.65 -100.75 67.95 -97.2 63.8 -89.55 Z" fill="none" stroke="#000000" stroke-linecap="round" stroke-linejoin="round" stroke-width="1.0"/>
    <path d="M85.5 -94.05 L73.5 -79.95 84.3 -85.2 90.05 -78.7 79.3 -74.65 75.7 -60.1 68.25 -65.3 72.6 -78.9 64.55 -69.55 56.75 -75.45 77.7 -99.95 85.5 -94.05" fill="#f19900" fill-rule="evenodd" stroke="none"/>
    <path d="M85.5 -94.05 L73.5 -79.95 84.3 -85.2 90.05 -78.7 79.3 -74.65 75.7 -60.1 68.25 -65.3 72.6 -78.9 64.55 -69.55 56.75 -75.45 77.7 -99.95 85.5 -94.05 Z" fill="none" stroke="#000000" stroke-linecap="round" stroke-linejoin="round" stroke-width="1.0"/>
    <path d="M100.4 -53.75 L85.85 -58.3 86.25 -57.05 Q87.1 -55.3 89.1 -53.95 90.1 -53.3 91.4 -52.8 L92.05 -52.6 89.15 -45.3 Q85.05 -46.35 81.3 -50.15 77.7 -53.95 77.15 -58.7 76.45 -67.45 83.7 -71.55 92.15 -75.6 98.65 -69.3 104.1 -63.5 100.95 -54.9 L100.4 -53.75 M92.3 -63.5 Q90.2 -66.85 87.05 -64.1 L86.55 -63.5 92.5 -61.7 Q92.75 -62.65 92.3 -63.5" fill="#f19900" fill-rule="evenodd" stroke="none"/>
    <path d="M100.4 -53.75 L85.85 -58.3 86.25 -57.05 Q87.1 -55.3 89.1 -53.95 90.1 -53.3 91.4 -52.8 L92.05 -52.6 89.15 -45.3 Q85.05 -46.35 81.3 -50.15 77.7 -53.95 77.15 -58.7 76.45 -67.45 83.7 -71.55 92.15 -75.6 98.65 -69.3 104.1 -63.5 100.95 -54.9 L100.4 -53.75 M92.3 -63.5 Q90.2 -66.85 87.05 -64.1 L86.55 -63.5 92.5 -61.7 Q92.75 -62.65 92.3 -63.5 Z" fill="none" stroke="#000000" stroke-linecap="round" stroke-linejoin="round" stroke-width="1.0"/>
    <path d="M104.35 -58.85 L109.95 -50.9 99.5 -42.55 112.4 -45.8 114.95 -36.75 83.1 -32.25 80.4 -41.65 89.1 -42.55 104.35 -58.85" fill="#f19900" fill-rule="evenodd" stroke="none"/>
    <path d="M104.35 -58.85 L109.95 -50.9 99.5 -42.55 112.4 -45.8 114.95 -36.75 83.1 -32.25 80.4 -41.65 89.1 -42.55 104.35 -58.85 Z" fill="none" stroke="#000000" stroke-linecap="round" stroke-linejoin="round" stroke-width="1.0"/>
  </g>
</svg>
