<?xml version="1.0" encoding="UTF-8" standalone="no"?>
<svg xmlns:ffdec="https://www.free-decompiler.com/flash" xmlns:xlink="http://www.w3.org/1999/xlink" ffdec:objectType="shape" height="91.65px" width="229.8px" xmlns="http://www.w3.org/2000/svg">
  <g transform="matrix(1.0, 0.0, 0.0, 1.0, 0.05, 0.0)">
    <path d="M3.1 65.55 L4.1 64.0 13.85 68.1 12.1 69.45 Q10.85 70.55 10.2 71.95 8.2 77.15 12.85 80.65 13.35 81.1 15.35 81.4 12.5 86.6 10.5 91.65 L6.4 89.2 Q-2.45 81.65 0.8 70.95 1.75 67.6 3.1 65.55 M29.65 55.95 L29.2 56.45 Q27.05 59.2 28.85 61.8 25.5 65.85 22.55 70.0 L14.0 63.7 18.9 56.0 22.5 58.65 22.15 57.95 Q20.65 54.35 21.5 52.45 21.95 51.05 23.05 50.05 L23.7 49.55 29.65 55.95 M74.25 26.05 Q70.6 27.75 67.0 29.7 L60.4 22.4 68.8 17.45 74.25 26.05 M53.65 36.25 L48.25 39.7 45.15 31.55 60.15 21.85 61.45 33.0 53.9 38.2 53.65 36.25 M45.85 41.4 L47.5 43.15 Q38.9 50.35 31.65 58.55 31.45 56.95 32.05 55.05 33.4 50.5 39.45 48.95 L40.55 48.7 39.35 47.45 Q38.8 46.95 38.0 46.8 35.85 46.05 33.1 49.05 L31.9 50.4 Q30.8 51.7 29.85 53.15 L29.25 54.1 25.95 48.35 27.2 46.65 Q33.15 38.95 37.65 38.2 42.1 37.45 45.85 41.4 M83.3 13.7 L83.85 22.25 Q79.6 23.65 75.45 25.5 L74.1 15.45 83.3 13.7 M126.3 0.0 L128.85 19.8 118.8 18.8 118.5 16.45 117.75 18.75 106.85 18.4 106.25 16.95 106.15 18.4 96.25 19.2 97.3 1.15 107.3 0.75 112.3 13.35 116.35 0.4 126.3 0.0 M145.05 20.6 L143.9 20.3 Q141.9 20.2 140.85 21.85 136.1 20.8 131.0 20.1 132.8 13.6 139.25 11.5 142.8 10.3 146.85 11.4 152.35 12.95 154.9 17.0 157.45 21.05 156.5 26.25 151.9 24.6 146.95 23.3 146.8 21.45 145.05 20.6 M218.45 89.05 Q217.5 85.2 216.0 81.25 L227.25 78.4 229.75 87.4 218.45 89.05 M198.15 52.85 L198.55 52.6 Q207.0 48.55 213.45 54.85 218.8 60.5 215.9 68.8 L219.15 65.35 224.8 73.25 215.7 80.5 212.25 72.75 214.6 70.25 210.05 68.8 205.6 61.95 207.35 62.5 Q207.55 61.5 207.1 60.65 205.75 58.25 203.4 59.0 201.0 55.85 198.15 52.85 M200.35 30.15 L188.6 43.95 180.7 38.1 192.55 24.25 200.35 30.15 M194.7 49.35 L188.75 44.05 199.15 39.0 204.85 45.5 194.7 49.35 M170.5 23.45 Q173.3 21.85 176.45 23.45 182.75 27.0 178.6 34.65 L177.75 36.25 Q173.8 33.85 169.45 31.7 L169.6 31.45 169.85 30.85 Q170.3 28.95 169.15 28.75 167.75 28.25 166.45 30.25 162.35 28.35 157.85 26.7 L163.15 16.95 171.5 20.75 169.8 23.9 170.5 23.45" fill="#ffffff" fill-rule="evenodd" stroke="none"/>
  </g>
</svg>
