<?xml version="1.0" encoding="UTF-8" standalone="no"?>
<svg xmlns:ffdec="https://www.free-decompiler.com/flash" xmlns:xlink="http://www.w3.org/1999/xlink" ffdec:objectType="shape" height="155.35px" width="153.35px" xmlns="http://www.w3.org/2000/svg">
  <g transform="matrix(1.0, 0.0, 0.0, 1.0, 76.65, 76.65)">
    <path d="M76.7 0.0 Q76.45 21.45 66.2 38.7 56.0 56.0 38.7 66.2 21.45 76.45 0.0 76.7 -21.4 76.45 -38.7 66.25 -55.95 56.0 -66.2 38.7 -76.4 21.45 -76.65 0.0 -76.4 -21.4 -66.2 -38.7 -55.95 -55.95 -38.7 -66.2 -21.4 -76.4 0.0 -76.65 21.4 -76.4 38.7 -66.2 56.0 -55.95 66.2 -38.7 76.45 -21.4 76.7 0.0" fill="#f19900" fill-rule="evenodd" stroke="none"/>
    <path d="M49.5 -48.85 Q41.15 -47.65 28.6 -44.5 16.0 -41.35 3.0 -35.55 -10.0 -29.7 -19.6 -20.45 -30.75 -9.0 -37.4 4.1 -44.1 17.15 -47.4 28.85 -50.7 40.55 -51.75 48.0 L-52.7 55.7 Q-63.9 45.1 -70.2 30.85 -76.55 16.55 -76.65 0.0 -76.4 -21.4 -66.2 -38.7 -55.95 -55.95 -38.7 -66.2 -21.4 -76.4 0.0 -76.65 17.6 -76.5 32.55 -69.45 47.5 -62.35 58.15 -49.95 L49.5 -48.85" fill="#f8cc80" fill-rule="evenodd" stroke="none"/>
    <path d="M-33.45 -11.5 Q-28.65 -9.1 -26.45 -4.3 -24.5 0.65 -24.85 6.05 -25.2 11.45 -26.5 15.25 L-35.0 14.45 -33.6 16.95 -44.0 16.05 -41.3 19.05 -46.1 18.8 Q-50.5 18.4 -54.3 16.65 -60.85 13.05 -63.05 7.6 -65.95 1.85 -61.75 -6.25 -59.3 -10.25 -54.7 -12.3 -50.1 -14.3 -44.25 -14.1 -38.3 -13.85 -33.45 -11.5" fill="#d79358" fill-rule="evenodd" stroke="none"/>
    <path d="M-33.45 -11.5 Q-28.65 -9.1 -26.45 -4.3 -24.5 0.65 -24.85 6.05 -25.2 11.45 -26.5 15.25 L-35.0 14.45 -33.6 16.95 -44.0 16.05 -41.3 19.05 -46.1 18.8 Q-50.5 18.4 -54.3 16.65 -60.85 13.05 -63.05 7.6 -65.95 1.85 -61.75 -6.25 -59.3 -10.25 -54.7 -12.3 -50.1 -14.3 -44.25 -14.1 -38.3 -13.85 -33.45 -11.5 Z" fill="none" stroke="#000000" stroke-linecap="round" stroke-linejoin="round" stroke-width="1.0"/>
    <path d="M-35.65 11.85 Q-36.95 13.4 -41.4 14.65 -45.8 15.9 -50.4 14.8 -54.75 13.45 -57.6 10.65 -60.4 7.8 -61.0 4.75 -61.55 1.7 -60.4 -1.6 -59.2 -4.95 -56.8 -7.25 -54.3 -9.6 -49.9 -11.05 -45.5 -12.5 -40.55 -11.25 -35.65 -9.7 -32.45 -7.35 -29.3 -5.0 -28.25 -3.7 -26.55 -1.5 -31.15 -0.1 -33.4 0.7 -34.75 2.8 -36.15 4.95 -35.4 7.7 -34.7 10.35 -35.1 11.1 L-35.65 11.85" fill="#ebc9ac" fill-rule="evenodd" stroke="none"/>
    <path d="M-49.9 -11.05 Q-45.5 -12.5 -40.55 -11.25 -39.05 -10.8 -41.3 -10.45 L-47.4 -9.05 Q-51.25 -8.1 -54.5 -6.0 -58.6 -2.7 -59.85 0.9 -61.05 4.1 -61.0 4.7 -61.55 1.65 -60.4 -1.6 -59.2 -4.95 -56.8 -7.25 -54.3 -9.6 -49.9 -11.05" fill="#88572c" fill-rule="evenodd" stroke="none"/>
    <path d="M34.55 -53.95 Q34.55 -54.2 37.7 -52.45 40.85 -50.7 47.75 -43.8 53.1 -38.0 54.0 -28.9 54.85 -19.85 52.9 -9.6 50.95 0.6 47.75 9.9 44.35 19.2 37.45 28.9 L24.45 46.7 Q18.35 54.9 17.35 59.6 16.6 66.55 17.5 70.7 18.4 74.85 18.6 74.95 L14.85 76.35 Q11.2 77.55 4.95 77.7 L-10.3 76.75 Q-8.85 73.15 -8.9 68.75 -8.95 64.35 -9.8 61.1 -10.65 58.2 -11.7 57.3 -12.7 56.45 -12.8 56.55 -19.2 58.8 -27.2 58.2 -35.15 57.55 -43.25 54.3 -48.5 51.95 -51.5 48.05 -54.45 44.15 -55.6 40.7 -56.75 37.2 -56.55 36.15 -56.3 35.3 -55.65 35.0 L-54.9 34.75 -58.2 19.55 Q-59.45 19.05 -61.2 17.25 -62.9 15.45 -61.5 14.0 -59.4 12.45 -57.65 9.95 -55.9 7.4 -54.2 2.4 -52.6 -2.7 -51.4 -8.95 -50.2 -15.25 -48.05 -23.55 -45.9 -32.15 -41.1 -40.75 -36.35 -49.3 -27.55 -54.7 -21.3 -58.05 -13.7 -59.4 L-0.45 -60.95 5.45 -61.05 2.9 -65.25 21.15 -58.25 17.35 -68.85 34.55 -53.95" fill="#774519" fill-rule="evenodd" stroke="none"/>
    <path d="M34.55 -53.95 L17.35 -68.85 21.15 -58.25 2.9 -65.25 5.45 -61.05 -0.45 -60.95 -13.7 -59.4 Q-21.3 -58.05 -27.55 -54.7 -36.35 -49.3 -41.1 -40.75 -45.9 -32.15 -48.05 -23.55 -50.2 -15.25 -51.4 -8.95 -52.6 -2.7 -54.2 2.4 -55.9 7.4 -57.65 9.95 -59.4 12.45 -61.5 14.0 -62.9 15.45 -61.2 17.25 -59.45 19.05 -58.2 19.55 L-54.9 34.75 -55.65 35.0 Q-56.3 35.3 -56.55 36.15 -56.75 37.2 -55.6 40.7 -54.45 44.15 -51.5 48.05 -48.5 51.95 -43.25 54.3 -35.15 57.55 -27.2 58.2 -19.2 58.8 -12.8 56.55 -12.7 56.45 -11.7 57.3 -10.65 58.2 -9.8 61.1 -8.95 64.35 -8.9 68.75 -8.85 73.15 -10.3 76.75 L4.95 77.7 Q11.2 77.55 14.85 76.35 L18.6 74.95 Q18.4 74.85 17.5 70.7 16.6 66.55 17.35 59.6 18.35 54.9 24.45 46.7 L37.45 28.9 Q44.35 19.2 47.75 9.9 50.95 0.6 52.9 -9.6 54.85 -19.85 54.0 -28.9 53.1 -38.0 47.75 -43.8 40.85 -50.7 37.7 -52.45 34.55 -54.2 34.55 -53.95 Z" fill="none" stroke="#000000" stroke-linecap="round" stroke-linejoin="round" stroke-width="2.0"/>
    <path d="M46.85 -43.2 Q55.25 -33.8 53.5 -19.3 51.8 -4.75 46.5 9.35 42.05 21.35 35.8 29.95 L24.05 45.65 Q18.6 52.8 16.4 60.3 15.45 65.1 16.4 69.75 L17.6 74.75 14.05 75.7 4.25 76.65 4.35 70.3 Q4.5 64.1 5.8 54.4 7.1 44.7 10.5 33.85 14.2 21.15 23.8 11.2 37.1 -2.45 41.45 -11.2 45.75 -19.9 45.8 -23.2 46.95 -33.55 44.05 -40.15 41.15 -46.75 37.75 -49.85 L34.1 -52.95 Q34.0 -53.2 36.95 -51.6 39.9 -50.0 46.85 -43.2" fill="#47290f" fill-rule="evenodd" stroke="none"/>
    <path d="M-15.1 -56.85 Q-21.95 -54.4 -28.55 -48.0 -31.75 -44.3 -32.75 -39.6 -33.7 -34.9 -33.6 -31.35 L-33.35 -27.65 Q-36.6 -26.15 -40.3 -22.65 L-46.65 -16.5 Q-49.3 -13.9 -49.1 -15.05 L-48.35 -18.25 -47.25 -22.6 Q-45.2 -31.2 -40.65 -39.8 -36.15 -48.4 -26.6 -54.1 -22.55 -56.3 -17.5 -57.5 L-8.1 -59.2 -15.1 -56.85" fill="#47290f" fill-rule="evenodd" stroke="none"/>
    <path d="M70.1 -0.8 Q73.2 3.05 73.25 8.05 73.3 13.05 70.4 18.4 67.5 23.75 62.8 27.25 58.1 30.75 52.1 30.9 45.95 30.7 40.4 28.25 34.9 25.8 31.5 23.1 L36.2 15.65 32.9 15.9 38.6 6.7 34.2 8.0 Q34.25 7.6 36.65 3.7 39.0 -0.2 42.6 -2.95 49.3 -7.6 56.1 -7.45 63.45 -7.85 70.1 -0.8" fill="#d79358" fill-rule="evenodd" stroke="none"/>
    <path d="M70.1 -0.8 Q73.2 3.05 73.25 8.05 73.3 13.05 70.4 18.4 67.5 23.75 62.8 27.25 58.1 30.75 52.1 30.9 45.95 30.7 40.4 28.25 34.9 25.8 31.5 23.1 L36.2 15.65 32.9 15.9 38.6 6.7 34.2 8.0 Q34.25 7.6 36.65 3.7 39.0 -0.2 42.6 -2.95 49.3 -7.6 56.1 -7.45 63.45 -7.85 70.1 -0.8 Z" fill="none" stroke="#000000" stroke-linecap="round" stroke-linejoin="round" stroke-width="1.0"/>
    <path d="M67.95 4.05 Q69.3 6.95 68.8 10.5 68.35 14.1 66.6 17.1 64.9 20.25 61.35 23.15 57.8 26.1 52.7 26.3 47.55 26.15 43.85 24.7 40.15 23.2 38.8 22.2 36.6 20.45 40.6 17.7 42.5 16.25 43.25 13.7 44.0 11.1 42.55 8.55 41.1 6.1 41.3 5.15 41.5 4.25 41.6 4.3 42.45 2.3 46.35 -0.25 50.25 -2.8 54.95 -3.05 59.55 -2.95 63.0 -0.9 66.5 1.15 67.95 4.05" fill="#ebc9ac" fill-rule="evenodd" stroke="none"/>
    <path d="M65.4 8.8 Q64.3 4.15 60.75 2.05 57.2 -0.05 52.75 0.2 48.2 0.75 44.85 2.75 L41.35 5.05 Q42.2 2.1 46.25 -0.4 50.3 -2.9 55.0 -3.05 59.6 -2.95 63.05 -0.9 66.55 1.15 68.0 4.05 69.35 6.95 68.85 10.5 68.4 14.1 66.65 17.1 64.5 21.15 59.6 24.4 58.85 24.9 60.7 23.05 62.6 21.2 64.45 17.5 66.25 13.8 65.4 8.8" fill="#88572c" fill-rule="evenodd" stroke="none"/>
    <path d="M24.25 -24.5 Q28.8 -19.3 28.85 -12.4 28.3 -5.8 24.45 0.9 L20.05 8.15 24.15 11.7 Q27.75 15.0 28.65 19.15 29.25 28.15 23.45 34.95 17.6 41.75 9.5 46.35 1.35 50.9 -4.95 53.25 L-11.6 55.55 Q-18.1 57.75 -26.2 57.1 -34.35 56.4 -41.5 54.0 -46.9 51.95 -50.05 48.2 -53.15 44.45 -54.45 41.0 -55.7 37.55 -55.5 36.45 -55.3 35.6 -54.6 35.2 L-53.85 34.85 -54.6 30.95 -56.1 23.5 Q-56.95 19.75 -57.5 19.1 L-60.1 17.05 Q-61.6 15.7 -60.85 14.85 -58.5 13.1 -56.65 10.3 -54.75 7.5 -53.1 2.5 -51.6 -2.65 -50.45 -9.1 -49.3 -15.55 -45.9 -23.45 -42.85 -29.7 -38.6 -30.6 -34.35 -31.5 -30.55 -28.45 -27.25 -25.35 -26.5 -21.5 -25.75 -17.65 -25.9 -17.3 L-20.05 -21.65 Q-14.4 -25.65 -5.95 -29.1 2.55 -32.6 11.25 -31.4 19.65 -29.7 24.25 -24.5" fill="#d79358" fill-rule="evenodd" stroke="none"/>
    <path d="M20.6 -2.55 Q23.95 -7.75 24.9 -11.25 26.05 -18.15 24.35 -22.2 22.9 -25.7 22.45 -26.25 28.8 -20.65 28.9 -12.35 28.35 -5.8 24.5 0.95 L20.1 8.15 24.2 11.7 Q27.85 15.05 28.75 19.15 29.35 28.15 23.5 34.95 17.65 41.75 9.55 46.35 1.4 50.95 -4.85 53.25 L-11.5 55.6 Q-18.0 57.75 -26.15 57.1 -34.3 56.45 -41.45 54.0 -46.8 52.0 -49.95 48.25 -53.1 44.55 -54.3 41.1 L-51.55 44.1 Q-48.75 46.95 -43.25 49.8 -37.75 52.65 -29.6 52.85 -19.15 52.85 -12.3 51.05 -5.45 49.3 0.5 45.95 8.65 41.35 13.95 35.65 19.3 30.0 20.4 26.65 21.7 21.8 19.3 18.3 16.9 14.85 14.0 13.0 L10.8 11.15 14.15 6.8 20.6 -2.55" fill="#a76e3d" fill-rule="evenodd" stroke="none"/>
    <path d="M-11.6 40.55 Q-15.85 43.0 -20.4 43.35 L-31.05 43.85 Q-37.6 44.0 -42.35 42.9 -47.8 41.35 -50.15 39.5 -52.45 37.65 -53.4 36.1 -53.8 35.3 -54.8 31.2 L-56.6 23.25 -57.5 19.05 Q-57.45 19.35 -53.25 21.5 -49.05 23.65 -41.15 24.35 -33.0 24.75 -25.15 24.6 L-12.85 23.9 Q-8.25 23.15 -2.7 21.15 L3.35 18.85 0.7 24.25 Q-1.75 29.2 -4.7 34.0 -7.4 38.15 -11.6 40.55" fill="#ffffff" fill-rule="evenodd" stroke="none"/>
    <path d="M6.1 -17.75 L11.35 -21.5 11.45 -20.8 12.35 -16.0 Q13.15 -11.8 11.85 -7.9 10.55 -4.0 6.35 -1.35 1.95 1.1 -2.45 1.65 -6.8 2.2 -10.15 1.15 -13.45 -0.05 -15.2 -1.75 L-16.9 -3.6 -17.1 -3.9 -13.8 -5.25 Q-10.5 -6.55 -6.75 -8.35 -2.95 -10.2 -1.3 -11.75 1.4 -14.35 6.1 -17.75" fill="#ffffff" fill-rule="evenodd" stroke="none"/>
    <path d="M-37.95 -11.0 L-35.1 -7.55 -32.7 -4.75 Q-32.7 -4.55 -34.25 -3.3 -35.8 -2.05 -38.8 -2.15 -42.0 -2.45 -45.35 -3.9 -48.75 -5.35 -49.95 -7.4 -51.0 -9.25 -51.3 -10.75 -51.55 -12.2 -50.8 -14.65 -49.95 -17.2 -48.8 -18.85 L-47.55 -20.5 -45.45 -20.75 Q-43.5 -20.9 -42.2 -19.75 -41.0 -18.25 -39.75 -15.1 L-37.95 -11.0" fill="#ffffff" fill-rule="evenodd" stroke="none"/>
    <path d="M3.85 -14.8 Q10.45 -14.25 11.85 -7.9 10.55 -4.0 6.3 -1.35 3.8 0.1 1.2 0.85 -3.85 -1.1 -4.2 -6.75 -4.2 -8.6 -3.45 -10.15 L-1.3 -11.75 1.9 -14.55 3.85 -14.8" fill="#000000" fill-rule="evenodd" stroke="none"/>
  </g>
</svg>
