<?xml version="1.0" encoding="UTF-8" standalone="no"?>
<svg xmlns:ffdec="https://www.free-decompiler.com/flash" xmlns:xlink="http://www.w3.org/1999/xlink" ffdec:objectType="shape" height="20.4px" width="62.6px" xmlns="http://www.w3.org/2000/svg">
  <g transform="matrix(1.0, 0.0, 0.0, 1.0, 44.85, 22.5)">
    <path d="M-24.35 -10.35 Q-24.65 -9.9 -24.4 -6.9 -24.15 -3.9 -20.05 -3.45 -15.5 -3.6 -10.8 -5.95 -6.1 -8.3 -3.15 -10.7 2.65 -15.45 7.7 -19.95 10.05 -21.95 11.7 -21.4 13.4 -20.8 14.6 -18.7 15.8 -16.55 16.3 -14.7 L16.75 -12.75" fill="none" stroke="#47290f" stroke-linecap="round" stroke-linejoin="round" stroke-width="2.0"/>
    <path d="M-31.5 -11.65 L-31.85 -10.2 Q-32.1 -8.85 -31.45 -6.9 -30.6 -5.05 -29.7 -4.2 L-28.7 -3.4" fill="none" stroke="#47290f" stroke-linecap="round" stroke-linejoin="round" stroke-width="2.0"/>
    <path d="M-32.7 -4.75 Q-32.7 -4.55 -34.25 -3.3 -35.8 -2.05 -38.8 -2.1 L-42.25 -2.8 Q-44.75 -4.75 -44.85 -8.05 -44.45 -13.3 -39.55 -14.6 L-37.95 -11.0 -35.1 -7.55 -32.7 -4.75" fill="#000000" fill-rule="evenodd" stroke="none"/>
  </g>
</svg>
