<?xml version="1.0" encoding="UTF-8" standalone="no"?>
<svg xmlns:ffdec="https://www.free-decompiler.com/flash" xmlns:xlink="http://www.w3.org/1999/xlink" ffdec:objectType="shape" height="60.45px" width="67.05px" xmlns="http://www.w3.org/2000/svg">
  <g transform="matrix(1.0, 0.0, 0.0, 1.0, 57.7, 22.2)">
    <path d="M-30.9 -4.95 L-32.45 -5.2 Q-33.95 -5.55 -35.45 -7.8 L-37.9 -12.7 Q-39.5 -16.0 -40.85 -17.9 -42.05 -19.6 -43.5 -20.6 -44.95 -21.6 -47.0 -20.9 L-48.95 -20.0" fill="none" stroke="#47290f" stroke-linecap="round" stroke-linejoin="round" stroke-width="2.0"/>
    <path d="M9.1 -9.75 Q9.8 -7.4 8.4 -6.6 6.8 -6.25 5.8 -8.5 5.1 -10.9 6.5 -11.7 8.05 -12.0 9.1 -9.75" fill="#ffffff" fill-rule="evenodd" stroke="none"/>
    <path d="M-28.1 6.45 Q-25.45 7.8 -25.35 9.8 -25.45 11.8 -28.15 13.15 -30.8 14.5 -34.8 14.55 -38.8 14.5 -41.45 13.15 -44.1 11.8 -44.2 9.8 -44.1 7.8 -41.45 6.45 -38.8 5.1 -34.8 5.05 -30.8 5.1 -28.1 6.45 M-29.0 11.95 Q-26.85 10.8 -26.75 9.1 -26.85 7.4 -29.0 6.25 -31.15 5.15 -34.45 5.1 -37.7 5.15 -39.85 6.25 -42.05 7.4 -42.1 9.1 -42.05 10.8 -39.85 11.95 -37.7 13.05 -34.45 13.1 -31.15 13.05 -29.0 11.95" fill="#774519" fill-rule="evenodd" stroke="none"/>
    <path d="M-37.6 13.65 L-34.1 13.55 -38.25 21.15 -37.6 13.65" fill="#774519" fill-rule="evenodd" stroke="none"/>
    <path d="M-57.7 18.95 L-55.75 20.2 -54.0 27.35 Q-51.9 29.25 -48.85 30.9 L-45.5 32.65 Q-48.7 32.0 -51.0 31.15 L-53.45 30.2 -51.75 38.25 Q-52.85 37.2 -53.4 36.15 L-53.95 35.0 -57.7 18.95" fill="#7f7f7f" fill-rule="evenodd" stroke="none"/>
    <path d="M-5.0 32.35 L-12.25 33.65 -21.7 34.2 -31.2 33.95 -35.5 33.65 -19.75 33.25 Q-11.6 32.7 -6.65 30.7 L-1.5 28.45 -3.5 32.05 -5.0 32.35" fill="#7f7f7f" fill-rule="evenodd" stroke="none"/>
  </g>
</svg>
