<?xml version="1.0" encoding="UTF-8" standalone="no"?>
<svg xmlns:ffdec="https://www.free-decompiler.com/flash" xmlns:xlink="http://www.w3.org/1999/xlink" ffdec:objectType="shape" height="75.0px" width="340.0px" xmlns="http://www.w3.org/2000/svg">
  <g transform="matrix(1.0, 0.0, 0.0, 1.0, 170.0, 37.5)">
    <path d="M33.5 37.5 L-153.5 37.5 Q-170.0 37.5 -170.0 21.0 L-170.0 -21.0 Q-170.0 -37.5 -153.5 -37.5 L1.05 -37.5 33.5 37.5" fill="#090909" fill-rule="evenodd" stroke="none"/>
    <path d="M130.1 -37.5 L130.1 37.5 33.5 37.5 1.05 -37.5 130.1 -37.5" fill="url(#gradient0)" fill-rule="evenodd" stroke="none"/>
    <path d="M130.1 -37.5 L154.95 -37.5 154.95 -37.45 Q170.0 -36.75 170.0 -21.0 L170.0 21.0 Q170.0 36.75 154.95 37.5 L130.1 37.5 130.1 -37.5" fill="url(#gradient1)" fill-rule="evenodd" stroke="none"/>
  </g>
  <defs>
    <linearGradient gradientTransform="matrix(0.0, 0.1587, -0.0458, 0.0, 98.85, -59.5)" gradientUnits="userSpaceOnUse" id="gradient0" spreadMethod="pad" x1="-819.2" x2="819.2">
      <stop offset="0.0" stop-color="#ffffff"/>
      <stop offset="1.0" stop-color="#000000"/>
    </linearGradient>
    <linearGradient gradientTransform="matrix(0.0, 0.1587, -0.0458, 0.0, 78.85, -59.5)" gradientUnits="userSpaceOnUse" id="gradient1" spreadMethod="pad" x1="-819.2" x2="819.2">
      <stop offset="0.0" stop-color="#ffffff"/>
      <stop offset="1.0" stop-color="#000000"/>
    </linearGradient>
  </defs>
</svg>
