<?xml version="1.0" encoding="UTF-8" standalone="no"?>
<svg xmlns:ffdec="https://www.free-decompiler.com/flash" xmlns:xlink="http://www.w3.org/1999/xlink" ffdec:objectType="shape" height="40.8px" width="248.2px" xmlns="http://www.w3.org/2000/svg">
  <g transform="matrix(1.0, 0.0, 0.0, 1.0, 124.1, 20.4)">
    <path d="M16.6 -17.25 L16.6 -11.5 17.85 -11.4 Q19.95 -11.45 20.9 -12.15 21.85 -12.9 21.85 -14.55 21.85 -17.3 17.55 -17.3 L16.6 -17.25 M17.1 -20.15 Q21.2 -20.15 23.15 -18.8 25.0 -17.55 25.0 -14.75 25.0 -8.55 18.05 -8.55 L16.6 -8.65 16.6 -2.05 13.6 -2.05 13.6 -20.0 17.1 -20.15 M8.95 -17.9 Q10.85 -15.55 10.85 -11.2 10.85 -6.85 8.85 -4.3 6.75 -1.8 3.0 -1.8 -0.5 -1.8 -2.35 -4.3 -4.2 -6.8 -4.2 -11.2 -4.2 -15.1 -2.2 -17.7 -0.2 -20.4 3.2 -20.4 6.9 -20.4 8.95 -17.9 M0.1 -15.8 Q-1.05 -14.1 -1.05 -11.2 -1.05 -8.05 0.05 -6.35 1.05 -4.65 3.0 -4.6 5.25 -4.65 6.5 -6.25 7.7 -8.0 7.7 -11.2 7.7 -17.55 3.2 -17.55 1.15 -17.55 0.1 -15.8 M38.8 -17.15 L30.85 -17.15 30.85 -13.0 36.55 -13.0 36.55 -10.3 30.85 -10.3 30.85 -4.9 38.65 -4.9 38.65 -2.05 27.8 -2.05 27.8 -20.0 38.8 -20.0 38.8 -17.15 M49.65 -14.9 Q49.65 -16.25 48.7 -16.8 47.75 -17.3 45.7 -17.3 L44.7 -17.25 44.7 -12.25 46.0 -12.25 Q47.9 -12.25 48.8 -12.75 49.65 -13.35 49.65 -14.9 M43.45 -20.1 L46.25 -20.25 Q52.85 -20.25 52.85 -14.9 52.85 -13.35 51.95 -12.0 51.05 -10.7 49.65 -10.15 L54.75 -2.05 51.2 -2.05 46.6 -9.45 44.7 -9.55 44.7 -2.05 41.55 -2.05 41.55 -20.0 43.45 -20.1 M76.25 -18.6 L75.0 -16.05 73.35 -17.0 71.4 -17.55 Q68.8 -17.55 67.35 -15.65 65.85 -13.9 65.85 -10.9 65.85 -8.05 67.35 -6.35 68.8 -4.65 71.25 -4.6 72.85 -4.65 73.95 -5.5 L73.95 -9.1 71.6 -9.1 71.6 -11.8 77.0 -11.8 77.0 -3.7 Q75.9 -2.85 74.2 -2.3 L70.75 -1.8 Q67.05 -1.8 64.85 -4.3 62.7 -6.85 62.7 -10.95 62.7 -15.15 65.05 -17.75 67.4 -20.3 71.45 -20.3 74.25 -20.3 76.25 -18.6 M98.55 -20.0 L102.25 -7.9 105.9 -20.0 107.55 -20.0 111.1 -2.05 108.05 -2.05 106.3 -11.7 102.85 -1.85 101.75 -1.85 98.25 -11.7 96.35 -2.05 93.45 -2.05 96.95 -20.0 98.55 -20.0 M86.2 -20.3 L93.15 -2.05 89.75 -2.05 88.45 -5.75 82.6 -5.75 81.35 -2.05 78.0 -2.05 84.9 -20.3 86.2 -20.3 M87.6 -8.1 L85.55 -14.75 83.45 -8.1 87.6 -8.1 M116.05 -13.0 L121.8 -13.0 121.8 -10.3 116.05 -10.3 116.05 -4.9 123.85 -4.9 123.85 -2.05 113.05 -2.05 113.05 -20.0 124.0 -20.0 124.0 -17.15 116.05 -17.15 116.05 -13.0 M124.1 10.45 L124.1 16.7 121.95 16.7 121.95 10.75 Q121.95 8.9 120.3 8.95 119.75 8.9 119.3 9.25 118.85 9.45 118.7 9.85 L118.7 16.7 116.45 16.7 116.45 10.45 Q116.45 9.75 116.1 9.3 115.65 8.9 114.9 8.95 114.45 8.9 114.0 9.25 113.45 9.5 113.25 9.9 L113.25 16.7 111.05 16.7 111.05 7.2 112.55 7.2 113.0 8.1 Q113.9 7.0 115.35 7.05 117.2 7.0 118.2 8.1 L119.3 7.35 120.8 7.05 Q122.4 7.0 123.3 7.95 124.1 8.85 124.1 10.45 M108.95 11.95 Q108.95 14.2 107.75 15.55 106.55 16.85 104.45 16.85 102.3 16.85 101.15 15.55 99.95 14.2 99.95 11.95 99.95 9.75 101.15 8.4 102.45 7.0 104.45 7.05 106.65 7.0 107.75 8.3 108.95 9.65 108.95 11.95 M102.8 9.7 Q102.2 10.5 102.2 11.95 102.2 15.0 104.45 15.05 105.5 15.05 106.1 14.3 106.7 13.45 106.7 11.95 106.7 8.85 104.45 8.85 103.4 8.85 102.8 9.7 M96.05 7.05 Q97.7 7.0 98.9 7.95 L98.0 9.6 Q97.2 8.9 95.9 8.95 94.65 8.9 93.95 9.75 93.2 10.55 93.2 12.0 93.2 15.0 96.05 15.05 97.25 15.05 98.15 14.2 L99.0 15.95 97.35 16.7 95.6 16.85 Q93.45 16.85 92.15 15.55 90.95 14.25 90.95 12.0 90.95 9.8 92.3 8.4 93.65 7.0 96.05 7.05 M83.45 9.3 Q82.95 8.9 82.2 8.95 81.45 8.9 80.85 9.6 80.25 10.25 80.25 11.35 L80.25 16.7 78.05 16.7 78.05 7.2 80.25 7.2 80.25 8.1 Q81.15 7.0 82.7 7.05 83.85 7.0 84.45 7.4 L83.45 9.3 M87.45 14.0 Q88.1 13.95 88.55 14.45 89.1 14.85 89.1 15.55 89.1 16.15 88.55 16.7 88.1 17.15 87.45 17.15 86.85 17.15 86.4 16.7 85.85 16.15 85.85 15.55 85.85 14.85 86.4 14.45 86.85 13.95 87.45 14.0 M71.6 8.95 Q69.75 8.9 69.3 10.95 L73.95 10.95 Q73.7 8.9 71.6 8.95 M74.9 8.25 Q76.1 9.5 76.1 11.4 L75.95 12.6 69.2 12.6 Q69.3 13.75 70.05 14.45 70.7 15.05 71.9 15.05 73.4 15.05 74.25 14.2 L75.05 15.95 Q73.85 16.85 71.6 16.85 69.45 16.85 68.15 15.65 66.95 14.35 66.95 12.1 66.95 9.8 68.3 8.45 69.65 7.0 71.6 7.05 73.65 7.0 74.9 8.25 M65.6 12.0 Q65.6 14.35 64.35 15.65 63.15 16.85 60.95 16.85 L59.1 16.45 59.1 20.4 56.85 20.4 56.85 7.2 59.1 7.2 59.1 7.85 Q59.9 7.0 61.1 7.05 65.6 7.05 65.6 12.0 M62.7 9.6 Q62.0 8.9 60.5 8.95 59.7 8.9 59.1 9.55 L59.1 14.5 Q59.7 15.05 60.45 15.05 62.0 15.05 62.7 14.3 63.3 13.5 63.3 11.95 63.3 10.25 62.7 9.6 M54.95 11.95 Q54.95 14.2 53.75 15.55 52.55 16.85 50.45 16.85 48.3 16.85 47.15 15.55 45.95 14.2 45.95 11.95 45.95 9.75 47.15 8.4 48.45 7.0 50.45 7.05 52.65 7.0 53.75 8.3 54.95 9.65 54.95 11.95 M48.2 11.95 Q48.2 15.0 50.45 15.05 51.5 15.05 52.1 14.3 52.7 13.45 52.7 11.95 52.7 8.85 50.45 8.85 49.4 8.85 48.8 9.7 48.2 10.5 48.2 11.95 M44.45 11.95 Q44.45 14.2 43.25 15.55 42.05 16.85 39.95 16.85 37.8 16.85 36.65 15.55 35.45 14.2 35.45 11.95 35.45 9.75 36.65 8.4 37.95 7.0 39.95 7.05 42.15 7.0 43.25 8.3 44.45 9.65 44.45 11.95 M42.2 11.95 Q42.2 8.85 39.95 8.85 38.9 8.85 38.3 9.7 37.7 10.5 37.7 11.95 37.7 15.0 39.95 15.05 41.0 15.05 41.6 14.3 42.2 13.45 42.2 11.95 M34.4 7.95 L33.5 9.6 Q32.7 8.9 31.4 8.95 30.15 8.9 29.45 9.75 28.7 10.55 28.7 12.0 28.7 15.0 31.55 15.05 32.75 15.05 33.65 14.2 L34.5 15.95 32.85 16.7 31.1 16.85 Q28.95 16.85 27.65 15.55 26.45 14.25 26.45 12.0 26.45 9.8 27.8 8.4 29.15 7.0 31.55 7.05 33.2 7.0 34.4 7.95 M22.1 9.0 L22.1 13.15 Q22.1 14.1 22.4 14.6 22.7 15.05 23.55 15.05 24.3 15.05 24.95 14.6 L24.95 16.6 22.8 16.85 Q21.35 16.85 20.6 16.1 19.85 15.25 19.85 13.85 L19.85 9.0 18.8 9.0 18.8 7.2 19.85 7.2 19.85 5.3 22.1 4.5 22.1 7.2 24.65 7.2 24.65 9.0 22.1 9.0 M11.0 8.1 Q11.9 7.0 13.7 7.05 15.35 7.0 16.35 8.1 17.3 9.05 17.3 10.9 L17.3 16.7 15.15 16.7 15.15 11.2 Q15.15 9.95 14.6 9.45 14.15 8.9 13.1 8.95 L12.15 9.15 Q11.55 9.45 11.25 9.85 L11.25 16.7 9.05 16.7 9.05 7.2 10.65 7.2 11.0 8.1 M3.6 10.6 Q3.6 8.9 1.5 8.95 L-0.6 9.3 -1.05 7.55 Q0.05 7.0 1.65 7.05 3.75 7.0 4.8 8.0 5.75 9.0 5.75 11.8 L5.75 13.85 Q5.75 15.7 6.5 16.15 L5.9 16.75 5.15 16.85 4.25 16.55 3.8 15.7 2.75 16.55 1.2 16.85 Q-0.3 16.85 -1.2 16.1 -2.05 15.35 -2.05 13.9 -2.05 12.3 -0.85 11.35 0.35 10.4 2.6 10.45 L3.6 10.6 M2.75 12.1 Q0.15 12.1 0.15 13.85 0.15 15.1 1.55 15.1 3.6 15.1 3.6 13.15 L3.6 12.25 2.75 12.1 M-115.9 -20.3 L-108.95 -2.05 -112.3 -2.05 -113.6 -5.75 -119.5 -5.75 -120.7 -2.05 -124.1 -2.05 -117.2 -20.3 -115.9 -20.3 M-114.45 -8.1 L-116.55 -14.75 -118.65 -8.1 -114.45 -8.1 M-84.45 -13.0 L-78.7 -13.0 -78.7 -10.3 -84.45 -10.3 -84.45 -4.9 -76.65 -4.9 -76.65 -2.05 -87.5 -2.05 -87.5 -20.0 -76.5 -20.0 -76.5 -17.15 -84.45 -17.15 -84.45 -13.0 M-100.6 -15.5 Q-100.65 -17.6 -99.2 -18.95 -97.75 -20.3 -95.45 -20.3 -92.45 -20.3 -91.0 -19.2 L-91.95 -16.4 Q-93.6 -17.6 -95.35 -17.6 -96.4 -17.6 -97.05 -17.0 -97.6 -16.5 -97.6 -15.5 -97.6 -13.95 -94.3 -12.3 -92.6 -11.45 -91.8 -10.65 L-90.65 -8.95 Q-90.2 -8.0 -90.2 -6.8 -90.2 -4.65 -91.85 -3.2 -93.55 -1.8 -96.3 -1.8 -98.75 -1.8 -100.7 -3.05 L-99.55 -5.95 Q-97.75 -4.65 -95.95 -4.6 -93.3 -4.65 -93.3 -6.55 -93.3 -7.45 -93.95 -8.35 -94.6 -9.2 -96.5 -10.15 L-99.2 -11.85 Q-99.9 -12.55 -100.25 -13.5 -100.65 -14.4 -100.6 -15.5 M-67.25 -20.3 L-60.25 -2.05 -63.65 -2.05 -64.95 -5.75 -70.8 -5.75 -72.05 -2.05 -75.4 -2.05 -68.55 -20.3 -67.25 -20.3 M-65.8 -8.1 L-67.9 -14.75 -69.95 -8.1 -65.8 -8.1 M-45.9 -20.0 L-45.9 -1.85 -47.2 -1.85 -55.55 -13.2 -55.55 -2.05 -58.5 -2.05 -58.5 -20.0 -57.05 -20.0 -48.85 -9.15 -48.85 -20.0 -45.9 -20.0 M-23.35 -19.1 L-24.6 -16.4 Q-25.6 -17.55 -27.9 -17.55 -30.05 -17.55 -31.4 -15.6 -32.85 -13.75 -32.85 -10.9 -32.85 -8.0 -31.55 -6.25 -30.3 -4.65 -28.1 -4.6 -25.7 -4.65 -24.3 -6.4 L-22.85 -3.85 Q-24.75 -1.8 -28.4 -1.8 -32.0 -1.8 -34.0 -4.25 -36.0 -6.7 -36.0 -10.95 -36.05 -15.0 -33.8 -17.7 -31.55 -20.3 -28.1 -20.3 -25.1 -20.3 -23.35 -19.1 M-13.8 -20.4 Q-10.1 -20.4 -8.1 -17.9 -6.15 -15.55 -6.15 -11.2 -6.15 -6.85 -8.15 -4.3 -10.25 -1.8 -14.05 -1.8 -17.5 -1.8 -19.35 -4.3 -21.25 -6.8 -21.2 -11.2 -21.25 -15.1 -19.2 -17.7 -17.2 -20.4 -13.8 -20.4 M-16.9 -15.8 Q-18.05 -14.1 -18.05 -11.2 -18.1 -8.05 -17.0 -6.35 -16.0 -4.65 -14.05 -4.6 -11.75 -4.65 -10.5 -6.25 -9.3 -8.0 -9.3 -11.2 -9.3 -17.55 -13.8 -17.55 -15.85 -17.55 -16.9 -15.8 M-7.9 8.95 Q-9.75 8.9 -10.2 10.95 L-5.55 10.95 Q-5.8 8.9 -7.9 8.95 M-4.6 8.25 Q-3.4 9.5 -3.4 11.4 L-3.55 12.6 -10.3 12.6 Q-10.2 13.75 -9.45 14.45 -8.8 15.05 -7.6 15.05 -6.1 15.05 -5.25 14.2 L-4.45 15.95 Q-5.65 16.85 -7.9 16.85 -10.05 16.85 -11.35 15.65 -12.55 14.35 -12.55 12.1 -12.55 9.8 -11.2 8.45 -9.85 7.0 -7.9 7.05 -5.85 7.0 -4.6 8.25 M-15.75 11.2 Q-14.55 11.6 -14.05 12.3 -13.45 13.05 -13.45 14.05 -13.45 15.35 -14.4 16.1 -15.4 16.85 -17.05 16.85 L-18.55 16.7 -20.05 16.1 -19.2 14.35 Q-18.25 15.1 -17.05 15.1 -15.75 15.1 -15.75 14.2 -15.75 13.65 -16.15 13.3 -16.5 13.0 -17.65 12.45 -20.05 11.5 -20.05 9.7 -20.05 8.4 -19.15 7.7 -18.25 7.0 -16.75 7.05 -15.3 7.0 -13.95 7.7 L-14.65 9.45 Q-15.3 8.75 -16.65 8.8 -17.8 8.75 -17.8 9.75 L-17.4 10.35 Q-17.05 10.65 -15.75 11.2 M-27.45 7.7 L-28.15 9.45 Q-28.8 8.75 -30.15 8.8 -31.3 8.75 -31.3 9.75 L-30.9 10.35 Q-30.55 10.65 -29.25 11.2 -28.05 11.6 -27.55 12.3 -26.95 13.05 -26.95 14.05 -26.95 15.35 -27.9 16.1 -28.9 16.85 -30.55 16.85 L-32.05 16.7 -33.55 16.1 -32.7 14.35 Q-31.75 15.1 -30.55 15.1 -29.25 15.1 -29.25 14.2 -29.25 13.65 -29.65 13.3 -30.0 13.0 -31.15 12.45 -33.55 11.5 -33.55 9.7 -33.55 8.4 -32.65 7.7 -31.75 7.0 -30.25 7.05 -28.8 7.0 -27.45 7.7 M-36.1 8.25 Q-34.9 9.5 -34.9 11.4 L-35.05 12.6 -41.8 12.6 Q-41.7 13.75 -40.95 14.45 -40.3 15.05 -39.1 15.05 -37.6 15.05 -36.75 14.2 L-35.95 15.95 Q-37.15 16.85 -39.4 16.85 -41.55 16.85 -42.85 15.65 -44.05 14.35 -44.05 12.1 -44.05 9.8 -42.7 8.45 -41.35 7.0 -39.4 7.05 -37.35 7.0 -36.1 8.25 M-39.4 8.95 Q-41.25 8.9 -41.7 10.95 L-37.05 10.95 Q-37.3 8.9 -39.4 8.95 M-23.55 14.0 Q-22.9 13.95 -22.45 14.45 -21.9 14.85 -21.9 15.55 -21.9 16.15 -22.45 16.7 -22.9 17.15 -23.55 17.15 L-24.6 16.7 Q-25.15 16.15 -25.15 15.55 -25.15 14.85 -24.6 14.45 -24.15 13.95 -23.55 14.0 M-49.2 8.95 Q-49.75 8.9 -50.2 9.25 L-50.8 9.85 -50.8 16.7 -53.05 16.7 -53.05 10.45 Q-53.05 9.75 -53.4 9.3 -53.85 8.9 -54.6 8.95 -55.05 8.9 -55.5 9.25 L-56.25 9.9 -56.25 16.7 -58.45 16.7 -58.45 7.2 -56.95 7.2 -56.5 8.1 Q-55.6 7.0 -54.15 7.05 -52.3 7.0 -51.3 8.1 L-50.2 7.35 -48.7 7.05 Q-47.1 7.0 -46.2 7.95 -45.4 8.85 -45.4 10.45 L-45.4 16.7 -47.55 16.7 -47.55 10.75 Q-47.55 8.9 -49.2 8.95 M-59.5 16.15 L-60.1 16.75 -60.85 16.85 -61.75 16.55 -62.2 15.7 -63.25 16.55 -64.8 16.85 Q-66.3 16.85 -67.2 16.1 -68.05 15.35 -68.05 13.9 -68.05 12.3 -66.85 11.35 -65.65 10.4 -63.4 10.45 L-62.4 10.6 Q-62.4 8.9 -64.5 8.95 L-66.6 9.3 -67.05 7.55 Q-65.95 7.0 -64.35 7.05 -62.25 7.0 -61.2 8.0 -60.25 9.0 -60.25 11.8 L-60.25 13.85 Q-60.25 15.7 -59.5 16.15 M-68.85 7.85 L-69.9 8.65 Q-69.4 9.45 -69.4 10.6 -69.4 12.25 -70.35 13.2 -71.35 14.2 -72.85 14.2 L-73.45 14.15 -73.8 14.05 -74.25 14.3 -74.7 14.65 Q-74.7 15.05 -74.1 15.05 L-73.15 14.9 -72.1 14.75 Q-68.85 14.7 -68.85 17.35 -68.85 18.8 -70.15 19.55 -71.4 20.4 -73.2 20.4 -75.4 20.4 -77.2 19.1 L-75.75 17.35 Q-74.65 18.4 -73.2 18.4 L-71.65 18.2 Q-71.05 17.9 -71.05 17.35 -71.05 16.5 -72.4 16.55 L-73.5 16.6 -74.55 16.75 Q-76.8 16.75 -76.8 15.1 L-76.45 14.2 -75.6 13.5 Q-77.2 12.45 -77.2 10.5 -77.2 9.0 -76.05 8.0 -75.0 7.0 -73.35 7.05 -72.1 7.0 -71.25 7.5 L-70.35 6.5 -68.85 7.85 M-63.25 12.1 Q-65.85 12.1 -65.85 13.85 -65.85 15.1 -64.45 15.1 -62.4 15.1 -62.4 13.15 L-62.4 12.25 -63.25 12.1 M-74.5 11.85 Q-74.05 12.4 -73.3 12.4 -72.45 12.4 -72.0 11.95 -71.65 11.4 -71.65 10.6 -71.65 9.8 -72.1 9.4 -72.55 8.85 -73.3 8.85 -74.05 8.85 -74.5 9.3 -74.95 9.8 -74.95 10.6 -74.95 11.4 -74.5 11.85 M-79.45 14.45 Q-78.9 14.85 -78.9 15.55 -78.9 16.15 -79.45 16.7 -79.9 17.15 -80.55 17.15 -81.15 17.15 -81.6 16.7 -82.15 16.15 -82.15 15.55 -82.15 14.85 -81.6 14.45 -81.15 13.95 -80.55 14.0 -79.9 13.95 -79.45 14.45 M-89.7 7.2 L-87.3 12.9 -85.3 7.2 -83.1 7.2 -86.7 16.85 -87.55 16.85 -90.1 11.05 -92.65 16.85 -93.45 16.85 -96.8 7.7 -100.2 16.85 -101.05 16.85 -103.6 11.05 -106.15 16.85 -106.95 16.85 -110.3 7.7 -113.7 16.85 -114.55 16.85 -117.1 11.05 -119.65 16.85 -120.45 16.85 -124.0 7.2 -121.75 7.2 -119.8 12.85 -117.55 7.2 -116.7 7.2 -114.3 12.9 -112.3 7.2 -108.25 7.2 -106.3 12.85 -104.05 7.2 -103.2 7.2 -100.8 12.9 -98.8 7.2 -94.75 7.2 -92.8 12.85 -90.55 7.2 -89.7 7.2" fill="#ffffff" fill-opacity="0.7490196" fill-rule="evenodd" stroke="none"/>
  </g>
</svg>
