<?xml version="1.0" encoding="UTF-8" standalone="no"?>
<svg xmlns:ffdec="https://www.free-decompiler.com/flash" xmlns:xlink="http://www.w3.org/1999/xlink" ffdec:objectType="shape" height="33.65px" width="109.55px" xmlns="http://www.w3.org/2000/svg">
  <g transform="matrix(1.0, 0.0, 0.0, 1.0, 54.15, -223.65)">
    <path d="M55.3 224.9 L54.9 246.6 54.85 247.05 54.6 247.35 54.1 247.55 53.3 247.65 52.55 247.55 52.05 247.35 51.8 247.05 51.7 246.6 51.3 224.9 51.4 224.35 51.7 223.95 52.35 223.7 53.3 223.65 54.3 223.75 54.9 223.95 55.2 224.35 55.3 224.9 M46.1 234.35 Q46.75 237.15 46.75 240.8 46.75 245.05 46.05 248.1 45.35 251.15 44.1 253.05 42.8 254.95 41.0 255.85 39.15 256.75 36.6 256.75 L32.05 256.75 31.25 256.3 Q30.9 255.8 30.9 254.75 L30.9 227.8 Q30.9 226.7 31.25 226.25 31.6 225.8 32.05 225.8 L36.95 225.8 Q39.5 225.8 41.3 226.75 43.05 227.75 44.25 229.65 45.45 231.55 46.1 234.35 M42.75 241.05 L42.45 236.95 Q42.1 235.05 41.4 233.65 40.7 232.25 39.6 231.5 38.5 230.7 36.75 230.7 L34.8 230.7 34.8 251.75 36.8 251.75 Q38.4 251.75 39.45 251.1 40.55 250.45 41.3 249.1 42.0 247.75 42.4 245.7 42.75 243.7 42.75 241.05 M17.35 225.8 L26.85 225.8 27.1 225.9 27.3 226.35 27.4 227.1 27.45 228.3 27.4 229.45 27.3 230.15 27.1 230.6 26.85 230.7 20.1 230.7 20.1 238.3 25.85 238.3 26.1 238.4 26.25 238.85 26.35 239.55 26.4 240.7 26.35 241.85 26.25 242.6 26.1 242.95 25.85 243.1 20.1 243.1 20.1 251.8 26.95 251.8 Q27.05 251.8 27.2 251.95 L27.35 252.35 27.5 253.15 27.5 254.3 27.5 255.45 27.35 256.2 27.2 256.65 26.95 256.75 17.35 256.75 Q16.9 256.75 16.55 256.3 16.2 255.8 16.2 254.75 L16.2 227.8 Q16.2 226.7 16.55 226.25 16.9 225.8 17.35 225.8 M12.4 234.35 Q13.05 237.15 13.05 240.8 13.05 245.05 12.35 248.1 11.65 251.15 10.4 253.05 9.1 254.95 7.3 255.85 5.45 256.75 2.9 256.75 L-1.65 256.75 -2.45 256.3 Q-2.8 255.8 -2.8 254.75 L-2.8 227.8 Q-2.8 226.7 -2.45 226.25 -2.1 225.8 -1.65 225.8 L3.25 225.8 Q5.8 225.8 7.6 226.75 9.35 227.75 10.55 229.65 11.75 231.55 12.4 234.35 M5.9 231.5 Q4.8 230.7 3.05 230.7 L1.1 230.7 1.1 251.75 3.1 251.75 Q4.7 251.75 5.75 251.1 6.85 250.45 7.6 249.1 8.3 247.75 8.7 245.7 9.05 243.7 9.05 241.05 L8.75 236.95 Q8.4 235.05 7.7 233.65 7.0 232.25 5.9 231.5 M54.3 250.25 L54.95 250.85 55.3 251.95 55.4 253.6 55.3 255.25 54.95 256.35 54.3 256.95 53.3 257.1 52.3 256.95 Q51.9 256.75 51.65 256.35 L51.35 255.25 51.25 253.6 51.35 251.95 Q51.4 251.25 51.65 250.85 51.9 250.4 52.3 250.25 L53.3 250.05 54.3 250.25 M-26.55 229.05 Q-25.45 231.0 -24.85 233.95 -24.3 236.9 -24.3 240.9 -24.3 244.75 -24.9 247.8 -25.5 250.85 -26.65 252.95 -27.8 255.1 -29.5 256.2 -31.25 257.3 -33.5 257.3 -35.7 257.3 -37.35 256.35 -39.0 255.4 -40.1 253.45 -41.2 251.55 -41.75 248.55 -42.3 245.55 -42.3 241.45 -42.3 237.7 -41.75 234.7 -41.15 231.7 -40.0 229.6 -38.8 227.5 -37.1 226.35 -35.4 225.25 -33.15 225.25 -30.95 225.25 -29.3 226.15 -27.65 227.1 -26.55 229.05 M-33.25 230.4 Q-34.7 230.4 -35.65 231.3 -36.6 232.15 -37.2 233.6 -37.8 235.05 -38.0 237.05 L-38.25 241.15 -38.05 245.7 -37.25 249.15 Q-36.7 250.6 -35.75 251.35 -34.8 252.1 -33.35 252.1 -31.95 252.1 -31.0 251.25 -30.05 250.4 -29.45 248.9 -28.85 247.4 -28.6 245.45 -28.35 243.45 -28.35 241.25 -28.35 238.8 -28.6 236.8 -28.85 234.8 -29.4 233.4 -29.95 231.95 -30.9 231.2 -31.85 230.4 -33.25 230.4 M-11.5 226.25 L-11.3 226.95 -5.45 254.4 -5.2 255.75 Q-5.15 256.25 -5.35 256.55 L-5.9 256.85 -7.05 256.9 -8.2 256.85 -8.85 256.75 -9.15 256.4 -9.3 255.9 -10.6 249.7 -17.75 249.7 -18.95 255.75 -19.1 256.3 -19.4 256.7 -20.0 256.85 -21.05 256.9 -22.1 256.8 Q-22.45 256.75 -22.6 256.5 L-22.7 255.7 -22.5 254.35 -16.65 226.9 -16.4 226.25 -16.05 225.85 -15.35 225.7 -14.15 225.65 -12.75 225.7 -11.95 225.85 -11.5 226.25 M-14.2 231.7 L-16.9 244.85 -11.5 244.85 -14.15 231.7 -14.2 231.7 M-50.25 226.65 L-50.25 251.55 -44.25 251.55 Q-44.1 251.55 -44.0 251.7 L-43.8 252.15 -43.7 252.9 -43.65 254.1 -43.7 255.35 -43.8 256.15 -44.0 256.6 -44.25 256.75 -53.0 256.75 Q-53.45 256.75 -53.8 256.3 -54.15 255.8 -54.15 254.75 L-54.15 226.65 -54.0 226.2 -53.7 225.9 -53.1 225.7 -52.2 225.65 -51.25 225.7 -50.65 225.9 -50.35 226.2 -50.25 226.65" fill="#ff0000" fill-rule="evenodd" stroke="none"/>
  </g>
</svg>
