<?xml version="1.0" encoding="UTF-8" standalone="no"?>
<svg xmlns:ffdec="https://www.free-decompiler.com/flash" xmlns:xlink="http://www.w3.org/1999/xlink" ffdec:objectType="shape" height="83.85px" width="195.55px" xmlns="http://www.w3.org/2000/svg">
  <g transform="matrix(1.0, 0.0, 0.0, 1.0, 93.35, 63.8)">
    <path d="M17.8 -14.85 L35.35 -14.85 37.65 -14.7 60.0 -14.7 60.0 -15.0 62.2 -15.15 92.2 -15.15 96.55 -14.5 Q102.2 -12.65 102.2 -5.15 L102.2 4.85 Q102.2 12.35 96.55 14.25 94.7 14.85 92.2 14.85 L66.0 14.85 66.0 15.15 17.8 15.15 17.8 15.0 -50.0 15.0 Q-60.0 15.0 -60.0 5.0 L-60.0 -5.0 Q-60.0 -15.0 -50.0 -15.0 L-20.0 -15.0 -17.7 -14.85 17.7 -14.85 17.8 -14.85" fill="#ffffff" fill-rule="evenodd" stroke="none"/>
    <path d="M-91.35 -27.45 L-62.5 -6.25 -63.05 -4.6 -63.05 -4.55 -68.35 11.85 -68.3 11.7 -68.75 13.05 -68.8 13.15 -70.2 18.05 -61.85 16.05 -42.85 11.4 -19.8 12.75 -21.3 8.4 -21.3 8.35 -21.3 8.4 -21.35 8.35 -22.1 5.9 -26.1 -6.5 -24.65 -7.55 Q-22.1 -8.1 -20.35 -10.7 L2.75 -27.5 2.65 -27.85 -24.45 -27.85 Q-24.9 -31.05 -26.75 -32.9 L-30.2 -35.85 -30.25 -35.85 -31.3 -36.35 -37.65 -41.95 -44.1 -61.8 -44.5 -61.8 -52.7 -36.45 Q-56.85 -34.0 -59.0 -27.85 L-91.2 -27.85 -91.35 -27.45 Z" fill="none" stroke="#ffffff" stroke-linecap="round" stroke-linejoin="round" stroke-width="4.0"/>
  </g>
</svg>
