<?xml version="1.0" encoding="UTF-8" standalone="no"?>
<svg xmlns:ffdec="https://www.free-decompiler.com/flash" xmlns:xlink="http://www.w3.org/1999/xlink" ffdec:objectType="shape" height="222.9px" width="259.55px" xmlns="http://www.w3.org/2000/svg">
  <g transform="matrix(1.0, 0.0, 0.0, 1.0, 129.25, 133.3)">
    <path d="M29.45 -36.7 L123.15 -36.7 47.35 18.35 64.05 69.45 1.95 64.9 -69.0 88.1 -46.35 18.35 -122.15 -36.7 -28.45 -36.7 0.5 -125.8 29.45 -36.7" fill="#f8a736" fill-rule="evenodd" stroke="none"/>
    <path d="M0.5 -125.8 L29.45 -36.7 123.15 -36.7 47.35 18.35 64.05 69.45 1.95 64.9 -69.0 88.1 -46.35 18.35 -122.15 -36.7 -28.45 -36.7 0.5 -125.8 Z" fill="none" stroke="#000000" stroke-linecap="butt" stroke-linejoin="miter-clip" stroke-miterlimit="3.0" stroke-width="2.0"/>
    <path d="M29.45 -36.7 L82.65 -36.7 Q77.55 -15.4 67.5 3.75 L47.35 18.35 50.9 29.35 Q30.85 54.8 3.65 68.9 L0.5 67.2 -54.1 83.6 -56.15 83.65 -67.4 83.15 -46.35 18.35 -122.15 -36.7 -28.45 -36.7 0.5 -125.8 29.45 -36.7" fill="#ffffff" fill-rule="evenodd" stroke="none"/>
    <path d="M0.5 -125.8 L29.45 -36.7 123.15 -36.7 47.35 18.35 64.75 71.95 4.3 68.55 -68.35 86.1 -46.35 18.35 -122.15 -36.7 -28.45 -36.7 0.5 -125.8 Z" fill="none" stroke="#000000" stroke-linecap="butt" stroke-linejoin="miter-clip" stroke-miterlimit="3.0" stroke-width="5.0"/>
    <path d="M-57.3 -20.25 Q-52.35 -28.6 -39.8 -28.1 -25.95 -27.45 -22.0 -18.3 -18.4 -9.9 -22.1 1.25 L-30.55 0.45 -29.2 2.95 -39.6 2.05 -36.9 5.05 Q-45.35 5.15 -49.85 2.65 -56.2 -0.9 -58.6 -6.4 -61.5 -13.2 -57.3 -20.25" fill="#e1a371" fill-rule="evenodd" stroke="none"/>
    <path d="M-57.3 -20.25 Q-52.35 -28.6 -39.8 -28.1 -25.95 -27.45 -22.0 -18.3 -18.4 -9.9 -22.1 1.25 L-30.55 0.45 -29.2 2.95 -39.6 2.05 -36.9 5.05 Q-45.35 5.15 -49.85 2.65 -56.2 -0.9 -58.6 -6.4 -61.5 -13.2 -57.3 -20.25 Z" fill="none" stroke="#000000" stroke-linecap="butt" stroke-linejoin="miter-clip" stroke-miterlimit="3.0" stroke-width="1.0"/>
    <path d="M-52.3 -21.25 Q-49.55 -23.8 -45.45 -25.05 L-36.1 -25.3 Q-28.5 -23.05 -23.8 -17.7 -22.05 -15.75 -26.7 -14.1 -29.0 -13.3 -30.3 -11.15 -31.75 -8.85 -30.95 -6.3 -29.85 -2.7 -31.2 -2.2 -32.45 -0.55 -36.9 0.65 -41.95 1.95 -45.95 0.8 -50.1 -0.4 -53.1 -3.4 -55.95 -6.2 -56.55 -9.25 -57.15 -12.15 -55.9 -15.6 -54.7 -19.05 -52.3 -21.25" fill="#f1d1bb" fill-rule="evenodd" stroke="none"/>
    <path d="M-52.3 -21.25 Q-49.55 -23.8 -45.45 -25.05 L-36.1 -25.3 Q-34.95 -24.95 -36.0 -24.65 L-39.5 -23.9 Q-46.65 -22.4 -50.05 -20.0 -55.7 -16.0 -56.55 -9.25 -57.15 -12.15 -55.9 -15.6 -54.7 -19.05 -52.3 -21.25" fill="#9c6b43" fill-rule="evenodd" stroke="none"/>
    <path d="M-2.15 -74.45 L9.85 -75.05 7.35 -79.25 25.6 -72.25 21.8 -82.85 39.0 -67.95 42.15 -66.45 Q46.4 -63.75 52.2 -57.8 65.55 -44.05 52.2 -4.05 48.95 5.65 35.2 24.2 22.35 41.45 21.8 45.6 20.5 54.75 25.3 66.55 17.65 63.7 9.4 63.7 L-2.05 63.25 -5.85 62.75 Q-2.95 56.35 -5.35 47.15 -5.95 44.6 -7.25 43.35 L-8.4 42.55 Q-21.45 47.3 -38.8 40.3 -45.65 37.55 -49.55 30.3 -52.55 24.75 -52.1 22.15 -51.95 21.45 -51.2 21.0 L-50.45 20.75 -53.75 5.55 Q-55.25 4.95 -56.75 3.25 -58.55 1.15 -57.05 0.0 -52.45 -3.55 -49.75 -11.6 -48.6 -15.1 -46.95 -22.95 -45.1 -32.1 -43.6 -37.5 -37.35 -60.5 -23.1 -68.7 -15.65 -73.0 -2.15 -74.45" fill="#8c592e" fill-rule="evenodd" stroke="none"/>
    <path d="M-2.15 -74.45 Q-15.65 -73.0 -23.1 -68.7 -37.35 -60.5 -43.6 -37.5 -45.1 -32.1 -46.95 -22.95 -48.6 -15.1 -49.75 -11.6 -52.45 -3.55 -57.05 0.0 -58.55 1.15 -56.75 3.25 -55.25 4.95 -53.75 5.55 L-50.45 20.75 -51.2 21.0 Q-51.95 21.45 -52.1 22.15 -52.55 24.75 -49.55 30.3 -45.65 37.55 -38.8 40.3 -21.45 47.3 -8.4 42.55 L-7.25 43.35 Q-5.95 44.6 -5.35 47.15 -2.95 56.35 -5.85 62.75 L-2.05 63.25 9.4 63.7 Q17.65 63.7 25.3 66.55 20.5 54.75 21.8 45.6 22.35 41.45 35.2 24.2 48.95 5.65 52.2 -4.05 65.55 -44.05 52.2 -57.8 46.4 -63.75 42.15 -66.45 L39.0 -67.95 21.8 -82.85 25.6 -72.25 7.35 -79.25 9.85 -75.05 -2.15 -74.45 Z" fill="none" stroke="#000000" stroke-linecap="butt" stroke-linejoin="miter-clip" stroke-miterlimit="3.0" stroke-width="2.0"/>
    <path d="M45.45 -59.85 Q43.4 -62.9 40.75 -65.2 L38.5 -66.95 41.4 -65.6 Q45.45 -63.05 51.3 -57.2 59.3 -49.2 57.95 -33.25 57.0 -22.05 50.9 -4.65 46.45 8.25 34.2 24.2 27.95 32.35 26.0 35.3 22.15 41.2 20.85 46.3 19.3 52.3 23.95 66.2 18.85 68.1 10.6 68.1 9.95 61.35 10.15 51.95 10.6 33.15 14.95 19.85 19.35 6.0 28.25 -2.8 48.25 -22.7 50.25 -37.2 52.05 -50.15 45.45 -59.85" fill="#5c3a1e" fill-rule="evenodd" stroke="none"/>
    <path d="M-3.25 -73.25 Q-6.45 -72.6 -10.65 -70.85 -19.05 -67.4 -24.1 -62.05 -28.2 -57.6 -29.0 -49.2 -29.4 -44.95 -28.95 -41.65 -32.3 -40.3 -39.35 -33.35 -44.95 -27.85 -44.7 -29.05 L-42.8 -36.6 Q-39.85 -47.4 -36.25 -53.8 -30.9 -63.2 -22.2 -68.1 -16.0 -71.5 -3.25 -73.25" fill="#5c3a1e" fill-rule="evenodd" stroke="none"/>
    <path d="M38.6 -6.0 Q42.35 -13.8 47.0 -16.95 53.65 -21.45 60.5 -21.45 69.0 -21.45 74.5 -14.8 81.0 -6.95 74.85 4.4 68.0 16.9 56.5 16.9 45.95 16.9 35.95 9.1 L40.6 1.65 37.35 1.9 43.0 -7.3 38.6 -6.0" fill="#e1a371" fill-rule="evenodd" stroke="none"/>
    <path d="M38.6 -6.0 Q42.35 -13.8 47.0 -16.95 53.65 -21.45 60.5 -21.45 69.0 -21.45 74.5 -14.8 81.0 -6.95 74.85 4.4 68.0 16.9 56.5 16.9 45.95 16.9 35.95 9.1 L40.6 1.65 37.35 1.9 43.0 -7.3 38.6 -6.0 Z" fill="none" stroke="#000000" stroke-linecap="butt" stroke-linejoin="miter-clip" stroke-miterlimit="3.0" stroke-width="1.0"/>
    <path d="M46.1 -9.7 Q46.8 -11.75 50.8 -14.25 55.3 -17.05 59.4 -17.05 63.75 -17.05 67.5 -14.9 71.0 -12.9 72.4 -9.95 75.25 -4.15 71.1 3.15 65.8 12.3 57.15 12.3 49.5 12.3 43.25 8.2 41.05 6.75 45.1 3.7 47.05 2.25 47.75 -0.3 48.5 -3.1 47.0 -5.45 45.7 -7.55 45.75 -8.85 L46.1 -9.7" fill="#f1d1bb" fill-rule="evenodd" stroke="none"/>
    <path d="M57.15 -13.8 Q53.5 -13.6 49.25 -11.25 L45.75 -8.95 Q46.4 -11.8 50.65 -14.4 55.0 -17.05 59.4 -17.05 63.75 -17.05 67.5 -14.9 71.0 -12.9 72.4 -9.95 75.25 -4.15 71.1 3.15 68.35 7.85 64.0 10.4 65.0 9.55 67.0 6.75 71.15 0.85 69.85 -5.2 68.9 -9.6 65.15 -11.95 61.75 -14.1 57.15 -13.8" fill="#9c6b43" fill-rule="evenodd" stroke="none"/>
    <path d="M-48.65 -11.5 Q-48.15 -13.05 -46.05 -23.1 -44.3 -31.25 -41.5 -37.4 -38.75 -43.45 -34.2 -44.6 -30.1 -45.6 -26.15 -42.45 -21.6 -38.8 -21.5 -31.3 -16.45 -35.6 -9.3 -39.5 5.05 -47.3 15.65 -45.35 23.8 -43.9 28.65 -38.45 33.25 -33.3 33.25 -26.35 33.25 -18.3 24.45 -5.85 L28.55 -2.3 Q32.75 1.85 33.05 5.15 34.65 20.1 13.9 32.35 3.5 38.5 -7.2 41.6 -13.1 43.75 -21.8 43.1 -29.6 42.5 -37.1 40.0 -44.1 37.6 -48.3 30.55 -51.5 25.05 -51.1 22.45 -50.95 21.75 -50.2 21.2 L-49.45 20.85 -50.9 13.25 Q-52.45 5.55 -53.1 5.1 -57.4 1.6 -56.45 0.85 -51.5 -3.0 -48.65 -11.5" fill="#e1a371" fill-rule="evenodd" stroke="none"/>
    <path d="M21.25 1.25 L17.2 -1.8 15.25 -2.85 Q27.9 -18.75 29.35 -25.25 30.6 -30.9 28.8 -36.2 L26.75 -40.4 Q33.35 -34.85 33.35 -26.35 33.35 -18.3 24.55 -5.85 L28.65 -2.3 Q32.85 1.85 33.15 5.15 34.75 20.1 14.0 32.35 3.6 38.5 -7.1 41.6 -13.0 43.75 -21.7 43.1 -29.5 42.5 -37.0 40.0 -45.9 36.95 -49.9 27.05 L-48.3 28.9 Q-46.2 31.1 -43.6 32.95 -35.3 38.85 -25.15 38.85 -15.1 38.85 -7.85 37.05 -1.75 35.55 4.95 31.95 12.35 27.95 18.45 21.65 23.65 16.25 24.85 12.65 26.8 6.6 21.25 1.25" fill="#b88056" fill-rule="evenodd" stroke="none"/>
    <path d="M-0.25 20.05 Q-5.75 28.65 -16.0 29.4 -32.45 30.4 -37.95 28.95 -45.55 26.9 -49.0 22.15 -49.75 21.05 -53.1 5.1 L-48.85 7.55 Q-43.3 10.05 -36.75 10.4 -19.8 11.3 -8.45 9.95 -2.95 9.25 7.75 4.9 L-0.25 20.05" fill="#ffffff" fill-rule="evenodd" stroke="none"/>
    <path d="M-12.7 -17.9 L-12.9 -17.85 -12.9 -18.25 -12.7 -17.9 Q0.25 -22.75 3.1 -25.75 4.9 -27.6 10.5 -31.75 L15.75 -35.5 16.75 -30.0 Q18.55 -19.95 10.75 -15.35 2.2 -10.4 -5.75 -12.85 -8.5 -13.7 -10.75 -15.75 L-12.5 -17.6 -12.7 -17.9" fill="#ffffff" fill-rule="evenodd" stroke="none"/>
    <path d="M-44.4 -32.8 L-43.15 -34.5 -41.0 -34.7 Q-38.7 -34.75 -37.75 -33.75 -36.25 -32.1 -33.5 -25.0 L-28.25 -18.75 Q-30.4 -15.75 -34.4 -16.1 -37.6 -16.4 -40.95 -17.9 -44.55 -19.5 -45.5 -21.35 -47.45 -25.05 -46.4 -28.6 -45.75 -30.7 -44.4 -32.8" fill="#ffffff" fill-rule="evenodd" stroke="none"/>
    <path d="M6.35 -28.55 L8.3 -28.8 Q11.3 -28.8 13.6 -26.8 15.85 -24.85 16.3 -21.9 14.75 -17.75 10.75 -15.35 8.25 -13.9 5.65 -13.15 0.25 -15.05 0.25 -20.75 0.25 -22.45 1.0 -24.2 L3.1 -25.75 6.35 -28.55" fill="#000000" fill-rule="evenodd" stroke="none"/>
    <path d="M-3.75 -21.85 Q2.95 -25.65 11.5 -33.2 13.75 -35.2 15.3 -35.2 17.3 -35.25 19.35 -32.3 22.25 -28.05 20.75 -26.6 17.7 -30.65 15.1 -30.75 13.45 -30.8 10.5 -28.6 L3.5 -23.05 Q-2.25 -18.45 -12.15 -16.95 L-3.75 -21.85" fill="#5c3a1e" fill-rule="evenodd" stroke="none"/>
    <path d="M-19.95 -24.3 L-20.0 -20.85 Q-19.3 -17.45 -15.65 -17.45 -7.7 -17.45 1.25 -24.7 L12.1 -33.95 Q16.05 -37.4 19.0 -32.7 20.6 -30.0 21.2 -26.75" fill="none" stroke="#5c3a1e" stroke-linecap="round" stroke-linejoin="miter-clip" stroke-miterlimit="3.0" stroke-width="2.0"/>
    <path d="M-27.1 -25.6 L-27.4 -24.15 Q-27.6 -22.4 -27.0 -20.85 -26.0 -18.35 -24.25 -17.35" fill="none" stroke="#5c3a1e" stroke-linecap="round" stroke-linejoin="miter-clip" stroke-miterlimit="3.0" stroke-width="2.0"/>
    <path d="M-28.25 -18.75 Q-30.4 -15.75 -34.4 -16.1 L-37.8 -16.8 Q-40.4 -18.75 -40.4 -22.1 -40.4 -24.5 -38.9 -26.3 -37.4 -28.15 -35.1 -28.6 L-33.5 -25.0 -28.25 -18.75" fill="#000000" fill-rule="evenodd" stroke="none"/>
    <path d="M-46.25 -29.1 Q-45.9 -30.5 -45.05 -31.95 -43.4 -34.8 -40.85 -34.8 -38.25 -34.8 -36.2 -31.4 L-34.15 -26.8 Q-33.5 -25.2 -28.25 -18.75 -33.9 -21.05 -35.75 -23.8 L-38.0 -27.65 Q-39.3 -29.55 -41.15 -30.1 L-44.8 -29.95 -46.25 -29.1" fill="#5c3a1e" fill-rule="evenodd" stroke="none"/>
    <path d="M-26.45 -18.95 Q-29.15 -18.6 -31.0 -21.8 -34.75 -29.7 -36.4 -31.85 -39.6 -36.0 -42.55 -34.9 L-44.5 -34.0" fill="none" stroke="#5c3a1e" stroke-linecap="round" stroke-linejoin="miter-clip" stroke-miterlimit="3.0" stroke-width="2.0"/>
    <path d="M13.5 -23.75 Q14.5 -21.25 12.8 -20.6 11.2 -20.05 10.2 -22.55 9.3 -25.1 10.9 -25.7 12.5 -26.3 13.5 -23.75" fill="#ffffff" fill-rule="evenodd" stroke="none"/>
    <path d="M-39.75 -4.2 Q-39.75 -6.2 -37.0 -7.55 -34.25 -8.95 -30.35 -8.95 -26.45 -8.95 -23.65 -7.55 -20.9 -6.2 -20.9 -4.2 -20.9 -2.25 -23.65 -0.85 -26.45 0.55 -30.35 0.55 -34.25 0.55 -37.0 -0.85 -39.75 -2.25 -39.75 -4.2 M-37.65 -4.9 Q-37.65 -3.25 -35.4 -2.05 -33.2 -0.9 -30.0 -0.9 -26.8 -0.9 -24.55 -2.05 -22.3 -3.25 -22.3 -4.9 -22.3 -6.55 -24.55 -7.7 -26.8 -8.9 -30.0 -8.9 -33.2 -8.9 -35.4 -7.7 -37.65 -6.55 -37.65 -4.9" fill="#8c592e" fill-rule="evenodd" stroke="none"/>
    <path d="M-33.15 -0.35 L-29.65 -0.45 -33.85 7.15 -33.15 -0.35" fill="#8c592e" fill-rule="evenodd" stroke="none"/>
    <path d="M-51.35 6.2 L-49.55 13.35 Q-47.2 15.7 -41.1 18.65 L-49.0 16.2 -47.3 24.25 -49.55 21.0 -53.3 4.95 -51.35 6.2" fill="#919191" fill-rule="evenodd" stroke="none"/>
    <path d="M2.95 14.45 L0.9 18.05 -7.8 19.65 -22.35 20.15 -31.15 19.65 -15.3 19.25 Q-4.7 18.9 2.95 14.45" fill="#919191" fill-rule="evenodd" stroke="none"/>
  </g>
</svg>
