<?xml version="1.0" encoding="UTF-8" standalone="no"?>
<svg xmlns:ffdec="https://www.free-decompiler.com/flash" xmlns:xlink="http://www.w3.org/1999/xlink" ffdec:objectType="shape" height="44.05px" width="314.05px" xmlns="http://www.w3.org/2000/svg">
  <g transform="matrix(1.0, 0.0, 0.0, 1.0, 158.0, 21.5)">
    <path d="M15.25 -5.5 L13.9 -6.45 Q10.1 -8.65 6.55 -7.85 1.6 -6.95 0.05 -2.8 L-0.55 -0.55 Q-0.75 0.95 -0.55 2.55 L-0.55 2.65 -0.5 2.85 -0.5 3.0 -0.4 3.45 1.65 7.85 2.05 8.25 2.8 8.9 2.95 8.95 3.05 9.05 4.15 9.7 8.25 10.65 9.1 10.7 9.35 10.7 10.85 10.5 10.85 6.45 5.65 6.45 4.45 6.25 4.55 5.75 4.6 5.55 6.65 -2.55 23.1 -2.55 23.1 18.85 22.95 18.95 22.8 19.05 21.75 19.6 21.6 19.7 20.75 20.05 16.65 21.45 16.3 21.55 15.65 21.7 14.55 21.9 14.3 21.95 Q4.7 23.45 -2.55 19.6 -9.6 15.8 -12.35 8.2 -15.55 -0.65 -11.2 -8.7 L-11.1 -8.8 -10.85 -9.3 -10.35 -10.15 -9.4 -11.55 Q-4.6 -18.3 4.45 -19.75 12.1 -21.1 19.6 -17.1 L22.0 -15.55 15.25 -5.5 M32.05 -9.5 Q50.7 -12.45 54.4 -3.1 55.25 -0.95 55.35 1.9 L55.35 21.5 43.9 21.5 43.9 17.6 43.15 18.35 Q38.4 23.0 32.6 21.7 25.7 20.1 24.4 13.65 L24.4 13.5 24.35 13.35 24.35 13.2 24.3 13.0 24.25 12.85 24.25 12.65 24.2 12.5 24.2 12.35 24.35 8.75 24.3 8.75 24.35 8.65 Q24.9 5.75 26.9 3.85 L27.2 3.55 28.65 2.55 29.1 2.25 29.4 2.05 29.45 2.05 29.55 2.0 29.75 1.9 29.9 1.85 30.05 1.8 30.25 1.7 30.75 1.55 30.85 1.5 31.65 1.25 37.3 1.45 39.55 2.3 40.1 2.6 42.3 3.9 42.3 1.75 Q42.3 1.1 41.7 0.0 40.15 -2.55 35.25 -2.3 L33.05 -2.05 28.8 -1.4 27.4 -1.0 29.45 -9.1 32.05 -9.5 M67.5 -5.0 Q68.3 -6.6 69.75 -7.85 72.95 -10.4 76.8 -9.75 80.75 -9.25 82.7 -5.75 L83.15 -4.7 83.8 -5.7 Q86.9 -9.8 91.45 -9.85 99.65 -9.95 100.35 1.3 L100.35 1.35 100.4 2.7 100.4 3.6 Q100.85 0.95 101.9 -1.2 103.05 -3.6 104.95 -5.45 108.6 -8.95 113.95 -9.6 L114.6 -9.7 115.0 -9.7 115.25 -9.7 115.65 -9.75 115.95 -9.75 116.7 -9.75 116.95 -9.75 117.2 -9.75 117.4 -9.7 117.65 -9.7 118.15 -9.6 118.4 -9.6 118.6 -9.55 118.8 -9.55 119.0 -9.5 119.55 -9.4 119.75 -9.35 119.95 -9.3 120.4 -9.2 128.6 -3.2 129.2 -2.4 129.5 -1.95 129.8 -1.55 129.8 -1.5 130.35 -3.4 130.6 -3.95 131.1 -4.8 133.15 -6.95 133.45 -7.15 Q134.45 -7.85 135.75 -8.45 138.95 -9.95 144.6 -9.95 L151.5 -9.0 152.85 -8.65 151.4 0.45 150.1 0.2 144.6 -0.05 Q142.7 0.2 142.6 1.05 L142.6 1.4 Q142.6 2.1 143.1 2.5 L143.45 2.7 145.0 3.2 145.15 3.3 Q150.05 4.85 151.85 6.55 153.75 8.25 154.05 11.45 L154.1 11.9 154.1 12.0 154.1 12.15 Q154.3 15.55 152.15 18.05 L151.35 18.9 151.25 19.0 151.0 19.15 Q147.15 22.3 139.8 22.5 L132.9 21.85 129.6 21.3 129.7 20.6 129.75 20.55 130.0 18.55 130.0 18.6 128.7 19.35 128.6 19.45 Q124.8 21.55 120.05 22.2 113.6 22.9 108.3 19.9 101.5 15.85 100.4 9.3 L100.4 21.1 88.9 21.9 88.85 3.2 Q88.65 0.8 86.1 1.05 84.35 1.3 84.1 3.75 L84.05 4.15 84.0 21.1 72.4 21.9 72.4 3.55 Q72.3 1.3 70.65 1.0 67.9 0.55 67.65 3.65 L67.65 4.15 67.55 5.05 67.5 5.1 67.5 21.1 55.95 21.9 55.95 -8.65 67.5 -9.45 67.5 -5.0 M-113.9 -20.45 L-111.3 5.65 -111.3 5.7 -109.85 20.5 -123.55 21.8 -125.45 0.55 -133.9 22.25 -142.4 0.55 -144.3 21.8 -158.0 20.5 -153.95 -20.45 -140.15 -20.45 -133.9 -3.8 -127.65 -20.45 -113.9 -20.45 M-81.35 -6.2 Q-78.05 -2.95 -77.1 1.6 -76.7 3.45 -76.7 5.55 L-76.75 6.85 -76.75 7.2 -77.1 9.55 Q-77.65 12.1 -78.95 14.3 L-80.25 16.15 Q-83.8 20.55 -89.85 21.65 -98.3 23.2 -104.25 18.3 -109.95 13.55 -110.25 5.55 L-110.25 5.25 -110.25 4.9 -110.25 4.7 -109.6 0.75 -109.2 -0.5 -109.25 -0.5 -108.8 -1.55 -103.8 -7.55 -103.8 -7.6 Q-103.7 -7.7 -103.55 -7.75 L-103.3 -7.95 -103.0 -8.1 -102.85 -8.2 -102.85 -8.25 Q-98.7 -11.0 -93.5 -10.85 -86.05 -10.85 -81.35 -6.2 M-63.95 -5.65 Q-61.6 -9.6 -58.8 -10.5 L-55.15 -10.75 -54.1 -10.45 -56.2 0.5 -56.9 0.45 -57.05 0.45 Q-61.7 0.45 -63.0 4.75 L-63.05 5.0 -63.1 5.05 -63.25 5.65 -63.55 7.2 -63.55 7.3 -63.55 7.4 -63.55 7.45 -63.6 8.2 -63.6 20.75 -76.05 21.55 -76.05 -9.65 -64.4 -10.45 -64.4 -4.8 -63.95 -5.65 M-47.8 -8.35 Q-45.8 -9.25 -43.55 -9.75 L-38.85 -9.85 Q-36.45 -9.8 -34.15 -8.85 L-30.55 -6.8 Q-28.7 -5.5 -27.45 -3.55 L-26.25 -1.35 Q-25.9 -0.3 -25.85 0.8 L-28.75 2.9 -40.75 11.45 -39.75 11.85 -39.2 12.0 -39.15 12.0 Q-36.5 12.4 -33.75 11.45 -32.25 10.85 -30.85 10.0 L-30.1 9.5 -24.9 18.1 -25.0 18.2 -26.8 19.4 Q-30.05 21.35 -34.15 22.15 L-34.6 22.2 -35.9 22.4 Q-42.55 23.15 -47.85 20.0 -57.55 14.2 -55.9 3.45 -55.6 1.5 -54.95 -0.2 -53.7 -3.45 -51.3 -5.8 -49.7 -7.35 -47.8 -8.35 M-39.25 -0.75 Q-42.0 -1.25 -43.75 0.35 L-43.95 0.55 -44.2 0.85 -44.45 1.15 -44.7 1.6 -45.25 3.15 -45.3 4.75 -45.2 5.55 -44.9 6.8 -36.6 0.75 Q-37.65 -0.45 -39.25 -0.75 M-89.65 5.55 Q-89.65 2.1 -92.75 1.55 -93.45 1.4 -94.15 1.55 -96.0 1.85 -96.75 3.15 -97.45 4.35 -97.2 6.45 L-97.15 6.7 Q-96.7 9.1 -94.15 9.6 L-92.75 9.6 -92.55 9.55 -92.45 9.55 -92.0 9.4 -91.9 9.35 -91.8 9.35 -91.75 9.3 -90.9 8.85 -90.3 8.15 -90.1 7.85 -89.95 7.45 -89.9 7.4 -89.8 6.95 Q-89.65 6.4 -89.65 5.7 L-89.65 5.55 M139.25 9.4 L138.1 9.0 Q134.0 7.8 131.85 5.7 L131.75 5.7 Q130.2 4.15 129.8 1.85 L129.7 1.15 121.1 7.35 121.0 7.35 115.25 11.45 116.85 12.0 Q119.55 12.4 122.1 11.45 L124.95 10.05 125.3 9.75 125.7 9.6 130.2 17.05 130.25 17.1 130.95 11.75 132.55 12.2 134.7 12.5 Q137.0 12.85 138.45 12.5 L138.55 12.45 138.8 12.4 139.75 12.1 140.7 11.35 Q141.0 10.5 140.7 10.05 L140.6 10.0 140.4 9.85 139.25 9.4 M116.7 -0.45 Q113.85 -1.05 112.1 0.8 111.15 1.75 110.85 3.05 110.6 4.25 110.9 5.7 L111.2 6.9 119.3 1.0 Q118.35 -0.15 116.7 -0.45 M42.35 10.15 L42.05 9.55 Q40.9 7.95 38.6 8.3 37.2 8.6 36.65 9.55 L36.6 9.6 Q36.1 10.35 36.1 11.1 L36.1 11.2 Q36.15 12.0 36.65 12.7 37.75 14.25 40.05 13.75 L41.1 13.45 42.05 12.7 Q42.95 11.4 42.4 10.15 L42.35 10.15" fill="#000000" fill-rule="evenodd" stroke="none"/>
    <path d="M57.9 9.55 L57.9 -9.7 69.45 -10.5 69.45 -6.05 Q70.25 -7.65 71.7 -8.9 74.9 -11.45 78.75 -10.8 82.7 -10.3 84.65 -6.8 L85.1 -5.75 85.75 -6.75 Q88.85 -10.85 93.4 -10.9 101.6 -11.0 102.3 0.25 L102.3 0.3 102.35 1.65 102.35 2.55 Q102.8 -0.1 103.85 -2.25 105.0 -4.65 106.9 -6.5 110.55 -10.0 115.9 -10.65 L116.55 -10.75 116.95 -10.75 117.2 -10.75 117.6 -10.8 117.9 -10.8 118.65 -10.8 118.9 -10.8 119.15 -10.8 119.35 -10.75 119.6 -10.75 120.1 -10.65 120.35 -10.65 120.55 -10.6 120.75 -10.6 120.95 -10.55 121.5 -10.45 121.7 -10.4 121.9 -10.35 122.35 -10.25 130.55 -4.25 131.15 -3.45 131.45 -3.0 131.75 -2.6 131.75 -2.55 132.3 -4.45 132.55 -5.0 133.05 -5.85 135.1 -8.0 135.4 -8.2 Q136.4 -8.9 137.7 -9.5 140.9 -11.0 146.55 -11.0 L153.45 -10.05 154.8 -9.7 153.35 -0.6 152.05 -0.85 146.55 -1.1 Q144.65 -0.85 144.55 0.0 L144.55 0.35 Q144.55 1.05 145.05 1.45 L145.4 1.65 146.95 2.15 133.8 4.65 133.7 4.65 Q132.15 3.1 131.75 0.8 L131.65 0.1 123.05 6.3 122.95 6.3 102.55 8.4 102.35 7.7 102.35 8.25 102.35 8.4 90.85 9.15 90.8 2.15 Q90.6 -0.25 88.05 0.0 86.3 0.25 86.05 2.7 L86.0 3.1 85.95 9.4 74.35 9.7 74.35 2.5 Q74.25 0.25 72.6 -0.05 69.85 -0.5 69.6 2.6 L69.6 3.1 69.5 4.0 69.45 4.05 69.45 9.7 68.45 9.75 57.9 9.55 M-9.15 -9.85 L-8.9 -10.35 -8.4 -11.2 -7.45 -12.6 Q-2.65 -19.35 6.4 -20.8 14.05 -22.15 21.55 -18.15 L23.95 -16.6 17.2 -6.55 15.85 -7.5 Q12.05 -9.7 8.5 -8.9 3.55 -8.0 2.0 -3.85 L1.4 -1.6 Q1.2 -0.1 1.4 1.5 L1.4 1.6 1.45 1.8 1.45 1.95 Q1.65 3.35 2.15 4.55 L-11.6 1.8 Q-12.2 -4.25 -9.15 -9.85 M12.8 6.15 L12.8 5.4 7.6 5.4 6.4 5.2 6.5 4.7 6.55 4.5 8.6 -3.6 25.05 -3.6 25.05 7.55 12.8 6.15 M26.3 7.7 L26.25 7.7 26.3 7.6 Q26.85 4.7 28.85 2.8 L29.15 2.5 Q29.8 1.95 30.6 1.5 L31.05 1.2 31.35 1.0 31.4 1.0 31.5 0.95 31.7 0.85 31.85 0.8 32.0 0.75 32.2 0.65 32.7 0.5 32.8 0.45 33.6 0.2 39.25 0.4 41.5 1.25 42.05 1.55 44.25 2.85 44.25 0.7 Q44.25 0.05 43.65 -1.05 42.1 -3.6 37.2 -3.35 L35.0 -3.1 30.75 -2.45 29.35 -2.05 31.4 -10.15 34.0 -10.55 Q52.65 -13.5 56.35 -4.15 57.2 -2.0 57.3 0.85 L57.3 9.55 44.35 9.1 44.3 9.1 44.0 8.5 Q42.85 6.9 40.55 7.25 39.15 7.55 38.6 8.5 L38.55 8.55 38.45 8.7 26.3 7.7 M118.65 -1.5 Q115.8 -2.1 114.05 -0.25 113.1 0.7 112.8 2.0 112.55 3.2 112.85 4.65 L113.15 5.85 121.25 -0.05 Q120.3 -1.2 118.65 -1.5" fill="#ffffff" fill-rule="evenodd" stroke="none"/>
    <path d="M146.95 2.15 L147.1 2.25 Q152.0 3.8 153.8 5.5 155.7 7.2 156.0 10.4 L156.05 10.85 156.05 10.95 156.05 11.1 Q156.25 14.5 154.1 17.0 L153.3 17.85 153.2 17.95 152.95 18.1 Q149.1 21.25 141.75 21.45 L134.85 20.8 131.55 20.25 131.65 19.55 131.7 19.5 131.95 17.5 131.95 17.55 130.65 18.3 130.55 18.4 Q126.75 20.5 122.0 21.15 115.55 21.85 110.25 18.85 103.45 14.8 102.35 8.25 L102.35 7.7 102.55 8.4 122.95 6.3 117.2 10.4 118.8 10.95 Q121.5 11.35 124.05 10.4 L126.9 9.0 127.25 8.7 127.65 8.55 132.15 16.0 132.2 16.05 132.9 10.7 134.5 11.15 136.65 11.45 Q138.95 11.8 140.4 11.45 L140.5 11.4 140.75 11.35 141.7 11.05 142.65 10.3 Q142.95 9.45 142.65 9.0 L142.55 8.95 142.35 8.8 141.2 8.35 140.05 7.95 Q135.95 6.75 133.8 4.65 L146.95 2.15 M102.35 8.4 L102.35 20.05 90.85 20.85 90.85 9.15 102.35 8.4 M85.95 9.4 L85.95 20.05 74.35 20.85 74.35 9.7 85.95 9.4 M69.45 9.7 L69.45 20.05 57.9 20.85 57.9 9.55 68.45 9.75 69.45 9.7 M1.45 1.95 L1.55 2.4 3.6 6.8 4.0 7.2 4.75 7.85 4.9 7.9 5.0 8.0 6.1 8.65 10.2 9.6 11.05 9.65 11.3 9.65 12.8 9.45 12.8 6.15 25.05 7.55 25.05 17.8 24.9 17.9 Q24.8 17.9 24.75 18.0 L23.7 18.55 Q23.6 18.55 23.55 18.65 L22.7 19.0 18.6 20.4 18.25 20.5 17.6 20.65 16.5 20.85 16.25 20.9 Q6.65 22.4 -0.6 18.55 -7.65 14.75 -10.4 7.15 -13.6 -1.7 -9.25 -9.75 L-9.15 -9.85 Q-12.2 -4.25 -11.6 1.8 L2.15 4.55 Q1.65 3.35 1.45 1.95 M57.3 9.55 L57.3 20.45 45.85 20.45 45.85 16.55 45.1 17.3 Q40.35 21.95 34.55 20.65 27.65 19.05 26.35 12.6 L26.35 12.45 26.3 12.3 26.3 12.15 26.25 11.95 26.2 11.8 26.2 11.6 26.15 11.45 26.15 11.3 26.3 7.7 38.45 8.7 38.55 8.55 Q38.05 9.3 38.05 10.05 L38.05 10.15 Q38.1 10.95 38.6 11.65 39.7 13.2 42.0 12.7 L43.05 12.4 44.0 11.65 Q44.9 10.35 44.35 9.1 L57.3 9.55" fill="#f8a736" fill-rule="evenodd" stroke="none"/>
    <path d="M-74.1 6.95 L-74.1 -10.7 -62.45 -11.5 -62.45 -5.85 -62.0 -6.7 Q-59.65 -10.65 -56.85 -11.55 L-53.2 -11.8 -52.15 -11.5 -54.25 -0.55 -54.95 -0.6 -55.1 -0.6 Q-59.75 -0.6 -61.05 3.7 L-61.1 3.95 -61.15 4.0 -61.3 4.6 -61.6 6.15 -61.6 6.25 -61.6 6.35 -61.6 6.4 -61.65 7.15 -74.1 6.95 M-53.95 2.4 Q-53.65 0.45 -53.0 -1.25 -51.75 -4.5 -49.35 -6.85 -47.75 -8.4 -45.85 -9.4 -43.85 -10.3 -41.6 -10.8 L-36.9 -10.9 Q-34.5 -10.85 -32.2 -9.9 -30.2 -8.95 -28.6 -7.85 -26.75 -6.55 -25.5 -4.6 L-24.3 -2.4 Q-23.95 -1.35 -23.9 -0.25 L-26.8 1.85 -39.65 3.35 -34.65 -0.3 Q-35.7 -1.5 -37.3 -1.8 -40.05 -2.3 -41.8 -0.7 L-42.0 -0.5 -42.25 -0.2 -42.5 0.1 -42.75 0.55 -43.3 2.1 -43.35 3.7 -54.15 4.65 -53.95 2.4 M-154.05 -0.6 L-152.0 -21.5 -138.2 -21.5 -131.95 -4.85 -125.7 -21.5 -111.95 -21.5 -109.35 4.6 -109.35 4.65 -109.35 4.95 -123.1 4.0 -123.5 -0.5 -125.2 3.85 -139.3 2.45 -140.45 -0.5 -140.7 2.3 -154.15 0.6 -154.05 -0.6 M-108.3 4.5 L-108.3 4.2 -108.3 3.85 -108.3 3.65 -107.65 -0.3 -107.25 -1.55 -107.3 -1.55 -106.85 -2.6 -101.85 -8.6 -101.85 -8.65 -101.6 -8.8 -101.35 -9.0 -101.05 -9.15 -100.9 -9.25 -100.9 -9.3 Q-96.75 -12.05 -91.55 -11.9 -84.1 -11.9 -79.4 -7.25 -76.1 -4.0 -75.15 0.55 -74.75 2.4 -74.75 4.5 L-74.8 5.8 -74.8 6.15 -87.85 5.9 Q-87.7 5.35 -87.7 4.65 L-87.7 4.5 Q-87.7 1.05 -90.8 0.5 -91.5 0.35 -92.2 0.5 -94.05 0.8 -94.8 2.1 -95.5 3.3 -95.25 5.4 L-95.2 5.65 -108.25 5.0 -108.3 4.5" fill="#ffffff" fill-rule="evenodd" stroke="none"/>
    <path d="M-61.65 7.15 L-61.65 19.7 -74.1 20.5 -74.1 6.95 -61.65 7.15 M-26.8 1.85 L-38.8 10.4 -37.8 10.8 -37.25 10.95 -37.2 10.95 Q-34.55 11.35 -31.8 10.4 L-28.9 8.95 -28.15 8.45 -22.95 17.05 -23.05 17.15 -24.85 18.35 Q-28.1 20.3 -32.2 21.1 L-32.65 21.15 -33.95 21.35 Q-40.6 22.1 -45.9 18.95 -55.6 13.15 -53.95 2.4 L-54.15 4.65 -43.35 3.7 -43.25 4.5 -42.95 5.75 -39.65 3.35 -26.8 1.85 M-109.35 4.95 L-107.9 19.45 -121.6 20.75 -123.1 4.0 -109.35 4.95 M-125.2 3.85 L-131.95 21.2 -139.3 2.45 -125.2 3.85 M-140.7 2.3 L-142.35 20.75 -156.05 19.45 -154.05 -0.6 -154.15 0.6 -140.7 2.3 M-74.8 6.15 L-75.15 8.5 Q-75.7 11.05 -77.0 13.25 L-78.3 15.1 Q-81.85 19.5 -87.9 20.6 -96.35 22.15 -102.3 17.25 -108.0 12.5 -108.3 4.5 L-108.25 5.0 -95.2 5.65 Q-94.75 8.05 -92.2 8.55 L-90.8 8.55 -90.6 8.5 -90.5 8.5 -90.05 8.35 -89.95 8.3 -89.85 8.3 -89.8 8.25 -88.95 7.8 -88.35 7.1 -88.15 6.8 -88.0 6.4 -87.95 6.35 -87.85 5.9 -74.8 6.15" fill="#f8a736" fill-rule="evenodd" stroke="none"/>
  </g>
</svg>
