<?xml version="1.0" encoding="UTF-8" standalone="no"?>
<svg xmlns:ffdec="https://www.free-decompiler.com/flash" xmlns:xlink="http://www.w3.org/1999/xlink" ffdec:objectType="shape" height="30.3px" width="162.2px" xmlns="http://www.w3.org/2000/svg">
  <g transform="matrix(1.0, 0.0, 0.0, 1.0, 60.0, 15.15)">
    <path d="M17.8 -14.85 L35.35 -14.85 37.65 -14.7 60.0 -14.7 60.0 -15.0 62.2 -15.15 92.2 -15.15 Q102.2 -15.15 102.2 -5.15 L102.2 4.85 Q102.2 14.85 92.2 14.85 L66.0 14.85 66.0 15.15 17.8 15.15 17.8 15.0 -50.0 15.0 Q-60.0 15.0 -60.0 5.0 L-60.0 -5.0 Q-60.0 -15.0 -50.0 -15.0 L-20.0 -15.0 -17.7 -14.85 17.7 -14.85 17.8 -14.85" fill="#ffffff" fill-rule="evenodd" stroke="none"/>
  </g>
</svg>
