<?xml version="1.0" encoding="UTF-8" standalone="no"?>
<svg xmlns:ffdec="https://www.free-decompiler.com/flash" xmlns:xlink="http://www.w3.org/1999/xlink" ffdec:objectType="shape" height="61.65px" width="345.2px" xmlns="http://www.w3.org/2000/svg">
  <g transform="matrix(1.0, 0.0, 0.0, 1.0, 66.15, -3.85)">
    <path d="M147.45 23.25 L146.35 47.15 M147.8 22.5 L164.5 48.6 166.0 19.25 M107.9 34.5 L115.55 34.5 M107.55 24.3 L120.6 21.75 M107.2 22.85 L106.85 47.95 125.3 46.45 M76.7 25.4 L80.35 46.45 88.7 26.1 99.75 47.75 100.65 21.4 M66.25 21.75 Q69.9 21.75 72.5 25.95 75.05 30.1 75.05 36.0 75.05 41.85 72.5 46.05 70.65 49.05 68.25 49.9 L66.25 50.2 64.35 49.9 Q61.9 49.05 60.05 46.05 57.5 41.85 57.5 36.0 57.5 30.1 60.05 25.95 62.6 21.75 66.25 21.75 M48.75 21.75 L48.75 48.6 58.2 48.6 M46.95 50.0 L34.3 50.0 31.35 21.75 M-18.7 5.45 L-20.9 56.25" fill="none" stroke="#ef1304" stroke-linecap="butt" stroke-linejoin="round" stroke-width="1.0" vector-effect="non-scaling-stroke"/>
    <path d="M133.65 33.4 L128.25 33.75 M6.7 42.5 L7.05 42.5 8.15 42.5 M3.85 56.25 L3.85 29.8 3.8 4.35 M-63.25 16.45 Q-65.75 25.25 -65.65 37.0 M-42.65 62.8 L-46.85 37.0" fill="none" stroke="#ef1304" stroke-linecap="butt" stroke-linejoin="round" stroke-width="1.0" vector-effect="non-scaling-stroke"/>
    <path d="M128.25 33.75 L128.9 46.35 142.4 45.35 M128.25 33.75 L128.25 23.25 142.75 21.75 M23.95 42.15 L24.1 52.6 M3.85 29.8 L-19.05 35.9 M-46.85 37.0 Q-48.3 24.1 -50.9 15.7 -53.55 7.2 -57.15 7.45 -60.75 7.65 -63.25 16.45 M-65.65 37.0 L-64.75 58.8" fill="none" stroke="#ef1304" stroke-linecap="round" stroke-linejoin="round" stroke-width="1.0" vector-effect="non-scaling-stroke"/>
    <path d="M8.15 42.5 L8.55 42.5 Q8.5 35.35 10.7 30.05 12.9 24.7 16.1 24.55 19.3 24.4 21.6 29.55 23.9 34.65 23.95 42.15 L8.55 42.5 8.15 53.35 8.15 42.5 M-65.65 37.0 L-46.85 37.0" fill="none" stroke="#ef1304" stroke-linecap="round" stroke-linejoin="round" stroke-width="1.0" vector-effect="non-scaling-stroke"/>
    <path d="M248.7 25.5 L250.65 27.1" fill="none" stroke="#ef1304" stroke-linecap="butt" stroke-linejoin="round" stroke-width="1.0" vector-effect="non-scaling-stroke"/>
    <path d="M242.1 28.25 L239.6 28.7 Q234.25 30.2 234.95 35.45 235.55 40.35 239.6 41.55 L242.15 41.95 243.65 41.8 Q245.9 41.3 247.4 39.15 M249.7 30.5 L250.65 42.3 M222.3 38.9 Q222.8 42.45 225.05 44.0 L230.0 44.15 Q232.65 42.75 234.55 38.8 M269.45 17.25 L267.85 42.2 Q273.45 42.05 278.55 43.5 M185.25 38.75 Q182.95 46.55 191.25 49.55 199.55 52.6 203.6 44.8 205.5 41.1 203.7 37.55 202.2 34.2 194.35 31.85 186.5 29.4 185.7 26.1 184.8 22.75 188.35 19.05 191.9 15.4 197.5 16.85 203.0 18.35 205.35 20.6 M204.2 65.0 Q205.6 53.55 206.15 41.65 206.5 32.5 215.1 30.65 L216.05 30.6 Q222.25 33.1 218.5 38.8 216.65 41.65 213.2 41.3 L208.95 40.4" fill="none" stroke="#ef1304" stroke-linecap="butt" stroke-linejoin="round" stroke-width="1.0" vector-effect="non-scaling-stroke"/>
    <path d="M265.25 43.25 L263.7 35.9 M222.3 38.9 Q221.8 35.35 223.0 32.55" fill="none" stroke="#ef1304" stroke-linecap="butt" stroke-linejoin="round" stroke-width="1.0" vector-effect="non-scaling-stroke"/>
    <path d="M263.7 35.9 L263.45 34.4 Q261.9 41.85 256.7 41.55 253.9 38.9 253.8 35.25 253.8 33.95 254.5 32.95 258.15 27.05 263.9 32.4 L263.45 34.4 M263.7 35.9 L263.9 32.4 M223.0 32.55 Q223.9 29.1 227.2 28.15 229.7 27.45 229.2 29.5 227.95 34.45 223.0 32.55" fill="none" stroke="#ef1304" stroke-linecap="round" stroke-linejoin="round" stroke-width="1.0" vector-effect="non-scaling-stroke"/>
    <path d="M263.9 32.4 L264.1 31.75" fill="none" stroke="#ef1304" stroke-linecap="round" stroke-linejoin="round" stroke-width="1.0" vector-effect="non-scaling-stroke"/>
  </g>
</svg>
