<?xml version="1.0" encoding="UTF-8" standalone="no"?>
<svg xmlns:ffdec="https://www.free-decompiler.com/flash" xmlns:xlink="http://www.w3.org/1999/xlink" ffdec:objectType="shape" height="24.05px" width="220.3px" xmlns="http://www.w3.org/2000/svg">
  <g transform="matrix(1.0, 0.0, 0.0, 1.0, 109.4, 11.05)">
    <path d="M8.95 -8.55 Q9.75 -7.75 10.15 -6.7 10.55 -5.65 10.55 -4.25 L10.25 -2.1 9.4 -0.4 7.95 0.9 Q7.15 1.45 6.05 1.8 L7.05 2.4 7.9 3.3 8.65 4.45 9.35 5.9 11.3 10.5 11.65 11.5 11.75 12.0 11.7 12.35 11.35 12.55 10.55 12.65 9.15 12.7 7.95 12.65 7.25 12.55 6.85 12.3 6.7 11.9 4.6 6.75 3.85 5.15 3.05 4.05 Q2.6 3.55 2.05 3.35 L0.7 3.1 -0.75 3.1 -0.75 11.95 -0.85 12.3 -1.25 12.5 -1.95 12.65 -3.1 12.7 -4.25 12.65 -5.0 12.5 -5.35 12.3 -5.45 11.95 -5.45 -9.15 Q-5.45 -9.9 -5.05 -10.25 -4.65 -10.6 -4.05 -10.6 L1.95 -10.6 3.45 -10.6 4.55 -10.5 7.05 -9.8 Q8.15 -9.35 8.95 -8.55 M1.35 -7.0 L-0.75 -7.0 -0.75 -0.45 1.65 -0.45 3.4 -0.65 4.65 -1.35 5.4 -2.4 5.65 -3.75 Q5.65 -4.9 5.15 -5.7 4.65 -6.5 3.45 -6.8 L2.65 -6.95 1.35 -7.0 M17.0 -7.75 Q18.4 -9.35 20.5 -10.2 22.6 -11.05 25.35 -11.05 28.0 -11.05 30.0 -10.35 32.05 -9.65 33.4 -8.2 34.75 -6.75 35.45 -4.5 36.1 -2.3 36.1 0.7 36.1 3.6 35.4 5.9 34.7 8.15 33.25 9.75 31.85 11.35 29.75 12.2 27.65 13.0 24.9 13.0 L20.2 12.3 Q18.15 11.6 16.85 10.15 15.5 8.7 14.8 6.45 14.15 4.2 14.15 1.15 14.15 -1.7 14.85 -3.95 15.55 -6.2 17.0 -7.75 M22.3 -6.5 Q21.1 -5.85 20.4 -4.75 19.7 -3.65 19.4 -2.2 19.1 -0.75 19.1 0.9 19.1 2.8 19.4 4.35 19.65 5.85 20.35 6.9 21.05 8.0 22.15 8.55 23.3 9.1 25.05 9.1 26.8 9.1 27.95 8.45 29.15 7.85 29.85 6.7 30.55 5.6 30.9 4.15 L31.15 0.95 30.9 -2.35 Q30.6 -3.85 29.9 -4.9 29.2 -6.0 28.05 -6.55 26.9 -7.15 25.2 -7.15 23.45 -7.15 22.3 -6.5 M47.2 -6.5 Q46.0 -5.85 45.3 -4.75 44.6 -3.65 44.3 -2.2 44.0 -0.75 44.0 0.9 44.0 2.8 44.3 4.35 44.55 5.85 45.25 6.9 45.95 8.0 47.05 8.55 48.2 9.1 49.95 9.1 51.7 9.1 52.85 8.45 54.05 7.85 54.75 6.7 55.45 5.6 55.8 4.15 L56.05 0.95 55.8 -2.35 Q55.5 -3.85 54.8 -4.9 54.1 -6.0 52.95 -6.55 51.8 -7.15 50.1 -7.15 48.35 -7.15 47.2 -6.5 M45.4 -10.2 Q47.5 -11.05 50.25 -11.05 L54.9 -10.35 Q56.95 -9.65 58.3 -8.2 59.65 -6.75 60.35 -4.5 61.0 -2.3 61.0 0.7 61.0 3.6 60.3 5.9 59.6 8.15 58.15 9.75 56.75 11.35 54.65 12.2 52.55 13.0 49.8 13.0 L45.1 12.3 Q43.05 11.6 41.75 10.15 40.4 8.7 39.7 6.45 39.05 4.2 39.05 1.15 39.05 -1.7 39.75 -3.95 40.45 -6.2 41.9 -7.75 43.3 -9.35 45.4 -10.2 M69.45 -6.95 L69.45 11.95 69.35 12.3 69.0 12.5 68.3 12.65 67.2 12.7 66.15 12.65 65.45 12.5 65.1 12.3 65.0 11.95 65.0 -8.75 Q65.0 -9.65 65.45 -10.15 65.95 -10.6 66.75 -10.6 L69.85 -10.6 71.25 -10.5 72.3 -10.05 73.0 -9.2 73.5 -7.95 78.55 5.9 78.6 5.9 83.8 -7.9 84.3 -9.2 84.95 -10.05 85.85 -10.5 87.0 -10.6 90.15 -10.6 91.0 -10.5 91.6 -10.1 91.95 -9.55 92.05 -8.75 92.05 11.95 91.95 12.3 91.6 12.5 90.9 12.65 89.8 12.7 88.7 12.65 88.05 12.5 87.7 12.3 87.55 11.95 87.55 -6.95 80.8 11.95 80.55 12.35 80.15 12.55 79.45 12.7 78.4 12.7 77.35 12.65 76.65 12.55 76.2 12.3 76.0 11.95 69.5 -6.95 69.45 -6.95 M100.9 -10.6 L103.9 -11.05 105.55 -10.9 107.1 -10.55 108.4 -10.1 109.1 -9.65 109.35 -9.35 109.5 -9.0 109.55 -8.45 109.55 -7.7 109.55 -6.8 109.45 -6.2 109.25 -5.9 Q109.15 -5.75 108.95 -5.75 108.75 -5.75 108.3 -6.05 L107.25 -6.55 105.8 -7.1 104.0 -7.35 102.65 -7.15 Q102.05 -7.0 101.7 -6.65 L101.1 -5.85 100.9 -4.85 Q100.9 -4.1 101.35 -3.5 101.75 -2.95 102.5 -2.5 L104.05 -1.7 105.9 -0.9 107.75 0.1 109.35 1.4 110.45 3.2 Q110.9 4.25 110.9 5.65 110.9 7.45 110.2 8.85 109.55 10.25 108.35 11.15 107.2 12.1 105.65 12.55 L102.3 13.0 100.05 12.8 98.25 12.35 96.95 11.75 96.15 11.2 95.85 10.55 95.75 9.3 95.75 8.35 95.9 7.75 96.1 7.4 96.4 7.3 Q96.65 7.3 97.15 7.6 L98.3 8.25 100.0 8.9 102.3 9.2 103.85 9.0 Q104.55 8.8 105.05 8.4 L105.75 7.5 106.0 6.25 Q106.0 5.45 105.55 4.9 L104.45 3.9 102.85 3.05 101.05 2.25 99.25 1.3 97.7 -0.05 Q97.0 -0.8 96.55 -1.85 96.15 -2.9 96.15 -4.35 96.15 -6.0 96.75 -7.25 97.35 -8.55 98.4 -9.35 99.45 -10.2 100.9 -10.6 M-104.95 -6.95 L-104.95 11.95 -105.05 12.3 -105.4 12.5 -106.1 12.65 -107.2 12.7 -108.25 12.65 -108.95 12.5 -109.3 12.3 -109.4 11.95 -109.4 -8.75 Q-109.4 -9.65 -108.95 -10.15 -108.45 -10.6 -107.65 -10.6 L-104.55 -10.6 -103.15 -10.5 -102.1 -10.05 -101.4 -9.2 -100.9 -7.95 -95.85 5.9 -95.8 5.9 -90.6 -7.9 -90.1 -9.2 -89.45 -10.05 -88.55 -10.5 -87.4 -10.6 -84.25 -10.6 -83.4 -10.5 -82.8 -10.1 -82.45 -9.55 -82.35 -8.75 -82.35 11.95 -82.45 12.3 -82.8 12.5 -83.5 12.65 -84.6 12.7 -85.7 12.65 -86.35 12.5 -86.7 12.3 -86.85 11.95 -86.85 -6.95 -93.6 11.95 -93.85 12.35 -94.25 12.55 -94.95 12.7 -96.0 12.7 -97.05 12.65 -97.75 12.55 -98.2 12.3 -98.4 11.95 -104.9 -6.95 -104.95 -6.95 M-73.1 -2.2 L-73.4 0.9 -73.1 4.35 Q-72.85 5.85 -72.15 6.9 -71.45 8.0 -70.35 8.55 L-67.45 9.1 Q-65.7 9.1 -64.55 8.45 -63.35 7.85 -62.65 6.7 -61.95 5.6 -61.6 4.15 -61.35 2.65 -61.35 0.95 -61.35 -0.85 -61.6 -2.35 -61.9 -3.85 -62.6 -4.9 -63.3 -6.0 -64.45 -6.55 -65.6 -7.15 -67.3 -7.15 -69.05 -7.15 -70.2 -6.5 -71.4 -5.85 -72.1 -4.75 -72.8 -3.65 -73.1 -2.2 M-75.5 -7.75 Q-74.1 -9.35 -72.0 -10.2 -69.9 -11.05 -67.15 -11.05 L-62.5 -10.35 Q-60.45 -9.65 -59.1 -8.2 -57.75 -6.75 -57.05 -4.5 -56.4 -2.3 -56.4 0.7 -56.4 3.6 -57.1 5.9 -57.8 8.15 -59.25 9.75 -60.65 11.35 -62.75 12.2 -64.85 13.0 -67.6 13.0 -70.3 13.0 -72.3 12.3 -74.35 11.6 -75.65 10.15 -77.0 8.7 -77.7 6.45 -78.35 4.2 -78.35 1.15 -78.35 -1.7 -77.65 -3.95 -76.95 -6.2 -75.5 -7.75 M-52.0 -10.25 L-51.0 -10.6 -45.0 -10.6 -43.5 -10.6 -42.4 -10.5 -39.9 -9.8 Q-38.8 -9.35 -38.0 -8.55 -37.2 -7.75 -36.8 -6.7 -36.4 -5.65 -36.4 -4.25 -36.4 -3.1 -36.7 -2.1 -37.0 -1.15 -37.55 -0.4 L-39.0 0.9 Q-39.8 1.45 -40.9 1.8 L-39.9 2.4 -39.05 3.3 -38.3 4.45 -37.6 5.9 -35.65 10.5 -35.3 11.5 -35.2 12.0 -35.25 12.35 -35.6 12.55 -36.4 12.65 -37.8 12.7 -39.0 12.65 -39.7 12.55 -40.1 12.3 -40.25 11.9 -42.35 6.75 -43.1 5.15 -43.9 4.05 Q-44.35 3.55 -44.9 3.35 L-46.25 3.1 -47.7 3.1 -47.7 11.95 -47.8 12.3 -48.2 12.5 -48.9 12.65 -50.05 12.7 -51.2 12.65 -51.95 12.5 -52.3 12.3 -52.4 11.95 -52.4 -9.15 Q-52.4 -9.9 -52.0 -10.25 M-44.3 -6.95 L-45.6 -7.0 -47.7 -7.0 -47.7 -0.45 -45.3 -0.45 -43.55 -0.65 Q-42.8 -0.9 -42.3 -1.35 -41.8 -1.8 -41.55 -2.4 -41.3 -3.0 -41.3 -3.75 -41.3 -4.9 -41.8 -5.7 -42.3 -6.5 -43.5 -6.8 L-44.3 -6.95 M-27.0 -1.25 L-20.0 -1.25 -19.7 -1.15 -19.5 -0.85 -19.35 -0.3 -19.3 0.55 -19.35 1.4 -19.5 2.0 -19.7 2.25 -20.0 2.35 -27.0 2.35 -27.0 8.9 -18.65 8.9 -18.35 9.0 -18.15 9.3 -18.0 9.9 -17.95 10.75 -18.0 11.65 -18.15 12.2 -18.35 12.5 -18.65 12.6 -30.3 12.6 Q-30.9 12.6 -31.3 12.25 -31.7 11.9 -31.7 11.1 L-31.7 -9.15 Q-31.7 -9.9 -31.3 -10.25 -30.9 -10.6 -30.3 -10.6 L-18.75 -10.6 -18.45 -10.55 -18.25 -10.2 -18.1 -9.65 -18.05 -8.75 -18.1 -7.9 -18.25 -7.35 -18.45 -7.0 -18.75 -6.9 -27.0 -6.9 -27.0 -1.25" fill="#ff0000" fill-rule="evenodd" stroke="none"/>
  </g>
</svg>
