<?xml version="1.0" encoding="UTF-8" standalone="no"?>
<svg xmlns:ffdec="https://www.free-decompiler.com/flash" xmlns:xlink="http://www.w3.org/1999/xlink" ffdec:objectType="shape" height="114.65px" width="169.75px" xmlns="http://www.w3.org/2000/svg">
  <g transform="matrix(1.0, 0.0, 0.0, 1.0, 84.85, 0.5)">
    <path d="M63.15 0.15 Q73.05 -1.15 74.35 8.75 L84.25 84.05 Q85.55 93.95 75.65 95.25 L-63.1 113.5 Q-73.0 114.8 -74.3 104.9 L-84.2 29.6 Q-85.5 19.7 -75.6 18.4 L63.15 0.15" fill="#000000" fill-rule="evenodd" stroke="none"/>
    <path d="M63.15 0.15 L-75.6 18.4 Q-85.5 19.7 -84.2 29.6 L-74.3 104.9 Q-73.0 114.8 -63.1 113.5 L75.65 95.25 Q85.55 93.95 84.25 84.05 L74.35 8.75 Q73.05 -1.15 63.15 0.15 Z" fill="none" stroke="#000000" stroke-linecap="round" stroke-linejoin="round" stroke-width="1.0"/>
  </g>
</svg>
