<?xml version="1.0" encoding="UTF-8" standalone="no"?>
<svg xmlns:ffdec="https://www.free-decompiler.com/flash" xmlns:xlink="http://www.w3.org/1999/xlink" ffdec:objectType="shape" height="32.0px" width="108.8px" xmlns="http://www.w3.org/2000/svg">
  <g transform="matrix(1.0, 0.0, 0.0, 1.0, 54.4, 16.0)">
    <path d="M54.4 -3.2 L54.4 3.2 Q54.4 8.45 50.65 12.2 L50.6 12.25 Q46.85 16.0 41.6 16.0 L-41.6 16.0 Q-46.85 16.0 -50.65 12.25 -54.4 8.5 -54.4 3.2 L-54.4 -3.2 Q-54.4 -8.45 -50.65 -12.25 -46.85 -16.0 -41.6 -16.0 L41.6 -16.0 Q46.9 -16.0 50.65 -12.25 54.4 -8.45 54.4 -3.2 M53.6 -3.2 Q53.6 -8.15 50.05 -11.7 46.55 -15.2 41.6 -15.2 L-41.6 -15.2 Q-46.55 -15.2 -50.05 -11.7 L-50.1 -11.65 Q-53.6 -8.15 -53.6 -3.2 L-53.6 3.2 Q-53.6 8.15 -50.1 11.65 -46.55 15.2 -41.6 15.2 L41.6 15.2 Q46.55 15.2 50.05 11.65 53.6 8.15 53.6 3.2 L53.6 -3.2" fill="#f7f7f7" fill-opacity="0.24705882" fill-rule="evenodd" stroke="none"/>
    <path d="M52.8 -3.2 L52.8 3.2 Q52.8 7.8 49.5 11.1 46.2 14.4 41.6 14.4 L-41.6 14.4 Q-46.25 14.4 -49.55 11.1 -52.8 7.85 -52.8 3.2 L-52.8 -3.2 Q-52.8 -7.8 -49.55 -11.1 L-49.5 -11.15 Q-46.2 -14.4 -41.6 -14.4 L41.6 -14.4 Q46.25 -14.4 49.5 -11.15 52.8 -7.85 52.8 -3.2 M52.0 -3.2 Q52.0 -7.5 48.95 -10.55 45.9 -13.6 41.6 -13.6 L-41.6 -13.6 Q-45.9 -13.6 -48.95 -10.55 -52.0 -7.5 -52.0 -3.2 L-52.0 3.2 Q-52.0 7.5 -48.95 10.55 -45.9 13.6 -41.6 13.6 L41.6 13.6 Q45.9 13.6 48.95 10.55 52.0 7.5 52.0 3.2 L52.0 -3.2" fill="#f7f7f7" fill-opacity="0.7490196" fill-rule="evenodd" stroke="none"/>
    <path d="M52.0 -3.2 L52.0 3.2 Q52.0 7.5 48.95 10.55 45.9 13.6 41.6 13.6 L-41.6 13.6 Q-45.9 13.6 -48.95 10.55 -52.0 7.5 -52.0 3.2 L-52.0 -3.2 Q-52.0 -7.5 -48.95 -10.55 -45.9 -13.6 -41.6 -13.6 L41.6 -13.6 Q45.9 -13.6 48.95 -10.55 52.0 -7.5 52.0 -3.2" fill="#ffffff" fill-rule="evenodd" stroke="none"/>
    <path d="M53.6 -3.2 L53.6 3.2 Q53.6 8.15 50.05 11.65 46.55 15.2 41.6 15.2 L-41.6 15.2 Q-46.55 15.2 -50.1 11.65 -53.6 8.15 -53.6 3.2 L-53.6 -3.2 Q-53.6 -8.15 -50.1 -11.65 L-50.05 -11.7 Q-46.55 -15.2 -41.6 -15.2 L41.6 -15.2 Q46.55 -15.2 50.05 -11.7 53.6 -8.15 53.6 -3.2 M52.8 -3.2 Q52.8 -7.85 49.5 -11.15 46.25 -14.4 41.6 -14.4 L-41.6 -14.4 Q-46.2 -14.4 -49.5 -11.15 L-49.55 -11.1 Q-52.8 -7.8 -52.8 -3.2 L-52.8 3.2 Q-52.8 7.85 -49.55 11.1 -46.25 14.4 -41.6 14.4 L41.6 14.4 Q46.2 14.4 49.5 11.1 52.8 7.8 52.8 3.2 L52.8 -3.2" fill="#eeeeee" fill-rule="evenodd" stroke="none"/>
  </g>
</svg>
