<?xml version="1.0" encoding="UTF-8" standalone="no"?>
<svg xmlns:ffdec="https://www.free-decompiler.com/flash" xmlns:xlink="http://www.w3.org/1999/xlink" ffdec:objectType="shape" height="278.05px" width="496.0px" xmlns="http://www.w3.org/2000/svg">
  <g transform="matrix(1.0, 0.0, 0.0, 1.0, 248.0, 139.0)">
    <path d="M235.0 -136.0 L-235.0 -136.0 Q-245.0 -136.0 -245.0 -126.0 L-245.0 126.05 Q-245.0 136.05 -235.0 136.05 L235.0 136.05 Q245.0 136.05 245.0 126.05 L245.0 -126.0 Q245.0 -136.0 235.0 -136.0 Z" fill="none" stroke="#cccccc" stroke-linecap="round" stroke-linejoin="round" stroke-width="6.0"/>
    <path d="M235.0 -136.0 Q245.0 -136.0 245.0 -126.0 L245.0 126.05 Q245.0 136.05 235.0 136.05 L-235.0 136.05 Q-245.0 136.05 -245.0 126.05 L-245.0 -126.0 Q-245.0 -136.0 -235.0 -136.0 L235.0 -136.0" fill="#ffffff" fill-rule="evenodd" stroke="none"/>
  </g>
</svg>
