<?xml version="1.0" encoding="UTF-8" standalone="no"?>
<svg xmlns:ffdec="https://www.free-decompiler.com/flash" xmlns:xlink="http://www.w3.org/1999/xlink" ffdec:objectType="shape" height="433.6px" width="619.6px" xmlns="http://www.w3.org/2000/svg">
  <g transform="matrix(1.0, 0.0, 0.0, 1.0, 248.0, 182.2)">
    <path d="M358.6 -179.2 Q368.6 -179.2 368.6 -169.2 L368.6 238.4 Q368.6 248.4 358.6 248.4 L-235.0 248.4 Q-245.0 248.4 -245.0 238.4 L-245.0 -169.2 Q-245.0 -179.2 -235.0 -179.2 L358.6 -179.2" fill="#ffffff" fill-rule="evenodd" stroke="none"/>
    <path d="M358.6 -179.2 L-235.0 -179.2 Q-245.0 -179.2 -245.0 -169.2 L-245.0 238.4 Q-245.0 248.4 -235.0 248.4 L358.6 248.4 Q368.6 248.4 368.6 238.4 L368.6 -169.2 Q368.6 -179.2 358.6 -179.2 Z" fill="none" stroke="#cccccc" stroke-linecap="round" stroke-linejoin="round" stroke-width="6.0"/>
  </g>
</svg>
