<?xml version="1.0" encoding="UTF-8" standalone="no"?>
<svg xmlns:ffdec="https://www.free-decompiler.com/flash" xmlns:xlink="http://www.w3.org/1999/xlink" ffdec:objectType="shape" height="644.65px" width="737.8px" xmlns="http://www.w3.org/2000/svg">
  <g transform="matrix(1.0, 0.0, 0.0, 1.0, 0.0, 0.0)">
    <path d="M700.35 268.15 L721.35 268.15 Q726.15 273.7 730.75 279.7 741.55 293.9 735.8 309.5 705.25 395.6 636.7 336.5 624.3 342.35 611.6 349.65 602.25 355.3 592.75 360.65 563.55 376.05 500.3 398.1 500.0 406.9 499.95 416.5 499.8 431.9 495.95 444.55 585.25 503.6 639.2 515.6 644.65 516.7 650.5 514.0 708.05 486.9 725.75 546.0 731.5 565.35 716.35 577.35 L700.35 589.9 Q711.75 622.95 675.9 639.15 640.0 655.4 628.5 623.8 617.15 592.15 575.85 560.45 537.8 531.35 423.7 498.25 398.45 502.5 364.8 500.5 337.2 498.95 315.5 495.5 201.05 527.5 162.5 557.0 120.95 588.7 109.45 620.35 97.95 651.95 62.15 635.7 26.25 619.5 37.65 586.45 L21.65 573.9 Q6.5 561.9 12.25 542.55 29.95 483.45 87.55 510.55 93.2 513.25 98.5 512.15 150.95 500.5 235.1 443.8 L235.25 439.7 Q237.2 415.3 237.8 395.1 174.95 372.45 145.55 356.55 L126.4 345.9 Q113.8 338.6 101.65 332.7 32.7 391.95 1.9 306.05 -3.7 290.45 7.25 276.25 11.8 270.25 16.65 264.7 L37.65 264.7 40.8 263.4 Q23.25 187.55 74.05 206.05 125.1 224.15 128.6 274.7 L145.55 283.15 Q175.45 298.3 192.9 306.05 206.35 311.85 226.6 319.65 L225.2 317.05 225.2 316.75 Q213.75 295.45 191.35 269.7 147.65 220.0 168.75 144.25 190.0 68.1 244.35 34.5 313.2 -7.95 396.15 1.85 479.4 11.65 532.85 83.4 586.1 154.9 563.9 217.3 541.95 279.8 521.6 301.7 515.4 308.0 510.9 320.2 L510.9 320.5 509.55 324.75 545.45 309.5 Q562.85 301.75 592.75 286.6 600.8 282.55 609.7 276.6 613.05 227.55 663.95 209.5 714.9 191.0 697.5 266.85 L700.35 268.15" fill="#000000" fill-rule="evenodd" stroke="none"/>
  </g>
</svg>
