<?xml version="1.0" encoding="UTF-8" standalone="no"?>
<svg xmlns:ffdec="https://www.free-decompiler.com/flash" xmlns:xlink="http://www.w3.org/1999/xlink" ffdec:objectType="shape" height="10.0px" width="50.0px" xmlns="http://www.w3.org/2000/svg">
  <g transform="matrix(1.0, 0.0, 0.0, 1.0, 25.0, 1.0)">
    <path d="M23.0 0.0 Q24.0 0.0 24.0 1.0 L24.0 7.0 Q24.0 8.0 23.0 8.0 L-23.0 8.0 Q-24.0 8.0 -24.0 7.0 L-24.0 1.0 Q-24.0 0.0 -23.0 0.0 L23.0 0.0" fill="#000000" fill-opacity="0.2509804" fill-rule="evenodd" stroke="none"/>
    <path d="M-23.0 -1.0 L23.0 -1.0 Q25.0 -1.0 25.0 1.0 L25.0 7.0 Q25.0 9.0 23.0 9.0 L-23.0 9.0 Q-25.0 9.0 -25.0 7.0 L-25.0 1.0 Q-25.0 -1.0 -23.0 -1.0 M23.0 0.0 L-23.0 0.0 Q-24.0 0.0 -24.0 1.0 L-24.0 7.0 Q-24.0 8.0 -23.0 8.0 L23.0 8.0 Q24.0 8.0 24.0 7.0 L24.0 1.0 Q24.0 0.0 23.0 0.0" fill="#000000" fill-rule="evenodd" stroke="none"/>
  </g>
</svg>
