<?xml version="1.0" encoding="UTF-8" standalone="no"?>
<svg xmlns:ffdec="https://www.free-decompiler.com/flash" xmlns:xlink="http://www.w3.org/1999/xlink" ffdec:objectType="shape" height="247.0px" width="496.0px" xmlns="http://www.w3.org/2000/svg">
  <g transform="matrix(1.0, 0.0, 0.0, 1.0, 248.0, 123.5)">
    <path d="M235.0 -120.5 Q245.0 -120.5 245.0 -110.5 L245.0 110.5 Q245.0 120.5 235.0 120.5 L-235.0 120.5 Q-245.0 120.5 -245.0 110.5 L-245.0 -110.5 Q-245.0 -120.5 -235.0 -120.5 L235.0 -120.5" fill="#0066ff" fill-rule="evenodd" stroke="none"/>
    <path d="M235.0 -120.5 L-235.0 -120.5 Q-245.0 -120.5 -245.0 -110.5 L-245.0 110.5 Q-245.0 120.5 -235.0 120.5 L235.0 120.5 Q245.0 120.5 245.0 110.5 L245.0 -110.5 Q245.0 -120.5 235.0 -120.5 Z" fill="none" stroke="#ffffff" stroke-linecap="round" stroke-linejoin="round" stroke-width="6.0"/>
  </g>
</svg>
