<?xml version="1.0" encoding="UTF-8" standalone="no"?>
<svg xmlns:ffdec="https://www.free-decompiler.com/flash" xmlns:xlink="http://www.w3.org/1999/xlink" ffdec:objectType="shape" height="15.0px" width="190.0px" xmlns="http://www.w3.org/2000/svg">
  <g transform="matrix(1.0, 0.0, 0.0, 1.0, 0.0, 0.0)">
    <path d="M185.0 0.0 L190.0 15.0 185.0 15.0 180.0 0.0 185.0 0.0 M170.0 0.0 L175.0 0.0 180.0 15.0 175.0 15.0 170.0 0.0 M170.0 15.0 L165.0 15.0 160.0 0.0 165.0 0.0 170.0 15.0 M160.0 15.0 L155.0 15.0 150.0 0.0 155.0 0.0 160.0 15.0 M150.0 15.0 L145.0 15.0 140.0 0.0 145.0 0.0 150.0 15.0 M140.0 15.0 L135.0 15.0 130.0 0.0 135.0 0.0 140.0 15.0 M130.0 15.0 L125.0 15.0 120.0 0.0 125.0 0.0 130.0 15.0 M120.0 15.0 L115.0 15.0 110.0 0.0 115.0 0.0 120.0 15.0 M110.0 15.0 L105.0 15.0 100.0 0.0 105.0 0.0 110.0 15.0 M100.0 15.0 L95.0 15.0 90.0 0.0 95.0 0.0 100.0 15.0 M90.0 15.0 L85.0 15.0 80.0 0.0 85.0 0.0 90.0 15.0 M80.0 15.0 L75.0 15.0 70.0 0.0 75.0 0.0 80.0 15.0 M70.0 15.0 L65.0 15.0 60.0 0.0 65.0 0.0 70.0 15.0 M60.0 15.0 L55.0 15.0 50.0 0.0 55.0 0.0 60.0 15.0 M50.0 15.0 L45.0 15.0 40.0 0.0 45.0 0.0 50.0 15.0 M40.0 15.0 L35.0 15.0 30.0 0.0 35.0 0.0 40.0 15.0 M30.0 15.0 L25.0 15.0 20.0 0.0 25.0 0.0 30.0 15.0 M20.0 15.0 L15.0 15.0 10.0 0.0 15.0 0.0 20.0 15.0 M10.0 15.0 L5.0 15.0 0.0 0.0 5.0 0.0 10.0 15.0" fill="#ffffff" fill-rule="evenodd" stroke="none"/>
    <path d="M190.0 15.0 L185.0 0.0 190.0 0.0 190.0 15.0 M180.0 0.0 L185.0 15.0 180.0 15.0 175.0 0.0 180.0 0.0 M165.0 0.0 L170.0 0.0 175.0 15.0 170.0 15.0 165.0 0.0 M165.0 15.0 L160.0 15.0 155.0 0.0 160.0 0.0 165.0 15.0 M155.0 15.0 L150.0 15.0 145.0 0.0 150.0 0.0 155.0 15.0 M145.0 15.0 L140.0 15.0 135.0 0.0 140.0 0.0 145.0 15.0 M135.0 15.0 L130.0 15.0 125.0 0.0 130.0 0.0 135.0 15.0 M125.0 15.0 L120.0 15.0 115.0 0.0 120.0 0.0 125.0 15.0 M115.0 15.0 L110.0 15.0 105.0 0.0 110.0 0.0 115.0 15.0 M105.0 15.0 L100.0 15.0 95.0 0.0 100.0 0.0 105.0 15.0 M95.0 15.0 L90.0 15.0 85.0 0.0 90.0 0.0 95.0 15.0 M85.0 15.0 L80.0 15.0 75.0 0.0 80.0 0.0 85.0 15.0 M75.0 15.0 L70.0 15.0 65.0 0.0 70.0 0.0 75.0 15.0 M65.0 15.0 L60.0 15.0 55.0 0.0 60.0 0.0 65.0 15.0 M55.0 15.0 L50.0 15.0 45.0 0.0 50.0 0.0 55.0 15.0 M45.0 15.0 L40.0 15.0 35.0 0.0 40.0 0.0 45.0 15.0 M35.0 15.0 L30.0 15.0 25.0 0.0 30.0 0.0 35.0 15.0 M25.0 15.0 L20.0 15.0 15.0 0.0 20.0 0.0 25.0 15.0 M15.0 15.0 L10.0 15.0 5.0 0.0 10.0 0.0 15.0 15.0 M5.0 15.0 L0.0 15.0 0.0 0.0 5.0 15.0" fill="#000000" fill-rule="evenodd" stroke="none"/>
  </g>
</svg>
