<?xml version="1.0" encoding="UTF-8" standalone="no"?>
<svg xmlns:ffdec="https://www.free-decompiler.com/flash" xmlns:xlink="http://www.w3.org/1999/xlink" ffdec:objectType="shape" height="259.95px" width="340.9px" xmlns="http://www.w3.org/2000/svg">
  <g transform="matrix(1.0, 0.0, 0.0, 1.0, 171.05, 133.3)">
    <path d="M0.5 -125.8 L29.45 -36.7 123.15 -36.7 47.35 18.35 64.05 69.45 1.95 64.9 -69.0 88.1 -46.35 18.35 -122.15 -36.7 -28.45 -36.7 0.5 -125.8" fill="#f8a736" fill-rule="evenodd" stroke="none"/>
    <path d="M0.5 -125.8 L29.45 -36.7 123.15 -36.7 47.35 18.35 64.05 69.45 1.95 64.9 -69.0 88.1 -46.35 18.35 -122.15 -36.7 -28.45 -36.7 0.5 -125.8 Z" fill="none" stroke="#000000" stroke-linecap="butt" stroke-linejoin="miter-clip" stroke-miterlimit="3.0" stroke-width="2.0"/>
    <path d="M29.45 -36.7 L82.65 -36.7 Q77.55 -15.4 67.5 3.75 L47.35 18.35 50.9 29.35 Q30.85 54.8 3.65 68.9 L0.5 67.2 -54.1 83.6 -56.15 83.65 -67.4 83.15 -46.35 18.35 -122.15 -36.7 -28.45 -36.7 0.5 -125.8 29.45 -36.7" fill="#ffffff" fill-rule="evenodd" stroke="none"/>
    <path d="M0.5 -125.8 L29.45 -36.7 123.15 -36.7 47.35 18.35 64.75 71.95 4.3 68.55 -68.35 86.1 -46.35 18.35 -122.15 -36.7 -28.45 -36.7 0.5 -125.8 Z" fill="none" stroke="#000000" stroke-linecap="butt" stroke-linejoin="miter-clip" stroke-miterlimit="3.0" stroke-width="5.0"/>
    <path d="M-57.3 -20.25 Q-52.35 -28.6 -39.8 -28.1 -25.95 -27.45 -22.0 -18.3 -18.4 -9.9 -22.1 1.25 L-30.55 0.45 -29.2 2.95 -39.6 2.05 -36.9 5.05 Q-45.35 5.15 -49.85 2.65 -56.2 -0.9 -58.6 -6.4 -61.5 -13.2 -57.3 -20.25" fill="#e1a371" fill-rule="evenodd" stroke="none"/>
    <path d="M-57.3 -20.25 Q-52.35 -28.6 -39.8 -28.1 -25.95 -27.45 -22.0 -18.3 -18.4 -9.9 -22.1 1.25 L-30.55 0.45 -29.2 2.95 -39.6 2.05 -36.9 5.05 Q-45.35 5.15 -49.85 2.65 -56.2 -0.9 -58.6 -6.4 -61.5 -13.2 -57.3 -20.25 Z" fill="none" stroke="#000000" stroke-linecap="butt" stroke-linejoin="miter-clip" stroke-miterlimit="3.0" stroke-width="1.0"/>
    <path d="M-52.3 -21.25 Q-49.55 -23.8 -45.45 -25.05 L-36.1 -25.3 Q-28.5 -23.05 -23.8 -17.7 -22.05 -15.75 -26.7 -14.1 -29.0 -13.3 -30.3 -11.15 -31.75 -8.85 -30.95 -6.3 -29.85 -2.7 -31.2 -2.2 -32.45 -0.55 -36.9 0.65 -41.95 1.95 -45.95 0.8 -50.1 -0.4 -53.1 -3.4 -55.95 -6.2 -56.55 -9.25 -57.15 -12.15 -55.9 -15.6 -54.7 -19.05 -52.3 -21.25" fill="#f1d1bb" fill-rule="evenodd" stroke="none"/>
    <path d="M-52.3 -21.25 Q-49.55 -23.8 -45.45 -25.05 L-36.1 -25.3 Q-34.95 -24.95 -36.0 -24.65 L-39.5 -23.9 Q-46.65 -22.4 -50.05 -20.0 -55.7 -16.0 -56.55 -9.25 -57.15 -12.15 -55.9 -15.6 -54.7 -19.05 -52.3 -21.25" fill="#9c6b43" fill-rule="evenodd" stroke="none"/>
    <path d="M-2.15 -74.45 L9.85 -75.05 7.35 -79.25 25.6 -72.25 21.8 -82.85 39.0 -67.95 42.15 -66.45 Q46.4 -63.75 52.2 -57.8 65.55 -44.05 52.2 -4.05 48.95 5.65 35.2 24.2 22.35 41.45 21.8 45.6 20.5 54.75 25.3 66.55 17.65 63.7 9.4 63.7 L-2.05 63.25 -5.85 62.75 Q-2.95 56.35 -5.35 47.15 -5.95 44.6 -7.25 43.35 L-8.4 42.55 Q-21.45 47.3 -38.8 40.3 -45.65 37.55 -49.55 30.3 -52.55 24.75 -52.1 22.15 -51.95 21.45 -51.2 21.0 L-50.45 20.75 -53.75 5.55 Q-55.25 4.95 -56.75 3.25 -58.55 1.15 -57.05 0.0 -52.45 -3.55 -49.75 -11.6 -48.6 -15.1 -46.95 -22.95 -45.1 -32.1 -43.6 -37.5 -37.35 -60.5 -23.1 -68.7 -15.65 -73.0 -2.15 -74.45" fill="#8c592e" fill-rule="evenodd" stroke="none"/>
    <path d="M-2.15 -74.45 Q-15.65 -73.0 -23.1 -68.7 -37.35 -60.5 -43.6 -37.5 -45.1 -32.1 -46.95 -22.95 -48.6 -15.1 -49.75 -11.6 -52.45 -3.55 -57.05 0.0 -58.55 1.15 -56.75 3.25 -55.25 4.95 -53.75 5.55 L-50.45 20.75 -51.2 21.0 Q-51.95 21.45 -52.1 22.15 -52.55 24.75 -49.55 30.3 -45.65 37.55 -38.8 40.3 -21.45 47.3 -8.4 42.55 L-7.25 43.35 Q-5.95 44.6 -5.35 47.15 -2.95 56.35 -5.85 62.75 L-2.05 63.25 9.4 63.7 Q17.65 63.7 25.3 66.55 20.5 54.75 21.8 45.6 22.35 41.45 35.2 24.2 48.95 5.65 52.2 -4.05 65.55 -44.05 52.2 -57.8 46.4 -63.75 42.15 -66.45 L39.0 -67.95 21.8 -82.85 25.6 -72.25 7.35 -79.25 9.85 -75.05 -2.15 -74.45 Z" fill="none" stroke="#000000" stroke-linecap="butt" stroke-linejoin="miter-clip" stroke-miterlimit="3.0" stroke-width="2.0"/>
    <path d="M45.45 -59.85 Q43.4 -62.9 40.75 -65.2 L38.5 -66.95 41.4 -65.6 Q45.45 -63.05 51.3 -57.2 59.3 -49.2 57.95 -33.25 57.0 -22.05 50.9 -4.65 46.45 8.25 34.2 24.2 27.95 32.35 26.0 35.3 22.15 41.2 20.85 46.3 19.3 52.3 23.95 66.2 18.85 68.1 10.6 68.1 9.95 61.35 10.15 51.95 10.6 33.15 14.95 19.85 19.35 6.0 28.25 -2.8 48.25 -22.7 50.25 -37.2 52.05 -50.15 45.45 -59.85" fill="#5c3a1e" fill-rule="evenodd" stroke="none"/>
    <path d="M-3.25 -73.25 Q-6.45 -72.6 -10.65 -70.85 -19.05 -67.4 -24.1 -62.05 -28.2 -57.6 -29.0 -49.2 -29.4 -44.95 -28.95 -41.65 -32.3 -40.3 -39.35 -33.35 -44.95 -27.85 -44.7 -29.05 L-42.8 -36.6 Q-39.85 -47.4 -36.25 -53.8 -30.9 -63.2 -22.2 -68.1 -16.0 -71.5 -3.25 -73.25" fill="#5c3a1e" fill-rule="evenodd" stroke="none"/>
    <path d="M38.6 -6.0 Q42.35 -13.8 47.0 -16.95 53.65 -21.45 60.5 -21.45 69.0 -21.45 74.5 -14.8 81.0 -6.95 74.85 4.4 68.0 16.9 56.5 16.9 45.95 16.9 35.95 9.1 L40.6 1.65 37.35 1.9 43.0 -7.3 38.6 -6.0" fill="#e1a371" fill-rule="evenodd" stroke="none"/>
    <path d="M38.6 -6.0 Q42.35 -13.8 47.0 -16.95 53.65 -21.45 60.5 -21.45 69.0 -21.45 74.5 -14.8 81.0 -6.95 74.85 4.4 68.0 16.9 56.5 16.9 45.95 16.9 35.95 9.1 L40.6 1.65 37.35 1.9 43.0 -7.3 38.6 -6.0 Z" fill="none" stroke="#000000" stroke-linecap="butt" stroke-linejoin="miter-clip" stroke-miterlimit="3.0" stroke-width="1.0"/>
    <path d="M46.1 -9.7 Q46.8 -11.75 50.8 -14.25 55.3 -17.05 59.4 -17.05 63.75 -17.05 67.5 -14.9 71.0 -12.9 72.4 -9.95 75.25 -4.15 71.1 3.15 65.8 12.3 57.15 12.3 49.5 12.3 43.25 8.2 41.05 6.75 45.1 3.7 47.05 2.25 47.75 -0.3 48.5 -3.1 47.0 -5.45 45.7 -7.55 45.75 -8.85 L46.1 -9.7" fill="#f1d1bb" fill-rule="evenodd" stroke="none"/>
    <path d="M57.15 -13.8 Q53.5 -13.6 49.25 -11.25 L45.75 -8.95 Q46.4 -11.8 50.65 -14.4 55.0 -17.05 59.4 -17.05 63.75 -17.05 67.5 -14.9 71.0 -12.9 72.4 -9.95 75.25 -4.15 71.1 3.15 68.35 7.85 64.0 10.4 65.0 9.55 67.0 6.75 71.15 0.85 69.85 -5.2 68.9 -9.6 65.15 -11.95 61.75 -14.1 57.15 -13.8" fill="#9c6b43" fill-rule="evenodd" stroke="none"/>
    <path d="M-48.65 -11.5 Q-48.15 -13.05 -46.05 -23.1 -44.3 -31.25 -41.5 -37.4 -38.75 -43.45 -34.2 -44.6 -30.1 -45.6 -26.15 -42.45 -21.6 -38.8 -21.5 -31.3 -16.45 -35.6 -9.3 -39.5 5.05 -47.3 15.65 -45.35 23.8 -43.9 28.65 -38.45 33.25 -33.3 33.25 -26.35 33.25 -18.3 24.45 -5.85 L28.55 -2.3 Q32.75 1.85 33.05 5.15 34.65 20.1 13.9 32.35 3.5 38.5 -7.2 41.6 -13.1 43.75 -21.8 43.1 -29.6 42.5 -37.1 40.0 -44.1 37.6 -48.3 30.55 -51.5 25.05 -51.1 22.45 -50.95 21.75 -50.2 21.2 L-49.45 20.85 -50.9 13.25 Q-52.45 5.55 -53.1 5.1 -57.4 1.6 -56.45 0.85 -51.5 -3.0 -48.65 -11.5" fill="#e1a371" fill-rule="evenodd" stroke="none"/>
    <path d="M21.25 1.25 L17.2 -1.8 15.25 -2.85 Q27.9 -18.75 29.35 -25.25 30.6 -30.9 28.8 -36.2 L26.75 -40.4 Q33.35 -34.85 33.35 -26.35 33.35 -18.3 24.55 -5.85 L28.65 -2.3 Q32.85 1.85 33.15 5.15 34.75 20.1 14.0 32.35 3.6 38.5 -7.1 41.6 -13.0 43.75 -21.7 43.1 -29.5 42.5 -37.0 40.0 -45.9 36.95 -49.9 27.05 L-48.3 28.9 Q-46.2 31.1 -43.6 32.95 -35.3 38.85 -25.15 38.85 -15.1 38.85 -7.85 37.05 -1.75 35.55 4.95 31.95 12.35 27.95 18.45 21.65 23.65 16.25 24.85 12.65 26.8 6.6 21.25 1.25" fill="#b88056" fill-rule="evenodd" stroke="none"/>
    <path d="M-0.25 20.05 Q-5.75 28.65 -16.0 29.4 -32.45 30.4 -37.95 28.95 -45.55 26.9 -49.0 22.15 -49.75 21.05 -53.1 5.1 L-48.85 7.55 Q-43.3 10.05 -36.75 10.4 -19.8 11.3 -8.45 9.95 -2.95 9.25 7.75 4.9 L-0.25 20.05" fill="#ffffff" fill-rule="evenodd" stroke="none"/>
    <path d="M-12.7 -17.9 Q0.25 -22.75 3.1 -25.75 4.9 -27.6 10.5 -31.75 L15.75 -35.5 16.75 -30.0 Q18.55 -19.95 10.75 -15.35 2.2 -10.4 -5.75 -12.85 -8.5 -13.7 -10.75 -15.75 L-12.5 -17.6 -12.7 -17.9 -12.9 -17.85 -12.9 -18.25 -12.7 -17.9" fill="#ffffff" fill-rule="evenodd" stroke="none"/>
    <path d="M-44.4 -32.8 L-43.15 -34.5 -41.0 -34.7 Q-38.7 -34.75 -37.75 -33.75 -36.25 -32.1 -33.5 -25.0 L-28.25 -18.75 Q-30.4 -15.75 -34.4 -16.1 -37.6 -16.4 -40.95 -17.9 -44.55 -19.5 -45.5 -21.35 -47.45 -25.05 -46.4 -28.6 -45.75 -30.7 -44.4 -32.8" fill="#ffffff" fill-rule="evenodd" stroke="none"/>
    <path d="M6.35 -28.55 L8.3 -28.8 Q11.3 -28.8 13.6 -26.8 15.85 -24.85 16.3 -21.9 14.75 -17.75 10.75 -15.35 8.25 -13.9 5.65 -13.15 0.25 -15.05 0.25 -20.75 0.25 -22.45 1.0 -24.2 L3.1 -25.75 6.35 -28.55" fill="#000000" fill-rule="evenodd" stroke="none"/>
    <path d="M-3.75 -21.85 Q2.95 -25.65 11.5 -33.2 13.75 -35.2 15.3 -35.2 17.3 -35.25 19.35 -32.3 22.25 -28.05 20.75 -26.6 17.7 -30.65 15.1 -30.75 13.45 -30.8 10.5 -28.6 L3.5 -23.05 Q-2.25 -18.45 -12.15 -16.95 L-3.75 -21.85" fill="#5c3a1e" fill-rule="evenodd" stroke="none"/>
    <path d="M-19.95 -24.3 L-20.0 -20.85 Q-19.3 -17.45 -15.65 -17.45 -7.7 -17.45 1.25 -24.7 L12.1 -33.95 Q16.05 -37.4 19.0 -32.7 20.6 -30.0 21.2 -26.75" fill="none" stroke="#5c3a1e" stroke-linecap="round" stroke-linejoin="miter-clip" stroke-miterlimit="3.0" stroke-width="2.0"/>
    <path d="M-27.1 -25.6 L-27.4 -24.15 Q-27.6 -22.4 -27.0 -20.85 -26.0 -18.35 -24.25 -17.35" fill="none" stroke="#5c3a1e" stroke-linecap="round" stroke-linejoin="miter-clip" stroke-miterlimit="3.0" stroke-width="2.0"/>
    <path d="M-28.25 -18.75 Q-30.4 -15.75 -34.4 -16.1 L-37.8 -16.8 Q-40.4 -18.75 -40.4 -22.1 -40.4 -24.5 -38.9 -26.3 -37.4 -28.15 -35.1 -28.6 L-33.5 -25.0 -28.25 -18.75" fill="#000000" fill-rule="evenodd" stroke="none"/>
    <path d="M-46.25 -29.1 Q-45.9 -30.5 -45.05 -31.95 -43.4 -34.8 -40.85 -34.8 -38.25 -34.8 -36.2 -31.4 L-34.15 -26.8 Q-33.5 -25.2 -28.25 -18.75 -33.9 -21.05 -35.75 -23.8 L-38.0 -27.65 Q-39.3 -29.55 -41.15 -30.1 L-44.8 -29.95 -46.25 -29.1" fill="#5c3a1e" fill-rule="evenodd" stroke="none"/>
    <path d="M-26.45 -18.95 Q-29.15 -18.6 -31.0 -21.8 -34.75 -29.7 -36.4 -31.85 -39.6 -36.0 -42.55 -34.9 L-44.5 -34.0" fill="none" stroke="#5c3a1e" stroke-linecap="round" stroke-linejoin="miter-clip" stroke-miterlimit="3.0" stroke-width="2.0"/>
    <path d="M13.5 -23.75 Q14.5 -21.25 12.8 -20.6 11.2 -20.05 10.2 -22.55 9.3 -25.1 10.9 -25.7 12.5 -26.3 13.5 -23.75" fill="#ffffff" fill-rule="evenodd" stroke="none"/>
    <path d="M-37.65 -4.9 Q-37.65 -3.25 -35.4 -2.05 -33.2 -0.9 -30.0 -0.9 -26.8 -0.9 -24.55 -2.05 -22.3 -3.25 -22.3 -4.9 -22.3 -6.55 -24.55 -7.7 -26.8 -8.9 -30.0 -8.9 -33.2 -8.9 -35.4 -7.7 -37.65 -6.55 -37.65 -4.9 M-37.0 -0.85 Q-39.75 -2.25 -39.75 -4.2 -39.75 -6.2 -37.0 -7.55 -34.25 -8.95 -30.35 -8.95 -26.45 -8.95 -23.65 -7.55 -20.9 -6.2 -20.9 -4.2 -20.9 -2.25 -23.65 -0.85 -26.45 0.55 -30.35 0.55 -34.25 0.55 -37.0 -0.85" fill="#8c592e" fill-rule="evenodd" stroke="none"/>
    <path d="M-33.15 -0.35 L-29.65 -0.45 -33.85 7.15 -33.15 -0.35" fill="#8c592e" fill-rule="evenodd" stroke="none"/>
    <path d="M-51.35 6.2 L-49.55 13.35 Q-47.2 15.7 -41.1 18.65 L-49.0 16.2 -47.3 24.25 -49.55 21.0 -53.3 4.95 -51.35 6.2" fill="#919191" fill-rule="evenodd" stroke="none"/>
    <path d="M2.95 14.45 L0.9 18.05 -7.8 19.65 -22.35 20.15 -31.15 19.65 -15.3 19.25 Q-4.7 18.9 2.95 14.45" fill="#919191" fill-rule="evenodd" stroke="none"/>
    <path d="M34.3 77.0 Q34.3 78.95 32.9 80.35 31.55 81.75 29.55 81.75 27.6 81.75 26.2 80.35 24.8 78.95 24.8 77.0 24.8 75.0 26.2 73.6 27.6 72.2 29.55 72.2 31.55 72.2 32.9 73.6 34.3 75.0 34.3 77.0" fill="#000000" fill-rule="evenodd" stroke="none"/>
    <path d="M-139.9 51.3 L-137.85 64.65 Q-138.6 64.2 -139.9 63.75 -141.7 63.2 -143.6 63.2 -152.9 63.2 -154.3 70.85 -154.65 72.6 -154.35 74.45 -153.05 81.95 -144.0 81.95 -141.5 81.95 -138.7 80.85 L-137.5 80.35 -139.15 93.55 -143.1 94.1 -151.05 93.85 Q-160.5 92.0 -165.5 84.55 -170.5 77.1 -168.45 68.0 -166.75 60.5 -161.2 56.0 -155.55 51.45 -147.0 50.9 L-142.3 51.05 -139.9 51.3" fill="#000000" fill-rule="evenodd" stroke="none"/>
    <path d="M-139.9 51.3 L-137.85 64.65 Q-138.6 64.2 -139.9 63.75 -141.7 63.2 -143.6 63.2 -152.9 63.2 -154.3 70.85 -154.65 72.6 -154.35 74.45 -153.05 81.95 -144.0 81.95 -141.5 81.95 -138.7 80.85 L-137.5 80.35 -139.15 93.55 -143.1 94.1 -151.05 93.85 Q-160.5 92.0 -165.5 84.55 -170.5 77.1 -168.45 68.0 -166.75 60.5 -161.2 56.0 -155.55 51.45 -147.0 50.9 L-142.3 51.05 -139.9 51.3 Z" fill="none" stroke="#000000" stroke-linecap="butt" stroke-linejoin="round" stroke-width="4.0"/>
    <path d="M-124.95 67.35 L-124.5 66.5 Q-122.15 62.55 -119.35 61.65 L-115.7 61.4 -114.65 61.7 -116.75 72.65 -117.6 72.6 Q-122.25 72.6 -123.55 76.9 -124.05 78.15 -124.15 80.35 L-124.15 92.9 -136.6 93.7 -136.6 62.5 -124.95 61.7 -124.95 67.35" fill="#000000" fill-rule="evenodd" stroke="none"/>
    <path d="M-124.95 67.35 L-124.5 66.5 Q-122.15 62.55 -119.35 61.65 L-115.7 61.4 -114.65 61.7 -116.75 72.65 -117.6 72.6 Q-122.25 72.6 -123.55 76.9 -124.05 78.15 -124.15 80.35 L-124.15 92.9 -136.6 93.7 -136.6 62.5 -124.95 61.7 -124.95 67.35 Z" fill="none" stroke="#000000" stroke-linecap="butt" stroke-linejoin="round" stroke-width="4.0"/>
    <path d="M-100.3 73.15 Q-100.3 72.3 -100.9 71.35 -102.45 68.7 -107.45 69.0 L-109.75 69.25 -114.1 69.95 -115.5 70.3 -113.4 62.1 -110.75 61.65 Q-87.25 58.0 -87.0 73.3 L-87.0 93.3 -98.65 93.3 -98.65 89.3 -99.4 90.1 Q-104.3 94.85 -110.15 93.55 -117.25 91.85 -118.55 85.25 -120.2 77.25 -113.75 73.65 -108.05 70.55 -101.5 74.55 L-100.3 75.3 -100.3 73.15 M-100.1 80.8 Q-101.4 79.0 -104.15 79.45 -105.75 79.7 -106.45 80.8 -107.1 81.8 -107.1 82.65 -107.1 83.6 -106.45 84.5 -105.1 86.4 -102.5 85.85 -100.9 85.55 -100.1 84.5 -98.8 82.65 -100.1 80.8" fill="#000000" fill-rule="evenodd" stroke="none"/>
    <path d="M-100.3 73.15 Q-100.3 72.3 -100.9 71.35 -102.45 68.7 -107.45 69.0 L-109.75 69.25 -114.1 69.95 -115.5 70.3 -113.4 62.1 -110.75 61.65 Q-87.25 58.0 -87.0 73.3 L-87.0 93.3 -98.65 93.3 -98.65 89.3 -99.4 90.1 Q-104.3 94.85 -110.15 93.55 -117.25 91.85 -118.55 85.25 -120.2 77.25 -113.75 73.65 -108.05 70.55 -101.5 74.55 L-100.3 75.3 -100.3 73.15 M-100.1 80.8 Q-101.4 79.0 -104.15 79.45 -105.75 79.7 -106.45 80.8 -107.1 81.8 -107.1 82.65 -107.1 83.6 -106.45 84.5 -105.1 86.4 -102.5 85.85 -100.9 85.55 -100.1 84.5 -98.8 82.65 -100.1 80.8 Z" fill="none" stroke="#000000" stroke-linecap="butt" stroke-linejoin="round" stroke-width="4.0"/>
    <path d="M-43.65 61.05 L-31.85 63.15 -44.95 104.75 -57.35 102.65 -52.75 89.7 -61.95 66.25 -69.7 82.1 -59.55 82.1 -61.9 93.3 -86.6 93.3 -76.9 73.0 -85.1 73.0 -82.75 62.1 -59.9 62.1 -60.15 62.6 -50.9 61.05 -47.2 78.6 -43.65 61.05" fill="#000000" fill-rule="evenodd" stroke="none"/>
    <path d="M-43.65 61.05 L-47.2 78.6 -50.9 61.05 -60.15 62.6 -59.9 62.1 -82.75 62.1 -85.1 73.0 -76.9 73.0 -86.6 93.3 -61.9 93.3 -59.55 82.1 -69.7 82.1 -61.95 66.25 -52.75 89.7 -57.35 102.65 -44.95 104.75 -31.85 63.15 -43.65 61.05 Z" fill="none" stroke="#000000" stroke-linecap="butt" stroke-linejoin="round" stroke-width="4.0"/>
    <path d="M-34.65 92.65 L-30.6 51.7 -16.8 51.7 -10.55 68.35 -4.3 51.7 9.45 51.7 13.5 92.65 -0.2 93.95 -2.1 72.7 -10.55 94.4 -19.05 72.7 -20.95 93.95 -34.65 92.65" fill="#000000" fill-rule="evenodd" stroke="none"/>
    <path d="M-34.65 92.65 L-30.6 51.7 -16.8 51.7 -10.55 68.35 -4.3 51.7 9.45 51.7 13.5 92.65 -0.2 93.95 -2.1 72.7 -10.55 94.4 -19.05 72.7 -20.95 93.95 -34.65 92.65 Z" fill="none" stroke="#000000" stroke-linecap="butt" stroke-linejoin="round" stroke-width="4.0"/>
    <path d="M29.0 72.45 Q24.9 73.2 24.9 77.7 24.9 82.3 29.0 83.0 29.85 83.25 30.8 83.0 34.35 82.3 34.85 78.9 35.6 73.2 30.8 72.45 29.85 72.2 29.0 72.45 M33.5 93.8 Q25.05 95.35 19.1 90.45 13.4 85.7 13.1 77.7 13.1 68.75 20.5 63.9 24.65 61.15 29.85 61.3 37.3 61.3 42.0 65.95 46.65 70.55 46.65 77.7 46.65 83.95 43.1 88.3 39.55 92.7 33.5 93.8" fill="#000000" fill-rule="evenodd" stroke="none"/>
    <path d="M29.0 72.45 Q24.9 73.2 24.9 77.7 24.9 82.3 29.0 83.0 29.85 83.25 30.8 83.0 34.35 82.3 34.85 78.9 35.6 73.2 30.8 72.45 29.85 72.2 29.0 72.45 M33.5 93.8 Q25.05 95.35 19.1 90.45 13.4 85.7 13.1 77.7 13.1 68.75 20.5 63.9 24.65 61.15 29.85 61.3 37.3 61.3 42.0 65.95 46.65 70.55 46.65 77.7 46.65 83.95 43.1 88.3 39.55 92.7 33.5 93.8 Z" fill="none" stroke="#000000" stroke-linecap="butt" stroke-linejoin="round" stroke-width="4.0"/>
    <path d="M59.95 75.55 L59.95 92.45 47.45 93.7 47.45 62.5 59.1 61.7 59.1 66.25 59.7 65.35 Q62.35 61.65 67.1 61.3 77.7 60.45 77.7 72.9 L77.7 92.9 65.25 93.7 65.2 74.3 Q64.9 71.4 62.05 72.05 60.1 72.45 59.95 75.55" fill="#000000" fill-rule="evenodd" stroke="none"/>
    <path d="M59.95 75.55 L59.95 92.45 47.45 93.7 47.45 62.5 59.1 61.7 59.1 66.25 59.7 65.35 Q62.35 61.65 67.1 61.3 77.7 60.45 77.7 72.9 L77.7 92.9 65.25 93.7 65.2 74.3 Q64.9 71.4 62.05 72.05 60.1 72.45 59.95 75.55 Z" fill="none" stroke="#000000" stroke-linecap="butt" stroke-linejoin="round" stroke-width="4.0"/>
    <path d="M92.5 49.6 L92.5 75.4 98.55 61.3 111.05 62.9 104.15 75.8 112.5 92.65 99.6 93.95 92.5 77.1 92.5 92.9 80.0 93.7 80.0 50.4 92.5 49.6" fill="#000000" fill-rule="evenodd" stroke="none"/>
    <path d="M92.5 49.6 L92.5 75.4 98.55 61.3 111.05 62.9 104.15 75.8 112.5 92.65 99.6 93.95 92.5 77.1 92.5 92.9 80.0 93.7 80.0 50.4 92.5 49.6 Z" fill="none" stroke="#000000" stroke-linecap="butt" stroke-linejoin="round" stroke-width="4.0"/>
    <path d="M140.3 71.7 L124.4 83.05 126.0 83.6 Q128.5 84.05 131.4 83.05 L134.3 81.6 135.05 81.1 140.25 89.7 Q135.8 93.15 129.25 94.0 122.6 94.75 117.3 91.6 107.6 85.8 109.25 75.05 110.15 69.4 113.85 65.8 117.55 62.2 123.0 61.5 133.4 60.25 139.5 70.25 L140.3 71.7 M121.2 72.15 Q119.35 74.05 119.95 77.15 L120.25 78.4 128.55 72.4 Q127.55 71.15 125.9 70.85 123.0 70.3 121.2 72.15" fill="#000000" fill-rule="evenodd" stroke="none"/>
    <path d="M140.3 71.7 L124.4 83.05 126.0 83.6 Q128.5 84.05 131.4 83.05 L134.3 81.6 135.05 81.1 140.25 89.7 Q135.8 93.15 129.25 94.0 122.6 94.75 117.3 91.6 107.6 85.8 109.25 75.05 110.15 69.4 113.85 65.8 117.55 62.2 123.0 61.5 133.4 60.25 139.5 70.25 L140.3 71.7 M121.2 72.15 Q119.35 74.05 119.95 77.15 L120.25 78.4 128.55 72.4 Q127.55 71.15 125.9 70.85 123.0 70.3 121.2 72.15 Z" fill="none" stroke="#000000" stroke-linecap="butt" stroke-linejoin="round" stroke-width="4.0"/>
    <path d="M136.55 63.15 L148.8 61.05 152.5 78.6 156.05 61.05 167.85 63.15 154.75 104.75 142.35 102.65 146.95 89.7 136.55 63.15" fill="#000000" fill-rule="evenodd" stroke="none"/>
    <path d="M136.55 63.15 L148.8 61.05 152.5 78.6 156.05 61.05 167.85 63.15 154.75 104.75 142.35 102.65 146.95 89.7 136.55 63.15 Z" fill="none" stroke="#000000" stroke-linecap="butt" stroke-linejoin="round" stroke-width="4.0"/>
    <path d="M-138.7 48.8 L-136.65 62.15 Q-137.4 61.7 -138.7 61.25 -140.5 60.7 -142.4 60.7 -151.7 60.7 -153.1 68.35 -153.45 70.1 -153.15 71.95 -151.85 79.45 -142.8 79.45 -140.3 79.45 -137.5 78.35 L-136.3 77.85 -137.95 91.0 -141.9 91.6 -149.85 91.35 Q-159.3 89.5 -164.3 82.05 -169.3 74.6 -167.25 65.5 -165.55 58.0 -160.0 53.5 -154.35 48.95 -145.8 48.4 L-141.1 48.55 -138.7 48.8" fill="#f8a736" fill-rule="evenodd" stroke="none"/>
    <path d="M-138.7 48.8 L-136.65 62.15 Q-137.4 61.7 -138.7 61.25 -140.5 60.7 -142.4 60.7 -151.7 60.7 -153.1 68.35 -153.45 70.1 -153.15 71.95 -151.85 79.45 -142.8 79.45 -140.3 79.45 -137.5 78.35 L-136.3 77.85 -137.95 91.0 -141.9 91.6 -149.85 91.35 Q-159.3 89.5 -164.3 82.05 -169.3 74.6 -167.25 65.5 -165.55 58.0 -160.0 53.5 -154.35 48.95 -145.8 48.4 L-141.1 48.55 -138.7 48.8 Z" fill="none" stroke="#000000" stroke-linecap="butt" stroke-linejoin="round" stroke-width="1.0"/>
    <path d="M-123.75 64.85 L-123.3 64.0 Q-120.95 60.05 -118.15 59.15 L-114.5 58.9 -113.45 59.2 -115.55 70.15 -116.4 70.1 Q-121.05 70.1 -122.35 74.4 -122.85 75.65 -122.95 77.85 L-122.95 90.4 -135.4 91.2 -135.4 60.0 -123.75 59.2 -123.75 64.85" fill="#f8a736" fill-rule="evenodd" stroke="none"/>
    <path d="M-123.75 64.85 L-123.3 64.0 Q-120.95 60.05 -118.15 59.15 L-114.5 58.9 -113.45 59.2 -115.55 70.15 -116.4 70.1 Q-121.05 70.1 -122.35 74.4 -122.85 75.65 -122.95 77.85 L-122.95 90.4 -135.4 91.2 -135.4 60.0 -123.75 59.2 -123.75 64.85 Z" fill="none" stroke="#000000" stroke-linecap="butt" stroke-linejoin="round" stroke-width="1.0"/>
    <path d="M-109.55 59.15 Q-86.05 55.5 -85.8 70.8 L-85.8 90.8 -97.45 90.8 -97.45 86.8 -98.2 87.6 Q-103.15 92.4 -108.95 91.0 -116.05 89.4 -117.35 82.75 -119.0 74.75 -112.55 71.15 -106.25 67.7 -100.3 71.35 L-99.1 72.1 -99.1 69.95 Q-99.1 69.1 -99.7 68.15 -100.85 66.2 -106.25 66.5 L-108.55 66.75 -112.9 67.45 -114.3 67.8 -112.2 59.6 -109.55 59.15 M-100.85 77.65 Q-101.9 76.25 -104.1 76.55 -105.3 76.8 -105.95 77.65 L-106.45 79.15 Q-106.45 79.9 -105.95 80.65 -104.85 82.15 -102.75 81.7 -101.45 81.45 -100.85 80.65 -99.8 79.15 -100.85 77.65" fill="#f8a736" fill-rule="evenodd" stroke="none"/>
    <path d="M-109.55 59.15 Q-86.05 55.5 -85.8 70.8 L-85.8 90.8 -97.45 90.8 -97.45 86.8 -98.2 87.6 Q-103.15 92.4 -108.95 91.0 -116.05 89.4 -117.35 82.75 -119.0 74.75 -112.55 71.15 -106.25 67.7 -100.3 71.35 L-99.1 72.1 -99.1 69.95 Q-99.1 69.1 -99.7 68.15 -100.85 66.2 -106.25 66.5 L-108.55 66.75 -112.9 67.45 -114.3 67.8 -112.2 59.6 -109.55 59.15 M-100.85 77.65 Q-101.9 76.25 -104.1 76.55 -105.3 76.8 -105.95 77.65 L-106.45 79.15 Q-106.45 79.9 -105.95 80.65 -104.85 82.15 -102.75 81.7 -101.45 81.45 -100.85 80.65 -99.8 79.15 -100.85 77.65 Z" fill="none" stroke="#000000" stroke-linecap="butt" stroke-linejoin="round" stroke-width="1.0"/>
    <path d="M-42.45 58.55 L-30.65 60.65 -43.75 102.25 -56.15 100.15 -51.55 87.2 -60.75 63.75 -68.5 79.6 -58.35 79.6 -60.7 90.8 -85.4 90.8 -75.7 70.5 -83.9 70.5 -81.55 59.6 -58.7 59.6 -58.95 60.1 -49.7 58.55 -46.0 76.1 -42.45 58.55" fill="#f8a736" fill-rule="evenodd" stroke="none"/>
    <path d="M-42.45 58.55 L-46.0 76.1 -49.7 58.55 -58.95 60.1 -58.7 59.6 -81.55 59.6 -83.9 70.5 -75.7 70.5 -85.4 90.8 -60.7 90.8 -58.35 79.6 -68.5 79.6 -60.75 63.75 -51.55 87.2 -56.15 100.15 -43.75 102.25 -30.65 60.65 -42.45 58.55 Z" fill="none" stroke="#000000" stroke-linecap="butt" stroke-linejoin="round" stroke-width="1.0"/>
    <path d="M10.65 49.2 L14.7 90.15 1.0 91.45 -0.9 70.2 -9.35 91.9 -17.85 70.2 -19.75 91.45 -33.45 90.15 -29.4 49.2 -15.6 49.2 -9.35 65.85 -3.1 49.2 10.65 49.2" fill="#f8a736" fill-rule="evenodd" stroke="none"/>
    <path d="M10.65 49.2 L14.7 90.15 1.0 91.45 -0.9 70.2 -9.35 91.9 -17.85 70.2 -19.75 91.45 -33.45 90.15 -29.4 49.2 -15.6 49.2 -9.35 65.85 -3.1 49.2 10.65 49.2 Z" fill="none" stroke="#000000" stroke-linecap="butt" stroke-linejoin="round" stroke-width="1.0"/>
    <path d="M34.9 75.2 Q34.9 71.75 31.8 71.2 31.1 71.05 30.4 71.2 26.8 71.8 27.35 76.1 27.7 78.75 30.4 79.25 L31.8 79.25 Q34.9 78.7 34.9 75.2 M34.7 91.3 Q26.25 92.85 20.3 87.95 14.6 83.2 14.3 75.2 14.3 66.25 21.7 61.4 25.85 58.65 31.05 58.8 38.5 58.8 43.2 63.45 47.85 68.05 47.85 75.2 47.85 81.45 44.3 85.8 40.75 90.2 34.7 91.3" fill="#f8a736" fill-rule="evenodd" stroke="none"/>
    <path d="M34.9 75.2 Q34.9 71.75 31.8 71.2 31.1 71.05 30.4 71.2 26.8 71.8 27.35 76.1 27.7 78.75 30.4 79.25 L31.8 79.25 Q34.9 78.7 34.9 75.2 M34.7 91.3 Q26.25 92.85 20.3 87.95 14.6 83.2 14.3 75.2 14.3 66.25 21.7 61.4 25.85 58.65 31.05 58.8 38.5 58.8 43.2 63.45 47.85 68.05 47.85 75.2 47.85 81.45 44.3 85.8 40.75 90.2 34.7 91.3 Z" fill="none" stroke="#000000" stroke-linecap="butt" stroke-linejoin="round" stroke-width="1.0"/>
    <path d="M68.3 58.8 Q78.9 57.95 78.9 70.4 L78.9 90.4 66.45 91.2 66.4 71.8 Q66.05 68.85 63.25 69.55 61.3 69.95 61.15 73.05 L61.15 89.95 48.65 91.2 48.65 60.0 60.3 59.2 60.3 63.75 60.9 62.8 Q63.55 59.15 68.3 58.8" fill="#f8a736" fill-rule="evenodd" stroke="none"/>
    <path d="M68.3 58.8 Q78.9 57.95 78.9 70.4 L78.9 90.4 66.45 91.2 66.4 71.8 Q66.05 68.85 63.25 69.55 61.3 69.95 61.15 73.05 L61.15 89.95 48.65 91.2 48.65 60.0 60.3 59.2 60.3 63.75 60.9 62.8 Q63.55 59.15 68.3 58.8 Z" fill="none" stroke="#000000" stroke-linecap="butt" stroke-linejoin="round" stroke-width="1.0"/>
    <path d="M93.7 47.1 L93.7 72.9 99.75 58.8 112.25 60.4 105.35 73.3 113.7 90.15 100.8 91.45 93.7 74.6 93.7 90.4 81.2 91.2 81.2 47.9 93.7 47.1" fill="#f8a736" fill-rule="evenodd" stroke="none"/>
    <path d="M93.7 47.1 L93.7 72.9 99.75 58.8 112.25 60.4 105.35 73.3 113.7 90.15 100.8 91.45 93.7 74.6 93.7 90.4 81.2 91.2 81.2 47.9 93.7 47.1 Z" fill="none" stroke="#000000" stroke-linecap="butt" stroke-linejoin="round" stroke-width="1.0"/>
    <path d="M141.5 69.2 L125.6 80.55 127.2 81.1 Q129.85 81.5 132.6 80.55 L135.5 79.1 136.25 78.6 141.45 87.2 Q137.0 90.65 130.45 91.5 123.8 92.25 118.5 89.1 108.8 83.3 110.45 72.55 111.35 66.9 115.05 63.3 118.75 59.7 124.2 59.0 134.6 57.75 140.7 67.75 L141.5 69.2 M122.4 69.65 Q120.55 71.55 121.15 74.65 L121.45 75.9 129.75 69.85 Q128.7 68.65 127.1 68.35 124.2 67.8 122.4 69.65" fill="#f8a736" fill-rule="evenodd" stroke="none"/>
    <path d="M141.5 69.2 L125.6 80.55 127.2 81.1 Q129.85 81.5 132.6 80.55 L135.5 79.1 136.25 78.6 141.45 87.2 Q137.0 90.65 130.45 91.5 123.8 92.25 118.5 89.1 108.8 83.3 110.45 72.55 111.35 66.9 115.05 63.3 118.75 59.7 124.2 59.0 134.6 57.75 140.7 67.75 L141.5 69.2 M122.4 69.65 Q120.55 71.55 121.15 74.65 L121.45 75.9 129.75 69.85 Q128.7 68.65 127.1 68.35 124.2 67.8 122.4 69.65 Z" fill="none" stroke="#000000" stroke-linecap="butt" stroke-linejoin="round" stroke-width="1.0"/>
    <path d="M137.75 60.65 L150.0 58.55 153.7 76.1 157.25 58.55 169.05 60.65 155.95 102.25 143.55 100.15 148.15 87.2 137.75 60.65" fill="#f8a736" fill-rule="evenodd" stroke="none"/>
    <path d="M137.75 60.65 L150.0 58.55 153.7 76.1 157.25 58.55 169.05 60.65 155.95 102.25 143.55 100.15 148.15 87.2 137.75 60.65 Z" fill="none" stroke="#000000" stroke-linecap="butt" stroke-linejoin="round" stroke-width="1.0"/>
    <path d="M-141.1 48.55 L-138.7 48.8 -136.65 62.15 Q-137.4 61.7 -138.7 61.25 -140.5 60.7 -142.4 60.7 -151.7 60.7 -153.1 68.35 -153.45 70.1 -153.15 71.95 -152.6 75.15 -150.7 76.9 L-153.9 76.7 -167.2 75.55 Q-168.45 70.7 -167.25 65.5 -165.55 58.0 -160.0 53.5 -154.35 48.95 -145.8 48.4 L-141.1 48.55 M-115.55 70.15 L-116.4 70.1 Q-121.05 70.1 -122.35 74.4 -122.85 75.65 -122.95 77.85 L-135.4 77.65 -135.4 60.0 -123.75 59.2 -123.75 64.85 -123.3 64.0 Q-120.95 60.05 -118.15 59.15 L-114.5 58.9 -113.45 59.2 -115.55 70.15 M-112.2 59.6 L-109.55 59.15 Q-86.05 55.5 -85.8 70.8 L-85.8 76.7 -101.0 77.5 Q-102.1 76.25 -104.1 76.55 -105.35 76.8 -105.9 77.65 L-117.45 77.85 Q-116.7 73.45 -112.55 71.15 -106.25 67.7 -100.3 71.35 L-99.1 72.1 -99.1 69.95 Q-99.1 69.1 -99.7 68.15 -100.85 66.2 -106.25 66.5 L-108.55 66.75 -112.9 67.45 -114.3 67.8 -112.2 59.6 M-49.7 58.55 L-46.7 72.85 -56.7 74.05 -60.75 63.75 -66.3 75.1 -78.4 76.15 -75.7 70.5 -83.9 70.5 -81.55 59.6 -58.7 59.6 -58.95 60.1 -49.7 58.55 M-42.45 58.55 L-30.65 60.65 -33.9 71.0 -45.3 72.65 -42.45 58.55" fill="#ffffff" fill-rule="evenodd" stroke="none"/>
    <path d="M-138.7 48.8 L-136.65 62.15 Q-137.4 61.7 -138.7 61.25 -140.5 60.7 -142.4 60.7 -151.7 60.7 -153.1 68.35 -153.45 70.1 -153.15 71.95 -151.85 79.45 -142.8 79.45 -140.3 79.45 -137.5 78.35 L-136.3 77.85 -137.95 91.0 -141.9 91.6 -149.85 91.35 Q-159.3 89.5 -164.3 82.05 -169.3 74.6 -167.25 65.5 -165.55 58.0 -160.0 53.5 -154.35 48.95 -145.8 48.4 L-141.1 48.55 -138.7 48.8 Z" fill="none" stroke="#000000" stroke-linecap="butt" stroke-linejoin="round" stroke-width="1.0"/>
    <path d="M-123.75 64.85 L-123.3 64.0 Q-120.95 60.05 -118.15 59.15 L-114.5 58.9 -113.45 59.2 -115.55 70.15 -116.4 70.1 Q-121.05 70.1 -122.35 74.4 -122.85 75.65 -122.95 77.85 L-122.95 90.4 -135.4 91.2 -135.4 60.0 -123.75 59.2 -123.75 64.85 Z" fill="none" stroke="#000000" stroke-linecap="butt" stroke-linejoin="round" stroke-width="1.0"/>
    <path d="M-109.55 59.15 Q-86.05 55.5 -85.8 70.8 L-85.8 90.8 -97.45 90.8 -97.45 86.8 -98.2 87.6 Q-103.15 92.4 -108.95 91.0 -116.05 89.4 -117.35 82.75 -119.0 74.75 -112.55 71.15 -106.25 67.7 -100.3 71.35 L-99.1 72.1 -99.1 69.95 Q-99.1 69.1 -99.7 68.15 -100.85 66.2 -106.25 66.5 L-108.55 66.75 -112.9 67.45 -114.3 67.8 -112.2 59.6 -109.55 59.15 M-100.85 77.65 Q-101.9 76.25 -104.1 76.55 -105.3 76.8 -105.95 77.65 L-106.45 79.15 Q-106.45 79.9 -105.95 80.65 -104.85 82.15 -102.75 81.7 -101.45 81.45 -100.85 80.65 -99.8 79.15 -100.85 77.65 Z" fill="none" stroke="#000000" stroke-linecap="butt" stroke-linejoin="round" stroke-width="1.0"/>
    <path d="M-42.45 58.55 L-46.0 76.1 -49.7 58.55 -58.95 60.1 -58.7 59.6 -81.55 59.6 -83.9 70.5 -75.7 70.5 -85.4 90.8 -60.7 90.8 -58.35 79.6 -68.5 79.6 -60.75 63.75 -51.55 87.2 -56.15 100.15 -43.75 102.25 -30.65 60.65 -42.45 58.55 Z" fill="none" stroke="#000000" stroke-linecap="butt" stroke-linejoin="round" stroke-width="1.0"/>
    <path d="M157.25 58.55 L169.05 60.65 167.05 66.95 155.05 69.3 157.25 58.55 M137.75 60.65 L150.0 58.55 152.35 69.8 141.95 71.4 141.15 69.4 137.6 72.0 124.75 73.5 129.75 69.85 Q128.7 68.65 127.1 68.35 124.4 67.85 122.6 69.45 120.85 71.05 121.05 73.85 L110.25 74.8 110.45 72.55 Q111.35 66.9 115.05 63.3 118.75 59.7 124.2 59.0 134.25 57.8 140.25 67.1 L137.75 60.65 M-3.1 49.2 L10.65 49.2 13.25 75.65 -0.5 74.7 -0.9 70.2 -2.6 74.55 -16.7 73.15 -17.85 70.2 -18.1 73.0 -31.55 71.3 -29.4 49.2 -15.6 49.2 -9.35 65.85 -3.1 49.2 M31.8 71.2 Q31.1 71.05 30.4 71.2 26.8 71.8 27.35 76.1 L27.4 76.35 14.35 75.7 14.3 75.2 Q14.3 66.25 21.7 61.4 25.85 58.65 31.05 58.8 38.5 58.8 43.2 63.45 47.85 68.05 47.85 75.2 L47.8 76.85 34.75 76.6 34.9 75.2 Q34.9 71.75 31.8 71.2 M66.4 71.8 Q66.05 68.85 63.25 69.55 61.3 69.95 61.15 73.05 L61.15 76.85 48.65 76.85 48.65 60.0 60.3 59.2 60.3 63.75 60.9 62.8 Q63.55 59.15 68.3 58.8 78.9 57.95 78.9 70.4 L78.9 76.5 66.45 76.8 66.4 71.8 M81.2 47.9 L93.7 47.1 93.7 72.9 99.75 58.8 112.25 60.4 105.35 73.3 106.25 75.1 94.2 75.85 93.7 74.6 93.7 75.9 81.2 76.45 81.2 47.9" fill="#ffffff" fill-rule="evenodd" stroke="none"/>
    <path d="M10.65 49.2 L14.7 90.15 1.0 91.45 -0.9 70.2 -9.35 91.9 -17.85 70.2 -19.75 91.45 -33.45 90.15 -29.4 49.2 -15.6 49.2 -9.35 65.85 -3.1 49.2 10.65 49.2 Z" fill="none" stroke="#000000" stroke-linecap="butt" stroke-linejoin="round" stroke-width="1.0"/>
    <path d="M34.9 75.2 Q34.9 71.75 31.8 71.2 31.1 71.05 30.4 71.2 26.8 71.8 27.35 76.1 27.7 78.75 30.4 79.25 L31.8 79.25 Q34.9 78.7 34.9 75.2 M34.7 91.3 Q26.25 92.85 20.3 87.95 14.6 83.2 14.3 75.2 14.3 66.25 21.7 61.4 25.85 58.65 31.05 58.8 38.5 58.8 43.2 63.45 47.85 68.05 47.85 75.2 47.85 81.45 44.3 85.8 40.75 90.2 34.7 91.3 Z" fill="none" stroke="#000000" stroke-linecap="butt" stroke-linejoin="round" stroke-width="1.0"/>
    <path d="M68.3 58.8 Q78.9 57.95 78.9 70.4 L78.9 90.4 66.45 91.2 66.4 71.8 Q66.05 68.85 63.25 69.55 61.3 69.95 61.15 73.05 L61.15 89.95 48.65 91.2 48.65 60.0 60.3 59.2 60.3 63.75 60.9 62.8 Q63.55 59.15 68.3 58.8 Z" fill="none" stroke="#000000" stroke-linecap="butt" stroke-linejoin="round" stroke-width="1.0"/>
    <path d="M93.7 47.1 L93.7 72.9 99.75 58.8 112.25 60.4 105.35 73.3 113.7 90.15 100.8 91.45 93.7 74.6 93.7 90.4 81.2 91.2 81.2 47.9 93.7 47.1 Z" fill="none" stroke="#000000" stroke-linecap="butt" stroke-linejoin="round" stroke-width="1.0"/>
    <path d="M141.5 69.2 L125.6 80.55 127.2 81.1 Q129.85 81.5 132.6 80.55 L135.5 79.1 136.25 78.6 141.45 87.2 Q137.0 90.65 130.45 91.5 123.8 92.25 118.5 89.1 108.8 83.3 110.45 72.55 111.35 66.9 115.05 63.3 118.75 59.7 124.2 59.0 134.6 57.75 140.7 67.75 L141.5 69.2 M122.4 69.65 Q120.55 71.55 121.15 74.65 L121.45 75.9 129.75 69.85 Q128.7 68.65 127.1 68.35 124.2 67.8 122.4 69.65 Z" fill="none" stroke="#000000" stroke-linecap="butt" stroke-linejoin="round" stroke-width="1.0"/>
    <path d="M137.75 60.65 L150.0 58.55 153.7 76.1 157.25 58.55 169.05 60.65 155.95 102.25 143.55 100.15 148.15 87.2 137.75 60.65 Z" fill="none" stroke="#000000" stroke-linecap="butt" stroke-linejoin="round" stroke-width="1.0"/>
    <path d="M-102.05 90.3 Q-95.75 89.25 -89.5 92.55 L-87.5 93.75 -93.05 102.05 -94.25 101.25 Q-97.25 99.5 -100.25 100.1 -105.35 101.05 -106.15 106.2 L-106.15 108.7 Q-105.25 115.3 -98.15 115.45 L-96.7 115.3 -96.7 111.95 -102.1 111.95 -100.15 104.5 -86.6 104.5 -86.6 122.15 Q-89.9 124.05 -93.85 124.75 -101.8 125.95 -107.75 122.75 -113.55 119.65 -115.85 113.35 -118.95 104.8 -113.45 97.05 -109.5 91.6 -102.05 90.3" fill="#000000" fill-rule="evenodd" stroke="none"/>
    <path d="M-102.05 90.3 Q-95.75 89.25 -89.5 92.55 L-87.5 93.75 -93.05 102.05 -94.25 101.25 Q-97.25 99.5 -100.25 100.1 -105.35 101.05 -106.15 106.2 L-106.15 108.7 Q-105.25 115.3 -98.15 115.45 L-96.7 115.3 -96.7 111.95 -102.1 111.95 -100.15 104.5 -86.6 104.5 -86.6 122.15 Q-89.9 124.05 -93.85 124.75 -101.8 125.95 -107.75 122.75 -113.55 119.65 -115.85 113.35 -118.95 104.8 -113.45 97.05 -109.5 91.6 -102.05 90.3 Z" fill="none" stroke="#000000" stroke-linecap="butt" stroke-linejoin="round" stroke-width="3.0"/>
    <path d="M-79.25 98.75 Q-60.3 95.8 -60.05 108.2 L-60.05 124.35 -69.45 124.35 -69.45 121.15 -70.1 121.8 Q-74.05 125.65 -78.75 124.55 -84.5 123.15 -85.55 117.85 -86.9 111.4 -81.65 108.45 -77.05 105.95 -71.75 109.2 L-70.8 109.8 -70.8 108.05 Q-70.8 107.35 -71.3 106.6 -72.55 104.45 -76.55 104.75 L-78.45 104.9 -81.95 105.5 -83.05 105.75 -81.4 99.15 -79.25 98.75 M-71.0 114.45 Q-71.9 113.2 -73.8 113.5 -74.9 113.65 -75.45 114.45 -75.9 115.05 -75.9 115.75 -75.9 116.45 -75.45 117.05 -74.45 118.4 -72.65 118.0 -71.5 117.75 -71.0 117.05 -70.0 115.75 -71.0 114.45" fill="#000000" fill-rule="evenodd" stroke="none"/>
    <path d="M-79.25 98.75 Q-60.3 95.8 -60.05 108.2 L-60.05 124.35 -69.45 124.35 -69.45 121.15 -70.1 121.8 Q-74.05 125.65 -78.75 124.55 -84.5 123.15 -85.55 117.85 -86.9 111.4 -81.65 108.45 -77.05 105.95 -71.75 109.2 L-70.8 109.8 -70.8 108.05 Q-70.8 107.35 -71.3 106.6 -72.55 104.45 -76.55 104.75 L-78.45 104.9 -81.95 105.5 -83.05 105.75 -81.4 99.15 -79.25 98.75 M-71.0 114.45 Q-71.9 113.2 -73.8 113.5 -74.9 113.65 -75.45 114.45 -75.9 115.05 -75.9 115.75 -75.9 116.45 -75.45 117.05 -74.45 118.4 -72.65 118.0 -71.5 117.75 -71.0 117.05 -70.0 115.75 -71.0 114.45 Z" fill="none" stroke="#000000" stroke-linecap="butt" stroke-linejoin="round" stroke-width="3.0"/>
    <path d="M-42.35 98.55 Q-39.0 99.05 -37.45 101.9 L-37.05 102.7 -36.55 101.95 Q-34.0 98.5 -30.25 98.45 -23.05 98.4 -22.8 108.8 L-22.8 124.0 -32.35 124.7 -32.4 109.25 Q-32.55 107.2 -34.65 107.5 -36.15 107.7 -36.3 110.0 L-36.4 110.9 -36.4 124.0 -45.95 124.7 -45.95 109.5 Q-46.05 107.7 -47.4 107.45 -49.75 107.05 -49.9 110.0 L-49.95 110.75 -50.0 110.8 -50.0 124.0 -59.5 124.7 -59.5 99.45 -50.0 98.8 -50.0 102.5 Q-49.4 101.3 -48.15 100.1 -45.55 98.05 -42.35 98.55" fill="#000000" fill-rule="evenodd" stroke="none"/>
    <path d="M-42.35 98.55 Q-39.0 99.05 -37.45 101.9 L-37.05 102.7 -36.55 101.95 Q-34.0 98.5 -30.25 98.45 -23.05 98.4 -22.8 108.8 L-22.8 124.0 -32.35 124.7 -32.4 109.25 Q-32.55 107.2 -34.65 107.5 -36.15 107.7 -36.3 110.0 L-36.4 110.9 -36.4 124.0 -45.95 124.7 -45.95 109.5 Q-46.05 107.7 -47.4 107.45 -49.75 107.05 -49.9 110.0 L-49.95 110.75 -50.0 110.8 -50.0 124.0 -59.5 124.7 -59.5 99.45 -50.0 98.8 -50.0 102.5 Q-49.4 101.3 -48.15 100.1 -45.55 98.05 -42.35 98.55 Z" fill="none" stroke="#000000" stroke-linecap="butt" stroke-linejoin="round" stroke-width="3.0"/>
    <path d="M2.3 106.9 L-10.55 116.1 -9.25 116.5 Q-7.2 116.9 -4.9 116.1 L-2.6 114.9 -1.95 114.5 2.25 121.45 Q-1.3 124.25 -6.65 124.9 -11.95 125.55 -16.3 123.0 -24.15 118.3 -22.8 109.6 -22.1 105.05 -19.1 102.1 -16.1 99.2 -11.7 98.65 -3.3 97.6 1.6 105.7 L2.3 106.9 M-9.35 106.25 Q-11.75 105.75 -13.15 107.25 -14.65 108.75 -14.15 111.3 L-13.95 112.3 -7.2 107.45 Q-8.1 106.4 -9.35 106.25" fill="#000000" fill-rule="evenodd" stroke="none"/>
    <path d="M2.3 106.9 L-10.55 116.1 -9.25 116.5 Q-7.2 116.9 -4.9 116.1 L-2.6 114.9 -1.95 114.5 2.25 121.45 Q-1.3 124.25 -6.65 124.9 -11.95 125.55 -16.3 123.0 -24.15 118.3 -22.8 109.6 -22.1 105.05 -19.1 102.1 -16.1 99.2 -11.7 98.65 -3.3 97.6 1.6 105.7 L2.3 106.9 M-9.35 106.25 Q-11.75 105.75 -13.15 107.25 -14.65 108.75 -14.15 111.3 L-13.95 112.3 -7.2 107.45 Q-8.1 106.4 -9.35 106.25 Z" fill="none" stroke="#000000" stroke-linecap="butt" stroke-linejoin="round" stroke-width="3.0"/>
    <path d="M20.4 99.45 L19.25 106.95 15.8 106.55 13.65 106.55 Q12.1 106.75 11.95 107.5 L11.95 107.75 Q11.95 108.5 12.65 108.8 L13.0 108.95 14.1 109.3 Q18.1 110.65 19.65 112.05 21.15 113.45 21.45 116.1 21.9 119.95 18.9 122.4 15.75 125.0 9.65 125.15 L3.95 124.65 1.3 124.15 2.35 116.3 4.45 116.8 5.45 116.9 Q7.4 117.2 8.6 116.9 10.0 116.6 10.4 115.95 10.75 115.25 10.4 114.9 L10.3 114.85 10.15 114.75 9.25 114.35 8.25 114.05 Q0.7 111.85 1.35 105.85 1.7 101.85 6.35 99.65 8.95 98.4 13.65 98.4 L19.35 99.15 20.4 99.45" fill="#000000" fill-rule="evenodd" stroke="none"/>
    <path d="M20.4 99.45 L19.25 106.95 15.8 106.55 13.65 106.55 Q12.1 106.75 11.95 107.5 L11.95 107.75 Q11.95 108.5 12.65 108.8 L13.0 108.95 14.1 109.3 Q18.1 110.65 19.65 112.05 21.15 113.45 21.45 116.1 21.9 119.95 18.9 122.4 15.75 125.0 9.65 125.15 L3.95 124.65 1.3 124.15 2.35 116.3 4.45 116.8 5.45 116.9 Q7.4 117.2 8.6 116.9 10.0 116.6 10.4 115.95 10.75 115.25 10.4 114.9 L10.3 114.85 10.15 114.75 9.25 114.35 8.25 114.05 Q0.7 111.85 1.35 105.85 1.7 101.85 6.35 99.65 8.95 98.4 13.65 98.4 L19.35 99.15 20.4 99.45 Z" fill="none" stroke="#000000" stroke-linecap="butt" stroke-linejoin="round" stroke-width="3.0"/>
    <path d="M55.4 100.6 L57.3 101.65 51.65 109.05 Q50.15 107.65 48.15 107.7 44.75 107.85 43.95 110.8 43.4 112.85 44.75 114.4 46.1 116.0 48.4 115.9 50.35 115.8 51.7 114.7 L57.25 122.3 Q55.95 123.05 55.05 123.4 47.5 126.7 40.85 123.65 34.4 120.65 33.35 114.1 31.95 104.45 40.2 100.15 44.5 97.85 50.4 98.8 52.75 99.25 55.4 100.6" fill="#000000" fill-rule="evenodd" stroke="none"/>
    <path d="M55.4 100.6 L57.3 101.65 51.65 109.05 Q50.15 107.65 48.15 107.7 44.75 107.85 43.95 110.8 43.4 112.85 44.75 114.4 46.1 116.0 48.4 115.9 50.35 115.8 51.7 114.7 L57.25 122.3 Q55.95 123.05 55.05 123.4 47.5 126.7 40.85 123.65 34.4 120.65 33.35 114.1 31.95 104.45 40.2 100.15 44.5 97.85 50.4 98.8 52.75 99.25 55.4 100.6 Z" fill="none" stroke="#000000" stroke-linecap="butt" stroke-linejoin="round" stroke-width="3.0"/>
    <path d="M69.45 98.45 Q75.5 98.45 79.3 102.25 83.05 105.95 83.05 111.75 83.05 116.8 80.2 120.35 77.3 123.9 72.4 124.75 65.55 126.0 60.8 122.05 56.15 118.2 55.9 111.75 55.9 104.55 61.9 100.55 65.25 98.4 69.45 98.45 M70.05 108.5 Q69.5 108.35 68.9 108.5 66.4 109.0 66.4 111.75 66.4 114.55 68.9 115.05 L70.05 115.05 Q72.2 114.65 72.55 112.5 72.95 109.0 70.05 108.5" fill="#000000" fill-rule="evenodd" stroke="none"/>
    <path d="M69.45 98.45 Q75.5 98.45 79.3 102.25 83.05 105.95 83.05 111.75 83.05 116.8 80.2 120.35 77.3 123.9 72.4 124.75 65.55 126.0 60.8 122.05 56.15 118.2 55.9 111.75 55.9 104.55 61.9 100.55 65.25 98.4 69.45 98.45 M70.05 108.5 Q69.5 108.35 68.9 108.5 66.4 109.0 66.4 111.75 66.4 114.55 68.9 115.05 L70.05 115.05 Q72.2 114.65 72.55 112.5 72.95 109.0 70.05 108.5 Z" fill="none" stroke="#000000" stroke-linecap="butt" stroke-linejoin="round" stroke-width="3.0"/>
    <path d="M101.25 98.55 Q104.6 99.05 106.15 101.9 L106.55 102.7 107.05 101.95 Q109.6 98.5 113.35 98.45 120.55 98.4 120.8 108.8 L120.8 124.0 111.25 124.7 111.2 109.25 Q111.05 107.2 108.95 107.5 107.45 107.7 107.3 110.0 L107.2 124.0 97.65 124.7 97.65 109.5 Q97.55 107.7 96.2 107.45 93.85 107.05 93.7 110.0 L93.65 110.75 93.6 110.8 93.6 124.0 84.05 124.7 84.05 99.45 93.6 98.8 93.6 102.5 Q94.2 101.3 95.45 100.1 98.05 98.05 101.25 98.55" fill="#000000" fill-rule="evenodd" stroke="none"/>
    <path d="M101.25 98.55 Q104.6 99.05 106.15 101.9 L106.55 102.7 107.05 101.95 Q109.6 98.5 113.35 98.45 120.55 98.4 120.8 108.8 L120.8 124.0 111.25 124.7 111.2 109.25 Q111.05 107.2 108.95 107.5 107.45 107.7 107.3 110.0 L107.2 124.0 97.65 124.7 97.65 109.5 Q97.55 107.7 96.2 107.45 93.85 107.05 93.7 110.0 L93.65 110.75 93.6 110.8 93.6 124.0 84.05 124.7 84.05 99.45 93.6 98.8 93.6 102.5 Q94.2 101.3 95.45 100.1 98.05 98.05 101.25 98.55 Z" fill="none" stroke="#000000" stroke-linecap="butt" stroke-linejoin="round" stroke-width="3.0"/>
    <path d="M-100.75 88.2 Q-94.4 87.1 -88.25 90.4 L-86.25 91.65 -91.8 99.95 -92.95 99.15 Q-96.05 97.35 -99.0 98.0 -104.05 98.95 -104.85 104.05 L-104.85 106.6 Q-103.95 113.15 -96.9 113.3 L-95.45 113.15 -95.45 109.8 -100.8 109.8 -98.9 102.4 -85.35 102.4 -85.35 120.05 Q-88.75 122.0 -92.6 122.6 -100.5 123.85 -106.5 120.65 -112.3 117.55 -114.6 111.25 -117.7 102.7 -112.15 94.95 -108.2 89.4 -100.75 88.2" fill="#f8a736" fill-rule="evenodd" stroke="none"/>
    <path d="M-100.75 88.2 Q-94.4 87.1 -88.25 90.4 L-86.25 91.65 -91.8 99.95 -92.95 99.15 Q-96.05 97.35 -99.0 98.0 -104.05 98.95 -104.85 104.05 L-104.85 106.6 Q-103.95 113.15 -96.9 113.3 L-95.45 113.15 -95.45 109.8 -100.8 109.8 -98.9 102.4 -85.35 102.4 -85.35 120.05 Q-88.75 122.0 -92.6 122.6 -100.5 123.85 -106.5 120.65 -112.3 117.55 -114.6 111.25 -117.7 102.7 -112.15 94.95 -108.2 89.4 -100.75 88.2 Z" fill="none" stroke="#000000" stroke-linecap="butt" stroke-linejoin="round" stroke-width="1.0"/>
    <path d="M-77.95 96.65 Q-59.0 93.7 -58.75 106.05 L-58.75 122.25 -68.2 122.25 -68.2 119.0 -68.8 119.65 Q-72.7 123.5 -77.5 122.4 -83.2 121.1 -84.25 115.75 -85.6 109.25 -80.4 106.35 -75.8 103.85 -70.5 107.1 L-69.5 107.7 -69.5 105.95 Q-69.5 105.4 -70.0 104.5 -71.25 102.4 -75.3 102.6 L-77.15 102.8 -80.65 103.35 -81.8 103.65 -80.1 97.0 -77.95 96.65 M-69.7 114.95 Q-68.8 113.65 -69.7 112.35 -70.65 111.05 -72.55 111.35 -73.7 111.6 -74.15 112.35 -74.6 112.95 -74.6 113.65 -74.6 114.35 -74.15 114.95 -73.25 116.25 -71.35 115.85 -70.3 115.7 -69.7 114.95" fill="#f8a736" fill-rule="evenodd" stroke="none"/>
    <path d="M-77.95 96.65 Q-59.0 93.7 -58.75 106.05 L-58.75 122.25 -68.2 122.25 -68.2 119.0 -68.8 119.65 Q-72.7 123.5 -77.5 122.4 -83.2 121.1 -84.25 115.75 -85.6 109.25 -80.4 106.35 -75.8 103.85 -70.5 107.1 L-69.5 107.7 -69.5 105.95 Q-69.5 105.4 -70.0 104.5 -71.25 102.4 -75.3 102.6 L-77.15 102.8 -80.65 103.35 -81.8 103.65 -80.1 97.0 -77.95 96.65 M-69.7 114.95 Q-68.8 113.65 -69.7 112.35 -70.65 111.05 -72.55 111.35 -73.7 111.6 -74.15 112.35 -74.6 112.95 -74.6 113.65 -74.6 114.35 -74.15 114.95 -73.25 116.25 -71.35 115.85 -70.3 115.7 -69.7 114.95 Z" fill="none" stroke="#000000" stroke-linecap="butt" stroke-linejoin="round" stroke-width="1.0"/>
    <path d="M-28.95 96.35 Q-21.75 96.3 -21.55 106.7 L-21.55 121.9 -31.05 122.55 -31.1 107.15 Q-31.25 105.15 -33.35 105.35 -34.9 105.6 -35.05 107.9 L-35.1 121.9 -44.65 122.55 -44.65 107.4 Q-44.75 105.55 -46.1 105.3 -48.55 104.95 -48.6 107.9 L-48.65 108.65 -48.7 108.7 -48.7 121.9 -58.25 122.55 -58.25 97.35 -48.7 96.7 -48.7 100.35 Q-48.05 99.05 -46.85 98.0 -44.2 95.9 -41.05 96.45 -37.75 96.85 -36.15 99.75 L-35.8 100.6 -35.25 99.8 Q-32.7 96.4 -28.95 96.35" fill="#f8a736" fill-rule="evenodd" stroke="none"/>
    <path d="M-28.95 96.35 Q-21.75 96.3 -21.55 106.7 L-21.55 121.9 -31.05 122.55 -31.1 107.15 Q-31.25 105.15 -33.35 105.35 -34.9 105.6 -35.05 107.9 L-35.1 121.9 -44.65 122.55 -44.65 107.4 Q-44.75 105.55 -46.1 105.3 -48.55 104.95 -48.6 107.9 L-48.65 108.65 -48.7 108.7 -48.7 121.9 -58.25 122.55 -58.25 97.35 -48.7 96.7 -48.7 100.35 Q-48.05 99.05 -46.85 98.0 -44.2 95.9 -41.05 96.45 -37.75 96.85 -36.15 99.75 L-35.8 100.6 -35.25 99.8 Q-32.7 96.4 -28.95 96.35 Z" fill="none" stroke="#000000" stroke-linecap="butt" stroke-linejoin="round" stroke-width="1.0"/>
    <path d="M-10.4 96.55 Q-2.0 95.5 2.9 103.6 L3.55 104.75 -9.3 113.95 -8.0 114.4 Q-5.75 114.75 -3.65 113.95 -2.75 113.65 -1.3 112.8 L-1.0 112.55 -0.7 112.4 3.5 119.35 Q-0.2 122.15 -5.35 122.8 -10.65 123.4 -15.05 120.9 -22.85 116.25 -21.55 107.45 -20.8 102.9 -17.8 100.0 -14.8 97.1 -10.4 96.55 M-8.1 104.1 Q-10.45 103.65 -11.9 105.15 -13.4 106.7 -12.9 109.2 L-12.65 110.2 -5.95 105.3 Q-6.75 104.35 -8.1 104.1" fill="#f8a736" fill-rule="evenodd" stroke="none"/>
    <path d="M-10.4 96.55 Q-2.0 95.5 2.9 103.6 L3.55 104.75 -9.3 113.95 -8.0 114.4 Q-5.75 114.75 -3.65 113.95 -2.75 113.65 -1.3 112.8 L-1.0 112.55 -0.7 112.4 3.5 119.35 Q-0.2 122.15 -5.35 122.8 -10.65 123.4 -15.05 120.9 -22.85 116.25 -21.55 107.45 -20.8 102.9 -17.8 100.0 -14.8 97.1 -10.4 96.55 M-8.1 104.1 Q-10.45 103.65 -11.9 105.15 -13.4 106.7 -12.9 109.2 L-12.65 110.2 -5.95 105.3 Q-6.75 104.35 -8.1 104.1 Z" fill="none" stroke="#000000" stroke-linecap="butt" stroke-linejoin="round" stroke-width="1.0"/>
    <path d="M21.7 97.35 L20.5 104.85 19.45 104.65 14.9 104.45 Q13.35 104.65 13.25 105.35 L13.25 105.65 Q13.25 106.4 13.95 106.7 L14.3 106.8 15.35 107.2 Q19.4 108.5 20.9 109.9 22.45 111.3 22.7 113.95 23.15 117.8 20.2 120.3 17.0 122.9 10.95 123.05 L5.25 122.5 2.55 122.05 3.65 114.2 4.95 114.55 6.75 114.8 Q8.65 115.1 9.85 114.8 11.3 114.5 11.7 113.85 11.95 113.15 11.7 112.8 L11.6 112.75 11.45 112.6 Q11.0 112.35 10.5 112.25 L9.55 111.9 Q2.0 109.75 2.6 103.75 3.05 99.7 7.6 97.5 10.25 96.3 14.9 96.3 L20.6 97.05 21.7 97.35" fill="#f8a736" fill-rule="evenodd" stroke="none"/>
    <path d="M21.7 97.35 L20.5 104.85 19.45 104.65 14.9 104.45 Q13.35 104.65 13.25 105.35 L13.25 105.65 Q13.25 106.4 13.95 106.7 L14.3 106.8 15.35 107.2 Q19.4 108.5 20.9 109.9 22.45 111.3 22.7 113.95 23.15 117.8 20.2 120.3 17.0 122.9 10.95 123.05 L5.25 122.5 2.55 122.05 3.65 114.2 4.95 114.55 6.75 114.8 Q8.65 115.1 9.85 114.8 11.3 114.5 11.7 113.85 11.95 113.15 11.7 112.8 L11.6 112.75 11.45 112.6 Q11.0 112.35 10.5 112.25 L9.55 111.9 Q2.0 109.75 2.6 103.75 3.05 99.7 7.6 97.5 10.25 96.3 14.9 96.3 L20.6 97.05 21.7 97.35 Z" fill="none" stroke="#000000" stroke-linecap="butt" stroke-linejoin="round" stroke-width="1.0"/>
    <path d="M58.55 99.55 L52.9 106.9 Q51.55 105.55 49.4 105.6 45.95 105.75 45.25 108.7 44.7 110.75 46.05 112.3 47.35 113.85 49.7 113.8 51.55 113.7 52.95 112.55 L58.5 120.2 56.3 121.3 Q48.8 124.6 42.1 121.5 35.65 118.5 34.65 112.0 33.2 102.4 41.45 98.05 45.85 95.75 51.7 96.7 53.85 97.05 56.7 98.5 L57.9 99.1 58.55 99.55" fill="#f8a736" fill-rule="evenodd" stroke="none"/>
    <path d="M58.55 99.55 L52.9 106.9 Q51.55 105.55 49.4 105.6 45.95 105.75 45.25 108.7 44.7 110.75 46.05 112.3 47.35 113.85 49.7 113.8 51.55 113.7 52.95 112.55 L58.5 120.2 56.3 121.3 Q48.8 124.6 42.1 121.5 35.65 118.5 34.65 112.0 33.2 102.4 41.45 98.05 45.85 95.75 51.7 96.7 53.85 97.05 56.7 98.5 L57.9 99.1 58.55 99.55 Z" fill="none" stroke="#000000" stroke-linecap="butt" stroke-linejoin="round" stroke-width="1.0"/>
    <path d="M80.55 100.15 Q84.3 103.85 84.3 109.6 84.3 114.7 81.45 118.25 78.55 121.8 73.65 122.65 66.85 123.9 62.05 119.95 57.45 116.1 57.2 109.6 57.2 102.35 63.15 98.45 66.5 96.3 70.75 96.35 76.75 96.35 80.55 100.15 M70.2 106.4 Q67.65 106.8 67.65 109.65 67.65 112.5 70.2 112.9 L71.3 112.9 Q73.55 112.5 73.8 110.4 74.3 106.8 71.3 106.4 70.75 106.25 70.2 106.4" fill="#f8a736" fill-rule="evenodd" stroke="none"/>
    <path d="M80.55 100.15 Q84.3 103.85 84.3 109.6 84.3 114.7 81.45 118.25 78.55 121.8 73.65 122.65 66.85 123.9 62.05 119.95 57.45 116.1 57.2 109.6 57.2 102.35 63.15 98.45 66.5 96.3 70.75 96.35 76.75 96.35 80.55 100.15 M70.2 106.4 Q67.65 106.8 67.65 109.65 67.65 112.5 70.2 112.9 L71.3 112.9 Q73.55 112.5 73.8 110.4 74.3 106.8 71.3 106.4 70.75 106.25 70.2 106.4 Z" fill="none" stroke="#000000" stroke-linecap="butt" stroke-linejoin="round" stroke-width="1.0"/>
    <path d="M108.35 99.8 Q110.9 96.4 114.65 96.35 121.85 96.3 122.05 106.7 L122.05 121.9 112.55 122.55 112.5 107.15 Q112.35 105.15 110.25 105.35 108.7 105.6 108.55 107.9 L108.5 121.9 98.95 122.55 98.95 107.4 Q98.85 105.55 97.5 105.3 95.1 104.95 94.95 107.9 L94.95 108.65 94.9 108.7 94.9 121.9 85.35 122.55 85.35 97.35 94.9 96.7 94.9 100.35 Q95.55 99.05 96.75 98.0 99.4 95.9 102.55 96.45 105.85 96.9 107.45 99.75 L107.8 100.6 108.35 99.8" fill="#f8a736" fill-rule="evenodd" stroke="none"/>
    <path d="M108.35 99.8 Q110.9 96.4 114.65 96.35 121.85 96.3 122.05 106.7 L122.05 121.9 112.55 122.55 112.5 107.15 Q112.35 105.15 110.25 105.35 108.7 105.6 108.55 107.9 L108.5 121.9 98.95 122.55 98.95 107.4 Q98.85 105.55 97.5 105.3 95.1 104.95 94.95 107.9 L94.95 108.65 94.9 108.7 94.9 121.9 85.35 122.55 85.35 97.35 94.9 96.7 94.9 100.35 Q95.55 99.05 96.75 98.0 99.4 95.9 102.55 96.45 105.85 96.9 107.45 99.75 L107.8 100.6 108.35 99.8 Z" fill="none" stroke="#000000" stroke-linecap="butt" stroke-linejoin="round" stroke-width="1.0"/>
    <path d="M26.5 116.8 Q28.4 116.8 29.7 118.1 31.05 119.45 31.05 121.35 31.05 123.2 29.7 124.55 28.4 125.85 26.5 125.85 24.6 125.85 23.3 124.55 21.95 123.2 21.95 121.35 21.95 119.45 23.3 118.1 24.6 116.8 26.5 116.8" fill="#000000" fill-rule="evenodd" stroke="none"/>
    <path d="M26.5 116.8 Q28.4 116.8 29.7 118.1 31.05 119.45 31.05 121.35 31.05 123.2 29.7 124.55 28.4 125.85 26.5 125.85 24.6 125.85 23.3 124.55 21.95 123.2 21.95 121.35 21.95 119.45 23.3 118.1 24.6 116.8 26.5 116.8 Z" fill="none" stroke="#000000" stroke-linecap="butt" stroke-linejoin="round" stroke-width="1.0"/>
    <path d="M25.9 114.05 Q27.2 112.75 29.1 112.75 31.0 112.75 32.3 114.05 33.65 115.4 33.65 117.3 33.65 119.2 32.3 120.5 31.0 121.85 29.1 121.85 27.25 121.85 25.9 120.5 24.55 119.2 24.55 117.3 24.55 115.4 25.9 114.05" fill="#f8a736" fill-rule="evenodd" stroke="none"/>
    <path d="M25.9 114.05 Q27.2 112.75 29.1 112.75 31.0 112.75 32.3 114.05 33.65 115.4 33.65 117.3 33.65 119.2 32.3 120.5 31.0 121.85 29.1 121.85 27.25 121.85 25.9 120.5 24.55 119.2 24.55 117.3 24.55 115.4 25.9 114.05 Z" fill="none" stroke="#000000" stroke-linecap="butt" stroke-linejoin="round" stroke-width="1.0"/>
    <path d="M-85.35 102.4 L-85.35 111.6 -95.45 110.45 -95.45 109.8 -99.75 109.8 -100.75 109.65 -98.9 102.4 -85.35 102.4 M-80.1 97.0 L-77.95 96.65 Q-59.0 93.7 -58.75 106.05 L-58.75 113.25 -69.45 112.85 -69.7 112.35 Q-70.65 111.05 -72.55 111.35 -73.7 111.6 -74.15 112.35 L-74.3 112.55 -84.35 111.7 Q-83.65 108.15 -80.4 106.35 -75.8 103.85 -70.5 107.1 L-69.5 107.7 -69.5 105.95 Q-69.5 105.4 -70.0 104.5 -71.25 102.4 -75.3 102.6 L-77.15 102.8 -80.65 103.35 -81.8 103.65 -80.1 97.0 M-112.15 94.95 Q-108.2 89.4 -100.75 88.2 -94.4 87.1 -88.25 90.4 L-86.25 91.65 -91.8 99.95 -92.95 99.15 Q-96.05 97.35 -99.0 98.0 -104.05 98.95 -104.85 104.05 L-104.85 106.6 -104.25 109.1 -115.6 106.85 Q-116.2 100.65 -112.15 94.95 M-5.95 105.3 Q-6.75 104.35 -8.1 104.1 -10.45 103.65 -11.9 105.15 -13.4 106.7 -12.9 109.2 L-12.65 110.2 -5.95 105.3 M-48.7 96.7 L-48.7 100.35 Q-48.05 99.05 -46.85 98.0 -44.2 95.9 -41.05 96.45 -37.75 96.85 -36.15 99.75 L-35.8 100.6 -35.25 99.8 Q-32.7 96.4 -28.95 96.35 -21.75 96.3 -21.55 106.7 L-21.55 107.45 Q-20.8 102.9 -17.8 100.0 -14.8 97.1 -10.4 96.55 -2.25 95.55 2.7 103.25 3.3 99.55 7.6 97.5 10.25 96.3 14.9 96.3 L20.6 97.05 21.7 97.35 20.5 104.85 19.45 104.65 17.05 104.45 14.9 104.45 Q13.35 104.65 13.25 105.35 L13.25 105.65 Q13.25 106.4 13.95 106.7 L15.25 107.15 4.3 109.2 Q2.85 107.75 2.6 105.45 L-4.5 110.55 -21.4 112.3 -21.55 111.7 -21.55 112.3 -31.05 112.9 -31.1 107.15 Q-31.25 105.15 -33.35 105.35 -34.9 105.6 -35.05 107.9 L-35.1 113.1 -44.65 113.35 -44.65 107.4 Q-44.75 105.55 -46.1 105.3 -48.55 104.95 -48.6 107.9 L-48.65 108.65 -48.7 108.7 -48.7 113.35 -49.55 113.4 -58.25 113.25 -58.25 97.35 -48.7 96.7" fill="#ffffff" fill-rule="evenodd" stroke="none"/>
    <path d="M-100.75 88.2 Q-94.4 87.1 -88.25 90.4 L-86.25 91.65 -91.8 99.95 -92.95 99.15 Q-96.05 97.35 -99.0 98.0 -104.05 98.95 -104.85 104.05 L-104.85 106.6 Q-103.95 113.15 -96.9 113.3 L-95.45 113.15 -95.45 109.8 -100.8 109.8 -98.9 102.4 -85.35 102.4 -85.35 120.05 Q-88.75 122.0 -92.6 122.6 -100.5 123.85 -106.5 120.65 -112.3 117.55 -114.6 111.25 -117.7 102.7 -112.15 94.95 -108.2 89.4 -100.75 88.2 Z" fill="none" stroke="#000000" stroke-linecap="butt" stroke-linejoin="round" stroke-width="1.0"/>
    <path d="M-77.95 96.65 Q-59.0 93.7 -58.75 106.05 L-58.75 122.25 -68.2 122.25 -68.2 119.0 -68.8 119.65 Q-72.7 123.5 -77.5 122.4 -83.2 121.1 -84.25 115.75 -85.6 109.25 -80.4 106.35 -75.8 103.85 -70.5 107.1 L-69.5 107.7 -69.5 105.95 Q-69.5 105.4 -70.0 104.5 -71.25 102.4 -75.3 102.6 L-77.15 102.8 -80.65 103.35 -81.8 103.65 -80.1 97.0 -77.95 96.65 M-69.7 114.95 Q-68.8 113.65 -69.7 112.35 -70.65 111.05 -72.55 111.35 -73.7 111.6 -74.15 112.35 -74.6 112.95 -74.6 113.65 -74.6 114.35 -74.15 114.95 -73.25 116.25 -71.35 115.85 -70.3 115.7 -69.7 114.95 Z" fill="none" stroke="#000000" stroke-linecap="butt" stroke-linejoin="round" stroke-width="1.0"/>
    <path d="M-28.95 96.35 Q-21.75 96.3 -21.55 106.7 L-21.55 121.9 -31.05 122.55 -31.1 107.15 Q-31.25 105.15 -33.35 105.35 -34.9 105.6 -35.05 107.9 L-35.1 121.9 -44.65 122.55 -44.65 107.4 Q-44.75 105.55 -46.1 105.3 -48.55 104.95 -48.6 107.9 L-48.65 108.65 -48.7 108.7 -48.7 121.9 -58.25 122.55 -58.25 97.35 -48.7 96.7 -48.7 100.35 Q-48.05 99.05 -46.85 98.0 -44.2 95.9 -41.05 96.45 -37.75 96.85 -36.15 99.75 L-35.8 100.6 -35.25 99.8 Q-32.7 96.4 -28.95 96.35 Z" fill="none" stroke="#000000" stroke-linecap="butt" stroke-linejoin="round" stroke-width="1.0"/>
    <path d="M-10.4 96.55 Q-2.0 95.5 2.9 103.6 L3.55 104.75 -9.3 113.95 -8.0 114.4 Q-5.75 114.75 -3.65 113.95 -2.75 113.65 -1.3 112.8 L-1.0 112.55 -0.7 112.4 3.5 119.35 Q-0.2 122.15 -5.35 122.8 -10.65 123.4 -15.05 120.9 -22.85 116.25 -21.55 107.45 -20.8 102.9 -17.8 100.0 -14.8 97.1 -10.4 96.55 M-8.1 104.1 Q-10.45 103.65 -11.9 105.15 -13.4 106.7 -12.9 109.2 L-12.65 110.2 -5.95 105.3 Q-6.75 104.35 -8.1 104.1 Z" fill="none" stroke="#000000" stroke-linecap="butt" stroke-linejoin="round" stroke-width="1.0"/>
    <path d="M21.7 97.35 L20.5 104.85 19.45 104.65 14.9 104.45 Q13.35 104.65 13.25 105.35 L13.25 105.65 Q13.25 106.4 13.95 106.7 L14.3 106.8 15.35 107.2 Q19.4 108.5 20.9 109.9 22.45 111.3 22.7 113.95 23.15 117.8 20.2 120.3 17.0 122.9 10.95 123.05 L5.25 122.5 2.55 122.05 3.65 114.2 4.95 114.55 6.75 114.8 Q8.65 115.1 9.85 114.8 11.3 114.5 11.7 113.85 11.95 113.15 11.7 112.8 L11.6 112.75 11.45 112.6 Q11.0 112.35 10.5 112.25 L9.55 111.9 Q2.0 109.75 2.6 103.75 3.05 99.7 7.6 97.5 10.25 96.3 14.9 96.3 L20.6 97.05 21.7 97.35 Z" fill="none" stroke="#000000" stroke-linecap="butt" stroke-linejoin="round" stroke-width="1.0"/>
    <path d="M70.75 96.35 Q76.75 96.35 80.55 100.15 84.3 103.85 84.3 109.6 L84.15 111.85 73.15 111.85 Q73.75 111.2 73.8 110.4 74.3 106.8 71.3 106.4 70.75 106.25 70.2 106.4 67.65 106.8 67.65 109.65 67.65 110.85 68.3 111.75 L57.35 111.4 57.2 109.6 Q57.2 102.35 63.15 98.45 66.5 96.3 70.75 96.35 M85.35 97.35 L94.9 96.7 94.9 100.35 Q95.55 99.05 96.75 98.0 99.4 95.9 102.55 96.45 105.85 96.9 107.45 99.75 L107.8 100.6 108.35 99.8 Q110.9 96.4 114.65 96.35 121.85 96.3 122.05 106.7 L122.05 109.8 112.55 110.65 112.5 107.15 Q112.35 105.15 110.25 105.35 108.7 105.6 108.55 107.9 L108.5 110.95 98.95 111.45 98.95 107.4 Q98.85 105.55 97.5 105.3 95.1 104.95 94.95 107.9 L94.95 108.65 94.9 108.7 94.9 111.6 85.35 111.85 85.35 97.35 M57.9 99.1 L58.55 99.55 52.9 106.9 Q51.55 105.55 49.4 105.6 45.95 105.75 45.25 108.7 45.0 109.8 45.2 110.65 L34.45 109.65 Q34.35 101.75 41.45 98.05 45.85 95.75 51.7 96.7 53.85 97.05 56.7 98.5 L57.9 99.1" fill="#ffffff" fill-rule="evenodd" stroke="none"/>
    <path d="M58.55 99.55 L52.9 106.9 Q51.55 105.55 49.4 105.6 45.95 105.75 45.25 108.7 44.7 110.75 46.05 112.3 47.35 113.85 49.7 113.8 51.55 113.7 52.95 112.55 L58.5 120.2 56.3 121.3 Q48.8 124.6 42.1 121.5 35.65 118.5 34.65 112.0 33.2 102.4 41.45 98.05 45.85 95.75 51.7 96.7 53.85 97.05 56.7 98.5 L57.9 99.1 58.55 99.55 Z" fill="none" stroke="#000000" stroke-linecap="butt" stroke-linejoin="round" stroke-width="1.0"/>
    <path d="M80.55 100.15 Q84.3 103.85 84.3 109.6 84.3 114.7 81.45 118.25 78.55 121.8 73.65 122.65 66.85 123.9 62.05 119.95 57.45 116.1 57.2 109.6 57.2 102.35 63.15 98.45 66.5 96.3 70.75 96.35 76.75 96.35 80.55 100.15 M70.2 106.4 Q67.65 106.8 67.65 109.65 67.65 112.5 70.2 112.9 L71.3 112.9 Q73.55 112.5 73.8 110.4 74.3 106.8 71.3 106.4 70.75 106.25 70.2 106.4 Z" fill="none" stroke="#000000" stroke-linecap="butt" stroke-linejoin="round" stroke-width="1.0"/>
    <path d="M108.35 99.8 Q110.9 96.4 114.65 96.35 121.85 96.3 122.05 106.7 L122.05 121.9 112.55 122.55 112.5 107.15 Q112.35 105.15 110.25 105.35 108.7 105.6 108.55 107.9 L108.5 121.9 98.95 122.55 98.95 107.4 Q98.85 105.55 97.5 105.3 95.1 104.95 94.95 107.9 L94.95 108.65 94.9 108.7 94.9 121.9 85.35 122.55 85.35 97.35 94.9 96.7 94.9 100.35 Q95.55 99.05 96.75 98.0 99.4 95.9 102.55 96.45 105.85 96.9 107.45 99.75 L107.8 100.6 108.35 99.8 Z" fill="none" stroke="#000000" stroke-linecap="butt" stroke-linejoin="round" stroke-width="1.0"/>
  </g>
</svg>
