<?xml version="1.0" encoding="UTF-8" standalone="no"?>
<svg xmlns:ffdec="https://www.free-decompiler.com/flash" xmlns:xlink="http://www.w3.org/1999/xlink" ffdec:objectType="shape" height="260.0px" width="500.0px" xmlns="http://www.w3.org/2000/svg">
  <g transform="matrix(1.0, 0.0, 0.0, 1.0, 250.0, 130.0)">
    <path d="M97.5 120.0 L240.0 120.0 240.0 -120.0 -208.25 -120.0 -214.05 -108.35 -240.0 -108.35 -240.0 120.0 -97.5 120.0 -82.5 90.0 82.5 90.0 97.5 120.0 M250.0 130.0 L-250.0 130.0 -250.0 -130.0 250.0 -130.0 250.0 130.0" fill="#ffffff" fill-rule="evenodd" stroke="none"/>
    <path d="M97.5 120.0 L240.0 120.0 240.0 -120.0 -208.25 -120.0 -214.05 -108.35 -240.0 -108.35 -240.0 120.0 -97.5 120.0 -82.5 90.0 82.5 90.0 97.5 120.0 Z" fill="none" stroke="#000000" stroke-linecap="round" stroke-linejoin="round" stroke-opacity="0.2509804" stroke-width="1.0"/>
  </g>
</svg>
