<?xml version="1.0" encoding="UTF-8" standalone="no"?>
<svg xmlns:ffdec="https://www.free-decompiler.com/flash" xmlns:xlink="http://www.w3.org/1999/xlink" ffdec:objectType="shape" height="170.0px" width="170.0px" xmlns="http://www.w3.org/2000/svg">
  <g transform="matrix(1.0, 0.0, 0.0, 1.0, 139.55, 85.0)">
    <path d="M30.45 -52.95 L30.45 -53.0 30.45 85.0 -139.55 85.0 -139.55 -85.0 30.45 -85.0 30.45 -52.95 M5.0 5.0 L0.0 0.0 0.0 -75.0 -129.55 -75.0 -129.55 54.7 Q-126.0 52.3 -121.4 52.3 -115.2 52.3 -110.8 56.7 -106.4 61.1 -106.4 67.3 -106.4 71.6 -108.45 75.0 L20.0 75.0 20.0 5.0 5.0 5.0" fill="#ffffff" fill-rule="evenodd" stroke="none"/>
    <path d="M5.0 5.0 L0.0 0.0 0.0 -75.0 -129.55 -75.0 -129.55 54.7 Q-126.0 52.3 -121.4 52.3 -115.2 52.3 -110.8 56.7 -106.4 61.1 -106.4 67.3 -106.4 71.6 -108.45 75.0 L20.0 75.0 20.0 5.0 5.0 5.0 Z" fill="none" stroke="#000000" stroke-linecap="round" stroke-linejoin="round" stroke-opacity="0.2509804" stroke-width="1.0"/>
  </g>
</svg>
