<?xml version="1.0" encoding="UTF-8" standalone="no"?>
<svg xmlns:ffdec="https://www.free-decompiler.com/flash" xmlns:xlink="http://www.w3.org/1999/xlink" ffdec:objectType="shape" height="15.7px" width="42.2px" xmlns="http://www.w3.org/2000/svg">
  <g transform="matrix(1.0, 0.0, 0.0, 1.0, -107.8, -134.7)">
    <path d="M147.3 135.25 L147.55 135.05 147.95 134.95 148.65 134.95 149.35 134.95 149.75 135.05 149.95 135.25 150.0 135.45 150.0 149.05 149.9 149.55 149.65 149.9 149.3 150.1 148.85 150.15 147.55 150.15 146.85 150.1 146.3 149.8 145.8 149.2 145.25 148.25 141.5 141.15 140.8 139.8 140.2 138.35 140.25 140.05 140.3 141.8 140.3 149.7 140.2 149.95 140.0 150.1 139.55 150.2 138.85 150.2 138.2 150.2 137.75 150.1 137.55 149.95 137.5 149.7 137.5 136.1 Q137.5 135.55 137.85 135.25 138.15 135.0 138.6 135.0 L140.25 135.0 141.0 135.05 141.55 135.3 142.0 135.8 142.45 136.55 145.4 142.1 145.9 143.1 146.4 144.1 146.85 145.05 147.3 145.95 147.25 144.25 147.25 142.55 147.25 135.45 147.3 135.25 M133.15 136.6 Q134.05 137.55 134.5 139.0 134.95 140.4 134.95 142.4 134.95 144.3 134.45 145.75 134.0 147.25 133.1 148.3 132.15 149.35 130.8 149.9 L127.65 150.4 124.55 149.95 Q123.2 149.5 122.35 148.55 121.45 147.6 121.05 146.15 120.6 144.65 120.6 142.65 120.6 140.8 121.05 139.35 121.55 137.9 122.45 136.85 123.4 135.8 124.75 135.25 126.1 134.7 127.9 134.7 129.65 134.7 130.95 135.15 132.25 135.65 133.15 136.6 M131.5 140.4 Q131.35 139.4 130.9 138.7 130.45 138.0 129.7 137.65 L127.8 137.25 Q126.65 137.25 125.9 137.7 125.15 138.1 124.7 138.8 124.2 139.55 124.0 140.5 L123.8 142.5 124.0 144.75 Q124.2 145.75 124.65 146.45 125.1 147.15 125.85 147.5 L127.7 147.9 129.6 147.45 130.85 146.3 131.5 144.6 131.7 142.55 131.5 140.4 M116.5 135.95 Q117.2 136.4 117.55 137.15 117.9 137.85 117.9 138.85 L117.75 139.9 117.35 140.75 116.65 141.45 115.75 141.95 116.95 142.35 117.9 143.15 118.55 144.2 118.8 145.6 118.55 147.05 117.95 148.25 117.0 149.1 115.8 149.7 114.4 150.05 112.75 150.15 108.7 150.15 108.05 149.95 Q107.8 149.7 107.8 149.2 L107.8 135.95 Q107.8 135.45 108.05 135.2 L108.7 135.0 112.55 135.0 114.9 135.2 Q115.85 135.45 116.5 135.95 M114.8 139.2 L114.65 138.4 114.25 137.8 113.55 137.4 112.4 137.3 110.85 137.3 110.85 141.25 112.55 141.25 113.6 141.1 114.3 140.65 114.65 140.0 114.8 139.2 M110.85 147.8 L113.05 147.8 114.15 147.65 114.9 147.25 115.4 146.6 115.6 145.7 115.4 144.75 114.9 144.05 Q114.55 143.8 114.05 143.65 L112.65 143.5 110.85 143.5 110.85 147.8" fill="#000000" fill-rule="evenodd" stroke="none"/>
  </g>
</svg>
