<?xml version="1.0" encoding="UTF-8" standalone="no"?>
<svg xmlns:ffdec="https://www.free-decompiler.com/flash" xmlns:xlink="http://www.w3.org/1999/xlink" ffdec:objectType="shape" height="15.3px" width="48.3px" xmlns="http://www.w3.org/2000/svg">
  <g transform="matrix(1.0, 0.0, 0.0, 1.0, -101.85, -134.9)">
    <path d="M145.8 135.45 Q147.2 135.95 148.2 136.85 149.15 137.8 149.65 139.15 150.15 140.55 150.15 142.35 150.15 144.45 149.6 145.9 149.05 147.4 148.05 148.35 147.0 149.25 145.55 149.7 L142.1 150.15 138.45 150.15 137.8 149.95 137.55 149.2 137.55 135.95 Q137.55 135.45 137.8 135.2 L138.45 135.0 142.35 135.0 145.8 135.45 M134.25 135.45 L134.25 149.05 134.15 149.55 133.9 149.9 133.55 150.1 133.1 150.15 131.8 150.15 131.1 150.1 130.55 149.8 130.05 149.2 129.5 148.25 125.75 141.15 125.05 139.8 124.45 138.35 124.5 140.05 124.55 141.8 124.55 149.7 124.45 149.95 124.25 150.1 123.8 150.2 123.1 150.2 122.45 150.2 122.0 150.1 121.8 149.95 121.75 149.7 121.75 136.1 Q121.75 135.55 122.1 135.25 122.4 135.0 122.85 135.0 L124.5 135.0 125.25 135.05 125.8 135.3 126.25 135.8 126.7 136.55 129.65 142.1 130.15 143.1 130.65 144.1 131.1 145.05 131.55 145.95 131.5 144.25 131.5 142.55 131.5 135.45 131.55 135.25 131.8 135.05 132.2 134.95 132.9 134.95 133.6 134.95 134.0 135.05 134.2 135.25 134.25 135.45 M145.9 138.85 L144.5 137.8 142.2 137.4 140.6 137.4 140.6 147.7 142.25 147.7 144.35 147.4 145.8 146.4 146.7 144.75 146.95 142.45 146.7 140.45 145.9 138.85 M102.75 135.0 L106.6 135.0 108.95 135.2 Q109.9 135.45 110.55 135.95 111.25 136.4 111.6 137.15 111.95 137.85 111.95 138.85 L111.8 139.9 111.4 140.75 110.7 141.45 109.8 141.95 111.0 142.35 111.95 143.15 112.6 144.2 112.85 145.6 112.6 147.05 112.0 148.25 111.05 149.1 109.85 149.7 108.45 150.05 106.8 150.15 102.75 150.15 102.1 149.95 101.85 149.2 101.85 135.95 Q101.85 135.45 102.1 135.2 L102.75 135.0 M104.9 141.25 L106.6 141.25 107.65 141.1 108.35 140.65 108.7 140.0 108.85 139.2 108.7 138.4 108.3 137.8 107.6 137.4 106.45 137.3 104.9 137.3 104.9 141.25 M104.9 147.8 L107.1 147.8 108.2 147.65 108.95 147.25 109.45 146.6 109.65 145.7 109.45 144.75 108.95 144.05 Q108.6 143.8 108.1 143.65 L106.7 143.5 104.9 143.5 104.9 147.8 M118.45 135.4 L118.45 149.75 118.4 149.95 118.1 150.1 117.65 150.2 116.9 150.2 116.15 150.2 115.7 150.1 115.45 149.95 115.35 149.75 115.35 135.4 115.45 135.2 115.7 135.05 116.15 134.95 116.9 134.9 117.65 134.95 118.1 135.05 118.4 135.2 118.45 135.4" fill="#000000" fill-rule="evenodd" stroke="none"/>
  </g>
</svg>
