<?xml version="1.0" encoding="UTF-8" standalone="no"?>
<svg xmlns:ffdec="https://www.free-decompiler.com/flash" xmlns:xlink="http://www.w3.org/1999/xlink" ffdec:objectType="shape" height="15.2px" width="48.8px" xmlns="http://www.w3.org/2000/svg">
  <g transform="matrix(1.0, 0.0, 0.0, 1.0, -101.45, -134.95)">
    <path d="M138.65 136.2 L138.7 135.6 138.75 135.2 138.9 135.0 139.1 134.95 149.8 134.95 150.0 135.0 150.15 135.2 150.2 135.6 150.25 136.2 150.2 136.8 150.15 137.15 150.0 137.4 149.8 137.45 146.0 137.45 146.0 149.7 145.9 149.9 145.65 150.05 145.2 150.15 144.45 150.15 143.7 150.15 143.2 150.05 143.0 149.9 142.9 149.7 142.9 137.45 139.1 137.45 138.9 137.4 138.75 137.15 138.7 136.8 138.65 136.2 M136.05 136.3 L136.85 137.5 137.1 139.1 136.95 140.5 136.35 141.6 135.45 142.45 134.2 143.05 Q134.5 143.2 134.8 143.45 L135.4 144.0 135.9 144.8 136.35 145.75 137.6 148.75 137.85 149.4 137.9 149.7 137.85 149.9 137.65 150.05 137.1 150.15 136.2 150.15 135.4 150.15 134.95 150.05 134.7 149.9 134.6 149.65 133.25 146.25 132.75 145.25 132.25 144.5 Q131.95 144.2 131.55 144.05 L130.7 143.9 129.75 143.9 129.75 149.7 129.65 149.9 129.4 150.05 128.95 150.15 128.2 150.15 127.45 150.15 126.95 150.05 126.7 149.9 126.65 149.7 126.65 135.9 Q126.65 135.4 126.9 135.15 L127.55 134.95 131.5 134.95 132.5 134.95 133.2 135.0 134.85 135.45 Q135.55 135.8 136.05 136.3 M133.95 139.4 Q133.95 138.65 133.6 138.15 133.25 137.65 132.5 137.4 L131.95 137.35 131.1 137.3 129.75 137.3 129.75 141.6 131.3 141.6 132.45 141.45 133.25 141.0 133.75 140.3 133.95 139.4 M102.35 134.95 L106.2 134.95 108.55 135.15 Q109.5 135.4 110.15 135.9 110.85 136.35 111.2 137.1 111.55 137.8 111.55 138.8 L111.4 139.85 111.0 140.7 110.3 141.4 109.4 141.9 110.6 142.3 111.55 143.1 112.2 144.15 112.45 145.55 112.2 147.0 111.6 148.2 110.65 149.05 109.45 149.65 108.05 150.0 106.4 150.1 102.35 150.1 101.7 149.9 Q101.45 149.65 101.45 149.15 L101.45 135.9 Q101.45 135.4 101.7 135.15 L102.35 134.95 M104.5 141.2 L106.2 141.2 107.25 141.05 107.95 140.6 108.3 139.95 108.45 139.15 108.3 138.35 107.9 137.75 Q107.6 137.5 107.2 137.35 L106.05 137.25 104.5 137.25 104.5 141.2 M104.5 147.75 L106.7 147.75 107.8 147.6 108.55 147.2 109.05 146.55 109.25 145.65 109.05 144.7 108.55 144.0 107.7 143.6 106.3 143.45 104.5 143.45 104.5 147.75 M123.85 136.7 L123.75 137.1 123.6 137.3 123.45 137.35 118.0 137.35 118.0 141.05 122.6 141.05 122.8 141.1 122.95 141.3 123.05 141.7 123.05 142.25 123.05 142.8 122.95 143.15 122.8 143.35 122.6 143.4 118.0 143.4 118.0 147.7 123.5 147.7 123.7 147.75 123.8 147.95 123.9 148.35 123.95 148.9 123.9 149.45 123.8 149.85 123.7 150.05 123.5 150.1 115.85 150.1 115.2 149.9 Q114.95 149.65 114.95 149.15 L114.95 135.9 Q114.95 135.4 115.2 135.15 L115.85 134.95 123.45 134.95 123.6 135.0 123.75 135.2 123.85 135.6 123.9 136.15 123.85 136.7" fill="#000000" fill-rule="evenodd" stroke="none"/>
  </g>
</svg>
