<?xml version="1.0" encoding="UTF-8" standalone="no"?>
<svg xmlns:ffdec="https://www.free-decompiler.com/flash" xmlns:xlink="http://www.w3.org/1999/xlink" ffdec:objectType="shape" height="15.7px" width="68.15px" xmlns="http://www.w3.org/2000/svg">
  <g transform="matrix(1.0, 0.0, 0.0, 1.0, -82.6, -134.7)">
    <path d="M83.5 135.0 L87.35 135.0 89.7 135.2 Q90.65 135.45 91.3 135.95 92.0 136.4 92.35 137.15 92.7 137.85 92.7 138.85 L92.55 139.9 92.15 140.75 91.45 141.45 90.55 141.95 91.75 142.35 92.7 143.15 93.35 144.2 93.6 145.6 93.35 147.05 92.75 148.25 91.8 149.1 90.6 149.7 89.2 150.05 87.55 150.15 83.5 150.15 82.85 149.95 Q82.6 149.7 82.6 149.2 L82.6 135.95 Q82.6 135.45 82.85 135.2 L83.5 135.0 M143.7 134.7 L146.75 135.15 Q148.05 135.65 148.95 136.6 149.85 137.55 150.3 139.0 150.75 140.4 150.75 142.4 150.75 144.3 150.25 145.75 149.8 147.25 148.9 148.3 147.95 149.35 146.6 149.9 L143.45 150.4 140.35 149.95 Q139.0 149.5 138.15 148.55 137.25 147.6 136.85 146.15 136.4 144.65 136.4 142.65 136.4 140.8 136.85 139.35 137.35 137.9 138.25 136.85 139.2 135.8 140.55 135.25 141.9 134.7 143.7 134.7 M134.3 135.95 Q135.0 136.4 135.35 137.15 135.7 137.85 135.7 138.85 L135.55 139.9 135.15 140.75 134.45 141.45 133.55 141.95 134.75 142.35 135.7 143.15 136.35 144.2 136.6 145.6 136.35 147.05 135.75 148.25 134.8 149.1 133.6 149.7 132.2 150.05 130.55 150.15 126.5 150.15 125.85 149.95 Q125.6 149.7 125.6 149.2 L125.6 135.95 Q125.6 135.45 125.85 135.2 L126.5 135.0 130.35 135.0 132.7 135.2 Q133.65 135.45 134.3 135.95 M131.35 137.4 L130.2 137.3 128.65 137.3 128.65 141.25 130.35 141.25 131.4 141.1 132.1 140.65 132.45 140.0 132.6 139.2 132.45 138.4 132.05 137.8 131.35 137.4 M128.65 147.8 L130.85 147.8 131.95 147.65 Q132.4 147.55 132.7 147.25 L133.2 146.6 133.4 145.7 133.2 144.75 132.7 144.05 131.85 143.65 130.45 143.5 128.65 143.5 128.65 147.8 M141.7 137.7 Q140.95 138.1 140.5 138.8 140.0 139.55 139.8 140.5 L139.6 142.5 139.8 144.75 Q140.0 145.75 140.45 146.45 140.9 147.15 141.65 147.5 142.4 147.9 143.5 147.9 L145.4 147.45 Q146.2 147.05 146.65 146.3 L147.3 144.6 147.5 142.55 147.3 140.4 Q147.15 139.4 146.7 138.7 146.25 138.0 145.5 137.65 L143.6 137.25 Q142.45 137.25 141.7 137.7 M97.75 135.2 L98.1 135.0 98.65 134.95 99.6 134.9 100.7 134.95 101.35 135.0 101.65 135.2 101.85 135.55 106.5 149.0 106.6 149.3 106.6 136.2 Q106.6 135.6 106.9 135.3 107.25 135.0 107.75 135.0 L109.8 135.0 110.7 135.1 111.35 135.35 111.85 135.9 112.15 136.75 115.45 145.75 115.5 145.75 118.9 136.75 119.25 135.9 119.65 135.35 Q119.9 135.15 120.2 135.1 L121.0 135.0 123.05 135.0 123.6 135.05 124.0 135.3 124.2 135.7 124.25 136.2 124.25 149.75 124.2 149.95 124.0 150.1 123.5 150.2 122.8 150.2 122.1 150.2 121.65 150.1 121.45 149.95 121.35 149.75 121.35 137.4 116.95 149.7 116.8 149.95 116.5 150.15 116.05 150.2 115.35 150.2 114.7 150.2 114.2 150.1 113.95 149.95 113.8 149.7 109.55 137.4 109.5 137.4 109.5 149.75 109.45 149.95 109.2 150.1 108.75 150.2 108.05 150.2 107.35 150.2 106.9 150.1 106.7 150.0 106.6 150.05 106.15 150.2 105.25 150.2 104.3 150.2 103.8 150.15 103.55 150.0 103.45 149.75 102.4 146.7 96.75 146.7 95.75 149.65 95.65 149.95 95.4 150.1 94.9 150.2 94.1 150.2 93.25 150.2 92.85 150.0 92.75 149.65 92.95 149.0 97.6 135.55 97.75 135.2 M89.6 139.2 L89.45 138.4 89.05 137.8 88.35 137.4 87.2 137.3 85.65 137.3 85.65 141.25 87.35 141.25 88.4 141.1 89.1 140.65 89.45 140.0 89.6 139.2 M89.7 147.25 L90.2 146.6 90.4 145.7 90.2 144.75 89.7 144.05 Q89.35 143.8 88.85 143.65 L87.45 143.5 85.65 143.5 85.65 147.8 87.85 147.8 88.95 147.65 89.7 147.25 M99.55 137.9 L97.4 144.35 101.7 144.35 99.55 137.9" fill="#000000" fill-rule="evenodd" stroke="none"/>
  </g>
</svg>
