<?xml version="1.0" encoding="UTF-8" standalone="no"?>
<svg xmlns:ffdec="https://www.free-decompiler.com/flash" xmlns:xlink="http://www.w3.org/1999/xlink" ffdec:objectType="shape" height="107.6px" width="116.15px" xmlns="http://www.w3.org/2000/svg">
  <g transform="matrix(1.0, 0.0, 0.0, 1.0, 57.1, 52.5)">
    <path d="M38.9 -4.5 Q38.9 15.4 24.85 29.5 10.8 43.5 -9.1 43.5 -29.0 43.5 -43.05 29.5 -57.1 15.4 -57.1 -4.5 -57.1 -24.4 -43.05 -38.45 -29.0 -52.5 -9.1 -52.5 10.8 -52.5 24.85 -38.45 38.9 -24.4 38.9 -4.5" fill="#999999" fill-opacity="0.050980393" fill-rule="evenodd" stroke="none"/>
    <path d="M59.05 -5.25 Q59.05 13.4 45.9 26.55 32.7 39.7 14.05 39.75 -4.6 39.7 -17.8 26.55 -30.95 13.4 -30.95 -5.25 -30.95 -23.95 -17.8 -37.1 -4.6 -50.3 14.05 -50.25 32.7 -50.3 45.9 -37.1 59.05 -23.95 59.05 -5.25" fill="#999999" fill-opacity="0.050980393" fill-rule="evenodd" stroke="none"/>
    <path d="M38.95 -8.95 Q49.9 2.05 49.9 17.6 49.9 33.15 38.95 44.15 27.95 55.1 12.4 55.1 -3.15 55.1 -14.15 44.15 -25.15 33.15 -25.1 17.6 -25.15 2.05 -14.15 -8.95 -3.15 -19.95 12.4 -19.9 27.95 -19.95 38.95 -8.95" fill="#999999" fill-opacity="0.050980393" fill-rule="evenodd" stroke="none"/>
    <path d="M-15.05 -18.8 Q-1.4 -18.8 8.25 -9.15 17.9 0.5 17.9 14.2 17.9 27.9 8.25 37.55 -1.4 47.2 -15.05 47.2 -28.75 47.2 -38.4 37.55 -48.1 27.9 -48.05 14.2 -48.1 0.5 -38.4 -9.15 -28.75 -18.8 -15.05 -18.8" fill="#999999" fill-opacity="0.050980393" fill-rule="evenodd" stroke="none"/>
  </g>
</svg>
