<?xml version="1.0" encoding="UTF-8" standalone="no"?>
<svg xmlns:ffdec="https://www.free-decompiler.com/flash" xmlns:xlink="http://www.w3.org/1999/xlink" ffdec:objectType="shape" height="90.8px" width="64.0px" xmlns="http://www.w3.org/2000/svg">
  <g transform="matrix(1.0, 0.0, 0.0, 1.0, 32.0, 58.8)">
    <path d="M22.6 -22.65 Q32.0 -13.25 32.0 0.0 32.0 13.25 22.6 22.6 13.25 32.0 0.0 32.0 -13.25 32.0 -22.65 22.6 -32.0 13.25 -32.0 0.0 -32.0 -13.25 -22.65 -22.65 -13.25 -32.0 0.0 -32.0 13.25 -32.0 22.6 -22.65" fill="#ffff00" fill-rule="evenodd" stroke="none"/>
    <path d="M16.4 -52.85 Q22.4 -46.85 22.4 -38.4 22.4 -29.95 16.4 -24.0 10.45 -18.0 2.0 -18.0 -6.45 -18.0 -12.45 -24.0 -18.4 -29.95 -18.4 -38.4 -18.4 -46.85 -12.45 -52.85 -6.45 -58.8 2.0 -58.8 10.45 -58.8 16.4 -52.85" fill="#ffff00" fill-opacity="0.49803922" fill-rule="evenodd" stroke="none"/>
  </g>
</svg>
