<?xml version="1.0" encoding="UTF-8" standalone="no"?>
<svg xmlns:ffdec="https://www.free-decompiler.com/flash" xmlns:xlink="http://www.w3.org/1999/xlink" ffdec:objectType="shape" height="51.05px" width="49.05px" xmlns="http://www.w3.org/2000/svg">
  <g transform="matrix(1.0, 0.0, 0.0, 1.0, 23.15, 26.0)">
    <path d="M10.4 -25.1 Q11.3 -25.65 12.05 -24.35 L11.95 -24.0 10.15 -24.65 10.05 -24.9 10.4 -25.1 M9.7 -25.0 Q9.3 -25.05 8.9 -25.75 L9.3 -26.0 9.85 -25.35 9.7 -25.0 M16.25 -21.15 L16.75 -20.7 16.5 -20.25 16.2 -20.55 16.0 -21.0 16.25 -21.15 M15.6 -22.05 Q15.3 -22.05 15.1 -22.45 L15.4 -22.65 Q15.35 -23.15 15.65 -22.55 L15.6 -22.05 M11.1 -14.5 L11.7 -13.95 11.55 -14.05 11.1 -14.5 M18.55 -18.05 L18.5 -17.65 18.15 -17.65 18.1 -18.0 18.55 -18.05 M8.25 -14.45 L8.6 -13.6 10.9 -11.95 Q12.6 -12.8 13.65 -11.0 14.4 -9.65 13.75 -8.7 L14.35 -7.75 15.1 -6.3 16.1 -5.3 Q16.85 -4.0 16.2 -3.0 16.65 -0.85 16.45 1.4 L16.95 2.05 Q17.95 3.85 16.4 4.95 14.75 5.65 13.25 6.55 9.85 8.5 11.55 11.4 L11.7 11.7 12.05 12.1 10.0 13.15 8.5 14.1 5.45 15.5 Q4.65 15.9 3.75 16.4 L3.45 16.05 Q0.55 9.9 -0.55 12.8 -1.7 15.7 -2.7 16.55 -3.65 17.35 -4.95 15.45 L-5.05 15.25 Q-8.1 14.2 -10.3 12.1 L-14.3 18.8 -14.9 18.45 -11.2 11.95 Q-12.4 12.1 -13.2 10.75 -14.0 9.35 -13.25 8.4 L-13.35 8.25 -14.0 7.1 -14.15 7.2 Q-16.0 8.25 -17.35 6.4 L-17.65 5.75 -17.75 6.65 -18.0 6.7 Q-18.35 6.2 -18.4 5.05 L-18.3 3.8 Q-18.0 3.2 -17.7 3.75 L-17.6 4.4 Q-17.3 3.75 -16.4 3.25 -15.85 2.9 -15.35 2.85 L-15.4 2.6 -16.35 1.6 Q-17.3 -0.1 -16.0 -1.15 L-16.15 -2.05 -16.2 -2.15 -16.6 -3.3 Q-15.9 -3.95 -15.05 -5.4 L-14.45 -5.6 -11.05 -7.85 -11.25 -8.5 -12.45 -9.65 -11.9 -10.05 -10.8 -8.75 -11.0 -10.25 Q-10.45 -10.4 -9.95 -10.75 L-9.15 -9.7 -8.6 -10.4 -5.3 -9.8 -6.35 -10.25 -7.5 -12.2 Q-6.1 -14.35 -5.1 -14.75 -5.15 -15.85 -3.85 -16.6 L-1.4 -16.55 -0.75 -17.1 Q0.95 -18.1 2.1 -16.65 3.95 -17.7 5.2 -15.65 L5.35 -15.35 Q7.05 -16.25 8.25 -14.45 M19.0 -4.85 Q18.6 -3.5 18.85 -2.55 L18.55 -2.65 18.15 -3.15 Q17.55 -4.15 18.55 -4.7 L19.0 -4.85 M6.05 -17.85 L5.75 -18.1 5.9 -18.35 6.2 -18.55 6.7 -18.25 6.05 -17.85 M25.9 1.25 L24.4 2.1 24.15 2.0 23.75 1.55 Q23.5 1.05 23.55 0.7 L23.55 0.65 23.75 0.25 25.85 0.8 25.9 1.25 M21.95 2.6 L22.15 1.6 22.75 1.55 22.2 2.75 21.95 2.6 M20.1 10.15 L20.35 10.2 19.85 10.15 20.1 10.15 M13.05 14.55 L12.75 14.7 12.1 15.15 Q12.55 13.85 13.05 13.8 L13.05 14.55 M1.9 23.95 L2.2 24.65 2.3 24.65 2.2 25.0 Q1.85 25.15 1.7 24.85 L1.75 24.8 1.4 24.3 1.1 23.6 1.7 23.7 1.9 23.95 M10.9 14.8 Q10.95 14.05 12.3 12.35 L13.05 12.95 Q12.45 14.2 11.75 14.6 L10.9 14.8 M-1.1 -24.75 L-1.8 -24.45 Q-1.95 -25.25 -1.75 -25.45 L-1.1 -24.75 M-21.35 -12.3 L-20.6 -12.7 Q-19.45 -7.85 -20.25 -9.55 L-21.35 -12.3 M-21.2 -5.6 L-21.1 -5.05 -22.3 -3.4 -22.6 -2.95 -23.15 -3.25 -21.95 -4.65 -21.2 -5.6 M11.6 16.8 L11.5 16.8 11.6 16.65 11.6 16.8 M-15.6 -16.85 L-15.0 -16.8 -16.7 -16.55 Q-17.7 -16.3 -16.7 -16.85 -16.15 -17.2 -15.6 -16.85 M-12.85 -8.65 L-12.25 -8.7 -12.3 -8.25 -12.9 -8.2 -12.85 -8.65 M-12.55 -8.1 L-12.0 -8.3 -12.1 -7.9 -12.55 -8.1 M-12.5 -7.15 L-12.95 -7.35 -12.4 -7.6 -12.5 -7.15 M-17.8 -0.65 Q-17.25 0.35 -17.8 1.75 -18.15 1.75 -18.25 1.55 -18.5 1.2 -18.4 0.35 -18.35 -0.5 -18.1 -0.75 -18.15 -1.2 -17.8 -0.65 M-10.05 -9.7 L-10.15 -8.65 -9.7 -9.1 -10.05 -9.7 M-10.5 19.45 Q-9.95 19.1 -9.4 19.45 L-8.95 19.9 -8.8 20.15 -8.75 20.9 -9.25 21.45 -11.1 20.5 Q-11.2 19.85 -10.5 19.45 M-5.0 18.25 L-4.4 18.1 -4.5 18.4 -4.4 18.35 -4.1 18.7 -4.5 18.65 -4.7 18.6 -4.7 18.55 -4.5 18.4 -5.0 18.25 M-8.65 17.6 L-8.05 18.75 -8.2 18.95 Q-8.7 18.85 -9.2 18.0 -9.8 16.95 -9.5 16.55 L-8.65 17.6 M-7.8 16.6 L-7.2 17.4 -6.75 18.4 -7.5 18.55 Q-7.75 17.65 -8.15 16.8 L-7.8 16.6 M-6.85 16.3 L-6.95 16.1 -6.65 15.9 -5.4 17.65 -4.9 18.55 -5.65 18.45 -6.85 16.3 M-6.15 24.55 L-6.3 24.95 -6.75 24.75 -6.15 24.55 M-5.05 23.2 Q-5.45 23.3 -4.85 22.95 -3.95 22.4 -3.5 22.45 -3.4 22.8 -3.55 22.9 -4.65 23.5 -4.9 23.4 L-5.05 23.2" fill="#d9292e" fill-rule="evenodd" stroke="none"/>
  </g>
</svg>
