<?xml version="1.0" encoding="UTF-8" standalone="no"?>
<svg xmlns:ffdec="https://www.free-decompiler.com/flash" xmlns:xlink="http://www.w3.org/1999/xlink" ffdec:objectType="shape" height="50.95px" width="58.5px" xmlns="http://www.w3.org/2000/svg">
  <g transform="matrix(1.0, 0.0, 0.0, 1.0, 29.5, 21.6)">
    <path d="M13.2 -14.05 L13.1 -13.45 12.7 -13.05 12.95 -11.3 Q12.25 -10.75 12.25 -9.5 12.25 -8.85 12.55 -8.3 12.95 -7.5 13.85 -7.3 L15.05 -5.45 15.3 -5.5 16.5 -5.25 17.8 -5.5 Q19.55 -5.25 21.05 -4.15 L21.95 -5.3 Q21.9 -2.85 18.65 -1.4 19.95 3.05 23.85 5.55 L23.1 5.95 23.45 6.05 23.45 6.2 23.3 6.35 22.95 6.05 22.65 6.25 21.85 7.15 23.45 7.1 23.45 7.25 23.6 7.95 23.4 8.0 19.65 7.95 Q19.55 8.3 19.55 7.85 L14.3 9.25 14.45 9.55 Q12.25 9.6 12.25 11.8 12.25 12.5 12.5 13.0 12.85 13.7 13.6 13.95 L13.5 15.5 14.35 14.1 14.6 14.1 15.1 14.1 15.4 17.05 14.95 17.6 15.85 19.4 15.0 19.15 14.6 18.35 14.15 19.3 9.3 24.5 12.25 20.0 12.15 19.0 11.35 21.25 10.9 21.15 10.9 18.25 10.65 18.4 Q10.35 18.35 10.35 18.0 L10.9 18.1 10.9 17.8 9.4 17.35 8.05 16.35 Q3.7 19.8 4.2 23.8 L4.25 23.95 4.2 24.1 3.6 24.25 3.6 25.35 1.6 21.65 1.6 20.75 1.2 20.75 0.4 19.0 0.4 18.4 Q0.8 17.85 0.8 16.9 0.65 14.65 -1.3 14.6 L-1.5 14.0 -2.3 14.75 -3.2 15.25 Q-5.5 15.3 -5.5 17.45 L-6.65 18.45 Q-7.05 17.45 -7.75 16.95 L-7.75 14.8 -10.1 14.75 Q-10.6 14.05 -11.45 13.9 L-11.35 13.0 Q-11.35 11.7 -12.1 11.15 L-11.9 9.75 -12.4 10.6 -12.2 11.1 -13.1 10.8 -13.3 10.0 -13.6 10.3 -13.6 8.0 Q-13.85 7.75 -13.6 7.45 -13.85 7.3 -16.9 7.5 L-16.9 8.55 -17.6 8.55 -17.6 9.8 -19.15 9.75 -19.5 10.0 -19.5 11.9 -21.5 13.2 -21.05 12.15 -20.3 11.25 -20.95 11.25 -21.45 6.9 Q-15.45 6.05 -20.75 1.05 L-22.4 -0.45 -19.5 -1.55 Q-16.7 0.8 -15.5 -0.15 L-14.05 -0.15 -14.05 -2.9 -14.7 -2.9 -14.8 -4.8 Q-15.15 -8.15 -16.35 -11.2 L-16.5 -11.1 -16.55 -11.2 -16.7 -11.15 Q-17.15 -11.4 -17.2 -11.9 L-17.0 -11.8 -16.55 -11.75 -17.1 -13.0 -15.8 -11.7 -15.3 -11.65 -15.7 -11.55 -14.45 -10.3 -13.7 -11.25 -14.55 -11.35 -14.35 -11.8 -14.3 -11.75 -14.1 -11.65 -13.5 -13.55 -12.7 -11.6 -8.3 -11.85 -12.25 -16.25 -13.25 -16.45 -13.65 -17.8 Q-13.85 -18.9 -12.75 -19.5 L-11.55 -19.05 -11.15 -17.6 -2.95 -16.0 Q-2.55 -17.2 -1.8 -17.85 L-1.0 -17.75 Q0.3 -17.75 0.85 -18.45 L0.8 -18.0 Q0.8 -15.65 3.05 -15.65 5.1 -15.65 5.35 -17.45 9.1 -17.45 13.4 -16.15 L12.75 -13.55 13.2 -14.05 M12.5 -18.9 L12.25 -18.6 Q10.4 -19.6 9.55 -19.75 L9.5 -20.1 9.75 -20.3 11.45 -19.65 12.5 -18.9 M7.1 -20.5 Q7.9 -20.7 8.25 -20.5 L7.5 -19.9 6.25 -20.1 Q6.35 -20.35 7.1 -20.5 M4.1 -21.25 L3.8 -20.9 3.5 -21.3 4.1 -21.25 M4.75 -20.75 L4.5 -20.5 4.25 -20.85 4.75 -20.75 M21.65 -9.55 L21.75 -10.05 22.3 -9.55 22.05 -9.3 21.65 -9.55 M18.8 -7.15 L18.8 -7.5 18.75 -8.15 19.3 -7.65 19.1 -7.55 19.15 -7.5 18.8 -7.15 M17.3 -11.05 L17.25 -10.65 17.6 -9.55 17.0 -9.7 Q17.0 -10.6 17.3 -11.05 M25.15 -0.75 L25.75 -0.5 25.5 -0.1 Q24.9 -0.15 24.9 -0.45 24.9 -1.05 25.15 -0.75 M22.05 -1.8 L23.55 -1.75 24.25 -1.25 21.85 -1.3 Q21.75 -0.95 21.75 -1.55 L21.75 -1.85 22.05 -1.8 M26.45 -1.25 Q26.85 -1.4 27.15 -1.65 L29.0 -1.6 28.65 -1.25 26.45 -1.25 M23.0 2.25 Q22.85 2.55 22.85 1.9 22.85 1.75 23.6 0.95 24.45 0.1 25.0 0.15 23.9 1.9 23.0 2.25 M20.5 11.7 Q20.5 12.4 19.75 12.5 L19.55 12.45 19.55 12.35 20.25 11.35 20.5 11.7 M21.35 12.3 L20.75 12.9 19.75 12.75 19.55 12.75 19.55 12.7 Q20.3 12.25 20.9 12.25 L21.35 12.3 M8.6 23.85 L8.3 24.1 Q8.0 24.0 8.0 23.75 L8.6 23.85 M7.6 23.25 Q7.35 23.15 7.35 22.85 L7.9 23.0 7.6 23.25 M10.0 22.05 L10.5 22.25 10.25 22.55 9.9 22.4 10.0 22.05 M0.55 29.35 L0.25 29.0 0.85 29.1 0.55 29.35 M7.75 25.65 L7.5 26.0 6.0 25.75 6.0 25.5 6.25 25.5 7.75 25.65 M-20.5 -20.25 L-20.5 -19.35 -20.9 -19.3 -21.3 -21.2 -20.9 -21.6 Q-20.5 -21.05 -20.5 -20.25 M-23.0 -13.85 Q-23.65 -13.2 -23.95 -12.1 L-24.8 -11.5 -25.1 -11.8 -24.2 -12.8 Q-23.2 -13.8 -23.5 -14.5 L-23.1 -14.5 -23.0 -13.85 M-21.55 -15.9 L-22.3 -15.65 -22.4 -15.95 Q-22.4 -16.45 -21.75 -16.55 L-21.55 -15.9 M-26.85 -1.1 L-26.6 -1.55 -26.45 -1.05 -26.85 -1.1 M-7.4 -19.25 L-6.8 -19.15 -7.1 -18.85 -7.4 -19.25 M-6.25 -20.0 Q-5.75 -20.95 -3.85 -20.75 -5.05 -19.75 -6.05 -19.75 L-6.25 -20.0 M-5.55 -18.8 Q-3.85 -18.5 -3.35 -18.0 L-3.6 -17.65 Q-5.3 -17.65 -6.0 -18.55 L-5.9 -18.75 -5.55 -18.8 M-3.0 -17.5 L-3.3 -17.9 -2.75 -17.75 -3.0 -17.5 M-19.55 -19.1 L-19.85 -19.5 -19.3 -19.35 -19.55 -19.1 M-18.85 -18.35 Q-18.65 -18.75 -18.65 -18.1 -18.65 -17.9 -19.0 -17.75 L-19.25 -18.3 -18.85 -18.35 M-16.35 11.35 L-15.8 11.35 -15.8 11.5 -16.35 11.7 -16.35 11.35 M-14.2 10.8 L-14.75 10.9 -14.75 10.75 -14.15 10.75 -14.2 10.8 M-10.65 10.9 L-10.9 11.3 -10.2 11.05 -10.65 10.9 M-20.1 24.1 L-20.35 23.75 -19.8 23.85 -20.1 24.1 M-25.0 8.0 L-24.65 7.85 -24.05 8.7 -24.45 9.7 Q-24.9 10.45 -25.25 10.5 -25.4 10.8 -25.4 10.2 -25.4 9.1 -24.5 8.4 L-25.0 8.05 -25.0 8.0 M-29.15 19.8 Q-29.5 19.75 -29.5 19.4 L-28.85 19.5 -29.15 19.8" fill="#d9292e" fill-rule="evenodd" stroke="none"/>
  </g>
</svg>
