<?xml version="1.0" encoding="UTF-8" standalone="no"?>
<svg xmlns:ffdec="https://www.free-decompiler.com/flash" xmlns:xlink="http://www.w3.org/1999/xlink" ffdec:objectType="shape" height="44.75px" width="53.5px" xmlns="http://www.w3.org/2000/svg">
  <g transform="matrix(1.0, 0.0, 0.0, 1.0, 25.0, 23.25)">
    <path d="M12.1 -22.95 L12.25 -23.15 12.55 -23.25 12.9 -23.15 13.0 -22.95 12.9 -22.75 12.55 -22.65 Q12.35 -22.65 12.25 -22.75 L12.1 -22.95 M14.95 -12.45 L14.6 -12.25 14.3 -12.45 Q14.15 -12.7 14.15 -13.05 14.15 -13.4 14.3 -13.6 L14.6 -13.85 14.95 -13.6 15.05 -13.05 14.95 -12.45 M12.25 -17.85 L12.4 -17.75 Q12.75 -17.25 12.25 -17.85 M7.2 -19.85 L9.45 -18.05 8.5 -16.25 9.6 -15.45 9.4 -14.4 Q9.3 -13.2 10.15 -12.6 L11.3 -11.75 11.25 -11.0 10.35 -10.5 Q9.85 -10.0 9.85 -9.05 9.85 -6.3 12.6 -6.4 8.7 -2.8 14.05 -2.15 16.3 -2.0 16.25 -4.55 L15.65 -5.85 15.8 -6.1 15.9 -6.25 16.05 -5.6 17.45 -3.4 16.35 -4.45 16.35 -3.25 16.0 -1.5 16.6 -0.55 18.75 -0.9 Q19.85 -0.9 20.35 -0.05 L19.7 1.25 Q18.95 2.7 17.8 3.25 L16.15 2.05 15.45 2.9 16.9 6.1 18.95 8.55 18.5 9.6 17.3 10.2 16.8 10.25 15.5 10.6 14.85 10.15 13.3 10.75 11.65 11.0 10.45 11.95 9.15 12.65 8.35 12.8 7.5 13.95 7.2 14.2 6.1 15.15 5.55 17.35 5.8 17.9 6.55 18.05 5.85 18.4 4.95 20.05 5.4 20.25 4.9 20.4 4.5 21.5 3.9 21.15 5.35 15.2 Q3.7 14.9 2.75 13.6 L1.8 12.0 1.05 12.05 0.1 14.35 -0.5 15.3 Q-2.25 15.25 -3.65 13.9 -5.05 12.45 -4.4 10.55 L-5.4 9.6 -7.9 10.25 Q-7.15 14.15 -10.65 14.3 L-13.9 15.15 -14.65 15.05 -11.05 13.15 -12.45 11.8 -11.85 9.7 Q-15.05 8.35 -16.4 5.2 L-16.85 3.95 -19.45 5.25 -20.05 4.95 -20.0 3.65 -19.25 1.1 -18.7 0.85 -17.1 1.65 -16.2 -1.4 -14.15 -0.6 Q-13.45 2.95 -10.5 0.8 -9.0 -0.25 -10.45 -1.95 -11.0 -2.65 -12.1 -2.65 L-12.4 -3.55 -12.9 -4.3 -13.95 -5.2 Q-14.05 -6.35 -13.6 -7.5 -12.9 -9.2 -10.95 -9.4 -11.35 -7.85 -10.4 -6.85 -9.4 -5.85 -8.05 -6.0 L-7.15 -6.75 Q-5.6 -9.55 -8.6 -10.6 -6.55 -15.7 -0.25 -14.25 L0.1 -15.4 1.0 -15.85 1.9 -15.25 1.85 -13.0 2.25 -12.65 3.25 -14.45 Q4.05 -15.6 5.2 -16.3 L5.0 -19.7 5.15 -20.2 7.2 -19.85 M16.05 -9.0 L16.6 -9.0 16.3 -8.6 16.05 -9.0 M15.35 -6.75 L15.1 -7.15 15.65 -7.15 15.35 -6.75 M14.2 -10.5 L14.15 -10.5 Q14.7 -11.0 14.2 -10.5 M18.55 -4.3 L19.1 -3.7 18.1 -4.25 18.55 -4.3 M19.85 -5.8 L20.5 -5.8 20.15 -5.4 19.85 -5.8 M17.7 -3.2 L17.65 -3.15 Q17.15 -3.3 17.7 -3.2 M21.15 -3.9 L20.8 -3.8 20.45 -3.9 20.3 -4.2 20.45 -4.45 20.8 -4.6 21.15 -4.45 21.3 -4.2 21.15 -3.9 M26.65 0.95 L26.5 1.35 26.4 1.25 26.65 0.95 M28.1 5.05 L28.5 5.55 28.4 5.95 28.2 6.1 28.0 5.95 27.9 5.55 28.0 5.15 28.1 5.05 M20.4 8.55 L20.3 8.55 Q20.7 8.0 20.4 8.55 M19.5 8.05 L20.05 8.1 19.85 8.5 19.3 8.75 Q17.9 5.4 19.85 2.75 19.55 4.6 19.35 7.3 L19.5 8.05 M17.7 11.9 L18.05 11.75 18.85 12.0 17.65 12.35 Q16.95 12.25 17.7 11.9 M19.55 10.8 L19.2 10.9 18.9 10.8 18.75 10.45 18.9 10.15 Q19.0 10.0 19.2 10.0 L19.55 10.15 19.65 10.45 19.55 10.8 M19.3 11.8 L19.2 11.6 Q19.4 10.75 19.3 11.8 M6.55 17.55 L6.95 17.55 6.75 17.75 6.55 17.55 M8.5 16.25 L8.85 16.25 8.65 16.55 8.5 16.25 M3.15 18.25 L1.95 18.7 2.45 19.1 1.55 19.45 1.0 18.9 1.45 18.35 3.15 17.5 3.15 18.25 M2.6 20.75 L-0.85 20.6 -0.65 20.0 0.8 20.55 3.05 18.8 3.8 19.05 2.75 20.35 2.6 20.75 M5.65 19.5 Q5.75 19.35 5.85 19.35 L6.05 19.5 6.15 19.8 6.05 20.15 5.85 20.25 5.65 20.15 5.55 19.8 5.65 19.5 M6.05 21.0 L6.8 21.0 6.1 21.05 6.05 21.0 M0.3 19.0 L-0.45 19.0 -0.45 17.35 0.3 17.35 0.3 19.0 M14.75 13.45 Q12.95 14.4 13.3 16.2 L13.6 17.1 Q8.1 16.95 11.6 12.85 12.45 11.85 13.75 12.6 L14.75 13.45 M-22.5 -12.75 L-25.0 -12.25 -23.5 -13.0 -22.5 -12.75 M-21.15 -15.8 L-21.75 -16.0 -20.5 -16.55 -21.15 -15.8 M-0.55 -18.8 Q0.15 -18.1 0.15 -17.1 0.15 -16.1 -0.55 -15.35 -1.3 -14.65 -2.3 -14.65 -3.3 -14.65 -4.0 -15.35 -4.75 -16.1 -4.75 -17.1 -4.75 -18.1 -4.0 -18.8 -3.3 -19.55 -2.3 -19.55 -1.3 -19.55 -0.55 -18.8 M-9.15 -15.15 L-8.6 -15.15 -8.9 -14.75 -9.15 -15.15 M-13.55 -16.3 Q-12.6 -15.4 -12.8 -13.95 L-12.8 -13.5 Q-13.9 -13.8 -13.7 -16.1 L-13.55 -16.3 M-18.35 -13.2 L-18.4 -13.15 Q-18.8 -13.4 -18.35 -13.2 M-14.3 -7.65 Q-14.3 -6.5 -15.1 -5.65 -15.95 -4.85 -17.1 -4.85 -18.25 -4.85 -19.05 -5.65 -19.9 -6.5 -19.9 -7.65 -19.9 -8.8 -19.05 -9.6 -18.25 -10.45 -17.1 -10.45 -15.95 -10.45 -15.1 -9.6 -14.3 -8.8 -14.3 -7.65 M-20.0 8.9 L-20.55 8.9 -20.55 8.15 -20.0 8.15 -20.0 8.9 M-17.8 10.75 L-17.25 10.75 -17.55 11.15 -17.8 10.75 M-13.1 17.45 Q-12.8 16.95 -13.05 17.5 L-13.1 17.45 M-18.65 16.3 L-18.9 16.6 -19.15 16.3 -18.65 16.3 M-16.15 15.3 L-16.0 15.35 -17.0 16.4 Q-17.65 16.0 -16.15 15.3 M-3.45 18.2 Q-3.45 19.1 -4.05 19.75 -4.7 20.35 -5.6 20.35 -6.5 20.35 -7.1 19.75 -7.75 19.1 -7.75 18.2 -7.75 17.3 -7.1 16.7 -6.5 16.05 -5.6 16.05 -4.7 16.05 -4.05 16.7 -3.45 17.3 -3.45 18.2 M-8.75 17.55 L-8.1 17.55 -8.45 18.0 -8.75 17.55 M-23.2 7.1 L-22.8 7.1 -23.0 7.3 -23.2 7.1" fill="#d9292e" fill-rule="evenodd" stroke="none"/>
  </g>
</svg>
