<?xml version="1.0" encoding="UTF-8" standalone="no"?>
<svg xmlns:ffdec="https://www.free-decompiler.com/flash" xmlns:xlink="http://www.w3.org/1999/xlink" ffdec:objectType="shape" height="52.9px" width="52.2px" xmlns="http://www.w3.org/2000/svg">
  <g transform="matrix(1.0, 0.0, 0.0, 1.0, 25.55, 23.55)">
    <path d="M11.05 -21.15 L13.35 -23.35 13.0 -22.55 11.05 -21.15 M6.75 -22.95 L6.75 -21.45 6.55 -20.8 6.75 -20.35 Q7.9 -19.85 7.6 -18.5 L7.1 -16.6 6.0 -16.35 6.75 -15.0 7.55 -14.7 7.85 -13.55 7.55 -12.9 7.85 -12.2 8.9 -15.85 Q11.4 -16.55 13.55 -15.35 15.2 -12.9 14.05 -9.75 L13.75 -8.9 13.95 -8.5 Q14.05 -8.4 14.25 -8.35 L14.3 -8.35 14.5 -8.6 16.05 -8.5 16.35 -7.6 16.1 -6.8 14.65 -6.65 15.3 -4.95 Q17.1 -4.05 17.7 -2.15 L17.9 -1.1 Q12.0 1.05 17.3 3.55 L18.5 3.7 Q17.8 7.0 20.95 7.0 L21.65 6.9 Q22.2 10.0 20.95 12.75 22.0 14.2 21.15 15.65 L20.45 16.6 18.55 16.95 17.5 15.8 Q15.15 17.65 12.2 17.25 L12.75 19.65 11.3 22.95 10.05 17.95 6.8 16.95 4.2 13.2 1.1 14.85 Q1.3 18.65 0.0 22.15 L-2.15 15.3 -6.35 14.25 -6.0 12.8 Q-8.8 5.65 -14.8 7.35 -25.2 6.85 -18.9 -1.2 L-17.85 -1.1 Q-13.9 1.25 -14.2 -3.25 L-14.6 -4.3 -13.2 -5.25 Q-12.45 -7.25 -14.55 -8.35 L-15.8 -8.75 -13.6 -9.4 Q-11.7 -16.4 -5.9 -19.75 -5.45 -17.25 -3.0 -17.8 L-2.25 -17.95 Q-2.2 -16.0 -0.35 -15.6 L1.4 -15.95 2.15 -17.05 2.75 -17.0 4.5 -18.4 4.9 -19.0 4.3 -20.6 5.0 -23.0 6.1 -23.3 Q6.45 -23.1 6.75 -22.95 M3.05 -23.55 L2.9 -22.6 1.85 -21.05 3.05 -23.55 M19.65 -7.0 Q23.45 -6.5 26.65 -4.75 L25.85 -3.35 18.95 -5.75 19.65 -7.0 M23.85 23.7 L24.0 24.4 22.8 25.2 22.95 24.45 23.85 23.7 M11.45 23.45 L15.1 27.75 15.25 28.2 Q12.9 26.65 11.3 24.1 L11.45 23.45 M-25.0 -14.85 L-25.25 -16.65 -25.55 -17.1 -18.0 -13.35 -18.8 -12.0 -25.0 -14.85 M-12.8 -20.4 L-12.45 -20.95 Q-11.7 -20.05 -10.75 -19.8 L-11.05 -19.05 -12.75 -19.1 Q-13.15 -19.75 -12.8 -20.4 M-11.65 1.6 Q-13.85 0.9 -14.8 0.9 -15.75 0.9 -16.4 1.6 -17.1 2.25 -17.1 3.2 -17.1 4.15 -16.4 4.85 -15.75 5.5 -14.8 5.5 L-11.65 4.85 Q-9.5 4.15 -9.5 3.2 -9.5 2.25 -11.65 1.6 M-19.25 10.9 L-16.4 11.0 -17.15 12.2 -20.1 12.25 -19.25 10.9 M-7.0 24.65 L-7.3 25.05 -7.55 24.65 -7.0 24.65 M-8.4 22.75 L-8.75 22.85 -8.95 22.7 -8.4 22.75 M-24.25 9.8 L-23.6 9.8 -23.95 10.25 -24.25 9.8 M-4.5 27.55 L-4.5 28.65 -5.2 29.0 -5.15 28.85 -6.1 29.35 -7.1 29.1 -7.1 28.15 -6.65 27.2 -5.45 27.3 -5.0 27.2 -4.5 27.55 M-5.5 25.55 L-5.0 25.55 -5.25 26.0 -5.5 25.55 M-7.75 28.7 Q-7.9 29.25 -7.9 28.6 L-7.75 28.7" fill="#d9292e" fill-rule="evenodd" stroke="none"/>
  </g>
</svg>
