<?xml version="1.0" encoding="UTF-8" standalone="no"?>
<svg xmlns:ffdec="https://www.free-decompiler.com/flash" xmlns:xlink="http://www.w3.org/1999/xlink" ffdec:objectType="shape" height="211.0px" width="128.0px" xmlns="http://www.w3.org/2000/svg">
  <g transform="matrix(1.0, 0.0, 0.0, 1.0, 64.0, 183.25)">
    <path d="M53.0 -100.25 L64.0 -100.25 64.0 27.75 -64.0 27.75 -64.0 -29.0 -64.0 -100.25 53.0 -100.25 53.0 -29.0 -64.0 -29.0 53.0 -29.0 53.0 -100.25" fill="#ffffff" fill-opacity="0.0" fill-rule="evenodd" stroke="none"/>
    <path d="M27.7 -145.85 Q27.7 -133.9 19.25 -125.45 10.8 -117.05 -1.1 -117.05 -13.05 -117.05 -21.5 -125.45 -29.95 -133.9 -29.9 -145.85 -29.95 -157.8 -21.5 -166.2 -13.05 -174.65 -1.1 -174.65 10.8 -174.65 19.25 -166.2 27.7 -157.8 27.7 -145.85" fill="#999999" fill-opacity="0.050980393" fill-rule="evenodd" stroke="none"/>
    <path d="M32.1 -104.6 Q32.05 -97.15 26.8 -91.85 21.55 -86.6 14.1 -86.6 6.6 -86.6 1.35 -91.85 -3.95 -97.15 -3.9 -104.6 -3.95 -112.05 1.35 -117.35 6.6 -122.6 14.1 -122.6 21.55 -122.6 26.8 -117.35 32.05 -112.05 32.1 -104.6" fill="#999999" fill-opacity="0.050980393" fill-rule="evenodd" stroke="none"/>
    <path d="M24.9 -160.75 Q24.9 -151.45 18.3 -144.8 11.7 -138.25 2.4 -138.25 -6.95 -138.25 -13.55 -144.8 -20.15 -151.45 -20.1 -160.75 -20.15 -170.1 -13.55 -176.65 -6.95 -183.25 2.4 -183.25 11.7 -183.25 18.3 -176.65 24.9 -170.1 24.9 -160.75" fill="#999999" fill-opacity="0.050980393" fill-rule="evenodd" stroke="none"/>
    <path d="M0.9 -88.35 Q-7.3 -88.35 -13.1 -94.1 -18.9 -99.95 -18.9 -108.15 -18.9 -116.35 -13.1 -122.15 -7.3 -127.95 0.9 -127.95 9.1 -127.95 14.9 -122.15 20.7 -116.35 20.7 -108.15 20.7 -99.95 14.9 -94.1 9.1 -88.35 0.9 -88.35" fill="#999999" fill-opacity="0.050980393" fill-rule="evenodd" stroke="none"/>
  </g>
</svg>
