<?xml version="1.0" encoding="UTF-8" standalone="no"?>
<svg xmlns:ffdec="https://www.free-decompiler.com/flash" xmlns:xlink="http://www.w3.org/1999/xlink" ffdec:objectType="shape" height="91.2px" width="91.2px" xmlns="http://www.w3.org/2000/svg">
  <g transform="matrix(1.0, 0.0, 0.0, 1.0, 45.6, 45.6)">
    <path d="M5.65 -30.25 L10.45 -44.4 8.95 -33.7 12.7 -40.45 11.55 -31.35 12.95 -34.15 11.55 -28.75 18.9 -41.55 11.9 -21.2 19.35 -30.95 16.85 -25.85 26.65 -37.05 19.85 -25.45 28.0 -31.55 22.95 -23.15 33.35 -31.15 19.35 -15.2 29.75 -21.2 25.3 -17.3 38.8 -24.0 26.2 -14.45 38.45 -17.3 32.85 -13.3 42.7 -16.0 23.55 -6.6 35.55 -8.2 30.05 -6.3 45.05 -7.3 27.6 -2.75 35.8 -1.15 36.5 -1.1 36.2 -1.05 42.15 0.1 38.85 0.7 45.6 1.6 28.6 2.65 25.7 3.25 36.05 6.05 30.05 5.6 44.4 10.45 24.8 7.8 27.25 9.5 34.2 12.95 30.8 12.0 41.5 18.95 33.95 16.3 24.05 14.05 31.0 19.35 25.75 16.75 37.05 26.7 18.7 15.95 26.6 25.0 21.8 21.3 31.15 33.4 26.75 29.55 28.0 31.65 18.05 24.15 21.25 29.7 17.2 25.05 24.0 38.8 11.15 21.85 15.05 33.25 12.1 28.1 16.0 42.75 11.95 34.5 12.7 40.55 7.7 31.5 8.25 35.55 6.35 29.9 7.35 45.0 1.95 24.55 1.15 36.5 0.4 30.55 -1.6 45.6 -2.35 34.0 -4.9 42.35 -5.55 34.5 -5.95 36.05 -5.75 32.6 -5.85 30.9 -10.45 44.45 -7.55 23.25 -12.9 34.15 -11.35 28.55 -18.9 41.55 -14.45 28.55 -21.7 36.9 -18.55 27.85 -26.7 37.1 -16.0 18.75 -25.0 26.6 -21.3 21.85 -33.4 31.15 -23.25 19.65 -34.85 25.05 -29.7 19.5 -38.8 24.0 -22.2 11.4 -21.95 11.2 -33.2 15.05 -28.2 12.15 -42.7 16.05 -27.65 8.6 -42.05 8.9 -37.25 6.85 -45.0 7.4 -27.85 2.9 -25.45 1.85 -36.45 1.15 -30.7 0.4 -45.6 -1.55 -27.7 -2.7 -34.6 -5.6 -36.0 -6.0 -35.4 -5.95 -42.05 -8.8 -39.55 -8.75 -44.45 -10.4 -31.3 -8.6 -25.2 -8.5 -34.15 -12.9 -28.65 -11.4 -41.55 -18.9 -23.45 -12.65 -26.25 -15.75 -30.95 -19.35 -28.5 -18.1 -33.45 -23.45 -37.1 -26.65 -31.6 -23.45 -20.8 -18.4 -26.55 -25.0 -22.05 -21.5 -31.15 -33.35 -15.9 -19.9 -16.45 -21.5 -21.2 -29.65 -18.0 -26.05 -18.7 -27.95 -24.05 -38.75 -21.1 -34.9 -21.75 -36.8 -12.65 -26.4 -15.0 -33.2 -12.15 -28.2 -16.0 -42.7 -6.65 -23.5 -8.2 -35.55 -6.4 -30.15 -7.35 -44.95 -5.35 -37.25 -4.9 -42.25 -1.45 -31.1 -1.1 -36.45 -0.35 -30.75 1.6 -45.6 2.9 -24.4 6.05 -36.0 5.65 -30.25" fill="#000000" fill-opacity="0.2" fill-rule="evenodd" stroke="none"/>
    <path d="M11.7 -34.05 L10.25 -24.3 12.5 -28.3 10.95 -23.65 17.9 -34.25 11.15 -17.6 17.75 -25.3 15.35 -21.0 24.25 -30.1 19.2 -22.45 24.5 -26.25 20.3 -19.75 22.4 -21.35 19.35 -17.75 29.65 -24.85 16.85 -11.85 26.1 -16.55 22.35 -13.55 33.95 -18.55 24.5 -12.2 32.95 -13.85 26.05 -9.3 36.9 -11.6 20.35 -4.55 30.5 -5.35 25.65 -3.95 38.4 -4.15 25.3 -1.45 35.7 0.85 29.95 1.85 38.5 3.4 20.45 3.6 30.15 6.75 25.25 6.15 37.1 10.9 22.1 8.0 27.8 12.25 28.3 12.5 28.05 12.4 32.2 15.45 29.4 14.75 34.25 17.9 20.85 12.5 18.45 11.9 25.35 17.8 20.9 15.3 30.1 24.25 16.1 15.0 17.35 17.25 21.4 22.4 19.15 20.4 24.8 29.65 13.25 19.5 16.6 26.1 13.5 22.2 18.55 33.9 8.45 19.05 11.2 28.85 8.9 24.25 11.55 36.9 9.65 32.35 9.85 34.4 4.95 25.05 5.35 30.45 4.0 25.4 4.15 38.4 0.55 20.75 -0.65 30.9 -1.05 25.9 -3.4 38.55 -3.45 30.7 -5.1 35.6 -5.65 26.9 -6.7 30.15 -6.1 25.15 -10.8 37.1 -7.45 19.45 -12.45 28.3 -10.85 23.5 -17.9 34.25 -14.2 25.15 -19.25 30.55 -16.85 24.3 -17.7 25.35 -16.25 22.8 -15.8 21.5 -24.2 30.1 -14.25 15.0 -22.35 21.4 -19.1 17.65 -29.65 24.85 -21.5 16.5 -30.05 20.25 -24.4 14.5 -33.95 18.6 -19.05 8.5 -28.8 11.2 -24.25 8.9 -36.9 11.6 -24.95 6.5 -35.8 6.4 -29.85 4.05 -38.45 4.15 -21.15 0.6 -20.85 0.5 -30.85 -0.65 -25.95 -1.05 -38.5 -3.4 -24.25 -3.55 -35.35 -8.55 -31.0 -8.4 -37.05 -10.8 -22.3 -7.95 -20.1 -7.9 -28.3 -12.45 -23.6 -10.9 -34.25 -17.9 -20.2 -12.2 -24.35 -16.95 -25.3 -17.75 -24.85 -17.5 -28.9 -22.1 -26.95 -21.15 -30.1 -24.2 -20.75 -18.0 -16.15 -15.7 -21.35 -22.35 -17.75 -19.2 -24.85 -29.6 -13.3 -18.25 -14.3 -21.65 -16.55 -26.1 -15.1 -24.25 -18.55 -33.9 -9.15 -21.65 -11.1 -28.8 -9.0 -24.5 -11.6 -36.85 -4.85 -21.05 -4.7 -22.4 -5.35 -30.45 -4.25 -26.5 -4.05 -28.15 -4.2 -38.4 -3.3 -34.4 -3.15 -36.1 0.0 -24.8 0.7 -30.85 1.05 -25.95 3.4 -38.45 3.55 -20.4 6.75 -30.15 6.15 -25.4 10.8 -37.05 9.55 -30.4 11.7 -34.05" fill="#000000" fill-opacity="0.34901962" fill-rule="evenodd" stroke="none"/>
  </g>
</svg>
