<?xml version="1.0" encoding="UTF-8" standalone="no"?>
<svg xmlns:ffdec="https://www.free-decompiler.com/flash" xmlns:xlink="http://www.w3.org/1999/xlink" ffdec:objectType="shape" height="128.0px" width="128.0px" xmlns="http://www.w3.org/2000/svg">
  <g transform="matrix(1.0, 0.0, 0.0, 1.0, 64.0, 100.25)">
    <path d="M-64.0 -100.25 L64.0 -100.25 64.0 27.75 -64.0 27.75 -64.0 -100.25" fill="#ffffff" fill-opacity="0.0" fill-rule="evenodd" stroke="none"/>
    <path d="M38.9 -36.35 Q38.9 -16.45 24.85 -2.35 10.8 11.65 -9.1 11.65 -29.0 11.65 -43.05 -2.35 -57.1 -16.45 -57.1 -36.35 -57.1 -56.25 -43.05 -70.3 -29.0 -84.35 -9.1 -84.35 10.8 -84.35 24.85 -70.3 38.9 -56.25 38.9 -36.35" fill="#999999" fill-opacity="0.050980393" fill-rule="evenodd" stroke="none"/>
    <path d="M59.05 -37.1 Q59.05 -18.45 45.9 -5.3 32.7 7.85 14.05 7.9 -4.6 7.85 -17.8 -5.3 -30.95 -18.45 -30.95 -37.1 -30.95 -55.8 -17.8 -68.95 -4.6 -82.15 14.05 -82.1 32.7 -82.15 45.9 -68.95 59.05 -55.8 59.05 -37.1" fill="#999999" fill-opacity="0.050980393" fill-rule="evenodd" stroke="none"/>
    <path d="M38.95 -40.8 Q49.9 -29.8 49.9 -14.25 49.9 1.3 38.95 12.3 27.95 23.25 12.4 23.25 -3.15 23.25 -14.15 12.3 -25.15 1.3 -25.1 -14.25 -25.15 -29.8 -14.15 -40.8 -3.15 -51.8 12.4 -51.75 27.95 -51.8 38.95 -40.8" fill="#999999" fill-opacity="0.050980393" fill-rule="evenodd" stroke="none"/>
    <path d="M-15.05 -50.65 Q-1.4 -50.65 8.25 -41.0 17.9 -31.35 17.9 -17.65 17.9 -3.95 8.25 5.7 -1.4 15.35 -15.05 15.35 -28.75 15.35 -38.4 5.7 -48.1 -3.95 -48.05 -17.65 -48.1 -31.35 -38.4 -41.0 -28.75 -50.65 -15.05 -50.65" fill="#999999" fill-opacity="0.050980393" fill-rule="evenodd" stroke="none"/>
  </g>
</svg>
