<?xml version="1.0" encoding="UTF-8" standalone="no"?>
<svg xmlns:ffdec="https://www.free-decompiler.com/flash" xmlns:xlink="http://www.w3.org/1999/xlink" ffdec:objectType="shape" height="29.2px" width="32.0px" xmlns="http://www.w3.org/2000/svg">
  <g transform="matrix(1.0, 0.0, 0.0, 1.0, 19.0, 20.2)">
    <path d="M-19.0 -11.1 L-18.55 -13.45 -17.3 -15.65 -15.25 -17.55 -12.6 -19.0 -9.5 -19.9 -6.15 -20.2 -2.8 -19.9 0.3 -19.0 2.95 -17.55 5.0 -15.65 6.3 -13.45 6.3 -13.4 9.5 -7.8 9.35 -8.0 12.55 -2.45 13.0 -0.1 12.55 2.3 11.25 4.45 9.2 6.35 6.55 7.8 3.45 8.7 0.1 9.0 -3.2 8.7 -6.3 7.8 -9.0 6.35 -11.05 4.45 -13.7 -0.15 -13.7 -0.2 -16.1 -4.45 -15.75 -3.8 -18.55 -8.75 -19.0 -11.1" fill="#000000" fill-opacity="0.2509804" fill-rule="evenodd" stroke="none"/>
  </g>
</svg>
