<?xml version="1.0" encoding="UTF-8" standalone="no"?>
<svg xmlns:ffdec="https://www.free-decompiler.com/flash" xmlns:xlink="http://www.w3.org/1999/xlink" ffdec:objectType="shape" height="30.4px" width="35.15px" xmlns="http://www.w3.org/2000/svg">
  <g transform="matrix(1.0, 0.0, 0.0, 1.0, 17.5, 0.1)">
    <path d="M16.45 11.65 L16.6 11.55 16.75 11.2 16.9 10.65 16.95 10.5 16.95 10.65 16.95 12.1 16.75 13.5 16.35 14.6 16.25 14.75 16.25 13.1 16.2 12.7 16.1 12.6 16.3 11.65 16.45 11.65 M15.8 17.95 L15.8 18.15 15.75 18.35 15.8 17.95 M15.3 19.75 L15.25 19.9 15.0 20.25 14.9 20.3 14.95 19.8 15.0 19.8 15.0 20.25 15.0 19.8 15.2 19.8 15.3 19.75 M14.1 24.75 L14.05 24.9 13.8 25.25 13.65 25.35 13.65 25.2 13.7 24.75 14.0 24.8 14.1 24.75 M13.2 28.75 L13.1 29.0 13.25 28.45 13.2 28.75 M12.85 29.6 L12.8 29.85 12.55 30.15 12.3 30.3 -16.35 25.85 -16.55 25.8 -16.75 25.55 -17.0 24.55 -17.0 23.1 -16.8 21.7 -16.6 21.2 -17.05 21.1 -17.2 20.9 -17.4 20.45 -17.5 19.2 -17.4 17.75 -17.1 16.45 -16.85 15.95 -16.65 15.65 -16.4 15.5 -16.1 15.55 -16.25 14.3 -16.1 12.85 -15.8 11.55 -15.6 11.05 -15.35 10.75 -15.1 10.6 -15.05 10.6 -15.1 10.3 -15.1 9.65 -15.1 8.9 -14.85 7.45 -14.45 6.4 -14.25 6.05 -14.0 5.95 -13.1 6.1 -12.95 5.7 -13.0 6.2 -13.0 6.4 -13.15 6.4 -13.3 6.5 -13.45 6.85 -13.75 8.15 -13.9 9.0 -14.0 9.7 -14.05 9.95 -14.05 10.15 -14.1 10.9 -14.15 11.25 -14.4 11.2 -14.5 11.3 -14.65 11.65 -14.95 12.95 -15.1 13.8 -15.25 14.75 -15.25 14.95 -15.35 15.65 -15.45 16.55 -15.45 17.35 -15.45 17.9 -15.35 18.3 -15.25 18.45 -15.2 18.45 -15.45 19.05 -15.6 19.8 -15.75 20.7 -15.85 21.6 -16.0 22.5 -16.05 23.4 -16.05 24.15 -16.05 24.75 -16.0 25.15 -15.9 25.25 12.8 29.7 12.85 29.6 M15.35 15.2 L15.4 14.95 15.55 14.3 15.65 13.6 15.15 17.05 15.25 16.15 15.35 15.2 M15.05 17.95 L15.05 18.75 15.05 19.3 15.05 19.0 15.05 18.75 15.05 18.5 15.05 17.95 M14.15 20.25 L14.25 19.65 13.9 22.05 13.85 23.0 13.85 22.95 13.9 22.05 14.0 21.15 14.15 20.25 M12.9 25.05 L12.6 28.6 12.6 27.8 12.65 26.95 12.8 26.0 12.9 25.05" fill="#000000" fill-opacity="0.2509804" fill-rule="evenodd" stroke="none"/>
    <path d="M16.85 5.85 L17.05 4.85 17.2 4.5 17.35 4.4 17.45 4.55 17.55 5.5 17.3 7.85 16.95 10.5 16.9 10.65 16.75 11.2 16.6 11.55 16.45 11.65 16.35 11.5 16.35 11.35 16.65 9.8 16.8 6.65 16.75 6.3 16.8 6.65 16.65 9.8 16.35 11.35 16.3 11.5 16.3 11.65 16.1 12.6 16.05 12.9 15.85 13.25 15.75 13.35 15.85 13.25 16.05 12.9 16.1 12.6 16.2 12.7 16.25 13.1 16.25 14.75 16.2 15.35 15.8 17.95 15.75 18.35 15.65 18.85 15.35 19.75 15.3 19.75 15.2 19.8 15.15 19.7 15.05 19.3 15.05 18.75 15.05 17.95 15.15 17.05 15.65 13.6 15.75 13.35 15.65 13.25 15.6 12.85 15.55 12.85 15.65 11.3 15.65 11.15 15.65 11.3 15.55 12.85 15.55 13.2 15.55 13.35 15.5 14.3 15.5 14.5 15.4 14.95 15.35 15.2 15.2 16.15 15.0 17.05 14.9 17.6 14.75 17.95 14.65 18.05 14.75 17.95 14.9 17.6 15.0 17.75 15.0 17.95 15.05 18.5 15.05 18.75 15.05 19.0 15.0 19.3 15.0 19.65 14.95 19.8 14.9 20.3 14.85 21.3 14.75 22.2 14.45 23.8 14.15 24.7 14.1 24.75 14.0 24.8 13.9 24.7 13.85 24.4 13.85 24.3 13.85 23.0 13.9 22.05 14.25 19.65 14.3 19.55 14.35 19.2 14.45 18.65 14.45 18.6 14.65 18.05 14.6 18.05 14.5 17.9 14.45 17.55 14.45 17.15 14.45 16.7 14.45 17.15 14.45 16.95 14.45 16.7 14.45 16.65 14.5 16.0 14.6 15.1 14.7 14.2 14.75 13.4 14.9 12.75 15.0 12.15 15.2 11.25 15.5 10.8 15.6 10.95 15.6 11.0 15.65 11.15 15.65 11.0 15.75 10.45 15.85 9.7 15.95 8.85 16.1 7.9 16.2 7.1 16.35 6.55 16.5 6.2 16.65 6.15 16.75 6.25 16.75 6.3 16.85 5.85 M17.3 7.85 L16.75 11.2 17.3 7.85 M13.65 25.35 L13.5 26.85 13.4 27.95 13.25 28.45 13.1 29.0 13.05 29.25 12.9 29.6 12.85 29.6 12.8 29.7 12.65 29.55 12.6 29.15 12.6 28.6 12.9 25.05 13.05 24.2 13.2 23.45 13.45 22.8 13.4 22.85 13.3 22.65 13.25 22.3 13.2 21.7 13.3 21.0 13.35 20.1 13.45 19.2 13.55 18.2 13.6 17.9 13.65 17.75 13.7 17.45 13.85 16.85 14.0 16.1 14.0 16.05 14.15 15.7 14.25 15.6 14.4 15.75 14.45 16.1 14.45 16.15 14.4 16.95 14.4 17.55 14.4 17.9 14.4 18.05 14.4 18.35 14.2 19.35 14.05 20.2 13.9 21.1 13.7 22.05 13.65 22.4 13.65 22.45 13.55 22.7 13.45 22.8 13.55 22.7 13.65 22.45 13.75 22.55 13.8 22.95 13.8 23.4 13.85 23.55 13.8 23.75 13.75 24.3 13.7 24.65 13.7 24.75 13.65 25.2 13.65 25.35 M14.45 23.8 L14.85 21.3 14.45 23.8 M13.5 26.85 L13.25 28.45 13.5 26.85 M12.9 29.6 L13.1 29.0 12.9 29.6" fill="#fe0000" fill-rule="evenodd" stroke="none"/>
    <path d="M16.75 6.15 L16.65 6.15 3.2 4.05 16.65 6.15 16.5 6.2 16.35 6.55 16.2 7.1 16.05 7.85 2.85 5.8 3.2 4.35 3.2 4.05 3.2 2.85 -7.65 0.95 -8.0 2.35 -11.85 1.75 -11.6 0.45 -11.85 1.75 -8.0 2.35 -8.4 4.1 -12.55 3.45 -12.6 3.45 -12.45 2.7 -12.15 1.8 -12.0 1.7 -11.9 1.75 -11.6 0.45 -11.45 0.1 -11.3 0.0 17.35 4.4 17.2 4.5 17.05 4.85 16.85 5.85 16.75 6.15 M15.5 10.8 L15.2 11.25 15.0 12.15 14.9 12.55 1.65 10.55 2.1 8.75 15.5 10.8 M14.75 13.4 L14.7 14.2 14.65 14.2 14.75 13.4 M14.6 18.05 L14.65 18.05 14.45 18.6 14.45 18.65 14.3 19.2 14.3 19.35 14.2 19.35 14.4 18.35 14.4 18.05 14.4 18.35 14.4 18.05 14.6 18.05 M15.5 14.3 L15.55 13.35 15.75 13.35 15.65 13.6 15.55 14.3 15.5 14.3 M-7.2 7.7 L-7.2 7.3 -7.2 7.7 M-1.65 3.65 L-0.7 3.5 -1.6 3.7 -1.65 3.65 M0.6 14.8 L0.9 13.55 14.25 15.6 14.15 15.7 14.0 16.05 14.0 16.1 13.8 16.85 13.65 17.35 -14.9 12.95 -14.65 11.65 -14.9 12.95 -14.95 12.95 -14.65 11.65 -14.5 11.3 -14.4 11.2 -14.15 11.25 -10.2 11.85 -10.2 12.9 0.6 14.8 M13.6 17.9 L13.55 18.2 13.45 19.2 13.4 19.2 13.4 19.15 13.55 18.2 13.6 17.9 M13.4 22.85 L13.45 22.8 13.2 23.45 13.05 24.2 -15.55 19.8 -15.6 19.8 -15.45 19.05 -15.2 18.45 13.4 22.85 M-9.15 7.0 L-9.6 8.8 -13.7 8.15 -13.75 8.15 -13.45 6.85 -13.3 6.5 -13.15 6.4 -13.0 6.4 -9.15 7.0 M-11.85 1.75 L-11.9 1.75 -11.85 1.75 M-12.45 2.7 L-12.55 3.45 -12.45 2.7 M-13.7 8.15 L-13.45 6.85 -13.7 8.15 M-15.45 19.05 L-15.55 19.8 -15.45 19.05" fill="#ff0000" fill-rule="evenodd" stroke="none"/>
    <path d="M-12.95 5.7 L-12.9 5.25 -12.85 5.25 -12.95 5.7 -12.85 5.25 -12.35 5.35 -12.3 5.35 -8.85 5.9 -9.1 6.8 -13.0 6.2 -12.95 5.7 M16.1 7.9 L15.95 8.85 15.9 8.85 15.9 8.75 16.05 7.9 16.1 7.9 M2.4 7.65 L15.75 9.7 15.7 10.45 15.65 10.6 2.15 8.55 2.4 7.65 M14.5 16.0 L14.45 16.65 14.45 16.7 14.45 16.95 14.45 16.45 14.45 16.15 14.45 16.0 14.5 16.0 M15.0 17.05 L15.2 16.15 15.25 16.15 15.15 17.05 15.0 17.05 M-7.25 7.1 L-7.25 6.9 -7.2 6.8 -7.2 6.75 -7.2 6.95 -7.2 7.1 -7.25 7.1 M1.0 13.2 L1.2 12.3 14.6 14.35 14.55 15.1 14.5 15.3 1.0 13.2 M-10.2 11.35 L-10.2 11.5 -14.1 10.9 -14.05 10.15 -14.05 9.95 -13.15 10.1 -13.1 10.1 -10.0 10.55 -10.2 11.35 M13.3 21.0 L13.2 21.7 13.25 21.0 13.3 21.0 M13.7 22.05 L13.9 21.1 14.0 21.15 13.9 22.05 13.7 22.05 M14.45 16.65 L14.45 16.45 14.45 16.65 M13.4 19.2 L13.3 20.1 -14.45 15.8 -14.5 15.8 -15.3 15.65 -15.25 14.95 -15.3 15.65 -15.35 15.65 -15.25 14.95 -15.25 14.75 -14.35 14.9 -14.3 14.9 13.4 19.15 13.4 19.2 M-15.85 21.6 L12.8 26.0 12.65 26.95 -16.0 22.5 -15.85 21.6 -16.0 22.5 -15.85 21.6 M-6.95 6.2 L-6.9 6.2 -7.2 6.95 -6.95 6.2 M-7.2 7.1 L-7.2 6.8 -7.2 7.1" fill="#ab0000" fill-rule="evenodd" stroke="none"/>
    <path d="M-12.9 5.25 L-12.8 4.35 -12.7 4.35 -12.3 4.45 -12.25 4.45 -8.65 5.0 -8.85 5.9 -12.3 5.35 -12.35 5.35 -12.85 5.25 -12.9 5.25 M16.2 7.1 L16.1 7.9 16.05 7.9 16.05 7.85 16.2 7.1 M15.9 8.75 L15.9 8.85 15.75 9.7 2.4 7.65 2.6 6.7 15.9 8.75 M14.6 15.1 L14.5 16.0 14.45 16.0 14.5 15.3 14.55 15.1 14.6 15.1 M15.2 16.15 L15.35 15.2 15.25 16.15 15.2 16.15 M0.0 6.3 L0.05 6.3 0.05 6.5 0.0 6.6 0.0 6.3 0.0 6.6 0.0 6.7 0.0 6.5 0.0 6.3 M1.2 12.3 L1.45 11.35 14.75 13.4 14.65 14.2 14.6 14.35 1.2 12.3 M13.35 20.1 L13.3 21.0 13.25 21.0 13.25 20.95 13.3 20.1 13.35 20.1 M13.9 21.1 L14.05 20.2 14.15 20.25 14.0 21.15 13.9 21.1 M-15.1 13.8 L13.55 18.2 13.4 19.15 -14.3 14.9 -14.35 14.9 -15.25 14.75 -15.1 13.8 -15.25 14.75 -15.1 13.8 M12.9 25.05 L12.8 26.0 -15.85 21.6 -15.7 20.7 -15.85 21.6 -15.75 20.7 -15.7 20.7 12.9 25.05 M-9.8 9.65 L-10.0 10.55 -13.1 10.1 -13.15 10.1 -14.05 9.95 -14.0 9.7 -13.9 9.0 -13.85 9.0 -9.8 9.65 M-6.85 5.75 L-6.8 5.7 -6.85 5.75 -6.8 5.7 -6.9 6.15 -6.9 6.2 -6.95 6.2 -6.85 5.75 M-12.7 4.35 L-12.85 5.25 -12.7 4.35 M-13.85 9.0 L-14.0 9.7 -13.85 9.0" fill="#c70000" fill-rule="evenodd" stroke="none"/>
    <path d="M16.65 6.15 L16.75 6.15 16.75 6.3 16.75 6.25 16.65 6.15 M-12.8 4.35 L-12.6 3.45 -12.55 3.45 -8.4 4.1 -8.65 5.0 -12.25 4.45 -12.3 4.45 -12.7 4.35 -12.8 4.35 M15.9 8.75 L2.6 6.7 2.85 5.8 16.05 7.85 16.05 7.9 15.9 8.75 M14.9 12.75 L14.75 13.4 1.45 11.35 1.65 10.55 14.9 12.55 14.9 12.75 M14.7 14.2 L14.6 15.1 14.55 15.1 14.6 14.35 14.65 14.2 14.7 14.2 M15.4 14.95 L15.5 14.5 15.5 14.3 15.55 14.3 15.4 14.95 M0.05 6.3 L0.0 6.3 0.0 5.8 0.0 6.3 0.0 5.8 0.05 6.3 M13.45 19.2 L13.35 20.1 13.3 20.1 13.4 19.2 13.45 19.2 M14.05 20.2 L14.2 19.35 14.3 19.35 14.25 19.55 14.25 19.65 14.15 20.25 14.05 20.2 M13.65 17.45 L13.6 17.75 13.6 17.9 13.55 18.2 -15.1 13.8 -14.9 12.95 -15.1 13.8 -14.95 12.95 -14.9 12.95 13.65 17.35 13.65 17.45 M13.05 24.2 L12.9 25.05 -15.7 20.7 -15.75 20.7 -15.6 19.8 -15.55 19.8 -15.7 20.7 -15.55 19.8 13.05 24.2 M-9.6 8.8 L-9.8 9.65 -13.85 9.0 -13.9 9.0 -13.75 8.15 -13.7 8.15 -9.6 8.8 M-12.7 4.35 L-12.55 3.45 -12.7 4.35 M-13.7 8.15 L-13.85 9.0 -13.7 8.15" fill="#e60000" fill-rule="evenodd" stroke="none"/>
    <path d="M15.85 9.7 L15.75 10.45 15.7 10.45 15.75 9.7 15.85 9.7 M14.0 16.1 L13.85 16.85 13.8 16.85 14.0 16.1 M14.4 16.95 L14.45 16.15 14.45 16.45 14.45 16.15 14.45 16.45 14.45 16.95 14.4 16.95 M15.05 17.95 L15.05 18.5 15.0 17.95 15.05 17.95 M13.25 20.95 L13.25 21.0 13.2 21.7 -15.4 17.35 -15.35 16.55 -15.4 17.35 -15.45 17.35 -15.45 16.55 -15.35 16.55 -14.65 16.7 -14.6 16.7 13.25 20.95 M13.85 22.95 L13.85 23.0 13.8 23.4 13.8 22.95 13.85 22.95 M12.6 27.8 L12.6 28.6 -16.05 24.15 -16.0 23.4 12.6 27.8 M-16.0 23.4 L-16.05 24.15 -16.05 23.4 -16.0 23.4" fill="#860000" fill-rule="evenodd" stroke="none"/>
    <path d="M15.75 10.45 L15.65 11.0 15.6 11.0 15.65 10.6 15.7 10.45 15.75 10.45 M15.0 12.15 L14.9 12.75 14.9 12.55 15.0 12.15 M14.45 17.15 L14.45 17.55 14.4 17.55 14.4 16.95 14.45 16.95 14.45 17.15 14.4 17.55 14.45 17.15 M13.85 16.85 L13.7 17.45 13.65 17.45 13.65 17.35 13.8 16.85 13.85 16.85 M13.2 21.7 L13.25 22.3 -15.45 17.9 -15.4 17.35 13.2 21.7 M15.05 19.0 L15.05 19.3 15.0 19.3 15.05 19.0 15.05 19.3 15.05 19.0 M14.35 19.2 L14.3 19.2 14.45 18.65 14.35 19.2 M12.6 28.6 L12.6 29.15 -16.05 24.75 -16.05 24.15 12.6 28.6 M13.85 24.3 L13.75 24.3 13.8 23.75 13.85 24.3 M-15.4 17.35 L-15.45 17.9 -15.45 17.35 -15.4 17.35" fill="#800000" fill-rule="evenodd" stroke="none"/>
    <path d="M16.35 11.35 L16.35 11.5 16.3 11.5 16.35 11.35 M15.65 11.0 L15.65 11.15 15.6 11.0 15.65 11.0 M15.55 12.85 L15.6 12.85 15.65 13.25 15.55 13.2 15.55 12.85 M14.45 17.55 L14.5 17.9 14.4 17.9 14.4 17.55 14.45 17.55 M15.05 19.3 L15.15 19.7 15.0 19.65 15.05 19.3 15.0 19.65 15.0 19.3 15.05 19.3 M13.7 17.45 L13.65 17.75 13.6 17.75 13.65 17.45 13.7 17.45 M13.25 22.3 L13.3 22.65 -15.35 18.3 -15.45 17.9 13.25 22.3 M14.4 17.55 L14.4 17.9 14.4 17.55 M14.3 19.2 L14.35 19.2 14.3 19.55 14.25 19.55 14.3 19.35 14.3 19.2 M13.85 24.3 L13.85 24.4 13.9 24.7 13.7 24.65 13.75 24.3 13.85 24.3 M12.6 29.15 L12.65 29.55 -16.0 25.15 -16.05 24.75 12.6 29.15" fill="#820000" fill-rule="evenodd" stroke="none"/>
    <path d="M16.35 11.5 L16.45 11.65 16.3 11.65 16.3 11.5 16.35 11.5 M15.65 13.25 L15.75 13.35 15.55 13.35 15.55 13.2 15.65 13.25 M14.5 17.9 L14.6 18.05 14.4 18.05 14.4 17.9 14.5 17.9 M15.15 19.7 L15.2 19.8 15.0 19.8 14.95 19.8 15.0 19.65 15.0 19.8 15.0 19.65 15.15 19.7 M13.65 17.75 L13.6 17.9 13.6 17.75 13.65 17.75 M13.3 22.65 L13.4 22.85 -15.2 18.45 -15.25 18.45 -15.35 18.3 13.3 22.65 M14.4 17.9 L14.4 18.05 14.4 17.9 M14.25 19.55 L14.3 19.55 14.25 19.65 14.25 19.55 M13.9 24.7 L14.0 24.8 13.7 24.75 13.7 24.65 13.9 24.7 M12.65 29.55 L12.8 29.7 -15.9 25.25 -16.0 25.15 12.65 29.55" fill="#8d0000" fill-rule="evenodd" stroke="none"/>
    <path d="M15.95 8.85 L15.85 9.7 15.75 9.7 15.9 8.85 15.95 8.85 M15.6 11.0 L15.6 10.95 15.5 10.8 2.1 8.75 2.15 8.55 15.65 10.6 15.6 11.0 M14.9 17.6 L15.0 17.05 15.15 17.05 15.05 17.95 15.0 17.95 15.0 17.75 14.9 17.6 M-7.2 7.3 L-7.25 7.1 -7.2 7.1 -7.2 7.3 M0.9 13.55 L1.0 13.2 14.5 15.3 14.45 16.0 14.45 16.15 14.45 16.1 14.4 15.75 14.25 15.6 0.9 13.55 M-10.2 11.5 L-10.2 11.85 -14.15 11.25 -14.1 10.9 -10.2 11.5 M13.65 22.45 L13.65 22.4 13.7 22.05 13.9 22.05 13.85 22.95 13.8 22.95 13.75 22.55 13.65 22.45 M-15.3 15.65 L-14.5 15.8 -14.45 15.8 13.3 20.1 13.25 20.95 -14.6 16.7 -14.65 16.7 -15.35 16.55 -15.3 15.65 -15.35 16.55 -15.45 16.55 -15.35 15.65 -15.3 15.65 M12.65 26.95 L12.6 27.8 -16.0 23.4 -16.05 23.4 -16.0 22.5 12.65 26.95 M-9.1 6.8 L-9.15 7.0 -13.0 6.4 -13.0 6.2 -9.1 6.8 M-14.1 10.9 L-14.15 11.25 -14.1 10.9 M-16.0 23.4 L-16.0 22.5 -16.0 23.4" fill="#950000" fill-rule="evenodd" stroke="none"/>
    <path d="M3.2 2.85 L3.2 4.05 3.2 4.35 2.85 5.8 2.6 6.7 2.4 7.65 2.15 8.55 2.1 8.75 1.65 10.55 1.45 11.35 1.2 12.3 1.0 13.2 0.9 13.55 0.6 14.8 0.6 13.3 3.2 2.85" fill="#444444" fill-rule="evenodd" stroke="none"/>
    <path d="M0.05 6.3 L0.0 5.8 0.25 6.35 0.3 6.5 0.25 6.35 0.0 5.8 0.0 5.75 -0.05 5.65 0.0 5.7 0.3 6.5 0.35 6.7 0.2 7.3 -0.05 7.7 0.0 7.45 0.05 7.25 0.0 6.7 0.0 6.6 0.05 6.5 0.05 6.3 M-1.65 3.65 L-1.6 3.7 -2.15 3.75 -1.65 3.65 M-7.2 6.75 L-7.05 6.15 -6.85 5.75 -6.95 6.2 -7.2 6.95 -6.9 6.2 -6.85 6.65 -6.85 6.7 -6.9 6.9 -6.9 6.95 -6.85 7.65 -6.8 7.75 -6.85 7.7 -7.1 7.1 -7.2 6.95 -7.2 6.75" fill="#8f8f8f" fill-rule="evenodd" stroke="none"/>
    <path d="M-8.0 2.35 L-7.65 0.95 3.2 2.85 0.6 13.3 -10.2 11.35 -10.0 10.55 -9.8 9.65 -9.6 8.8 -9.15 7.0 -9.1 6.8 -8.85 5.9 -8.65 5.0 -8.4 4.1 -8.0 2.35 M0.3 6.5 L0.0 5.7 -0.05 5.65 -0.3 5.35 -0.55 5.05 -0.8 4.9 -1.3 4.55 -1.5 4.5 -2.2 4.2 -2.35 4.2 -3.2 4.05 -2.35 3.9 -4.05 4.1 -4.1 4.1 -4.2 4.1 -4.8 4.25 -5.0 4.35 -5.15 4.35 -4.8 4.25 -5.15 4.35 -5.75 4.7 -6.0 4.8 -6.35 5.15 -6.65 5.4 -6.75 5.6 -6.8 5.7 -6.85 5.75 -7.05 6.15 -7.2 6.75 -7.2 6.8 -7.25 6.9 -7.25 7.1 -7.2 7.3 -7.2 7.7 -6.85 8.45 -6.25 9.1 -5.5 9.6 -4.6 9.95 -3.65 10.15 -2.65 10.05 -1.7 9.8 -0.85 9.35 -0.2 8.75 0.2 8.05 0.35 7.3 0.35 7.25 0.35 6.7 0.3 6.5 0.3 5.7 0.0 4.95 -0.55 4.3 -1.3 3.8 -1.6 3.7 -1.3 3.8 -0.55 4.3 0.0 4.95 0.3 5.7 0.3 6.5 M-1.65 3.65 L-2.2 3.45 -3.2 3.3 -4.2 3.35 -5.15 3.65 -6.0 4.05 -6.65 4.65 -7.0 5.25 -7.05 5.4 -7.25 6.15 -7.2 6.8 -7.25 6.15 -7.05 5.4 -7.0 5.25 -6.65 4.65 -6.0 4.05 -5.15 3.65 -4.2 3.35 -3.2 3.3 -2.2 3.45 -1.65 3.65 -2.15 3.75 -1.6 3.7 -0.7 3.5 -1.65 3.65 M-4.2 4.1 L-4.05 4.1 -4.2 4.1" fill="#484848" fill-rule="evenodd" stroke="none"/>
    <path d="M0.35 6.7 L0.35 7.25 0.35 7.3 0.2 8.05 0.2 7.3 0.35 6.7" fill="#7f7f7f" fill-rule="evenodd" stroke="none"/>
    <path d="M0.2 8.05 L-0.2 8.75 -0.2 8.15 -0.1 7.95 -0.05 7.8 -0.05 7.7 0.2 7.3 0.2 8.05" fill="#6e6e6e" fill-rule="evenodd" stroke="none"/>
    <path d="M0.6 13.3 L0.6 14.8 -10.2 12.9 -10.2 11.85 -10.2 11.5 -10.2 11.35 0.6 13.3" fill="#242424" fill-rule="evenodd" stroke="none"/>
    <path d="M-5.0 4.35 L-4.8 4.25 -4.2 4.1 -4.1 4.1 -4.1 4.35 -5.0 4.6 -5.0 4.35 M-2.35 4.45 L-2.35 4.2 -2.2 4.2 -1.5 4.5 -1.5 4.75 -2.35 4.45" fill="#7e7e70" fill-rule="evenodd" stroke="none"/>
    <path d="M-4.1 4.35 L-4.1 4.1 -4.05 4.1 -3.2 4.05 -4.05 4.1 -2.35 3.9 -3.2 4.05 -2.35 4.2 -2.35 4.45 -3.2 4.3 -4.1 4.35" fill="#77776a" fill-rule="evenodd" stroke="none"/>
    <path d="M-5.15 4.35 L-5.0 4.35 -5.0 4.6 -5.75 5.0 -5.75 4.7 -5.15 4.35 M-1.5 4.5 L-1.3 4.55 -0.8 4.9 -0.8 5.25 -1.5 4.75 -1.5 4.5" fill="#8c8c7d" fill-rule="evenodd" stroke="none"/>
    <path d="M-0.3 5.4 L-0.3 5.85 -0.8 5.25 -0.8 4.9 -0.55 5.05 -0.3 5.35 -0.3 5.4 -0.35 5.35 -0.55 5.05 -0.35 5.35 -0.3 5.4 M-6.35 5.15 L-6.0 4.8 -5.75 4.7 -5.75 5.0 -6.35 5.55 -6.35 5.15" fill="#a0a08e" fill-rule="evenodd" stroke="none"/>
    <path d="M-0.05 5.65 L0.0 5.75 0.0 5.8 -0.05 5.75 -0.3 5.4 -0.05 5.75 0.0 5.8 0.0 6.3 0.0 6.5 -0.1 6.3 -0.3 5.85 -0.3 5.4 -0.3 5.35 -0.05 5.65 M0.0 5.75 L-0.05 5.75 0.0 5.75 M-6.65 5.4 L-6.35 5.15 -6.35 5.55 -6.75 6.2 -6.75 5.6 -6.65 5.4 -6.75 5.6 -6.65 5.4" fill="#b8b8a4" fill-rule="evenodd" stroke="none"/>
    <path d="M-6.8 5.7 L-6.75 5.6 -6.75 6.2 -6.85 6.65 -6.9 6.2 -6.9 6.15 -6.8 5.7 -6.75 5.6 -6.8 5.7" fill="#d3d3bb" fill-rule="evenodd" stroke="none"/>
    <path d="M-0.2 8.75 L-0.85 9.35 -0.85 8.95 -0.5 8.6 -0.35 8.35 -0.25 8.2 -0.2 8.15 -0.2 8.75 M-6.25 9.1 L-6.85 8.45 -6.85 7.7 -6.8 7.75 -6.55 8.35 -6.25 8.65 -6.25 9.1" fill="#606060" fill-rule="evenodd" stroke="none"/>
    <path d="M-6.85 8.45 L-7.2 7.7 -7.2 7.3 -7.2 7.1 -7.2 6.95 -7.1 7.1 -6.85 7.7 -6.85 8.45" fill="#6f6f6f" fill-rule="evenodd" stroke="none"/>
    <path d="M-0.85 9.35 L-1.7 9.8 -1.7 9.45 -1.1 9.15 -0.85 8.95 -0.85 9.35 M-5.5 9.6 L-6.25 9.1 -6.25 8.65 -6.05 8.95 -5.5 9.3 -5.5 9.6" fill="#545454" fill-rule="evenodd" stroke="none"/>
    <path d="M-1.7 9.8 L-2.65 10.05 -2.65 9.8 -1.85 9.55 -1.7 9.45 -1.7 9.8 M-4.6 9.95 L-5.5 9.6 -5.5 9.3 -5.35 9.4 -4.6 9.7 -4.6 9.95" fill="#4c4c4c" fill-rule="evenodd" stroke="none"/>
    <path d="M-2.65 10.05 L-3.65 10.15 -4.6 9.95 -4.6 9.7 -4.5 9.7 -3.6 9.85 -2.7 9.8 -2.65 9.8 -2.65 10.05" fill="#474747" fill-rule="evenodd" stroke="none"/>
    <path d="M-0.3 5.85 L-0.1 6.3 0.0 6.5 0.0 6.7 0.05 7.25 0.0 7.45 -0.05 7.7 -0.05 7.8 -0.1 7.95 -0.2 8.15 -0.25 8.2 -0.35 8.35 -0.5 8.6 -0.85 8.95 -1.1 9.15 -1.7 9.45 -1.85 9.55 -2.65 9.8 -2.7 9.8 -3.6 9.85 -4.5 9.7 -4.6 9.7 -5.35 9.4 -5.5 9.3 -6.05 8.95 -6.25 8.65 -6.55 8.35 -6.8 7.75 -6.85 7.65 -6.9 6.95 -6.9 6.9 -6.85 6.7 -6.85 6.65 -6.75 6.2 -6.35 5.55 -5.75 5.0 -5.0 4.6 -4.1 4.35 -3.2 4.3 -2.35 4.45 -1.5 4.75 -0.8 5.25 -0.3 5.85" fill="#666666" fill-rule="evenodd" stroke="none"/>
    <path d="M17.35 4.4 L-11.3 0.0 -11.45 0.1 -11.6 0.45 -11.85 1.75 -8.0 2.35 -7.65 0.95 3.2 2.85 3.2 4.05 16.65 6.15 16.75 6.25 16.75 6.3 16.8 6.65 16.65 9.8 16.35 11.35 16.3 11.5 16.3 11.65 16.45 11.65 16.6 11.55 16.75 11.2 17.3 7.85 17.45 7.15 17.55 5.5 17.45 4.55 17.35 4.4 M16.25 14.75 L16.2 15.35 15.8 17.95 15.75 18.35 15.65 18.85 15.35 19.75 15.3 19.75 15.2 19.8 15.0 19.8 15.0 19.65 15.05 19.3 15.05 19.0 15.05 18.75 15.05 18.5 15.0 17.95 15.0 17.75 14.9 17.6 15.0 17.05 15.2 16.15 15.35 15.2 15.4 14.95 15.5 14.5 15.5 14.3 15.55 13.35 15.55 13.2 15.55 12.85 15.65 11.3 15.65 11.15 15.6 11.0 15.6 10.95 15.5 10.8 2.1 8.75 2.15 8.55 2.4 7.65 2.6 6.7 2.85 5.8 3.2 4.35 3.2 4.05 M15.0 20.25 L15.0 20.35 14.85 21.3 14.45 23.8 14.15 24.7 14.1 24.75 14.0 24.8 13.7 24.75 13.7 24.65 13.75 24.3 13.8 23.75 13.85 23.55 13.8 23.4 13.8 22.95 13.75 22.55 13.65 22.45 13.65 22.4 13.7 22.05 13.9 21.1 14.05 20.2 14.2 19.35 14.4 18.35 14.4 18.05 14.4 17.9 14.4 17.55 14.45 17.15 14.45 16.7 14.45 16.65 14.45 16.45 14.45 16.15 14.45 16.1 14.4 15.75 14.25 15.6 0.9 13.55 1.0 13.2 1.2 12.3 1.45 11.35 1.65 10.55 2.1 8.75 M13.65 25.35 L13.5 26.85 13.25 28.45 13.2 28.7 13.2 28.75 13.1 29.0 12.9 29.6 12.85 29.6 12.8 29.7 -15.9 25.25 -16.0 25.15 -16.05 24.75 -16.05 24.15 -16.0 23.4 -16.0 22.5 -15.85 21.6 -15.7 20.7 -15.55 19.8 -15.45 19.05 -15.2 18.45 13.4 22.85 13.45 22.8 13.55 22.7 13.65 22.45 M-12.45 2.7 L-12.15 1.8 -12.0 1.7 -11.9 1.75 -11.85 1.75 M15.75 13.35 L15.85 13.25 16.05 12.9 16.1 12.6 16.3 11.65 M14.6 18.05 L14.65 18.05 14.75 17.95 14.9 17.6 M0.0 5.8 L0.0 6.3 0.0 6.6 0.0 6.7 0.05 7.25 0.0 7.45 M0.0 5.8 L0.25 6.35 0.3 6.5 0.3 5.7 0.0 4.95 -0.55 4.3 -1.3 3.8 -1.6 3.7 -1.65 3.65 -2.2 3.45 -3.2 3.3 -4.2 3.35 -5.15 3.65 -6.0 4.05 -6.65 4.65 -7.0 5.25 -7.05 5.4 -7.25 6.15 -7.2 6.8 -7.2 7.1 -7.2 7.3 -7.2 7.7 M0.0 5.75 L0.0 5.8 -0.05 5.75 -0.3 5.4 -0.35 5.35 -0.55 5.05 -0.8 4.9 -1.3 4.55 -1.5 4.5 -2.2 4.2 -2.35 4.2 -3.2 4.05 -4.05 4.1 -4.2 4.1 -4.8 4.25 -5.15 4.35 -5.75 4.7 -6.0 4.8 -6.35 5.15 -6.65 5.4 -6.75 5.6 -6.8 5.7 -6.85 5.75 -7.05 6.15 -7.2 6.75 -7.2 6.8 M0.6 14.8 L0.9 13.55 M-10.2 11.35 L-10.2 11.5 -10.2 11.85 -10.2 12.9 0.6 14.8 M16.25 14.75 L16.25 13.1 16.2 12.7 16.1 12.6 M15.55 13.35 L15.75 13.35 M-14.9 12.95 L-15.1 13.8 -15.25 14.75 -15.25 14.95 -15.3 15.65 -15.35 16.55 -15.4 17.35 -15.45 17.9 -15.35 18.3 -15.25 18.45 -15.2 18.45 M14.4 18.05 L14.6 18.05 M14.95 19.8 L15.0 19.8 15.0 20.25 M13.7 24.75 L13.65 25.2 13.65 25.35 M-0.05 5.75 L0.0 5.75 M-8.4 4.1 L-8.65 5.0 -8.85 5.9 -9.1 6.8 -9.15 7.0 -9.6 8.8 -9.8 9.65 -10.0 10.55 -10.2 11.35 M-8.0 2.35 L-8.4 4.1 M-12.55 3.45 L-12.7 4.35 -12.85 5.25 -12.95 5.7 -13.0 6.2 M-6.9 6.9 L-6.9 6.95 -6.85 7.65 -6.8 7.75 -6.55 8.35 -6.25 8.65 -6.05 8.95 -5.5 9.3 -5.35 9.4 -4.6 9.7 -4.5 9.7 -3.6 9.85 -2.7 9.8 -2.65 9.8 -1.85 9.55 -1.7 9.45 -1.1 9.15 -0.85 8.95 -0.5 8.6 -0.35 8.35 -0.25 8.2 -0.2 8.15 -0.1 7.95 -0.05 7.8 M-12.55 3.45 L-12.45 2.7 M-13.45 6.85 L-13.3 6.5 -13.15 6.4 -13.0 6.4 -9.15 7.0 M-13.85 9.0 L-13.7 8.15 -13.45 6.85 M-14.05 9.95 L-14.05 10.15 -14.1 10.9 -14.15 11.25 -14.4 11.2 -14.5 11.3 -14.65 11.65 -14.9 12.95 M-14.05 9.95 L-14.0 9.7 -13.85 9.0 M-10.2 11.85 L-14.15 11.25" ffdec:has-small-stroke="true" ffdec:original-stroke-width="0.25" fill="none" stroke="#000000" stroke-linecap="round" stroke-linejoin="miter-clip" stroke-miterlimit="1.0" stroke-width="1.0"/>
  </g>
</svg>
