<?xml version="1.0" encoding="UTF-8" standalone="no"?>
<svg xmlns:ffdec="https://www.free-decompiler.com/flash" xmlns:xlink="http://www.w3.org/1999/xlink" ffdec:objectType="shape" height="16.1px" width="20.65px" xmlns="http://www.w3.org/2000/svg">
  <g transform="matrix(1.0, 0.0, 0.0, 1.0, 10.25, 7.8)">
    <path d="M-8.25 -0.35 L-9.8 3.1 -9.8 4.8 -10.25 3.95 -8.25 -0.35" fill="#000000" fill-opacity="0.2509804" fill-rule="evenodd" stroke="none"/>
    <path d="M-1.55 3.45 L0.4 -0.85 0.4 -2.55 -1.55 1.75 -7.65 0.4 -7.65 2.1 -1.55 3.45 M0.4 -2.55 L-5.75 -3.9 -7.65 0.4 -5.75 -3.9 0.4 -2.55 M10.3 -4.25 L10.15 -3.9 5.45 6.5 -9.8 3.1 -8.25 -0.35 -4.95 -7.7 10.3 -4.25 M-4.95 -7.7 L-5.35 -6.8 -4.95 -7.7" fill="#efefd4" fill-rule="evenodd" stroke="none"/>
    <path d="M-1.55 1.75 L0.4 -2.55 0.4 -0.85 -1.55 3.45 -1.55 1.75 M5.45 6.5 L10.15 -3.9 10.3 -4.25 10.3 -2.55 5.45 8.2 5.45 6.5" fill="#d4d4bd" fill-rule="evenodd" stroke="none"/>
    <path d="M-1.55 1.75 L-1.55 3.45 -7.65 2.1 -7.65 0.4 -1.55 1.75 M5.45 6.5 L5.45 8.2 -9.8 4.8 -9.8 3.1 5.45 6.5" fill="#77776a" fill-rule="evenodd" stroke="none"/>
    <path d="M-7.65 2.1 L-7.65 0.4 -5.75 -3.9 0.4 -2.55 M5.45 8.2 L10.3 -2.55 10.3 -4.25 -4.95 -7.7 -8.25 -0.35 -9.8 3.1 -9.8 4.8 5.45 8.2 Z" ffdec:has-small-stroke="true" ffdec:original-stroke-width="0.25" fill="none" stroke="#000000" stroke-linecap="round" stroke-linejoin="miter-clip" stroke-miterlimit="1.0" stroke-width="1.0"/>
  </g>
</svg>
