<?xml version="1.0" encoding="UTF-8" standalone="no"?>
<svg xmlns:ffdec="https://www.free-decompiler.com/flash" xmlns:xlink="http://www.w3.org/1999/xlink" ffdec:objectType="shape" height="32.0px" width="34.75px" xmlns="http://www.w3.org/2000/svg">
  <g transform="matrix(1.0, 0.0, 0.0, 1.0, 18.75, 24.0)">
    <path d="M-18.75 -5.85 L-16.0 -7.25 -16.0 0.0 -18.75 -5.85" fill="#000000" fill-opacity="0.4" fill-rule="evenodd" stroke="none"/>
    <path d="M0.0 -8.0 L0.0 8.0 -16.0 0.0 -16.0 -16.0 0.0 -8.0" fill="#a92201" fill-rule="evenodd" stroke="none"/>
    <path d="M0.0 -8.0 L16.0 -16.0 16.0 0.0 0.0 8.0 0.0 -8.0" fill="#ea3204" fill-rule="evenodd" stroke="none"/>
    <path d="M16.0 -16.0 L0.0 -8.0 -16.0 -16.0 0.0 -24.0 16.0 -16.0" fill="#fd4f24" fill-rule="evenodd" stroke="none"/>
    <path d="M16.0 -16.0 L0.0 -8.0 0.0 8.0 16.0 0.0 16.0 -16.0 0.0 -24.0 -16.0 -16.0 0.0 -8.0 M0.0 8.0 L-16.0 0.0 -16.0 -16.0" ffdec:has-small-stroke="true" ffdec:original-stroke-width="0.05" fill="none" stroke="#000000" stroke-linecap="round" stroke-linejoin="round" stroke-width="1.0"/>
  </g>
</svg>
