<?xml version="1.0" encoding="UTF-8" standalone="no"?>
<svg xmlns:ffdec="https://www.free-decompiler.com/flash" xmlns:xlink="http://www.w3.org/1999/xlink" ffdec:objectType="shape" height="44.25px" width="28.8px" xmlns="http://www.w3.org/2000/svg">
  <g transform="matrix(1.0, 0.0, 0.0, 1.0, 14.4, 0.0)">
    <path d="M7.2 23.85 L13.5 19.4 Q13.75 20.0 14.25 20.0 L14.4 20.0 14.4 39.15 7.2 44.25 7.2 41.15 Q8.1 41.1 8.1 39.4 L8.15 38.65 Q8.65 38.45 8.65 37.6 L7.4 35.6 7.2 34.65 7.2 23.85 M12.8 32.35 L12.85 31.9 Q13.8 31.75 13.6 30.3 13.8 28.65 12.6 28.65 12.2 28.65 11.95 28.85 11.7 28.3 11.1 28.3 9.9 28.3 9.8 29.7 L9.8 31.6 Q8.95 33.75 8.95 35.05 L9.05 35.6 Q9.25 36.1 9.95 36.1 10.55 36.1 11.35 33.6 L11.8 33.7 Q12.8 33.7 12.8 32.35" fill="#bbbbbb" fill-rule="evenodd" stroke="none"/>
    <path d="M-7.2 23.85 L7.2 23.85 7.2 34.65 7.15 34.55 Q6.85 33.75 5.8 34.2 L5.8 34.15 6.2 33.35 Q6.1 32.3 5.25 32.3 L4.0 33.05 Q3.85 32.7 3.25 32.7 2.3 32.7 2.3 34.2 L3.0 37.05 Q3.6 39.95 4.75 39.95 L5.5 39.6 6.2 39.95 6.25 39.95 Q6.35 41.15 7.15 41.15 L7.2 41.15 7.2 44.25 -7.2 44.25 -7.2 23.85" fill="#888888" fill-rule="evenodd" stroke="none"/>
    <path d="M-14.4 18.75 L-7.2 23.85 -7.2 44.25 -14.4 39.15 -14.4 18.75 M-9.45 24.55 Q-9.7 23.8 -10.4 23.8 -11.25 23.8 -12.25 27.95 -12.25 29.7 -11.0 29.7 L-10.2 29.45 -10.25 31.6 Q-10.2 33.1 -9.15 33.1 -8.0 33.1 -7.95 31.85 L-8.15 30.15 -7.9 26.95 -7.9 26.65 -7.8 25.85 -7.85 25.15 Q-8.0 24.5 -8.65 24.5 -9.15 24.5 -9.4 24.8 L-9.45 24.55" fill="#9b9b9b" fill-rule="evenodd" stroke="none"/>
    <path d="M-14.4 18.75 L-14.4 5.1 -9.5 1.65 Q-10.7 2.85 -12.0 7.0 -11.95 8.6 -10.9 8.6 -10.0 8.6 -9.8 7.7 L-9.5 6.45 -7.65 5.25 Q-6.7 4.75 -6.7 4.2 -6.7 2.95 -8.05 3.25 L-8.05 3.2 -7.7 2.15 -7.8 1.65 Q-8.0 1.15 -8.55 1.15 L-8.95 1.25 -7.2 0.0 7.2 0.0 14.4 5.1 14.4 14.55 Q14.05 13.55 13.05 13.55 11.8 13.55 10.6 15.1 9.6 16.4 9.6 16.85 9.6 18.05 10.75 18.05 11.95 18.05 12.6 18.55 L13.25 18.25 Q13.3 18.95 13.5 19.4 L7.2 23.85 -7.2 23.85 -14.4 18.75" fill="#ffffff" fill-rule="evenodd" stroke="none"/>
  </g>
</svg>
