<?xml version="1.0" encoding="UTF-8" standalone="no"?>
<svg xmlns:ffdec="https://www.free-decompiler.com/flash" xmlns:xlink="http://www.w3.org/1999/xlink" ffdec:objectType="shape" height="44.25px" width="28.8px" xmlns="http://www.w3.org/2000/svg">
  <g transform="matrix(1.0, 0.0, 0.0, 1.0, 14.4, 0.0)">
    <path d="M-7.35 23.75 L-7.3 23.6 -7.3 23.8 -7.35 23.75" fill="#efefd4" fill-rule="evenodd" stroke="none"/>
    <path d="M7.2 23.85 L7.9 23.35 Q8.15 23.75 8.7 23.75 9.2 23.75 10.6 22.85 L12.7 22.3 13.35 22.55 14.4 22.35 14.4 39.15 7.2 44.25 7.2 41.15 Q8.1 41.1 8.1 39.4 L8.15 38.65 Q8.65 38.45 8.65 37.6 L7.4 35.6 7.2 34.65 7.2 23.85 M13.4 27.85 Q12.8 27.6 12.55 27.05 12.4 25.45 11.2 25.45 L10.2 26.45 9.4 27.65 9.5 28.85 9.8 29.7 9.8 31.6 Q8.95 33.75 8.95 35.05 L9.05 35.6 Q9.25 36.1 9.95 36.1 10.55 36.1 11.35 33.6 L11.8 33.7 Q12.8 33.7 12.8 32.35 L12.85 31.9 Q13.8 31.75 13.6 30.3 L13.6 29.45 13.9 28.35 13.4 27.85" fill="#bbbbbb" fill-rule="evenodd" stroke="none"/>
    <path d="M2.65 23.85 L7.2 23.85 7.2 34.65 7.15 34.55 Q6.85 33.75 5.8 34.2 L5.8 34.15 6.2 33.35 Q6.1 32.3 5.25 32.3 L4.0 33.05 Q3.9 32.8 3.55 32.75 L3.55 32.4 1.55 30.4 Q-0.95 30.4 -1.25 36.1 -1.25 38.0 -0.15 37.85 L-0.15 37.9 Q-2.6 39.95 -2.6 41.2 -2.5 42.2 -1.65 42.2 L-0.05 40.95 Q0.25 40.35 0.5 40.15 0.8 39.8 2.35 39.6 2.8 39.5 3.4 38.5 3.95 39.95 4.75 39.95 L5.5 39.6 6.2 39.95 6.25 39.95 Q6.35 41.15 7.15 41.15 L7.2 41.15 7.2 44.25 -7.2 44.25 -7.2 24.15 Q-6.95 24.55 -6.15 24.55 -4.85 24.55 -4.85 24.15 L-2.25 24.15 Q-2.55 25.45 -1.25 25.45 L0.65 24.65 1.4 24.85 Q2.3 24.85 2.65 23.85" fill="#888888" fill-rule="evenodd" stroke="none"/>
    <path d="M-14.4 18.75 L-7.35 23.75 -7.3 23.8 -7.2 24.15 -7.2 44.25 -14.4 39.15 -14.4 18.75 M-9.45 24.55 Q-9.7 23.8 -10.4 23.8 -11.25 23.8 -12.25 27.95 L-12.05 29.05 Q-12.6 29.45 -12.6 30.25 L-11.75 32.2 -12.0 33.2 Q-12.0 34.75 -10.5 34.25 L-10.95 36.35 Q-10.9 37.35 -9.95 37.35 -8.15 37.35 -8.0 33.9 L-8.05 32.5 -7.95 31.85 -8.15 30.15 -7.9 26.95 -7.9 26.65 -7.8 25.85 -7.85 25.15 Q-8.0 24.5 -8.65 24.5 -9.15 24.5 -9.4 24.8 L-9.45 24.55" fill="#9b9b9b" fill-rule="evenodd" stroke="none"/>
    <path d="M-14.4 18.75 L-14.4 13.6 -14.0 13.7 Q-12.9 13.7 -12.9 12.6 L-13.2 9.2 -13.15 8.3 -13.05 8.3 Q-13.05 8.95 -12.15 8.95 L-11.45 8.45 -10.9 8.6 -10.1 8.35 -10.3 9.0 Q-10.35 10.1 -9.25 10.1 L-8.4 9.9 -8.45 10.55 Q-8.6 11.8 -7.5 11.8 -6.65 11.8 -6.35 10.7 L-6.15 9.4 -4.7 7.9 -4.6 6.85 Q-4.9 3.8 -6.75 3.7 -7.0 3.0 -8.05 3.25 L-8.05 3.2 -7.7 2.15 -7.8 1.65 Q-8.0 1.15 -8.55 1.15 L-8.95 1.25 -7.2 0.0 7.2 0.0 14.4 5.1 14.4 14.55 Q14.05 13.55 13.05 13.55 11.8 13.55 10.6 15.1 9.6 16.4 9.6 16.85 L9.65 17.3 Q7.5 17.7 7.75 22.4 L7.8 23.1 7.9 23.35 7.2 23.85 2.65 23.85 2.85 22.15 Q2.85 21.45 1.75 20.2 1.75 19.85 2.35 18.85 2.35 17.85 1.4 17.85 0.85 17.85 -2.6 20.7 -7.3 22.25 -7.3 23.6 L-7.35 23.75 -14.4 18.75 M-10.8 3.75 Q-11.05 3.5 -11.45 3.5 L-11.7 3.65 Q-12.35 4.05 -14.4 5.75 L-14.4 5.1 -9.5 1.65 Q-10.15 2.3 -10.8 3.75" fill="#ffffff" fill-rule="evenodd" stroke="none"/>
  </g>
</svg>
