<?xml version="1.0" encoding="UTF-8" standalone="no"?>
<svg xmlns:ffdec="https://www.free-decompiler.com/flash" xmlns:xlink="http://www.w3.org/1999/xlink" ffdec:objectType="shape" height="44.25px" width="28.8px" xmlns="http://www.w3.org/2000/svg">
  <g transform="matrix(1.0, 0.0, 0.0, 1.0, 14.4, 0.0)">
    <path d="M-7.35 23.75 L-7.3 23.6 -7.3 23.8 -7.35 23.75 M-1.25 19.65 L-1.45 19.45 Q-1.15 19.1 -1.15 18.35 L-1.05 18.35 -1.0 19.4 -1.25 19.65" fill="#efefd4" fill-rule="evenodd" stroke="none"/>
    <path d="M2.65 23.85 L6.0 23.85 Q6.1 25.6 7.1 25.5 L7.2 25.9 7.2 34.65 7.15 34.55 Q6.85 33.75 5.8 34.2 L5.8 34.15 6.2 33.35 Q6.1 32.3 5.25 32.3 L4.0 33.05 Q3.9 32.8 3.55 32.75 L3.55 32.4 2.95 31.8 3.3 31.7 Q4.0 31.5 4.0 30.85 4.0 29.85 2.7 29.85 L2.0 29.9 Q2.25 27.95 0.95 27.95 0.6 27.95 -0.1 28.65 L-0.7 26.7 -0.25 25.05 0.65 24.65 1.4 24.85 Q2.3 24.85 2.65 23.85 M7.2 44.25 L-7.2 44.25 -7.2 24.15 Q-6.95 24.55 -6.15 24.55 L-5.8 24.55 -6.0 25.35 Q-6.3 27.05 -5.05 27.05 -4.45 26.7 -4.25 26.7 L-3.0 27.1 Q-3.75 30.4 -2.05 30.4 L-1.6 30.3 -1.45 31.75 Q-1.25 32.5 -0.7 32.7 -1.15 34.0 -1.25 36.1 -1.25 38.0 -0.15 37.85 L-0.15 37.9 Q-2.6 39.95 -2.6 41.2 -2.5 42.2 -1.65 42.2 L-0.05 40.95 Q0.25 40.35 0.5 40.15 0.8 39.8 2.35 39.6 2.8 39.5 3.4 38.5 3.95 39.95 4.75 39.95 L5.5 39.6 6.2 39.95 6.25 39.95 Q6.35 41.15 7.15 41.15 L7.2 41.15 7.2 44.25" fill="#888888" fill-rule="evenodd" stroke="none"/>
    <path d="M7.2 25.9 L7.85 26.6 8.9 27.05 Q9.8 27.05 9.8 26.35 L10.1 26.45 10.1 26.5 10.15 26.55 Q9.4 27.45 9.4 27.65 L9.5 28.85 9.8 29.7 9.8 31.6 Q8.95 33.75 8.95 35.05 L9.05 35.6 Q9.25 36.1 9.95 36.1 L10.65 35.4 10.65 35.45 Q11.1 37.95 11.8 37.95 12.75 37.95 12.95 37.05 L13.0 35.8 13.7 33.4 13.4 32.4 12.9 31.9 Q13.75 31.7 13.6 30.3 L13.6 29.45 13.9 28.35 13.4 27.85 12.85 27.45 12.95 23.25 13.0 22.4 13.35 22.55 14.4 22.35 14.4 39.15 7.2 44.25 7.2 41.15 Q8.1 41.1 8.1 39.4 L8.15 38.65 Q8.65 38.45 8.65 37.6 L7.4 35.6 7.2 34.65 7.2 25.9" fill="#bbbbbb" fill-rule="evenodd" stroke="none"/>
    <path d="M-14.4 18.75 L-7.35 23.75 -7.3 23.8 -7.2 24.15 -7.2 44.25 -14.4 39.15 -14.4 18.75 M-9.45 24.55 Q-9.7 23.8 -10.4 23.8 -11.0 23.8 -11.65 25.85 -12.0 24.75 -12.55 24.75 -13.5 24.75 -13.5 26.2 L-13.1 32.65 -13.3 36.6 Q-13.25 39.1 -12.15 39.1 -11.7 39.1 -11.0 37.9 L-10.1 38.3 Q-9.0 38.3 -9.0 37.05 -8.1 36.3 -8.0 33.9 L-8.05 32.5 -7.95 31.85 -8.15 30.15 -7.9 26.95 -7.9 26.65 -7.8 25.85 -7.85 25.15 Q-8.0 24.5 -8.65 24.5 -9.15 24.5 -9.4 24.8 L-9.45 24.55" fill="#9b9b9b" fill-rule="evenodd" stroke="none"/>
    <path d="M-14.4 18.75 L-14.4 13.6 -14.0 13.7 Q-12.9 13.7 -12.9 12.6 L-13.2 9.2 -13.15 8.3 -13.05 8.3 Q-13.05 8.95 -12.15 8.95 L-11.55 8.55 -10.85 10.95 Q-11.55 14.95 -9.8 14.95 -9.1 14.95 -8.3 13.6 L-7.25 11.8 Q-6.6 11.65 -6.35 10.7 L-6.3 10.65 -3.1 7.55 -3.6 8.75 Q-3.6 9.75 -2.65 9.75 -1.7 9.75 -0.95 8.2 L-0.3 8.45 Q1.1 8.45 1.1 6.55 1.1 5.65 1.45 4.9 L1.0 3.85 Q0.45 2.95 0.05 2.95 -0.35 2.95 -3.4 5.2 -4.05 5.2 -4.8 5.7 -5.3 3.8 -6.75 3.7 -7.0 3.0 -8.05 3.25 L-8.05 3.2 -7.7 2.15 -7.8 1.65 Q-8.0 1.15 -8.55 1.15 L-8.95 1.25 -7.2 0.0 7.2 0.0 14.4 5.1 14.4 14.55 Q14.05 13.55 13.05 13.55 11.8 13.55 10.6 15.1 L10.25 15.55 9.9 15.5 Q8.95 15.5 8.65 16.75 7.35 15.95 6.6 18.9 6.0 21.15 6.0 23.55 L6.0 23.85 2.65 23.85 2.85 22.15 Q2.85 21.45 1.75 20.2 1.75 19.85 2.35 18.85 2.35 18.0 1.7 17.9 L1.45 17.35 0.3 16.75 Q-0.2 15.2 -1.25 15.2 L-1.95 15.4 Q-2.6 15.4 -3.0 14.7 -3.35 13.95 -3.95 13.95 -6.45 13.95 -6.45 15.85 -6.5 16.9 -5.45 16.9 L-4.25 16.55 -4.2 16.6 Q-3.2 19.8 -2.35 19.8 -1.75 19.8 -1.45 19.45 L-1.25 19.65 -2.6 20.7 Q-7.3 22.25 -7.3 23.6 L-7.35 23.75 -14.4 18.75 M-11.45 3.5 L-11.7 3.65 Q-12.35 4.05 -14.4 5.75 L-14.4 5.1 -9.5 1.65 Q-10.15 2.3 -10.8 3.75 -11.05 3.5 -11.45 3.5" fill="#ffffff" fill-rule="evenodd" stroke="none"/>
  </g>
</svg>
