<?xml version="1.0" encoding="UTF-8" standalone="no"?>
<svg xmlns:ffdec="https://www.free-decompiler.com/flash" xmlns:xlink="http://www.w3.org/1999/xlink" ffdec:objectType="shape" height="4.1px" width="7.3px" xmlns="http://www.w3.org/2000/svg">
  <g transform="matrix(1.0, 0.0, 0.0, 1.0, 3.6, 2.95)">
    <path d="M1.65 -2.45 Q2.3 -2.45 2.75 -2.0 3.2 -1.55 3.2 -0.9 3.2 -0.25 2.75 0.2 2.3 0.65 1.65 0.65 L-1.55 0.65 Q-2.2 0.65 -2.65 0.2 -3.1 -0.25 -3.1 -0.9 -3.1 -1.55 -2.65 -2.0 -2.2 -2.45 -1.55 -2.45 L1.65 -2.45" fill="#000000" fill-rule="evenodd" stroke="none"/>
    <path d="M1.65 -2.45 L-1.55 -2.45 Q-2.2 -2.45 -2.65 -2.0 -3.1 -1.55 -3.1 -0.9 -3.1 -0.25 -2.65 0.2 -2.2 0.65 -1.55 0.65 L1.65 0.65 Q2.3 0.65 2.75 0.2 3.2 -0.25 3.2 -0.9 3.2 -1.55 2.75 -2.0 2.3 -2.45 1.65 -2.45 Z" fill="none" stroke="#000000" stroke-linecap="round" stroke-linejoin="round" stroke-opacity="0.49803922" stroke-width="1.0"/>
  </g>
</svg>
