<?xml version="1.0" encoding="UTF-8" standalone="no"?>
<svg xmlns:ffdec="https://www.free-decompiler.com/flash" xmlns:xlink="http://www.w3.org/1999/xlink" ffdec:objectType="shape" height="18.4px" width="19.2px" xmlns="http://www.w3.org/2000/svg">
  <g transform="matrix(1.0, 0.0, 0.0, 1.0, 9.1, 7.7)">
    <path d="M5.3 -7.7 Q7.3 -7.7 8.7 -6.3 10.1 -4.9 10.1 -2.9 10.1 -0.9 8.7 0.5 7.3 1.9 5.3 1.9 3.3 1.9 1.9 0.5 0.5 -0.9 0.5 -2.9 0.5 -4.9 1.9 -6.3 3.3 -7.7 5.3 -7.7" fill="#ffffff" fill-rule="evenodd" stroke="none"/>
    <path d="M0.05 9.3 Q-1.35 7.9 -1.35 5.9 -1.35 3.9 0.05 2.5 1.45 1.1 3.45 1.1 5.45 1.1 6.85 2.5 8.25 3.9 8.25 5.9 8.25 7.9 6.85 9.3 5.45 10.7 3.45 10.7 1.45 10.7 0.05 9.3" fill="#ffffff" fill-rule="evenodd" stroke="none"/>
    <path d="M0.5 -0.7 Q0.5 1.3 -0.9 2.7 -2.3 4.1 -4.3 4.1 -6.3 4.1 -7.7 2.7 -9.1 1.3 -9.1 -0.7 -9.1 -2.7 -7.7 -4.1 -6.3 -5.5 -4.3 -5.5 -2.3 -5.5 -0.9 -4.1 0.5 -2.7 0.5 -0.7" fill="#ffffff" fill-rule="evenodd" stroke="none"/>
  </g>
</svg>
