<?xml version="1.0" encoding="UTF-8" standalone="no"?>
<svg xmlns:ffdec="https://www.free-decompiler.com/flash" xmlns:xlink="http://www.w3.org/1999/xlink" ffdec:objectType="shape" height="352.0px" width="401.25px" xmlns="http://www.w3.org/2000/svg">
  <g transform="matrix(1.0, 0.0, 0.0, 1.0, 192.0, 160.0)">
    <path d="M96.0 -160.0 Q100.45 -150.5 96.0 -149.5 102.15 -148.8 96.0 -146.95 103.35 -144.45 96.0 -142.05 105.75 -136.3 109.05 -128.0 109.95 -131.0 111.15 -128.0 113.45 -130.0 115.95 -128.0 117.95 -130.0 128.0 -128.0 132.3 -116.75 128.0 -108.05 134.45 -107.0 128.0 -106.0 135.95 -104.0 128.0 -96.0 139.95 -102.0 142.95 -96.0 149.75 -101.7 160.0 -96.0 158.45 -105.0 160.0 -106.75 L174.0 -107.25 Q186.5 -105.85 192.0 -96.0 201.25 -98.65 203.7 -96.0 209.2 -86.2 209.25 -75.0 209.3 -67.3 204.15 -64.0 202.95 -60.5 192.0 -64.0 192.7 -53.75 192.0 -49.0 179.95 -47.5 176.8 -46.35 163.2 -41.3 149.0 -32.0 127.5 -32.6 106.0 -32.0 104.95 -28.5 96.0 -32.0 102.1 -21.75 96.0 -14.9 99.95 -13.0 96.0 -11.1 98.95 -8.5 96.0 0.0 94.25 9.5 96.0 15.05 92.95 16.5 96.0 17.95 91.5 23.05 96.0 32.0 84.95 31.0 80.35 32.0 77.45 36.85 74.0 32.0 68.5 37.0 64.0 32.0 58.3 40.5 64.0 44.05 55.5 45.0 64.0 45.85 51.9 49.3 49.85 52.95 49.0 54.5 47.8 64.0 44.8 59.25 32.0 64.0 19.9 71.75 0.0 85.65 1.3 88.75 0.0 96.0 -5.5 85.0 0.0 83.6 -8.55 78.8 -13.15 74.1 -20.55 66.5 -32.0 64.0 -41.0 70.0 -42.2 64.0 -44.25 71.7 -44.4 75.0 L-44.55 78.0 -45.0 110.0 -44.65 117.95 Q-43.95 125.4 -47.95 128.0 -51.15 135.4 -64.0 139.8 -55.5 141.5 -64.0 143.25 -57.5 144.5 -64.0 145.65 -62.95 151.2 -64.0 160.0 -74.15 173.85 -83.0 192.0 -85.0 187.45 -96.0 192.0 -108.55 186.25 -128.0 192.0 -125.6 182.45 -128.0 177.0 -125.0 158.5 -128.0 140.0 -124.6 130.65 -128.0 128.0 -142.85 118.9 -160.0 128.0 -176.25 133.1 -192.0 128.0 -186.15 120.7 -192.0 110.15 -181.5 107.0 -180.45 96.0 -178.8 98.9 -176.9 96.0 -171.1 79.25 -160.0 64.0 -156.4 46.65 -160.0 32.0 -155.65 22.05 -160.0 13.85 -149.0 12.0 -147.65 10.3 -139.4 0.1 -128.0 -11.05 -132.0 -13.0 -128.0 -15.0 -132.0 -15.5 -128.0 -16.15 -134.0 -17.0 -128.0 -17.5 -136.5 -18.0 -128.0 -18.55 -144.25 -21.3 -160.0 -32.0 -164.7 -22.4 -171.9 -32.0 -183.7 -27.5 -192.0 -32.0 -180.5 -39.0 -178.9 -32.0 -174.15 -40.05 -160.0 -42.65 -167.5 -44.0 -160.0 -44.15 -159.3 -44.45 -160.0 -48.3 -154.5 -49.0 -160.0 -49.9 -151.75 -52.75 -149.25 -64.0 -146.25 -58.25 -143.25 -64.0 -142.0 -62.5 -140.65 -64.0 -134.4 -68.05 -128.0 -64.0 -127.45 -74.55 -128.0 -76.85 -129.85 -80.4 -128.0 -83.0 -137.0 -84.0 -138.65 -85.4 -142.05 -88.3 -146.55 -94.1 L-146.35 -96.0 Q-144.75 -92.95 -142.0 -96.0 -140.5 -93.0 -139.15 -96.0 -137.5 -94.0 -128.0 -96.0 -121.5 -97.5 -117.9 -96.0 -113.5 -100.0 -109.15 -96.0 -106.0 -102.5 -96.0 -96.0 -100.5 -104.5 -96.0 -106.55 -91.45 -107.2 -96.0 -109.0 -91.5 -115.0 -96.0 -128.0 -92.3 -137.95 -95.95 -149.75 -85.25 -149.15 -82.95 -148.15 L-76.85 -145.35 Q-75.0 -144.5 -64.0 -143.55 -68.3 -140.95 -64.0 -139.05 -58.5 -137.5 -64.0 -128.0 -47.5 -132.5 -32.0 -128.0 -23.15 -128.4 -19.25 -128.0 -17.5 -134.0 -15.7 -128.0 -6.4 -144.05 0.0 -149.45 8.0 -151.0 11.25 -160.0 18.3 -155.65 32.0 -160.0 46.75 -152.2 64.0 -160.0 80.7 -152.15 96.0 -160.0" fill="#d8cccc" fill-rule="evenodd" stroke="none"/>
  </g>
</svg>
