<?xml version="1.0" encoding="UTF-8" standalone="no"?>
<svg xmlns:ffdec="https://www.free-decompiler.com/flash" xmlns:xlink="http://www.w3.org/1999/xlink" ffdec:objectType="shape" height="113.35px" width="80.1px" xmlns="http://www.w3.org/2000/svg">
  <g transform="matrix(1.0, 0.0, 0.0, 1.0, 48.0, 81.25)">
    <path d="M32.0 -13.25 L32.0 32.0 -32.0 32.0 -48.0 3.7 -48.0 -41.55 16.0 -41.55 32.0 -13.25" fill="#000000" fill-opacity="0.2509804" fill-rule="evenodd" stroke="none"/>
    <path d="M0.0 -81.15 L32.0 -69.8 32.0 -24.55 0.0 -81.15 -32.0 -24.55 -32.0 -69.8 0.0 -81.15" fill="#ffffff" fill-rule="evenodd" stroke="none"/>
    <path d="M32.0 -24.55 L32.0 32.0 -32.0 32.0 -32.0 -24.55 32.0 -24.55" fill="#888888" fill-rule="evenodd" stroke="none"/>
    <path d="M0.0 -81.15 L32.0 -24.55 -32.0 -24.55 0.0 -81.15" fill="#b2b2b2" fill-rule="evenodd" stroke="none"/>
    <path d="M0.0 -81.15 L-32.0 -69.8 -32.0 32.0 32.0 32.0 32.0 -69.8 0.0 -81.15 Z" ffdec:has-small-stroke="true" ffdec:original-stroke-width="0.25" fill="none" stroke="#000000" stroke-linecap="round" stroke-linejoin="miter-clip" stroke-miterlimit="1.0" stroke-width="1.0"/>
  </g>
</svg>
