<?xml version="1.0" encoding="UTF-8" standalone="no"?>
<svg xmlns:ffdec="https://www.free-decompiler.com/flash" xmlns:xlink="http://www.w3.org/1999/xlink" ffdec:objectType="shape" height="64.0px" width="64.0px" xmlns="http://www.w3.org/2000/svg">
  <g transform="matrix(1.0, 0.0, 0.0, 1.0, 0.0, 0.0)">
    <path d="M59.85 31.3 L60.9 26.3 62.25 18.95 Q62.3 18.5 61.35 16.05 L61.85 17.95 61.35 17.75 58.55 17.3 Q54.85 17.3 49.8 20.6 46.25 22.85 44.95 25.25 L43.9 24.1 Q43.9 23.2 44.2 22.0 44.8 19.4 46.35 16.55 45.45 16.3 42.5 17.7 L42.6 13.3 Q42.85 10.5 42.4 9.8 41.9 9.0 38.05 7.55 L38.05 7.5 Q41.4 4.6 43.9 0.1 L43.95 0.0 64.0 0.0 64.0 30.0 63.9 30.0 Q61.5 30.0 59.85 31.3 M40.3 34.6 Q40.65 37.85 42.95 40.15 37.1 42.85 32.6 42.5 28.85 42.2 26.2 43.9 L23.45 39.7 20.2 34.6 Q18.75 31.8 18.75 29.7 L18.85 26.85 Q19.0 25.8 19.7 24.95 L20.5 24.65 Q22.05 23.95 22.5 23.45 23.25 22.6 23.55 21.65 L24.9 20.55 25.85 20.6 Q27.05 20.6 27.5 19.5 L28.1 17.05 Q28.9 13.5 32.45 13.5 35.75 13.5 36.25 15.6 L36.55 17.95 Q36.8 19.6 37.4 20.85 L37.5 21.0 Q37.05 21.6 36.95 22.1 36.85 22.6 37.1 23.4 37.8 26.1 37.5 28.8 L36.95 29.95 35.95 30.95 Q34.85 32.15 36.0 33.15 37.55 34.5 40.3 34.6 M14.05 26.1 Q13.3 29.3 13.3 33.45 13.3 36.55 16.25 41.25 19.2 45.9 19.2 49.4 19.2 52.95 18.15 53.45 16.35 53.6 14.75 54.25 8.6 56.7 8.6 58.6 8.6 61.85 12.6 62.0 13.1 63.0 14.4 63.95 L14.5 64.0 0.0 64.0 0.0 53.0 1.0 52.7 2.3 51.3 Q4.5 48.0 7.7 45.8 8.35 45.35 9.5 45.35 L11.5 45.5 Q13.8 45.55 13.8 43.35 13.8 38.65 7.7 34.0 5.45 32.3 3.05 31.1 0.95 30.05 0.0 30.0 L0.0 0.0 14.5 0.0 Q17.15 1.95 21.35 1.95 L28.7 1.15 33.3 0.35 Q35.55 0.35 35.9 0.8 L35.9 2.1 Q35.9 4.15 35.1 6.5 30.4 5.05 24.05 3.85 L16.7 2.5 Q16.25 2.4 13.8 3.4 15.75 2.65 15.7 2.9 L15.5 3.4 Q15.05 5.0 15.05 6.2 15.05 7.6 15.55 9.25 L15.1 9.45 Q11.9 11.0 11.05 12.0 10.2 12.95 10.05 13.65 9.9 14.15 10.15 14.95 10.9 17.65 10.6 20.35 L10.0 21.5 9.0 22.5 Q7.9 23.7 9.05 24.7 10.85 26.2 14.05 26.1 M39.55 47.15 L41.1 45.8 Q42.75 44.5 46.0 44.65 L51.45 44.85 54.8 44.75 58.2 44.9 58.1 44.95 Q54.75 46.7 50.2 47.7 50.8 49.05 55.7 51.15 60.4 53.15 62.25 53.15 L64.0 53.0 64.0 64.0 43.95 64.0 Q44.6 62.9 46.9 60.15 49.35 57.2 49.35 57.6 49.35 55.3 42.25 48.05 L39.55 47.15 M61.1 42.9 L61.25 41.7 61.05 39.0 Q62.05 39.9 62.05 40.95 62.05 41.9 61.1 42.9 M17.35 13.35 L18.35 14.95 20.1 17.3 19.15 17.85 Q18.15 17.95 17.6 17.45 16.55 16.55 17.3 13.55 L17.35 13.35" fill="#deccaa" fill-rule="evenodd" stroke="none"/>
    <path d="M43.9 24.1 L44.95 25.25 Q46.25 22.85 49.8 20.6 54.85 17.3 58.55 17.3 L61.35 17.75 61.85 17.95 61.35 16.05 Q62.3 18.5 62.25 18.95 L60.9 26.3 59.85 31.3 59.2 31.9 57.15 31.65 Q53.05 31.65 53.05 34.0 53.05 35.15 54.45 35.95 55.15 36.35 57.55 37.15 59.9 38.0 61.05 39.0 L61.25 41.7 61.1 42.9 Q60.1 43.9 58.2 44.9 L54.8 44.75 51.45 44.85 46.0 44.65 Q42.75 44.5 41.1 45.8 L39.55 47.15 34.25 46.65 Q32.95 46.6 31.2 45.55 29.8 44.7 28.35 45.25 18.45 52.85 15.15 56.55 12.55 59.45 12.55 61.85 L12.6 62.0 Q8.6 61.85 8.6 58.6 8.6 56.7 14.75 54.25 16.35 53.6 18.15 53.45 19.2 52.95 19.2 49.4 19.2 45.9 16.25 41.25 13.3 36.55 13.3 33.45 13.3 29.3 14.05 26.1 L16.8 25.75 19.7 24.95 Q19.0 25.8 18.85 26.85 L18.75 29.7 Q18.75 31.8 20.2 34.6 L23.45 39.7 26.2 43.9 Q28.85 42.2 32.6 42.5 37.1 42.85 42.95 40.15 40.65 37.85 40.3 34.6 L43.75 34.2 47.45 33.1 49.45 31.9 Q50.75 30.4 50.6 28.6 L51.65 27.6 Q53.55 25.45 52.3 24.35 L50.65 24.2 Q50.1 24.4 48.6 25.3 45.7 26.95 44.5 25.9 43.9 25.35 43.9 24.1 M38.05 7.55 Q41.9 9.0 42.4 9.8 42.85 10.5 42.6 13.3 L42.5 17.7 42.05 17.9 Q38.8 19.45 37.95 20.45 L37.5 21.0 37.4 20.85 Q36.8 19.6 36.55 17.95 L36.25 15.6 Q35.75 13.5 32.45 13.5 28.9 13.5 28.1 17.05 L27.5 19.5 Q27.05 20.6 25.85 20.6 L24.9 20.55 23.55 21.65 23.7 20.15 24.75 19.15 Q26.6 17.0 25.4 15.9 L23.75 15.75 Q23.2 15.95 21.65 16.85 20.15 17.7 19.15 17.85 L20.1 17.3 18.35 14.95 17.35 13.35 Q17.95 10.85 19.45 8.1 18.5 7.85 15.55 9.25 15.05 7.6 15.05 6.2 15.05 5.0 15.5 3.4 L15.7 2.9 Q15.75 2.65 13.8 3.4 16.25 2.4 16.7 2.5 L24.05 3.85 Q30.4 5.05 35.1 6.5 L34.0 9.1 34.0 10.0 Q35.55 9.65 38.05 7.55" fill="#b5b179" fill-rule="evenodd" stroke="none"/>
    <path d="M59.85 31.3 Q61.5 30.0 63.9 30.0 L64.0 30.0 64.0 53.0 62.25 53.15 Q60.4 53.15 55.7 51.15 50.8 49.05 50.2 47.7 54.75 46.7 58.1 44.95 L58.2 44.9 Q60.1 43.9 61.1 42.9 62.05 41.9 62.05 40.95 62.05 39.9 61.05 39.0 59.9 38.0 57.55 37.15 55.15 36.35 54.45 35.95 53.05 35.15 53.05 34.0 53.05 31.65 57.15 31.65 L59.2 31.9 59.85 31.3 M43.95 0.0 L43.9 0.1 Q41.4 4.6 38.05 7.5 L38.05 7.55 Q35.55 9.65 34.0 10.0 L34.0 9.1 35.1 6.5 Q35.9 4.15 35.9 2.1 L35.9 0.8 Q35.55 0.35 33.3 0.35 L28.7 1.15 21.35 1.95 Q17.15 1.95 14.5 0.0 L43.95 0.0 M42.5 17.7 Q45.45 16.3 46.35 16.55 44.8 19.4 44.2 22.0 43.9 23.2 43.9 24.1 43.9 25.35 44.5 25.9 45.7 26.95 48.6 25.3 50.1 24.4 50.65 24.2 L52.3 24.35 Q53.55 25.45 51.65 27.6 L50.6 28.6 Q50.75 30.4 49.45 31.9 L47.45 33.1 43.75 34.2 40.3 34.6 Q37.55 34.5 36.0 33.15 34.85 32.15 35.95 30.95 L36.95 29.95 37.5 28.8 Q37.8 26.1 37.1 23.4 36.85 22.6 36.95 22.1 37.05 21.6 37.5 21.0 L37.95 20.45 Q38.8 19.45 42.05 17.9 L42.5 17.7 M19.7 24.95 L16.8 25.75 14.05 26.1 Q10.85 26.2 9.05 24.7 7.9 23.7 9.0 22.5 L10.0 21.5 10.6 20.35 Q10.9 17.65 10.15 14.95 9.9 14.15 10.05 13.65 10.2 12.95 11.05 12.0 11.9 11.0 15.1 9.45 L15.55 9.25 Q18.5 7.85 19.45 8.1 17.95 10.85 17.35 13.35 L17.3 13.55 Q16.55 16.55 17.6 17.45 18.15 17.95 19.15 17.85 20.15 17.7 21.65 16.85 23.2 15.95 23.75 15.75 L25.4 15.9 Q26.6 17.0 24.75 19.15 L23.7 20.15 23.55 21.65 Q23.25 22.6 22.5 23.45 22.05 23.95 20.5 24.65 L19.7 24.95 M12.6 62.0 L12.55 61.85 Q12.55 59.45 15.15 56.55 18.45 52.85 28.35 45.25 29.8 44.7 31.2 45.55 32.95 46.6 34.25 46.65 L39.55 47.15 42.25 48.05 Q49.35 55.3 49.35 57.6 49.35 57.2 46.9 60.15 44.6 62.9 43.95 64.0 L14.5 64.0 14.4 63.95 Q13.1 63.0 12.6 62.0 M0.0 30.0 Q0.95 30.05 3.05 31.1 5.45 32.3 7.7 34.0 13.8 38.65 13.8 43.35 13.8 45.55 11.5 45.5 L9.5 45.35 Q8.35 45.35 7.7 45.8 4.5 48.0 2.3 51.3 L1.0 52.7 0.0 53.0 0.0 30.0" fill="#8b6d2e" fill-rule="evenodd" stroke="none"/>
  </g>
</svg>
