<?xml version="1.0" encoding="UTF-8" standalone="no"?>
<svg xmlns:ffdec="https://www.free-decompiler.com/flash" xmlns:xlink="http://www.w3.org/1999/xlink" ffdec:objectType="shape" height="64.0px" width="64.0px" xmlns="http://www.w3.org/2000/svg">
  <g transform="matrix(1.0, 0.0, 0.0, 1.0, 0.0, 0.0)">
    <path d="M16.0 0.0 L48.0 0.0 32.0 40.0 16.0 0.0" fill="#ffffff" fill-rule="evenodd" stroke="none"/>
    <path d="M48.0 0.0 L56.0 16.0 Q45.7 17.0 48.0 24.0 L32.0 40.0 48.0 0.0 M32.0 40.0 L16.0 24.0 Q18.3 17.0 8.0 16.0 L16.0 0.0 32.0 40.0" fill="#666666" fill-rule="evenodd" stroke="none"/>
    <path d="M48.0 0.0 L64.0 0.0 64.0 64.0 32.0 64.0 32.0 40.0 32.0 64.0 0.0 64.0 0.0 0.0 16.0 0.0 8.0 16.0 Q18.3 17.0 16.0 24.0 L32.0 40.0 48.0 24.0 Q45.7 17.0 56.0 16.0 L48.0 0.0" fill="#000000" fill-rule="evenodd" stroke="none"/>
    <path d="M32.0 40.0 L32.0 64.0" ffdec:has-small-stroke="true" ffdec:original-stroke-width="0.05" fill="none" stroke="#6f6f6f" stroke-linecap="round" stroke-linejoin="round" stroke-width="1.0"/>
    <path d="M32.0 0.0 L32.0 40.0" ffdec:has-small-stroke="true" ffdec:original-stroke-width="0.05" fill="none" stroke="#6f6f6f" stroke-linecap="round" stroke-linejoin="round" stroke-width="1.0"/>
    <path d="M47.35 12.25 L36.5 9.6 35.6 10.75 Q34.1 12.25 32.0 12.25 29.85 12.25 28.35 10.75 L27.5 9.6 16.65 12.25 16.65 2.0 27.5 4.65 Q27.8 4.0 28.35 3.5 29.85 1.95 32.0 2.0 34.1 1.95 35.6 3.5 L36.5 4.65 47.35 2.0 47.35 12.25" fill="#000000" fill-rule="evenodd" stroke="none"/>
  </g>
</svg>
