<?xml version="1.0" encoding="UTF-8" standalone="no"?>
<svg xmlns:ffdec="https://www.free-decompiler.com/flash" xmlns:xlink="http://www.w3.org/1999/xlink" ffdec:objectType="shape" height="88.75px" width="204.9px" xmlns="http://www.w3.org/2000/svg">
  <g transform="matrix(1.0, 0.0, 0.0, 1.0, 12.8, 30.65)">
    <path d="M179.2 -7.95 L192.0 14.65 192.0 26.0 180.3 26.0 192.0 46.65 192.0 58.0 0.0 58.0 -12.8 35.35 -12.8 24.05 -12.8 -7.95 179.2 -7.95" fill="#000000" fill-opacity="0.2509804" fill-rule="evenodd" stroke="none"/>
    <path d="M192.0 12.75 L0.0 12.75 0.0 -30.55 192.0 -30.55 192.0 12.75" fill="#ffffff" fill-rule="evenodd" stroke="none"/>
    <path d="M192.0 12.75 L192.0 58.0 0.0 58.0 0.0 12.75 192.0 12.75" fill="#888888" fill-rule="evenodd" stroke="none"/>
    <path d="M192.0 -30.55 L0.0 -30.55 0.0 58.0 192.0 58.0 192.0 -30.55 Z" ffdec:has-small-stroke="true" ffdec:original-stroke-width="0.25" fill="none" stroke="#000000" stroke-linecap="round" stroke-linejoin="miter-clip" stroke-miterlimit="1.0" stroke-width="1.0"/>
  </g>
</svg>
