<?xml version="1.0" encoding="UTF-8" standalone="no"?>
<svg xmlns:ffdec="https://www.free-decompiler.com/flash" xmlns:xlink="http://www.w3.org/1999/xlink" ffdec:objectType="shape" height="26.0px" width="26.0px" xmlns="http://www.w3.org/2000/svg">
  <g transform="matrix(1.0, 0.0, 0.0, 1.0, 13.0, 13.0)">
    <path d="M9.2 -9.2 Q13.0 -5.4 13.0 0.0 13.0 5.4 9.2 9.2 5.4 13.0 0.0 13.0 -5.4 13.0 -9.2 9.2 -13.0 5.4 -13.0 0.0 -13.0 -5.4 -9.2 -9.2 -5.4 -13.0 0.0 -13.0 5.4 -13.0 9.2 -9.2" fill="#0000ff" fill-opacity="0.49803922" fill-rule="evenodd" stroke="none"/>
    <path d="M9.2 -9.2 Q13.0 -5.4 13.0 0.0 13.0 5.4 9.2 9.2 5.4 13.0 0.0 13.0 -5.4 13.0 -9.2 9.2 -13.0 5.4 -13.0 0.0 -13.0 -5.4 -9.2 -9.2 -5.4 -13.0 0.0 -13.0 5.4 -13.0 9.2 -9.2 Z" ffdec:has-small-stroke="true" ffdec:original-stroke-width="0.05" fill="none" stroke="#0000ff" stroke-linecap="round" stroke-linejoin="round" stroke-opacity="0.49803922" stroke-width="1.0"/>
    <path d="M5.95 -1.6 L5.95 -4.55 10.55 0.0 5.95 4.6 5.95 1.6 -7.75 1.6 -7.75 -1.6 5.95 -1.6" fill="#0000cc" fill-rule="evenodd" stroke="none"/>
    <path d="M5.95 -1.6 L-7.75 -1.6 -7.75 1.6 5.95 1.6 5.95 4.6 10.55 0.0 5.95 -4.55 5.95 -1.6 Z" fill="none" stroke="#0000cc" stroke-linecap="round" stroke-linejoin="round" stroke-width="1.0"/>
  </g>
</svg>
