<?xml version="1.0" encoding="UTF-8" standalone="no"?>
<svg xmlns:ffdec="https://www.free-decompiler.com/flash" xmlns:xlink="http://www.w3.org/1999/xlink" ffdec:objectType="shape" height="26.0px" width="26.0px" xmlns="http://www.w3.org/2000/svg">
  <g transform="matrix(1.0, 0.0, 0.0, 1.0, 12.5, 12.55)">
    <path d="M9.7 -8.75 Q13.5 -4.95 13.5 0.45 13.5 5.85 9.7 9.65 5.9 13.45 0.5 13.45 -4.9 13.45 -8.7 9.65 -12.5 5.85 -12.5 0.45 -12.5 -4.95 -8.7 -8.75 -4.9 -12.55 0.5 -12.55 5.9 -12.55 9.7 -8.75" fill="#ff3300" fill-rule="evenodd" stroke="none"/>
    <path d="M9.7 -8.75 Q13.5 -4.95 13.5 0.45 13.5 5.85 9.7 9.65 5.9 13.45 0.5 13.45 -4.9 13.45 -8.7 9.65 -12.5 5.85 -12.5 0.45 -12.5 -4.95 -8.7 -8.75 -4.9 -12.55 0.5 -12.55 5.9 -12.55 9.7 -8.75 Z" ffdec:has-small-stroke="true" ffdec:original-stroke-width="0.05" fill="none" stroke="#0000ff" stroke-linecap="round" stroke-linejoin="round" stroke-opacity="0.49803922" stroke-width="1.0"/>
  </g>
</svg>
