<?xml version="1.0" encoding="UTF-8" standalone="no"?>
<svg xmlns:ffdec="https://www.free-decompiler.com/flash" xmlns:xlink="http://www.w3.org/1999/xlink" ffdec:objectType="morphshape" height="8.0px" width="74.7px" xmlns="http://www.w3.org/2000/svg">
  <g transform="matrix(1.0, 0.0, 0.0, 1.0, 4.0, 4.0)">
    <path d="M-4.0 0.0 Q-4.0 1.65 -2.85 2.85 -1.65 4.0 0.0 4.0 1.65 4.0 2.85 2.85 4.0 1.65 4.0 0.0 4.0 -1.65 2.85 -2.8 1.65 -4.0 0.0 -4.0 -1.65 -4.0 -2.85 -2.8 -4.0 -1.65 -4.0 0.0" fill="#d9292e" fill-rule="evenodd" stroke="none">
      <animate attributeName="fill" dur="2.0s" repeatCount="indefinite" values="#d9292e;#d9292f"/>
      <animate attributeName="fill-opacity" dur="2.0s" repeatCount="indefinite" values="1.0;1.0"/>
      <animate attributeName="d" dur="2.0s" repeatCount="indefinite" values="M-4.0 0.0 Q-4.0 1.65 -2.85 2.85 -1.65 4.0 0.0 4.0 1.65 4.0 2.85 2.85 4.0 1.65 4.0 0.0 4.0 -1.65 2.85 -2.8 1.65 -4.0 0.0 -4.0 -1.65 -4.0 -2.85 -2.8 -4.0 -1.65 -4.0 0.0;M-4.0 0.0 Q-4.0 1.65 -2.85 2.85 -1.65 4.0 0.0 4.0 18.1 3.05 36.2 2.15 70.7 0.3 70.7 -1.35 70.7 -3.0 36.2 -3.5 18.1 -3.75 0.0 -4.0 -1.65 -4.0 -2.85 -2.8 -4.0 -1.65 -4.0 0.0"/>
    </path>
    <path d="M-4.0 0.0 Q-4.0 -1.65 -2.85 -2.8 -1.65 -4.0 0.0 -4.0 1.65 -4.0 2.85 -2.8 4.0 -1.65 4.0 0.0 4.0 1.65 2.85 2.85 1.65 4.0 0.0 4.0 -1.65 4.0 -2.85 2.85 -4.0 1.65 -4.0 0.0 Z" fill="none" stroke="#000000" stroke-linecap="round" stroke-linejoin="round" stroke-opacity="0.0" stroke-width="0.0">
      <animate attributeName="stroke" dur="2.0s" repeatCount="indefinite" values="#000000;#000001"/>
      <animate attributeName="stroke-width" dur="2.0s" repeatCount="indefinite" values="0.0;0.0"/>
      <animate attributeName="fill-opacity" dur="2.0s" repeatCount="indefinite" values="0.0;0.0"/>
      <animate attributeName="d" dur="2.0s" repeatCount="indefinite" values="M-4.0 0.0 Q-4.0 -1.65 -2.85 -2.8 -1.65 -4.0 0.0 -4.0 1.65 -4.0 2.85 -2.8 4.0 -1.65 4.0 0.0 4.0 1.65 2.85 2.85 1.65 4.0 0.0 4.0 -1.65 4.0 -2.85 2.85 -4.0 1.65 -4.0 0.0 Z;M-4.0 0.0 Q-4.0 -1.65 -2.85 -2.8 -1.65 -4.0 0.0 -4.0 18.1 -3.75 36.2 -3.5 70.7 -3.0 70.7 -1.35 70.7 0.3 36.2 2.15 18.1 3.05 0.0 4.0 -1.65 4.0 -2.85 2.85 -4.0 1.65 -4.0 0.0 Z"/>
    </path>
  </g>
</svg>
