<?xml version="1.0" encoding="UTF-8" standalone="no"?>
<svg xmlns:ffdec="https://www.free-decompiler.com/flash" xmlns:xlink="http://www.w3.org/1999/xlink" ffdec:objectType="morphshape" height="96.0px" width="96.0px" xmlns="http://www.w3.org/2000/svg">
  <g transform="matrix(1.0, 0.0, 0.0, 1.0, 57.1, 52.5)">
    <path d="M-9.95 0.05 Q-10.0 4.15 -7.05 7.1 -4.1 10.05 0.05 10.05 4.15 10.05 7.1 7.1 10.05 4.15 10.05 0.05 10.05 -4.1 7.1 -7.05 4.15 -10.0 0.05 -9.95 -4.1 -10.0 -7.05 -7.05 -10.0 -4.1 -9.95 0.05" fill="#999999" fill-opacity="0.49803922" fill-rule="evenodd" stroke="none">
      <animate attributeName="fill" dur="2.0s" repeatCount="indefinite" values="#999999;#99999a"/>
      <animate attributeName="fill-opacity" dur="2.0s" repeatCount="indefinite" values="0.49803922;0.050980393"/>
      <animate attributeName="d" dur="2.0s" repeatCount="indefinite" values="M-9.95 0.05 Q-10.0 4.15 -7.05 7.1 -4.1 10.05 0.05 10.05 4.15 10.05 7.1 7.1 10.05 4.15 10.05 0.05 10.05 -4.1 7.1 -7.05 4.15 -10.0 0.05 -9.95 -4.1 -10.0 -7.05 -7.05 -10.0 -4.1 -9.95 0.05;M-57.1 -4.5 Q-57.1 15.4 -43.05 29.5 -29.0 43.5 -9.1 43.5 10.8 43.5 24.85 29.5 38.9 15.4 38.9 -4.5 38.9 -24.4 24.85 -38.45 10.8 -52.5 -9.1 -52.5 -29.0 -52.5 -43.05 -38.45 -57.1 -24.4 -57.1 -4.5"/>
    </path>
    <path d="M-9.95 0.05 Q-10.0 -4.1 -7.05 -7.05 -4.1 -10.0 0.05 -9.95 4.15 -10.0 7.1 -7.05 10.05 -4.1 10.05 0.05 10.05 4.15 7.1 7.1 4.15 10.05 0.05 10.05 -4.1 10.05 -7.05 7.1 -10.0 4.15 -9.95 0.05 Z" fill="none" stroke="#000000" stroke-linecap="round" stroke-linejoin="round" stroke-opacity="0.0" stroke-width="0.0">
      <animate attributeName="stroke" dur="2.0s" repeatCount="indefinite" values="#000000;#000001"/>
      <animate attributeName="stroke-width" dur="2.0s" repeatCount="indefinite" values="0.0;0.0"/>
      <animate attributeName="fill-opacity" dur="2.0s" repeatCount="indefinite" values="0.0;0.0"/>
      <animate attributeName="d" dur="2.0s" repeatCount="indefinite" values="M-9.95 0.05 Q-10.0 -4.1 -7.05 -7.05 -4.1 -10.0 0.05 -9.95 4.15 -10.0 7.1 -7.05 10.05 -4.1 10.05 0.05 10.05 4.15 7.1 7.1 4.15 10.05 0.05 10.05 -4.1 10.05 -7.05 7.1 -10.0 4.15 -9.95 0.05 Z;M-57.1 -4.5 Q-57.1 -24.4 -43.05 -38.45 -29.0 -52.5 -9.1 -52.5 10.8 -52.5 24.85 -38.45 38.9 -24.4 38.9 -4.5 38.9 15.4 24.85 29.5 10.8 43.5 -9.1 43.5 -29.0 43.5 -43.05 29.5 -57.1 15.4 -57.1 -4.5 Z"/>
    </path>
  </g>
</svg>
