<?xml version="1.0" encoding="UTF-8" standalone="no"?>
<svg xmlns:ffdec="https://www.free-decompiler.com/flash" xmlns:xlink="http://www.w3.org/1999/xlink" ffdec:objectType="morphshape" height="90.0px" width="90.0px" xmlns="http://www.w3.org/2000/svg">
  <g transform="matrix(1.0, 0.0, 0.0, 1.0, 30.95, 50.25)">
    <path d="M-9.95 0.05 Q-10.0 4.15 -7.05 7.1 -4.1 10.05 0.05 10.05 4.15 10.05 7.1 7.1 10.05 4.15 10.05 0.05 10.05 -4.1 7.1 -7.05 4.15 -10.0 0.05 -9.95 -4.1 -10.0 -7.05 -7.05 -10.0 -4.1 -9.95 0.05" fill="#999999" fill-opacity="0.49803922" fill-rule="evenodd" stroke="none">
      <animate attributeName="fill" dur="2.0s" repeatCount="indefinite" values="#999999;#99999a"/>
      <animate attributeName="fill-opacity" dur="2.0s" repeatCount="indefinite" values="0.49803922;0.050980393"/>
      <animate attributeName="d" dur="2.0s" repeatCount="indefinite" values="M-9.95 0.05 Q-10.0 4.15 -7.05 7.1 -4.1 10.05 0.05 10.05 4.15 10.05 7.1 7.1 10.05 4.15 10.05 0.05 10.05 -4.1 7.1 -7.05 4.15 -10.0 0.05 -9.95 -4.1 -10.0 -7.05 -7.05 -10.0 -4.1 -9.95 0.05;M-30.95 -5.25 Q-30.95 13.4 -17.8 26.55 -4.6 39.7 14.05 39.75 32.7 39.7 45.9 26.55 59.05 13.4 59.05 -5.25 59.05 -23.95 45.9 -37.1 32.7 -50.3 14.05 -50.25 -4.6 -50.3 -17.8 -37.1 -30.95 -23.95 -30.95 -5.25"/>
    </path>
    <path d="M-9.95 0.05 Q-10.0 -4.1 -7.05 -7.05 -4.1 -10.0 0.05 -9.95 4.15 -10.0 7.1 -7.05 10.05 -4.1 10.05 0.05 10.05 4.15 7.1 7.1 4.15 10.05 0.05 10.05 -4.1 10.05 -7.05 7.1 -10.0 4.15 -9.95 0.05 Z" fill="none" stroke="#000000" stroke-linecap="round" stroke-linejoin="round" stroke-opacity="0.0" stroke-width="0.0">
      <animate attributeName="stroke" dur="2.0s" repeatCount="indefinite" values="#000000;#000001"/>
      <animate attributeName="stroke-width" dur="2.0s" repeatCount="indefinite" values="0.0;0.0"/>
      <animate attributeName="fill-opacity" dur="2.0s" repeatCount="indefinite" values="0.0;0.0"/>
      <animate attributeName="d" dur="2.0s" repeatCount="indefinite" values="M-9.95 0.05 Q-10.0 -4.1 -7.05 -7.05 -4.1 -10.0 0.05 -9.95 4.15 -10.0 7.1 -7.05 10.05 -4.1 10.05 0.05 10.05 4.15 7.1 7.1 4.15 10.05 0.05 10.05 -4.1 10.05 -7.05 7.1 -10.0 4.15 -9.95 0.05 Z;M-30.95 -5.25 Q-30.95 -23.95 -17.8 -37.1 -4.6 -50.3 14.05 -50.25 32.7 -50.3 45.9 -37.1 59.05 -23.95 59.05 -5.25 59.05 13.4 45.9 26.55 32.7 39.7 14.05 39.75 -4.6 39.7 -17.8 26.55 -30.95 13.4 -30.95 -5.25 Z"/>
    </path>
  </g>
</svg>
