<?xml version="1.0" encoding="UTF-8" standalone="no"?>
<svg xmlns:ffdec="https://www.free-decompiler.com/flash" xmlns:xlink="http://www.w3.org/1999/xlink" ffdec:objectType="morphshape" height="75.0px" width="75.0px" xmlns="http://www.w3.org/2000/svg">
  <g transform="matrix(1.0, 0.0, 0.0, 1.0, 25.1, 19.9)">
    <path d="M-9.95 0.05 Q-10.0 4.15 -7.05 7.1 -4.1 10.05 0.05 10.05 4.15 10.05 7.1 7.1 10.05 4.15 10.05 0.05 10.05 -4.1 7.1 -7.05 4.15 -10.0 0.05 -9.95 -4.1 -10.0 -7.05 -7.05 -10.0 -4.1 -9.95 0.05" fill="#999999" fill-opacity="0.49803922" fill-rule="evenodd" stroke="none">
      <animate attributeName="fill" dur="2.0s" repeatCount="indefinite" values="#999999;#99999a"/>
      <animate attributeName="fill-opacity" dur="2.0s" repeatCount="indefinite" values="0.49803922;0.050980393"/>
      <animate attributeName="d" dur="2.0s" repeatCount="indefinite" values="M-9.95 0.05 Q-10.0 4.15 -7.05 7.1 -4.1 10.05 0.05 10.05 4.15 10.05 7.1 7.1 10.05 4.15 10.05 0.05 10.05 -4.1 7.1 -7.05 4.15 -10.0 0.05 -9.95 -4.1 -10.0 -7.05 -7.05 -10.0 -4.1 -9.95 0.05;M-25.1 17.6 Q-25.15 33.15 -14.15 44.15 -3.15 55.1 12.4 55.1 27.95 55.1 38.95 44.15 49.9 33.15 49.9 17.6 49.9 2.05 38.95 -8.95 27.95 -19.95 12.4 -19.9 -3.15 -19.95 -14.15 -8.95 -25.15 2.05 -25.1 17.6"/>
    </path>
    <path d="M-9.95 0.05 Q-10.0 -4.1 -7.05 -7.05 -4.1 -10.0 0.05 -9.95 4.15 -10.0 7.1 -7.05 10.05 -4.1 10.05 0.05 10.05 4.15 7.1 7.1 4.15 10.05 0.05 10.05 -4.1 10.05 -7.05 7.1 -10.0 4.15 -9.95 0.05 Z" fill="none" stroke="#000000" stroke-linecap="round" stroke-linejoin="round" stroke-opacity="0.0" stroke-width="0.0">
      <animate attributeName="stroke" dur="2.0s" repeatCount="indefinite" values="#000000;#000001"/>
      <animate attributeName="stroke-width" dur="2.0s" repeatCount="indefinite" values="0.0;0.0"/>
      <animate attributeName="fill-opacity" dur="2.0s" repeatCount="indefinite" values="0.0;0.0"/>
      <animate attributeName="d" dur="2.0s" repeatCount="indefinite" values="M-9.95 0.05 Q-10.0 -4.1 -7.05 -7.05 -4.1 -10.0 0.05 -9.95 4.15 -10.0 7.1 -7.05 10.05 -4.1 10.05 0.05 10.05 4.15 7.1 7.1 4.15 10.05 0.05 10.05 -4.1 10.05 -7.05 7.1 -10.0 4.15 -9.95 0.05 Z;M-25.1 17.6 Q-25.15 2.05 -14.15 -8.95 -3.15 -19.95 12.4 -19.9 27.95 -19.95 38.95 -8.95 49.9 2.05 49.9 17.6 49.9 33.15 38.95 44.15 27.95 55.1 12.4 55.1 -3.15 55.1 -14.15 44.15 -25.15 33.15 -25.1 17.6 Z"/>
    </path>
  </g>
</svg>
