<?xml version="1.0" encoding="UTF-8" standalone="no"?>
<svg xmlns:ffdec="https://www.free-decompiler.com/flash" xmlns:xlink="http://www.w3.org/1999/xlink" ffdec:objectType="morphshape" height="66.0px" width="65.95px" xmlns="http://www.w3.org/2000/svg">
  <g transform="matrix(1.0, 0.0, 0.0, 1.0, 48.05, 18.8)">
    <path d="M-9.95 0.05 Q-10.0 4.15 -7.05 7.1 -4.1 10.05 0.05 10.05 4.15 10.05 7.1 7.1 10.05 4.15 10.05 0.05 10.05 -4.1 7.1 -7.05 4.15 -10.0 0.05 -9.95 -4.1 -10.0 -7.05 -7.05 -10.0 -4.1 -9.95 0.05" fill="#999999" fill-opacity="0.49803922" fill-rule="evenodd" stroke="none">
      <animate attributeName="fill" dur="2.0s" repeatCount="indefinite" values="#999999;#99999a"/>
      <animate attributeName="fill-opacity" dur="2.0s" repeatCount="indefinite" values="0.49803922;0.050980393"/>
      <animate attributeName="d" dur="2.0s" repeatCount="indefinite" values="M-9.95 0.05 Q-10.0 4.15 -7.05 7.1 -4.1 10.05 0.05 10.05 4.15 10.05 7.1 7.1 10.05 4.15 10.05 0.05 10.05 -4.1 7.1 -7.05 4.15 -10.0 0.05 -9.95 -4.1 -10.0 -7.05 -7.05 -10.0 -4.1 -9.95 0.05;M-48.05 14.2 Q-48.1 27.9 -38.4 37.55 -28.75 47.2 -15.05 47.2 -1.4 47.2 8.25 37.55 17.9 27.9 17.9 14.2 17.9 0.5 8.25 -9.15 -1.4 -18.8 -15.05 -18.8 -28.75 -18.8 -38.4 -9.15 -48.1 0.5 -48.05 14.2"/>
    </path>
    <path d="M-9.95 0.05 Q-10.0 -4.1 -7.05 -7.05 -4.1 -10.0 0.05 -9.95 4.15 -10.0 7.1 -7.05 10.05 -4.1 10.05 0.05 10.05 4.15 7.1 7.1 4.15 10.05 0.05 10.05 -4.1 10.05 -7.05 7.1 -10.0 4.15 -9.95 0.05 Z" fill="none" stroke="#000000" stroke-linecap="round" stroke-linejoin="round" stroke-opacity="0.0" stroke-width="0.0">
      <animate attributeName="stroke" dur="2.0s" repeatCount="indefinite" values="#000000;#000001"/>
      <animate attributeName="stroke-width" dur="2.0s" repeatCount="indefinite" values="0.0;0.0"/>
      <animate attributeName="fill-opacity" dur="2.0s" repeatCount="indefinite" values="0.0;0.0"/>
      <animate attributeName="d" dur="2.0s" repeatCount="indefinite" values="M-9.95 0.05 Q-10.0 -4.1 -7.05 -7.05 -4.1 -10.0 0.05 -9.95 4.15 -10.0 7.1 -7.05 10.05 -4.1 10.05 0.05 10.05 4.15 7.1 7.1 4.15 10.05 0.05 10.05 -4.1 10.05 -7.05 7.1 -10.0 4.15 -9.95 0.05 Z;M-48.05 14.2 Q-48.1 0.5 -38.4 -9.15 -28.75 -18.8 -15.05 -18.8 -1.4 -18.8 8.25 -9.15 17.9 0.5 17.9 14.2 17.9 27.9 8.25 37.55 -1.4 47.2 -15.05 47.2 -28.75 47.2 -38.4 37.55 -48.1 27.9 -48.05 14.2 Z"/>
    </path>
  </g>
</svg>
