<?xml version="1.0" encoding="UTF-8" standalone="no"?>
<svg xmlns:ffdec="https://www.free-decompiler.com/flash" xmlns:xlink="http://www.w3.org/1999/xlink" ffdec:objectType="morphshape" height="86.0px" width="64.0px" xmlns="http://www.w3.org/2000/svg">
  <g transform="matrix(1.0, 0.0, 0.0, 1.0, 32.0, 54.0)">
    <path d="M-32.0 0.0 Q-32.0 13.25 -22.65 22.6 -13.25 32.0 0.0 32.0 13.25 32.0 22.6 22.6 32.0 13.25 32.0 0.0 32.0 -13.25 22.6 -22.65 13.25 -32.0 0.0 -32.0 -13.25 -32.0 -22.65 -22.65 -32.0 -13.25 -32.0 0.0" fill="#ffff00" fill-rule="evenodd" stroke="none">
      <animate attributeName="fill" dur="2.0s" repeatCount="indefinite" values="#ffff00;#ffff01"/>
      <animate attributeName="fill-opacity" dur="2.0s" repeatCount="indefinite" values="1.0;0.49803922"/>
      <animate attributeName="d" dur="2.0s" repeatCount="indefinite" values="M-32.0 0.0 Q-32.0 13.25 -22.65 22.6 -13.25 32.0 0.0 32.0 13.25 32.0 22.6 22.6 32.0 13.25 32.0 0.0 32.0 -13.25 22.6 -22.65 13.25 -32.0 0.0 -32.0 -13.25 -32.0 -22.65 -22.65 -32.0 -13.25 -32.0 0.0;M-24.0 -30.0 Q-24.0 -20.05 -16.95 -13.05 -9.95 -6.0 0.0 -6.0 9.95 -6.0 16.95 -13.05 24.0 -20.05 24.0 -30.0 24.0 -39.95 16.95 -46.95 9.95 -54.0 0.0 -54.0 -9.95 -54.0 -16.95 -46.95 -24.0 -39.95 -24.0 -30.0"/>
    </path>
    <path d="M-32.0 0.0 Q-32.0 -13.25 -22.65 -22.65 -13.25 -32.0 0.0 -32.0 13.25 -32.0 22.6 -22.65 32.0 -13.25 32.0 0.0 32.0 13.25 22.6 22.6 13.25 32.0 0.0 32.0 -13.25 32.0 -22.65 22.6 -32.0 13.25 -32.0 0.0 Z" fill="none" stroke="#000000" stroke-linecap="round" stroke-linejoin="round" stroke-opacity="0.0" stroke-width="0.0">
      <animate attributeName="stroke" dur="2.0s" repeatCount="indefinite" values="#000000;#000001"/>
      <animate attributeName="stroke-width" dur="2.0s" repeatCount="indefinite" values="0.0;0.0"/>
      <animate attributeName="fill-opacity" dur="2.0s" repeatCount="indefinite" values="0.0;0.0"/>
      <animate attributeName="d" dur="2.0s" repeatCount="indefinite" values="M-32.0 0.0 Q-32.0 -13.25 -22.65 -22.65 -13.25 -32.0 0.0 -32.0 13.25 -32.0 22.6 -22.65 32.0 -13.25 32.0 0.0 32.0 13.25 22.6 22.6 13.25 32.0 0.0 32.0 -13.25 32.0 -22.65 22.6 -32.0 13.25 -32.0 0.0 Z;M-24.0 -30.0 Q-24.0 -39.95 -16.95 -46.95 -9.95 -54.0 0.0 -54.0 9.95 -54.0 16.95 -46.95 24.0 -39.95 24.0 -30.0 24.0 -20.05 16.95 -13.05 9.95 -6.0 0.0 -6.0 -9.95 -6.0 -16.95 -13.05 -24.0 -20.05 -24.0 -30.0 Z"/>
    </path>
  </g>
</svg>
