<?xml version="1.0" encoding="UTF-8" standalone="no"?>
<svg xmlns:ffdec="https://www.free-decompiler.com/flash" xmlns:xlink="http://www.w3.org/1999/xlink" ffdec:objectType="morphshape" height="73.35px" width="69.7px" xmlns="http://www.w3.org/2000/svg">
  <g transform="matrix(1.0, 0.0, 0.0, 1.0, 37.05, 37.2)">
    <path d="M-35.6 -1.65 Q-35.4 12.75 -29.6 21.65 -23.85 30.5 -5.3 31.25 13.25 32.0 22.6 22.6 32.0 13.25 32.6 -0.6 33.2 -14.45 26.65 -26.6 20.05 -38.8 1.3 -36.95 -17.5 -35.15 -26.6 -25.6 -35.8 -16.1 -35.6 -1.65" fill="#ffff00" fill-rule="evenodd" stroke="none">
      <animate attributeName="fill" dur="2.0s" repeatCount="indefinite" values="#ffff00;#ffff01"/>
      <animate attributeName="fill-opacity" dur="2.0s" repeatCount="indefinite" values="1.0;1.0"/>
      <animate attributeName="d" dur="2.0s" repeatCount="indefinite" values="M-35.6 -1.65 Q-35.4 12.75 -29.6 21.65 -23.85 30.5 -5.3 31.25 13.25 32.0 22.6 22.6 32.0 13.25 32.6 -0.6 33.2 -14.45 26.65 -26.6 20.05 -38.8 1.3 -36.95 -17.5 -35.15 -26.6 -25.6 -35.8 -16.1 -35.6 -1.65;M-36.0 0.0 Q-32.0 13.25 -22.65 22.6 -13.25 32.0 0.0 35.35 13.25 38.65 22.65 28.65 32.0 18.6 32.05 2.6 32.05 -13.4 23.65 -26.6 15.2 -39.85 -1.0 -35.9 -17.25 -32.0 -28.6 -22.6 -40.0 -13.25 -36.0 0.0"/>
    </path>
    <path d="M-35.6 -1.65 Q-35.8 -16.1 -26.6 -25.6 -17.5 -35.15 1.3 -36.95 20.05 -38.8 26.65 -26.6 33.2 -14.45 32.6 -0.6 32.0 13.25 22.6 22.6 13.25 32.0 -5.3 31.25 -23.85 30.5 -29.6 21.65 -35.4 12.75 -35.6 -1.65 Z" fill="none" stroke="#000000" stroke-linecap="round" stroke-linejoin="round" stroke-opacity="0.0" stroke-width="0.0">
      <animate attributeName="stroke" dur="2.0s" repeatCount="indefinite" values="#000000;#000001"/>
      <animate attributeName="stroke-width" dur="2.0s" repeatCount="indefinite" values="0.0;0.0"/>
      <animate attributeName="fill-opacity" dur="2.0s" repeatCount="indefinite" values="0.0;0.0"/>
      <animate attributeName="d" dur="2.0s" repeatCount="indefinite" values="M-35.6 -1.65 Q-35.8 -16.1 -26.6 -25.6 -17.5 -35.15 1.3 -36.95 20.05 -38.8 26.65 -26.6 33.2 -14.45 32.6 -0.6 32.0 13.25 22.6 22.6 13.25 32.0 -5.3 31.25 -23.85 30.5 -29.6 21.65 -35.4 12.75 -35.6 -1.65 Z;M-36.0 0.0 Q-40.0 -13.25 -28.6 -22.6 -17.25 -32.0 -1.0 -35.9 15.2 -39.85 23.65 -26.6 32.05 -13.4 32.05 2.6 32.0 18.6 22.65 28.65 13.25 38.65 0.0 35.35 -13.25 32.0 -22.65 22.6 -32.0 13.25 -36.0 0.0 Z"/>
    </path>
  </g>
</svg>
