<?xml version="1.0" encoding="UTF-8" standalone="no"?>
<svg xmlns:ffdec="https://www.free-decompiler.com/flash" xmlns:xlink="http://www.w3.org/1999/xlink" ffdec:objectType="morphshape" height="87.6px" width="57.6px" xmlns="http://www.w3.org/2000/svg">
  <g transform="matrix(1.0, 0.0, 0.0, 1.0, 27.2, 60.4)">
    <path d="M-27.2 0.0 Q-27.2 11.25 -19.25 19.2 -11.25 27.2 0.0 27.2 11.25 27.2 19.2 19.2 27.2 11.25 27.2 0.0 27.2 -11.25 19.2 -19.25 11.25 -27.2 0.0 -27.2 -11.25 -27.2 -19.25 -19.25 -27.2 -11.25 -27.2 0.0" fill="#ffff00" fill-rule="evenodd" stroke="none">
      <animate attributeName="fill" dur="2.0s" repeatCount="indefinite" values="#ffff00;#ffff01"/>
      <animate attributeName="fill-opacity" dur="2.0s" repeatCount="indefinite" values="1.0;0.49803922"/>
      <animate attributeName="d" dur="2.0s" repeatCount="indefinite" values="M-27.2 0.0 Q-27.2 11.25 -19.25 19.2 -11.25 27.2 0.0 27.2 11.25 27.2 19.2 19.2 27.2 11.25 27.2 0.0 27.2 -11.25 19.2 -19.25 11.25 -27.2 0.0 -27.2 -11.25 -27.2 -19.25 -19.25 -27.2 -11.25 -27.2 0.0;M-10.4 -40.0 Q-10.4 -31.55 -4.45 -25.6 1.55 -19.6 10.0 -19.6 18.45 -19.6 24.4 -25.6 30.4 -31.55 30.4 -40.0 30.4 -48.45 24.4 -54.45 18.45 -60.4 10.0 -60.4 1.55 -60.4 -4.45 -54.45 -10.4 -48.45 -10.4 -40.0"/>
    </path>
    <path d="M-27.2 0.0 Q-27.2 -11.25 -19.25 -19.25 -11.25 -27.2 0.0 -27.2 11.25 -27.2 19.2 -19.25 27.2 -11.25 27.2 0.0 27.2 11.25 19.2 19.2 11.25 27.2 0.0 27.2 -11.25 27.2 -19.25 19.2 -27.2 11.25 -27.2 0.0 Z" fill="none" stroke="#000000" stroke-linecap="round" stroke-linejoin="round" stroke-opacity="0.0" stroke-width="0.0">
      <animate attributeName="stroke" dur="2.0s" repeatCount="indefinite" values="#000000;#000001"/>
      <animate attributeName="stroke-width" dur="2.0s" repeatCount="indefinite" values="0.0;0.0"/>
      <animate attributeName="fill-opacity" dur="2.0s" repeatCount="indefinite" values="0.0;0.0"/>
      <animate attributeName="d" dur="2.0s" repeatCount="indefinite" values="M-27.2 0.0 Q-27.2 -11.25 -19.25 -19.25 -11.25 -27.2 0.0 -27.2 11.25 -27.2 19.2 -19.25 27.2 -11.25 27.2 0.0 27.2 11.25 19.2 19.2 11.25 27.2 0.0 27.2 -11.25 27.2 -19.25 19.2 -27.2 11.25 -27.2 0.0 Z;M-10.4 -40.0 Q-10.4 -48.45 -4.45 -54.45 1.55 -60.4 10.0 -60.4 18.45 -60.4 24.4 -54.45 30.4 -48.45 30.4 -40.0 30.4 -31.55 24.4 -25.6 18.45 -19.6 10.0 -19.6 1.55 -19.6 -4.45 -25.6 -10.4 -31.55 -10.4 -40.0 Z"/>
    </path>
  </g>
</svg>
