<?xml version="1.0" encoding="UTF-8" standalone="no"?>
<svg xmlns:ffdec="https://www.free-decompiler.com/flash" xmlns:xlink="http://www.w3.org/1999/xlink" ffdec:objectType="morphshape" height="86.0px" width="54.4px" xmlns="http://www.w3.org/2000/svg">
  <g transform="matrix(1.0, 0.0, 0.0, 1.0, 27.2, 58.8)">
    <path d="M-27.2 0.0 Q-27.2 11.25 -19.25 19.2 -11.25 27.2 0.0 27.2 11.25 27.2 19.2 19.2 27.2 11.25 27.2 0.0 27.2 -11.25 19.2 -19.25 11.25 -27.2 0.0 -27.2 -11.25 -27.2 -19.25 -19.25 -27.2 -11.25 -27.2 0.0" fill="#ffff00" fill-rule="evenodd" stroke="none">
      <animate attributeName="fill" dur="2.0s" repeatCount="indefinite" values="#ffff00;#ffff01"/>
      <animate attributeName="fill-opacity" dur="2.0s" repeatCount="indefinite" values="1.0;0.49803922"/>
      <animate attributeName="d" dur="2.0s" repeatCount="indefinite" values="M-27.2 0.0 Q-27.2 11.25 -19.25 19.2 -11.25 27.2 0.0 27.2 11.25 27.2 19.2 19.2 27.2 11.25 27.2 0.0 27.2 -11.25 19.2 -19.25 11.25 -27.2 0.0 -27.2 -11.25 -27.2 -19.25 -19.25 -27.2 -11.25 -27.2 0.0;M-18.4 -38.4 Q-18.4 -29.95 -12.45 -24.0 -6.45 -18.0 2.0 -18.0 10.45 -18.0 16.4 -24.0 22.4 -29.95 22.4 -38.4 22.4 -46.85 16.4 -52.85 10.45 -58.8 2.0 -58.8 -6.45 -58.8 -12.45 -52.85 -18.4 -46.85 -18.4 -38.4"/>
    </path>
    <path d="M-27.2 0.0 Q-27.2 -11.25 -19.25 -19.25 -11.25 -27.2 0.0 -27.2 11.25 -27.2 19.2 -19.25 27.2 -11.25 27.2 0.0 27.2 11.25 19.2 19.2 11.25 27.2 0.0 27.2 -11.25 27.2 -19.25 19.2 -27.2 11.25 -27.2 0.0 Z" fill="none" stroke="#000000" stroke-linecap="round" stroke-linejoin="round" stroke-opacity="0.0" stroke-width="0.0">
      <animate attributeName="stroke" dur="2.0s" repeatCount="indefinite" values="#000000;#000001"/>
      <animate attributeName="stroke-width" dur="2.0s" repeatCount="indefinite" values="0.0;0.0"/>
      <animate attributeName="fill-opacity" dur="2.0s" repeatCount="indefinite" values="0.0;0.0"/>
      <animate attributeName="d" dur="2.0s" repeatCount="indefinite" values="M-27.2 0.0 Q-27.2 -11.25 -19.25 -19.25 -11.25 -27.2 0.0 -27.2 11.25 -27.2 19.2 -19.25 27.2 -11.25 27.2 0.0 27.2 11.25 19.2 19.2 11.25 27.2 0.0 27.2 -11.25 27.2 -19.25 19.2 -27.2 11.25 -27.2 0.0 Z;M-18.4 -38.4 Q-18.4 -46.85 -12.45 -52.85 -6.45 -58.8 2.0 -58.8 10.45 -58.8 16.4 -52.85 22.4 -46.85 22.4 -38.4 22.4 -29.95 16.4 -24.0 10.45 -18.0 2.0 -18.0 -6.45 -18.0 -12.45 -24.0 -18.4 -29.95 -18.4 -38.4 Z"/>
    </path>
  </g>
</svg>
