<?xml version="1.0" encoding="UTF-8" standalone="no"?>
<svg xmlns:ffdec="https://www.free-decompiler.com/flash" xmlns:xlink="http://www.w3.org/1999/xlink" ffdec:objectType="morphshape" height="66.35px" width="66.35px" xmlns="http://www.w3.org/2000/svg">
  <g transform="matrix(1.0, 0.0, 0.0, 1.0, 34.7, 37.55)">
    <path d="M-13.45 -3.45 Q-13.5 0.65 -10.55 3.6 -7.6 6.55 -3.45 6.55 0.65 6.55 3.6 3.6 6.55 0.65 6.55 -3.45 6.55 -7.6 3.6 -10.55 0.65 -13.5 -3.45 -13.45 -7.6 -13.5 -10.55 -10.55 -13.5 -7.6 -13.45 -3.45" fill="#999999" fill-opacity="0.3019608" fill-rule="evenodd" stroke="none">
      <animate attributeName="fill" dur="2.0s" repeatCount="indefinite" values="#999999;#99999a"/>
      <animate attributeName="fill-opacity" dur="2.0s" repeatCount="indefinite" values="0.3019608;0.8"/>
      <animate attributeName="d" dur="2.0s" repeatCount="indefinite" values="M-13.45 -3.45 Q-13.5 0.65 -10.55 3.6 -7.6 6.55 -3.45 6.55 0.65 6.55 3.6 3.6 6.55 0.65 6.55 -3.45 6.55 -7.6 3.6 -10.55 0.65 -13.5 -3.45 -13.45 -7.6 -13.5 -10.55 -10.55 -13.5 -7.6 -13.45 -3.45;M-34.7 -4.4 Q-34.7 9.35 -25.0 19.1 -15.25 28.8 -1.55 28.8 12.2 28.8 21.9 19.1 31.65 9.35 31.65 -4.4 31.65 -18.15 21.9 -27.85 12.2 -37.55 -1.55 -37.55 -15.25 -37.55 -25.0 -27.85 -34.7 -18.15 -34.7 -4.4"/>
    </path>
    <path d="M-13.45 -3.45 Q-13.5 -7.6 -10.55 -10.55 -7.6 -13.5 -3.45 -13.45 0.65 -13.5 3.6 -10.55 6.55 -7.6 6.55 -3.45 6.55 0.65 3.6 3.6 0.65 6.55 -3.45 6.55 -7.6 6.55 -10.55 3.6 -13.5 0.65 -13.45 -3.45 Z" fill="none" stroke="#000000" stroke-linecap="round" stroke-linejoin="round" stroke-opacity="0.0" stroke-width="0.0">
      <animate attributeName="stroke" dur="2.0s" repeatCount="indefinite" values="#000000;#000001"/>
      <animate attributeName="stroke-width" dur="2.0s" repeatCount="indefinite" values="0.0;0.0"/>
      <animate attributeName="fill-opacity" dur="2.0s" repeatCount="indefinite" values="0.0;0.0"/>
      <animate attributeName="d" dur="2.0s" repeatCount="indefinite" values="M-13.45 -3.45 Q-13.5 -7.6 -10.55 -10.55 -7.6 -13.5 -3.45 -13.45 0.65 -13.5 3.6 -10.55 6.55 -7.6 6.55 -3.45 6.55 0.65 3.6 3.6 0.65 6.55 -3.45 6.55 -7.6 6.55 -10.55 3.6 -13.5 0.65 -13.45 -3.45 Z;M-34.7 -4.4 Q-34.7 -18.15 -25.0 -27.85 -15.25 -37.55 -1.55 -37.55 12.2 -37.55 21.9 -27.85 31.65 -18.15 31.65 -4.4 31.65 9.35 21.9 19.1 12.2 28.8 -1.55 28.8 -15.25 28.8 -25.0 19.1 -34.7 9.35 -34.7 -4.4 Z"/>
    </path>
  </g>
</svg>
