<?xml version="1.0" encoding="UTF-8" standalone="no"?>
<svg xmlns:ffdec="https://www.free-decompiler.com/flash" xmlns:xlink="http://www.w3.org/1999/xlink" ffdec:objectType="morphshape" height="62.65px" width="62.65px" xmlns="http://www.w3.org/2000/svg">
  <g transform="matrix(1.0, 0.0, 0.0, 1.0, 20.15, 37.55)">
    <path d="M-9.95 -6.95 Q-10.0 -2.85 -7.05 0.1 -4.1 3.05 0.05 3.05 4.15 3.05 7.1 0.1 10.05 -2.85 10.05 -6.95 10.05 -11.1 7.1 -14.05 4.15 -17.0 0.05 -16.95 -4.1 -17.0 -7.05 -14.05 -10.0 -11.1 -9.95 -6.95" fill="#999999" fill-opacity="0.3019608" fill-rule="evenodd" stroke="none">
      <animate attributeName="fill" dur="2.0s" repeatCount="indefinite" values="#999999;#99999a"/>
      <animate attributeName="fill-opacity" dur="2.0s" repeatCount="indefinite" values="0.3019608;0.8"/>
      <animate attributeName="d" dur="2.0s" repeatCount="indefinite" values="M-9.95 -6.95 Q-10.0 -2.85 -7.05 0.1 -4.1 3.05 0.05 3.05 4.15 3.05 7.1 0.1 10.05 -2.85 10.05 -6.95 10.05 -11.1 7.1 -14.05 4.15 -17.0 0.05 -16.95 -4.1 -17.0 -7.05 -14.05 -10.0 -11.1 -9.95 -6.95;M-20.15 -6.25 Q-20.15 6.75 -11.0 15.9 -1.8 25.05 11.2 25.1 24.15 25.05 33.35 15.9 42.5 6.75 42.5 -6.25 42.5 -19.25 33.35 -28.4 24.15 -37.6 11.2 -37.55 -1.8 -37.6 -11.0 -28.4 -20.15 -19.25 -20.15 -6.25"/>
    </path>
    <path d="M-9.95 -6.95 Q-10.0 -11.1 -7.05 -14.05 -4.1 -17.0 0.05 -16.95 4.15 -17.0 7.1 -14.05 10.05 -11.1 10.05 -6.95 10.05 -2.85 7.1 0.1 4.15 3.05 0.05 3.05 -4.1 3.05 -7.05 0.1 -10.0 -2.85 -9.95 -6.95 Z" fill="none" stroke="#000000" stroke-linecap="round" stroke-linejoin="round" stroke-opacity="0.0" stroke-width="0.0">
      <animate attributeName="stroke" dur="2.0s" repeatCount="indefinite" values="#000000;#000001"/>
      <animate attributeName="stroke-width" dur="2.0s" repeatCount="indefinite" values="0.0;0.0"/>
      <animate attributeName="fill-opacity" dur="2.0s" repeatCount="indefinite" values="0.0;0.0"/>
      <animate attributeName="d" dur="2.0s" repeatCount="indefinite" values="M-9.95 -6.95 Q-10.0 -11.1 -7.05 -14.05 -4.1 -17.0 0.05 -16.95 4.15 -17.0 7.1 -14.05 10.05 -11.1 10.05 -6.95 10.05 -2.85 7.1 0.1 4.15 3.05 0.05 3.05 -4.1 3.05 -7.05 0.1 -10.0 -2.85 -9.95 -6.95 Z;M-20.15 -6.25 Q-20.15 -19.25 -11.0 -28.4 -1.8 -37.6 11.2 -37.55 24.15 -37.6 33.35 -28.4 42.5 -19.25 42.5 -6.25 42.5 6.75 33.35 15.9 24.15 25.05 11.2 25.1 -1.8 25.05 -11.0 15.9 -20.15 6.75 -20.15 -6.25 Z"/>
    </path>
  </g>
</svg>
