<?xml version="1.0" encoding="UTF-8" standalone="no"?>
<svg xmlns:ffdec="https://www.free-decompiler.com/flash" xmlns:xlink="http://www.w3.org/1999/xlink" ffdec:objectType="morphshape" height="58.45px" width="53.55px" xmlns="http://www.w3.org/2000/svg">
  <g transform="matrix(1.0, 0.0, 0.0, 1.0, 30.8, 55.4)">
    <path d="M-9.95 -6.95 Q-10.0 -2.85 -7.05 0.1 -4.1 3.05 0.05 3.05 4.15 3.05 7.1 0.1 10.05 -2.85 10.05 -6.95 10.05 -11.1 7.1 -14.05 4.15 -17.0 0.05 -16.95 -4.1 -17.0 -7.05 -14.05 -10.0 -11.1 -9.95 -6.95" fill="#999999" fill-opacity="0.3019608" fill-rule="evenodd" stroke="none">
      <animate attributeName="fill" dur="2.0s" repeatCount="indefinite" values="#999999;#99999a"/>
      <animate attributeName="fill-opacity" dur="2.0s" repeatCount="indefinite" values="0.3019608;0.8"/>
      <animate attributeName="d" dur="2.0s" repeatCount="indefinite" values="M-9.95 -6.95 Q-10.0 -2.85 -7.05 0.1 -4.1 3.05 0.05 3.05 4.15 3.05 7.1 0.1 10.05 -2.85 10.05 -6.95 10.05 -11.1 7.1 -14.05 4.15 -17.0 0.05 -16.95 -4.1 -17.0 -7.05 -14.05 -10.0 -11.1 -9.95 -6.95;M-30.8 -28.65 Q-30.85 -17.6 -23.0 -9.75 -15.1 -1.9 -4.0 -1.9 7.05 -1.9 14.9 -9.75 22.75 -17.6 22.75 -28.65 22.75 -39.75 14.9 -47.6 7.05 -55.45 -4.0 -55.4 -15.1 -55.45 -23.0 -47.6 -30.85 -39.75 -30.8 -28.65"/>
    </path>
    <path d="M-9.95 -6.95 Q-10.0 -11.1 -7.05 -14.05 -4.1 -17.0 0.05 -16.95 4.15 -17.0 7.1 -14.05 10.05 -11.1 10.05 -6.95 10.05 -2.85 7.1 0.1 4.15 3.05 0.05 3.05 -4.1 3.05 -7.05 0.1 -10.0 -2.85 -9.95 -6.95 Z" fill="none" stroke="#000000" stroke-linecap="round" stroke-linejoin="round" stroke-opacity="0.0" stroke-width="0.0">
      <animate attributeName="stroke" dur="2.0s" repeatCount="indefinite" values="#000000;#000001"/>
      <animate attributeName="stroke-width" dur="2.0s" repeatCount="indefinite" values="0.0;0.0"/>
      <animate attributeName="fill-opacity" dur="2.0s" repeatCount="indefinite" values="0.0;0.0"/>
      <animate attributeName="d" dur="2.0s" repeatCount="indefinite" values="M-9.95 -6.95 Q-10.0 -11.1 -7.05 -14.05 -4.1 -17.0 0.05 -16.95 4.15 -17.0 7.1 -14.05 10.05 -11.1 10.05 -6.95 10.05 -2.85 7.1 0.1 4.15 3.05 0.05 3.05 -4.1 3.05 -7.05 0.1 -10.0 -2.85 -9.95 -6.95 Z;M-30.8 -28.65 Q-30.85 -39.75 -23.0 -47.6 -15.1 -55.45 -4.0 -55.4 7.05 -55.45 14.9 -47.6 22.75 -39.75 22.75 -28.65 22.75 -17.6 14.9 -9.75 7.05 -1.9 -4.0 -1.9 -15.1 -1.9 -23.0 -9.75 -30.85 -17.6 -30.8 -28.65 Z"/>
    </path>
  </g>
</svg>
