<?xml version="1.0" encoding="UTF-8" standalone="no"?>
<svg xmlns:ffdec="https://www.free-decompiler.com/flash" xmlns:xlink="http://www.w3.org/1999/xlink" ffdec:objectType="morphshape" height="48.05px" width="58.7px" xmlns="http://www.w3.org/2000/svg">
  <g transform="matrix(1.0, 0.0, 0.0, 1.0, 44.1, 28.7)">
    <path d="M-5.4 -1.0 Q-5.45 3.1 -2.5 6.05 0.45 9.0 4.6 9.0 8.7 9.0 11.65 6.05 14.6 3.1 14.6 -1.0 14.6 -5.15 11.65 -8.1 8.7 -11.05 4.6 -11.0 0.45 -11.05 -2.5 -8.1 -5.45 -5.15 -5.4 -1.0" fill="#999999" fill-opacity="0.3019608" fill-rule="evenodd" stroke="none">
      <animate attributeName="fill" dur="2.0s" repeatCount="indefinite" values="#999999;#99999a"/>
      <animate attributeName="fill-opacity" dur="2.0s" repeatCount="indefinite" values="0.3019608;0.8"/>
      <animate attributeName="d" dur="2.0s" repeatCount="indefinite" values="M-5.4 -1.0 Q-5.45 3.1 -2.5 6.05 0.45 9.0 4.6 9.0 8.7 9.0 11.65 6.05 14.6 3.1 14.6 -1.0 14.6 -5.15 11.65 -8.1 8.7 -11.05 4.6 -11.0 0.45 -11.05 -2.5 -8.1 -5.45 -5.15 -5.4 -1.0;M-44.1 -4.7 Q-44.15 5.25 -37.1 12.3 -30.05 19.35 -20.1 19.35 -10.2 19.35 -3.15 12.3 3.9 5.25 3.9 -4.7 3.9 -14.65 -3.15 -21.7 -10.2 -28.7 -20.1 -28.7 -30.05 -28.7 -37.1 -21.7 -44.15 -14.65 -44.1 -4.7"/>
    </path>
    <path d="M-5.4 -1.0 Q-5.45 -5.15 -2.5 -8.1 0.45 -11.05 4.6 -11.0 8.7 -11.05 11.65 -8.1 14.6 -5.15 14.6 -1.0 14.6 3.1 11.65 6.05 8.7 9.0 4.6 9.0 0.45 9.0 -2.5 6.05 -5.45 3.1 -5.4 -1.0 Z" fill="none" stroke="#000000" stroke-linecap="round" stroke-linejoin="round" stroke-opacity="0.0" stroke-width="0.0">
      <animate attributeName="stroke" dur="2.0s" repeatCount="indefinite" values="#000000;#000001"/>
      <animate attributeName="stroke-width" dur="2.0s" repeatCount="indefinite" values="0.0;0.0"/>
      <animate attributeName="fill-opacity" dur="2.0s" repeatCount="indefinite" values="0.0;0.0"/>
      <animate attributeName="d" dur="2.0s" repeatCount="indefinite" values="M-5.4 -1.0 Q-5.45 -5.15 -2.5 -8.1 0.45 -11.05 4.6 -11.0 8.7 -11.05 11.65 -8.1 14.6 -5.15 14.6 -1.0 14.6 3.1 11.65 6.05 8.7 9.0 4.6 9.0 0.45 9.0 -2.5 6.05 -5.45 3.1 -5.4 -1.0 Z;M-44.1 -4.7 Q-44.15 -14.65 -37.1 -21.7 -30.05 -28.7 -20.1 -28.7 -10.2 -28.7 -3.15 -21.7 3.9 -14.65 3.9 -4.7 3.9 5.25 -3.15 12.3 -10.2 19.35 -20.1 19.35 -30.05 19.35 -37.1 12.3 -44.15 5.25 -44.1 -4.7 Z"/>
    </path>
  </g>
</svg>
