<?xml version="1.0" encoding="UTF-8" standalone="no"?>
<svg xmlns:ffdec="https://www.free-decompiler.com/flash" xmlns:xlink="http://www.w3.org/1999/xlink" ffdec:objectType="morphshape" height="203.45px" width="66.35px" xmlns="http://www.w3.org/2000/svg">
  <g transform="matrix(1.0, 0.0, 0.0, 1.0, 34.7, 174.65)">
    <path d="M-34.7 -4.4 Q-34.7 9.35 -25.0 19.1 -15.25 28.8 -1.55 28.8 12.2 28.8 21.9 19.1 31.65 9.35 31.65 -4.4 31.65 -18.15 21.9 -27.85 12.2 -37.55 -1.55 -37.55 -15.25 -37.55 -25.0 -27.85 -34.7 -18.15 -34.7 -4.4" fill="#999999" fill-opacity="0.8" fill-rule="evenodd" stroke="none">
      <animate attributeName="fill" dur="2.0s" repeatCount="indefinite" values="#999999;#99999a"/>
      <animate attributeName="fill-opacity" dur="2.0s" repeatCount="indefinite" values="0.8;0.050980393"/>
      <animate attributeName="d" dur="2.0s" repeatCount="indefinite" values="M-34.7 -4.4 Q-34.7 9.35 -25.0 19.1 -15.25 28.8 -1.55 28.8 12.2 28.8 21.9 19.1 31.65 9.35 31.65 -4.4 31.65 -18.15 21.9 -27.85 12.2 -37.55 -1.55 -37.55 -15.25 -37.55 -25.0 -27.85 -34.7 -18.15 -34.7 -4.4;M-29.9 -145.85 Q-29.95 -133.9 -21.5 -125.45 -13.05 -117.05 -1.1 -117.05 10.8 -117.05 19.25 -125.45 27.7 -133.9 27.7 -145.85 27.7 -157.8 19.25 -166.2 10.8 -174.65 -1.1 -174.65 -13.05 -174.65 -21.5 -166.2 -29.95 -157.8 -29.9 -145.85"/>
    </path>
    <path d="M-34.7 -4.4 Q-34.7 -18.15 -25.0 -27.85 -15.25 -37.55 -1.55 -37.55 12.2 -37.55 21.9 -27.85 31.65 -18.15 31.65 -4.4 31.65 9.35 21.9 19.1 12.2 28.8 -1.55 28.8 -15.25 28.8 -25.0 19.1 -34.7 9.35 -34.7 -4.4 Z" fill="none" stroke="#000000" stroke-linecap="round" stroke-linejoin="round" stroke-opacity="0.0" stroke-width="0.0">
      <animate attributeName="stroke" dur="2.0s" repeatCount="indefinite" values="#000000;#000001"/>
      <animate attributeName="stroke-width" dur="2.0s" repeatCount="indefinite" values="0.0;0.0"/>
      <animate attributeName="fill-opacity" dur="2.0s" repeatCount="indefinite" values="0.0;0.0"/>
      <animate attributeName="d" dur="2.0s" repeatCount="indefinite" values="M-34.7 -4.4 Q-34.7 -18.15 -25.0 -27.85 -15.25 -37.55 -1.55 -37.55 12.2 -37.55 21.9 -27.85 31.65 -18.15 31.65 -4.4 31.65 9.35 21.9 19.1 12.2 28.8 -1.55 28.8 -15.25 28.8 -25.0 19.1 -34.7 9.35 -34.7 -4.4 Z;M-29.9 -145.85 Q-29.95 -157.8 -21.5 -166.2 -13.05 -174.65 -1.1 -174.65 10.8 -174.65 19.25 -166.2 27.7 -157.8 27.7 -145.85 27.7 -133.9 19.25 -125.45 10.8 -117.05 -1.1 -117.05 -13.05 -117.05 -21.5 -125.45 -29.95 -133.9 -29.9 -145.85 Z"/>
    </path>
  </g>
</svg>
