<?xml version="1.0" encoding="UTF-8" standalone="no"?>
<svg xmlns:ffdec="https://www.free-decompiler.com/flash" xmlns:xlink="http://www.w3.org/1999/xlink" ffdec:objectType="morphshape" height="147.7px" width="62.65px" xmlns="http://www.w3.org/2000/svg">
  <g transform="matrix(1.0, 0.0, 0.0, 1.0, 20.15, 122.6)">
    <path d="M-20.15 -6.25 Q-20.15 6.75 -11.0 15.9 -1.8 25.05 11.2 25.1 24.15 25.05 33.35 15.9 42.5 6.75 42.5 -6.25 42.5 -19.25 33.35 -28.4 24.15 -37.6 11.2 -37.55 -1.8 -37.6 -11.0 -28.4 -20.15 -19.25 -20.15 -6.25" fill="#999999" fill-opacity="0.8" fill-rule="evenodd" stroke="none">
      <animate attributeName="fill" dur="2.0s" repeatCount="indefinite" values="#999999;#99999a"/>
      <animate attributeName="fill-opacity" dur="2.0s" repeatCount="indefinite" values="0.8;0.050980393"/>
      <animate attributeName="d" dur="2.0s" repeatCount="indefinite" values="M-20.15 -6.25 Q-20.15 6.75 -11.0 15.9 -1.8 25.05 11.2 25.1 24.15 25.05 33.35 15.9 42.5 6.75 42.5 -6.25 42.5 -19.25 33.35 -28.4 24.15 -37.6 11.2 -37.55 -1.8 -37.6 -11.0 -28.4 -20.15 -19.25 -20.15 -6.25;M-3.9 -104.6 Q-3.95 -97.15 1.35 -91.85 6.6 -86.6 14.1 -86.6 21.55 -86.6 26.8 -91.85 32.05 -97.15 32.1 -104.6 32.05 -112.05 26.8 -117.35 21.55 -122.6 14.1 -122.6 6.6 -122.6 1.35 -117.35 -3.95 -112.05 -3.9 -104.6"/>
    </path>
    <path d="M-20.15 -6.25 Q-20.15 -19.25 -11.0 -28.4 -1.8 -37.6 11.2 -37.55 24.15 -37.6 33.35 -28.4 42.5 -19.25 42.5 -6.25 42.5 6.75 33.35 15.9 24.15 25.05 11.2 25.1 -1.8 25.05 -11.0 15.9 -20.15 6.75 -20.15 -6.25 Z" fill="none" stroke="#000000" stroke-linecap="round" stroke-linejoin="round" stroke-opacity="0.0" stroke-width="0.0">
      <animate attributeName="stroke" dur="2.0s" repeatCount="indefinite" values="#000000;#000001"/>
      <animate attributeName="stroke-width" dur="2.0s" repeatCount="indefinite" values="0.0;0.0"/>
      <animate attributeName="fill-opacity" dur="2.0s" repeatCount="indefinite" values="0.0;0.0"/>
      <animate attributeName="d" dur="2.0s" repeatCount="indefinite" values="M-20.15 -6.25 Q-20.15 -19.25 -11.0 -28.4 -1.8 -37.6 11.2 -37.55 24.15 -37.6 33.35 -28.4 42.5 -19.25 42.5 -6.25 42.5 6.75 33.35 15.9 24.15 25.05 11.2 25.1 -1.8 25.05 -11.0 15.9 -20.15 6.75 -20.15 -6.25 Z;M-3.9 -104.6 Q-3.95 -112.05 1.35 -117.35 6.6 -122.6 14.1 -122.6 21.55 -122.6 26.8 -117.35 32.05 -112.05 32.1 -104.6 32.05 -97.15 26.8 -91.85 21.55 -86.6 14.1 -86.6 6.6 -86.6 1.35 -91.85 -3.95 -97.15 -3.9 -104.6 Z"/>
    </path>
  </g>
</svg>
