<?xml version="1.0" encoding="UTF-8" standalone="no"?>
<svg xmlns:ffdec="https://www.free-decompiler.com/flash" xmlns:xlink="http://www.w3.org/1999/xlink" ffdec:objectType="morphshape" height="181.35px" width="55.7px" xmlns="http://www.w3.org/2000/svg">
  <g transform="matrix(1.0, 0.0, 0.0, 1.0, 30.8, 183.25)">
    <path d="M-30.8 -28.65 Q-30.85 -17.6 -23.0 -9.75 -15.1 -1.9 -4.0 -1.9 7.05 -1.9 14.9 -9.75 22.75 -17.6 22.75 -28.65 22.75 -39.75 14.9 -47.6 7.05 -55.45 -4.0 -55.4 -15.1 -55.45 -23.0 -47.6 -30.85 -39.75 -30.8 -28.65" fill="#999999" fill-opacity="0.8" fill-rule="evenodd" stroke="none">
      <animate attributeName="fill" dur="2.0s" repeatCount="indefinite" values="#999999;#99999a"/>
      <animate attributeName="fill-opacity" dur="2.0s" repeatCount="indefinite" values="0.8;0.050980393"/>
      <animate attributeName="d" dur="2.0s" repeatCount="indefinite" values="M-30.8 -28.65 Q-30.85 -17.6 -23.0 -9.75 -15.1 -1.9 -4.0 -1.9 7.05 -1.9 14.9 -9.75 22.75 -17.6 22.75 -28.65 22.75 -39.75 14.9 -47.6 7.05 -55.45 -4.0 -55.4 -15.1 -55.45 -23.0 -47.6 -30.85 -39.75 -30.8 -28.65;M-20.1 -160.75 Q-20.15 -151.45 -13.55 -144.8 -6.95 -138.25 2.4 -138.25 11.7 -138.25 18.3 -144.8 24.9 -151.45 24.9 -160.75 24.9 -170.1 18.3 -176.65 11.7 -183.25 2.4 -183.25 -6.95 -183.25 -13.55 -176.65 -20.15 -170.1 -20.1 -160.75"/>
    </path>
    <path d="M-30.8 -28.65 Q-30.85 -39.75 -23.0 -47.6 -15.1 -55.45 -4.0 -55.4 7.05 -55.45 14.9 -47.6 22.75 -39.75 22.75 -28.65 22.75 -17.6 14.9 -9.75 7.05 -1.9 -4.0 -1.9 -15.1 -1.9 -23.0 -9.75 -30.85 -17.6 -30.8 -28.65 Z" fill="none" stroke="#000000" stroke-linecap="round" stroke-linejoin="round" stroke-opacity="0.0" stroke-width="0.0">
      <animate attributeName="stroke" dur="2.0s" repeatCount="indefinite" values="#000000;#000001"/>
      <animate attributeName="stroke-width" dur="2.0s" repeatCount="indefinite" values="0.0;0.0"/>
      <animate attributeName="fill-opacity" dur="2.0s" repeatCount="indefinite" values="0.0;0.0"/>
      <animate attributeName="d" dur="2.0s" repeatCount="indefinite" values="M-30.8 -28.65 Q-30.85 -39.75 -23.0 -47.6 -15.1 -55.45 -4.0 -55.4 7.05 -55.45 14.9 -47.6 22.75 -39.75 22.75 -28.65 22.75 -17.6 14.9 -9.75 7.05 -1.9 -4.0 -1.9 -15.1 -1.9 -23.0 -9.75 -30.85 -17.6 -30.8 -28.65 Z;M-20.1 -160.75 Q-20.15 -170.1 -13.55 -176.65 -6.95 -183.25 2.4 -183.25 11.7 -183.25 18.3 -176.65 24.9 -170.1 24.9 -160.75 24.9 -151.45 18.3 -144.8 11.7 -138.25 2.4 -138.25 -6.95 -138.25 -13.55 -144.8 -20.15 -151.45 -20.1 -160.75 Z"/>
    </path>
  </g>
</svg>
