<?xml version="1.0" encoding="UTF-8" standalone="no"?>
<svg xmlns:ffdec="https://www.free-decompiler.com/flash" xmlns:xlink="http://www.w3.org/1999/xlink" ffdec:objectType="morphshape" height="147.3px" width="64.8px" xmlns="http://www.w3.org/2000/svg">
  <g transform="matrix(1.0, 0.0, 0.0, 1.0, 44.1, 127.95)">
    <path d="M-44.1 -4.7 Q-44.15 5.25 -37.1 12.3 -30.05 19.35 -20.1 19.35 -10.2 19.35 -3.15 12.3 3.9 5.25 3.9 -4.7 3.9 -14.65 -3.15 -21.7 -10.2 -28.7 -20.1 -28.7 -30.05 -28.7 -37.1 -21.7 -44.15 -14.65 -44.1 -4.7" fill="#999999" fill-opacity="0.8" fill-rule="evenodd" stroke="none">
      <animate attributeName="fill" dur="2.0s" repeatCount="indefinite" values="#999999;#99999a"/>
      <animate attributeName="fill-opacity" dur="2.0s" repeatCount="indefinite" values="0.8;0.050980393"/>
      <animate attributeName="d" dur="2.0s" repeatCount="indefinite" values="M-44.1 -4.7 Q-44.15 5.25 -37.1 12.3 -30.05 19.35 -20.1 19.35 -10.2 19.35 -3.15 12.3 3.9 5.25 3.9 -4.7 3.9 -14.65 -3.15 -21.7 -10.2 -28.7 -20.1 -28.7 -30.05 -28.7 -37.1 -21.7 -44.15 -14.65 -44.1 -4.7;M-18.9 -108.15 Q-18.9 -99.95 -13.1 -94.1 -7.3 -88.35 0.9 -88.35 9.1 -88.35 14.9 -94.1 20.7 -99.95 20.7 -108.15 20.7 -116.35 14.9 -122.15 9.1 -127.95 0.9 -127.95 -7.3 -127.95 -13.1 -122.15 -18.9 -116.35 -18.9 -108.15"/>
    </path>
    <path d="M-44.1 -4.7 Q-44.15 -14.65 -37.1 -21.7 -30.05 -28.7 -20.1 -28.7 -10.2 -28.7 -3.15 -21.7 3.9 -14.65 3.9 -4.7 3.9 5.25 -3.15 12.3 -10.2 19.35 -20.1 19.35 -30.05 19.35 -37.1 12.3 -44.15 5.25 -44.1 -4.7 Z" fill="none" stroke="#000000" stroke-linecap="round" stroke-linejoin="round" stroke-opacity="0.0" stroke-width="0.0">
      <animate attributeName="stroke" dur="2.0s" repeatCount="indefinite" values="#000000;#000001"/>
      <animate attributeName="stroke-width" dur="2.0s" repeatCount="indefinite" values="0.0;0.0"/>
      <animate attributeName="fill-opacity" dur="2.0s" repeatCount="indefinite" values="0.0;0.0"/>
      <animate attributeName="d" dur="2.0s" repeatCount="indefinite" values="M-44.1 -4.7 Q-44.15 -14.65 -37.1 -21.7 -30.05 -28.7 -20.1 -28.7 -10.2 -28.7 -3.15 -21.7 3.9 -14.65 3.9 -4.7 3.9 5.25 -3.15 12.3 -10.2 19.35 -20.1 19.35 -30.05 19.35 -37.1 12.3 -44.15 5.25 -44.1 -4.7 Z;M-18.9 -108.15 Q-18.9 -116.35 -13.1 -122.15 -7.3 -127.95 0.9 -127.95 9.1 -127.95 14.9 -122.15 20.7 -116.35 20.7 -108.15 20.7 -99.95 14.9 -94.1 9.1 -88.35 0.9 -88.35 -7.3 -88.35 -13.1 -94.1 -18.9 -99.95 -18.9 -108.15 Z"/>
    </path>
  </g>
</svg>
