<?xml version="1.0" encoding="UTF-8" standalone="no"?>
<svg xmlns:ffdec="https://www.free-decompiler.com/flash" xmlns:xlink="http://www.w3.org/1999/xlink" ffdec:objectType="morphshape" height="66.35px" width="66.35px" xmlns="http://www.w3.org/2000/svg">
  <g transform="matrix(1.0, 0.0, 0.0, 1.0, 38.7, 55.3)">
    <path d="M-13.45 -3.45 Q-13.5 0.65 -10.55 3.6 -7.6 6.55 -3.45 6.55 0.65 6.55 3.6 3.6 6.55 0.65 6.55 -3.45 6.55 -7.6 3.6 -10.55 0.65 -13.5 -3.45 -13.45 -7.6 -13.5 -10.55 -10.55 -13.5 -7.6 -13.45 -3.45" fill="#999999" fill-opacity="0.3019608" fill-rule="evenodd" stroke="none">
      <animate attributeName="fill" dur="2.0s" repeatCount="indefinite" values="#999999;#99999a"/>
      <animate attributeName="fill-opacity" dur="2.0s" repeatCount="indefinite" values="0.3019608;0.8"/>
      <animate attributeName="d" dur="2.0s" repeatCount="indefinite" values="M-13.45 -3.45 Q-13.5 0.65 -10.55 3.6 -7.6 6.55 -3.45 6.55 0.65 6.55 3.6 3.6 6.55 0.65 6.55 -3.45 6.55 -7.6 3.6 -10.55 0.65 -13.5 -3.45 -13.45 -7.6 -13.5 -10.55 -10.55 -13.5 -7.6 -13.45 -3.45;M-38.7 -22.15 Q-38.7 -8.4 -29.0 1.35 -19.25 11.05 -5.55 11.05 8.2 11.05 17.9 1.35 27.65 -8.4 27.65 -22.15 27.65 -35.9 17.9 -45.6 8.2 -55.3 -5.55 -55.3 -19.25 -55.3 -29.0 -45.6 -38.7 -35.9 -38.7 -22.15"/>
    </path>
    <path d="M-13.45 -3.45 Q-13.5 -7.6 -10.55 -10.55 -7.6 -13.5 -3.45 -13.45 0.65 -13.5 3.6 -10.55 6.55 -7.6 6.55 -3.45 6.55 0.65 3.6 3.6 0.65 6.55 -3.45 6.55 -7.6 6.55 -10.55 3.6 -13.5 0.65 -13.45 -3.45 Z" fill="none" stroke="#000000" stroke-linecap="round" stroke-linejoin="round" stroke-opacity="0.0" stroke-width="0.0">
      <animate attributeName="stroke" dur="2.0s" repeatCount="indefinite" values="#000000;#000001"/>
      <animate attributeName="stroke-width" dur="2.0s" repeatCount="indefinite" values="0.0;0.0"/>
      <animate attributeName="fill-opacity" dur="2.0s" repeatCount="indefinite" values="0.0;0.0"/>
      <animate attributeName="d" dur="2.0s" repeatCount="indefinite" values="M-13.45 -3.45 Q-13.5 -7.6 -10.55 -10.55 -7.6 -13.5 -3.45 -13.45 0.65 -13.5 3.6 -10.55 6.55 -7.6 6.55 -3.45 6.55 0.65 3.6 3.6 0.65 6.55 -3.45 6.55 -7.6 6.55 -10.55 3.6 -13.5 0.65 -13.45 -3.45 Z;M-38.7 -22.15 Q-38.7 -35.9 -29.0 -45.6 -19.25 -55.3 -5.55 -55.3 8.2 -55.3 17.9 -45.6 27.65 -35.9 27.65 -22.15 27.65 -8.4 17.9 1.35 8.2 11.05 -5.55 11.05 -19.25 11.05 -29.0 1.35 -38.7 -8.4 -38.7 -22.15 Z"/>
    </path>
  </g>
</svg>
