<?xml version="1.0" encoding="UTF-8" standalone="no"?>
<svg xmlns:ffdec="https://www.free-decompiler.com/flash" xmlns:xlink="http://www.w3.org/1999/xlink" ffdec:objectType="morphshape" height="62.65px" width="62.65px" xmlns="http://www.w3.org/2000/svg">
  <g transform="matrix(1.0, 0.0, 0.0, 1.0, 22.75, 53.9)">
    <path d="M-9.95 -6.95 Q-10.0 -2.85 -7.05 0.1 -4.1 3.05 0.05 3.05 4.15 3.05 7.1 0.1 10.05 -2.85 10.05 -6.95 10.05 -11.1 7.1 -14.05 4.15 -17.0 0.05 -16.95 -4.1 -17.0 -7.05 -14.05 -10.0 -11.1 -9.95 -6.95" fill="#999999" fill-opacity="0.3019608" fill-rule="evenodd" stroke="none">
      <animate attributeName="fill" dur="2.0s" repeatCount="indefinite" values="#999999;#99999a"/>
      <animate attributeName="fill-opacity" dur="2.0s" repeatCount="indefinite" values="0.3019608;0.8"/>
      <animate attributeName="d" dur="2.0s" repeatCount="indefinite" values="M-9.95 -6.95 Q-10.0 -2.85 -7.05 0.1 -4.1 3.05 0.05 3.05 4.15 3.05 7.1 0.1 10.05 -2.85 10.05 -6.95 10.05 -11.1 7.1 -14.05 4.15 -17.0 0.05 -16.95 -4.1 -17.0 -7.05 -14.05 -10.0 -11.1 -9.95 -6.95;M-22.75 -22.6 Q-22.75 -9.6 -13.6 -0.45 -4.4 8.7 8.6 8.75 21.55 8.7 30.75 -0.45 39.9 -9.6 39.9 -22.6 39.9 -35.6 30.75 -44.75 21.55 -53.95 8.6 -53.9 -4.4 -53.95 -13.6 -44.75 -22.75 -35.6 -22.75 -22.6"/>
    </path>
    <path d="M-9.95 -6.95 Q-10.0 -11.1 -7.05 -14.05 -4.1 -17.0 0.05 -16.95 4.15 -17.0 7.1 -14.05 10.05 -11.1 10.05 -6.95 10.05 -2.85 7.1 0.1 4.15 3.05 0.05 3.05 -4.1 3.05 -7.05 0.1 -10.0 -2.85 -9.95 -6.95 Z" fill="none" stroke="#000000" stroke-linecap="round" stroke-linejoin="round" stroke-opacity="0.0" stroke-width="0.0">
      <animate attributeName="stroke" dur="2.0s" repeatCount="indefinite" values="#000000;#000001"/>
      <animate attributeName="stroke-width" dur="2.0s" repeatCount="indefinite" values="0.0;0.0"/>
      <animate attributeName="fill-opacity" dur="2.0s" repeatCount="indefinite" values="0.0;0.0"/>
      <animate attributeName="d" dur="2.0s" repeatCount="indefinite" values="M-9.95 -6.95 Q-10.0 -11.1 -7.05 -14.05 -4.1 -17.0 0.05 -16.95 4.15 -17.0 7.1 -14.05 10.05 -11.1 10.05 -6.95 10.05 -2.85 7.1 0.1 4.15 3.05 0.05 3.05 -4.1 3.05 -7.05 0.1 -10.0 -2.85 -9.95 -6.95 Z;M-22.75 -22.6 Q-22.75 -35.6 -13.6 -44.75 -4.4 -53.95 8.6 -53.9 21.55 -53.95 30.75 -44.75 39.9 -35.6 39.9 -22.6 39.9 -9.6 30.75 -0.45 21.55 8.7 8.6 8.75 -4.4 8.7 -13.6 -0.45 -22.75 -9.6 -22.75 -22.6 Z"/>
    </path>
  </g>
</svg>
