<?xml version="1.0" encoding="UTF-8" standalone="no"?>
<svg xmlns:ffdec="https://www.free-decompiler.com/flash" xmlns:xlink="http://www.w3.org/1999/xlink" ffdec:objectType="morphshape" height="53.5px" width="53.55px" xmlns="http://www.w3.org/2000/svg">
  <g transform="matrix(1.0, 0.0, 0.0, 1.0, 19.2, 35.4)">
    <path d="M-9.95 -6.95 Q-10.0 -2.85 -7.05 0.1 -4.1 3.05 0.05 3.05 4.15 3.05 7.1 0.1 10.05 -2.85 10.05 -6.95 10.05 -11.1 7.1 -14.05 4.15 -17.0 0.05 -16.95 -4.1 -17.0 -7.05 -14.05 -10.0 -11.1 -9.95 -6.95" fill="#999999" fill-opacity="0.3019608" fill-rule="evenodd" stroke="none">
      <animate attributeName="fill" dur="2.0s" repeatCount="indefinite" values="#999999;#99999a"/>
      <animate attributeName="fill-opacity" dur="2.0s" repeatCount="indefinite" values="0.3019608;0.8"/>
      <animate attributeName="d" dur="2.0s" repeatCount="indefinite" values="M-9.95 -6.95 Q-10.0 -2.85 -7.05 0.1 -4.1 3.05 0.05 3.05 4.15 3.05 7.1 0.1 10.05 -2.85 10.05 -6.95 10.05 -11.1 7.1 -14.05 4.15 -17.0 0.05 -16.95 -4.1 -17.0 -7.05 -14.05 -10.0 -11.1 -9.95 -6.95;M-19.2 -8.65 Q-19.25 2.4 -11.4 10.25 -3.5 18.1 7.6 18.1 18.65 18.1 26.5 10.25 34.35 2.4 34.35 -8.65 34.35 -19.75 26.5 -27.6 18.65 -35.45 7.6 -35.4 -3.5 -35.45 -11.4 -27.6 -19.25 -19.75 -19.2 -8.65"/>
    </path>
    <path d="M-9.95 -6.95 Q-10.0 -11.1 -7.05 -14.05 -4.1 -17.0 0.05 -16.95 4.15 -17.0 7.1 -14.05 10.05 -11.1 10.05 -6.95 10.05 -2.85 7.1 0.1 4.15 3.05 0.05 3.05 -4.1 3.05 -7.05 0.1 -10.0 -2.85 -9.95 -6.95 Z" fill="none" stroke="#000000" stroke-linecap="round" stroke-linejoin="round" stroke-opacity="0.0" stroke-width="0.0">
      <animate attributeName="stroke" dur="2.0s" repeatCount="indefinite" values="#000000;#000001"/>
      <animate attributeName="stroke-width" dur="2.0s" repeatCount="indefinite" values="0.0;0.0"/>
      <animate attributeName="fill-opacity" dur="2.0s" repeatCount="indefinite" values="0.0;0.0"/>
      <animate attributeName="d" dur="2.0s" repeatCount="indefinite" values="M-9.95 -6.95 Q-10.0 -11.1 -7.05 -14.05 -4.1 -17.0 0.05 -16.95 4.15 -17.0 7.1 -14.05 10.05 -11.1 10.05 -6.95 10.05 -2.85 7.1 0.1 4.15 3.05 0.05 3.05 -4.1 3.05 -7.05 0.1 -10.0 -2.85 -9.95 -6.95 Z;M-19.2 -8.65 Q-19.25 -19.75 -11.4 -27.6 -3.5 -35.45 7.6 -35.4 18.65 -35.45 26.5 -27.6 34.35 -19.75 34.35 -8.65 34.35 2.4 26.5 10.25 18.65 18.1 7.6 18.1 -3.5 18.1 -11.4 10.25 -19.25 2.4 -19.2 -8.65 Z"/>
    </path>
  </g>
</svg>
