<?xml version="1.0" encoding="UTF-8" standalone="no"?>
<svg xmlns:ffdec="https://www.free-decompiler.com/flash" xmlns:xlink="http://www.w3.org/1999/xlink" ffdec:objectType="morphshape" height="48.05px" width="48.0px" xmlns="http://www.w3.org/2000/svg">
  <g transform="matrix(1.0, 0.0, 0.0, 1.0, 33.15, 34.75)">
    <path d="M-5.4 -1.0 Q-5.45 3.1 -2.5 6.05 0.45 9.0 4.6 9.0 8.7 9.0 11.65 6.05 14.6 3.1 14.6 -1.0 14.6 -5.15 11.65 -8.1 8.7 -11.05 4.6 -11.0 0.45 -11.05 -2.5 -8.1 -5.45 -5.15 -5.4 -1.0" fill="#999999" fill-opacity="0.3019608" fill-rule="evenodd" stroke="none">
      <animate attributeName="fill" dur="2.0s" repeatCount="indefinite" values="#999999;#99999a"/>
      <animate attributeName="fill-opacity" dur="2.0s" repeatCount="indefinite" values="0.3019608;0.8"/>
      <animate attributeName="d" dur="2.0s" repeatCount="indefinite" values="M-5.4 -1.0 Q-5.45 3.1 -2.5 6.05 0.45 9.0 4.6 9.0 8.7 9.0 11.65 6.05 14.6 3.1 14.6 -1.0 14.6 -5.15 11.65 -8.1 8.7 -11.05 4.6 -11.0 0.45 -11.05 -2.5 -8.1 -5.45 -5.15 -5.4 -1.0;M-33.15 -10.75 Q-33.2 -0.8 -26.15 6.25 -19.1 13.3 -9.15 13.3 0.75 13.3 7.8 6.25 14.85 -0.8 14.85 -10.75 14.85 -20.7 7.8 -27.75 0.75 -34.75 -9.15 -34.75 -19.1 -34.75 -26.15 -27.75 -33.2 -20.7 -33.15 -10.75"/>
    </path>
    <path d="M-5.4 -1.0 Q-5.45 -5.15 -2.5 -8.1 0.45 -11.05 4.6 -11.0 8.7 -11.05 11.65 -8.1 14.6 -5.15 14.6 -1.0 14.6 3.1 11.65 6.05 8.7 9.0 4.6 9.0 0.45 9.0 -2.5 6.05 -5.45 3.1 -5.4 -1.0 Z" fill="none" stroke="#000000" stroke-linecap="round" stroke-linejoin="round" stroke-opacity="0.0" stroke-width="0.0">
      <animate attributeName="stroke" dur="2.0s" repeatCount="indefinite" values="#000000;#000001"/>
      <animate attributeName="stroke-width" dur="2.0s" repeatCount="indefinite" values="0.0;0.0"/>
      <animate attributeName="fill-opacity" dur="2.0s" repeatCount="indefinite" values="0.0;0.0"/>
      <animate attributeName="d" dur="2.0s" repeatCount="indefinite" values="M-5.4 -1.0 Q-5.45 -5.15 -2.5 -8.1 0.45 -11.05 4.6 -11.0 8.7 -11.05 11.65 -8.1 14.6 -5.15 14.6 -1.0 14.6 3.1 11.65 6.05 8.7 9.0 4.6 9.0 0.45 9.0 -2.5 6.05 -5.45 3.1 -5.4 -1.0 Z;M-33.15 -10.75 Q-33.2 -20.7 -26.15 -27.75 -19.1 -34.75 -9.15 -34.75 0.75 -34.75 7.8 -27.75 14.85 -20.7 14.85 -10.75 14.85 -0.8 7.8 6.25 0.75 13.3 -9.15 13.3 -19.1 13.3 -26.15 6.25 -33.2 -0.8 -33.15 -10.75 Z"/>
    </path>
  </g>
</svg>
