<?xml version="1.0" encoding="UTF-8" standalone="no"?>
<svg xmlns:ffdec="https://www.free-decompiler.com/flash" xmlns:xlink="http://www.w3.org/1999/xlink" ffdec:objectType="morphshape" height="96.0px" width="96.0px" xmlns="http://www.w3.org/2000/svg">
  <g transform="matrix(1.0, 0.0, 0.0, 1.0, 57.1, 84.35)">
    <path d="M-38.7 -22.15 Q-38.7 -8.4 -29.0 1.35 -19.25 11.05 -5.55 11.05 8.2 11.05 17.9 1.35 27.65 -8.4 27.65 -22.15 27.65 -35.9 17.9 -45.6 8.2 -55.3 -5.55 -55.3 -19.25 -55.3 -29.0 -45.6 -38.7 -35.9 -38.7 -22.15" fill="#999999" fill-opacity="0.8" fill-rule="evenodd" stroke="none">
      <animate attributeName="fill" dur="2.0s" repeatCount="indefinite" values="#999999;#99999a"/>
      <animate attributeName="fill-opacity" dur="2.0s" repeatCount="indefinite" values="0.8;0.050980393"/>
      <animate attributeName="d" dur="2.0s" repeatCount="indefinite" values="M-38.7 -22.15 Q-38.7 -8.4 -29.0 1.35 -19.25 11.05 -5.55 11.05 8.2 11.05 17.9 1.35 27.65 -8.4 27.65 -22.15 27.65 -35.9 17.9 -45.6 8.2 -55.3 -5.55 -55.3 -19.25 -55.3 -29.0 -45.6 -38.7 -35.9 -38.7 -22.15;M-57.1 -36.35 Q-57.1 -16.45 -43.05 -2.35 -29.0 11.65 -9.1 11.65 10.8 11.65 24.85 -2.35 38.9 -16.45 38.9 -36.35 38.9 -56.25 24.85 -70.3 10.8 -84.35 -9.1 -84.35 -29.0 -84.35 -43.05 -70.3 -57.1 -56.25 -57.1 -36.35"/>
    </path>
    <path d="M-38.7 -22.15 Q-38.7 -35.9 -29.0 -45.6 -19.25 -55.3 -5.55 -55.3 8.2 -55.3 17.9 -45.6 27.65 -35.9 27.65 -22.15 27.65 -8.4 17.9 1.35 8.2 11.05 -5.55 11.05 -19.25 11.05 -29.0 1.35 -38.7 -8.4 -38.7 -22.15 Z" fill="none" stroke="#000000" stroke-linecap="round" stroke-linejoin="round" stroke-opacity="0.0" stroke-width="0.0">
      <animate attributeName="stroke" dur="2.0s" repeatCount="indefinite" values="#000000;#000001"/>
      <animate attributeName="stroke-width" dur="2.0s" repeatCount="indefinite" values="0.0;0.0"/>
      <animate attributeName="fill-opacity" dur="2.0s" repeatCount="indefinite" values="0.0;0.0"/>
      <animate attributeName="d" dur="2.0s" repeatCount="indefinite" values="M-38.7 -22.15 Q-38.7 -35.9 -29.0 -45.6 -19.25 -55.3 -5.55 -55.3 8.2 -55.3 17.9 -45.6 27.65 -35.9 27.65 -22.15 27.65 -8.4 17.9 1.35 8.2 11.05 -5.55 11.05 -19.25 11.05 -29.0 1.35 -38.7 -8.4 -38.7 -22.15 Z;M-57.1 -36.35 Q-57.1 -56.25 -43.05 -70.3 -29.0 -84.35 -9.1 -84.35 10.8 -84.35 24.85 -70.3 38.9 -56.25 38.9 -36.35 38.9 -16.45 24.85 -2.35 10.8 11.65 -9.1 11.65 -29.0 11.65 -43.05 -2.35 -57.1 -16.45 -57.1 -36.35 Z"/>
    </path>
  </g>
</svg>
