<?xml version="1.0" encoding="UTF-8" standalone="no"?>
<svg xmlns:ffdec="https://www.free-decompiler.com/flash" xmlns:xlink="http://www.w3.org/1999/xlink" ffdec:objectType="morphshape" height="90.85px" width="90.0px" xmlns="http://www.w3.org/2000/svg">
  <g transform="matrix(1.0, 0.0, 0.0, 1.0, 30.95, 82.1)">
    <path d="M-22.75 -22.6 Q-22.75 -9.6 -13.6 -0.45 -4.4 8.7 8.6 8.75 21.55 8.7 30.75 -0.45 39.9 -9.6 39.9 -22.6 39.9 -35.6 30.75 -44.75 21.55 -53.95 8.6 -53.9 -4.4 -53.95 -13.6 -44.75 -22.75 -35.6 -22.75 -22.6" fill="#999999" fill-opacity="0.8" fill-rule="evenodd" stroke="none">
      <animate attributeName="fill" dur="2.0s" repeatCount="indefinite" values="#999999;#99999a"/>
      <animate attributeName="fill-opacity" dur="2.0s" repeatCount="indefinite" values="0.8;0.050980393"/>
      <animate attributeName="d" dur="2.0s" repeatCount="indefinite" values="M-22.75 -22.6 Q-22.75 -9.6 -13.6 -0.45 -4.4 8.7 8.6 8.75 21.55 8.7 30.75 -0.45 39.9 -9.6 39.9 -22.6 39.9 -35.6 30.75 -44.75 21.55 -53.95 8.6 -53.9 -4.4 -53.95 -13.6 -44.75 -22.75 -35.6 -22.75 -22.6;M-30.95 -37.1 Q-30.95 -18.45 -17.8 -5.3 -4.6 7.85 14.05 7.9 32.7 7.85 45.9 -5.3 59.05 -18.45 59.05 -37.1 59.05 -55.8 45.9 -68.95 32.7 -82.15 14.05 -82.1 -4.6 -82.15 -17.8 -68.95 -30.95 -55.8 -30.95 -37.1"/>
    </path>
    <path d="M-22.75 -22.6 Q-22.75 -35.6 -13.6 -44.75 -4.4 -53.95 8.6 -53.9 21.55 -53.95 30.75 -44.75 39.9 -35.6 39.9 -22.6 39.9 -9.6 30.75 -0.45 21.55 8.7 8.6 8.75 -4.4 8.7 -13.6 -0.45 -22.75 -9.6 -22.75 -22.6 Z" fill="none" stroke="#000000" stroke-linecap="round" stroke-linejoin="round" stroke-opacity="0.0" stroke-width="0.0">
      <animate attributeName="stroke" dur="2.0s" repeatCount="indefinite" values="#000000;#000001"/>
      <animate attributeName="stroke-width" dur="2.0s" repeatCount="indefinite" values="0.0;0.0"/>
      <animate attributeName="fill-opacity" dur="2.0s" repeatCount="indefinite" values="0.0;0.0"/>
      <animate attributeName="d" dur="2.0s" repeatCount="indefinite" values="M-22.75 -22.6 Q-22.75 -35.6 -13.6 -44.75 -4.4 -53.95 8.6 -53.9 21.55 -53.95 30.75 -44.75 39.9 -35.6 39.9 -22.6 39.9 -9.6 30.75 -0.45 21.55 8.7 8.6 8.75 -4.4 8.7 -13.6 -0.45 -22.75 -9.6 -22.75 -22.6 Z;M-30.95 -37.1 Q-30.95 -55.8 -17.8 -68.95 -4.6 -82.15 14.05 -82.1 32.7 -82.15 45.9 -68.95 59.05 -55.8 59.05 -37.1 59.05 -18.45 45.9 -5.3 32.7 7.85 14.05 7.9 -4.6 7.85 -17.8 -5.3 -30.95 -18.45 -30.95 -37.1 Z"/>
    </path>
  </g>
</svg>
