<?xml version="1.0" encoding="UTF-8" standalone="no"?>
<svg xmlns:ffdec="https://www.free-decompiler.com/flash" xmlns:xlink="http://www.w3.org/1999/xlink" ffdec:objectType="morphshape" height="75.0px" width="75.0px" xmlns="http://www.w3.org/2000/svg">
  <g transform="matrix(1.0, 0.0, 0.0, 1.0, 25.1, 51.75)">
    <path d="M-19.2 -8.65 Q-19.25 2.4 -11.4 10.25 -3.5 18.1 7.6 18.1 18.65 18.1 26.5 10.25 34.35 2.4 34.35 -8.65 34.35 -19.75 26.5 -27.6 18.65 -35.45 7.6 -35.4 -3.5 -35.45 -11.4 -27.6 -19.25 -19.75 -19.2 -8.65" fill="#999999" fill-opacity="0.8" fill-rule="evenodd" stroke="none">
      <animate attributeName="fill" dur="2.0s" repeatCount="indefinite" values="#999999;#99999a"/>
      <animate attributeName="fill-opacity" dur="2.0s" repeatCount="indefinite" values="0.8;0.050980393"/>
      <animate attributeName="d" dur="2.0s" repeatCount="indefinite" values="M-19.2 -8.65 Q-19.25 2.4 -11.4 10.25 -3.5 18.1 7.6 18.1 18.65 18.1 26.5 10.25 34.35 2.4 34.35 -8.65 34.35 -19.75 26.5 -27.6 18.65 -35.45 7.6 -35.4 -3.5 -35.45 -11.4 -27.6 -19.25 -19.75 -19.2 -8.65;M-25.1 -14.25 Q-25.15 1.3 -14.15 12.3 -3.15 23.25 12.4 23.25 27.95 23.25 38.95 12.3 49.9 1.3 49.9 -14.25 49.9 -29.8 38.95 -40.8 27.95 -51.8 12.4 -51.75 -3.15 -51.8 -14.15 -40.8 -25.15 -29.8 -25.1 -14.25"/>
    </path>
    <path d="M-19.2 -8.65 Q-19.25 -19.75 -11.4 -27.6 -3.5 -35.45 7.6 -35.4 18.65 -35.45 26.5 -27.6 34.35 -19.75 34.35 -8.65 34.35 2.4 26.5 10.25 18.65 18.1 7.6 18.1 -3.5 18.1 -11.4 10.25 -19.25 2.4 -19.2 -8.65 Z" fill="none" stroke="#000000" stroke-linecap="round" stroke-linejoin="round" stroke-opacity="0.0" stroke-width="0.0">
      <animate attributeName="stroke" dur="2.0s" repeatCount="indefinite" values="#000000;#000001"/>
      <animate attributeName="stroke-width" dur="2.0s" repeatCount="indefinite" values="0.0;0.0"/>
      <animate attributeName="fill-opacity" dur="2.0s" repeatCount="indefinite" values="0.0;0.0"/>
      <animate attributeName="d" dur="2.0s" repeatCount="indefinite" values="M-19.2 -8.65 Q-19.25 -19.75 -11.4 -27.6 -3.5 -35.45 7.6 -35.4 18.65 -35.45 26.5 -27.6 34.35 -19.75 34.35 -8.65 34.35 2.4 26.5 10.25 18.65 18.1 7.6 18.1 -3.5 18.1 -11.4 10.25 -19.25 2.4 -19.2 -8.65 Z;M-25.1 -14.25 Q-25.15 -29.8 -14.15 -40.8 -3.15 -51.8 12.4 -51.75 27.95 -51.8 38.95 -40.8 49.9 -29.8 49.9 -14.25 49.9 1.3 38.95 12.3 27.95 23.25 12.4 23.25 -3.15 23.25 -14.15 12.3 -25.15 1.3 -25.1 -14.25 Z"/>
    </path>
  </g>
</svg>
