<?xml version="1.0" encoding="UTF-8" standalone="no"?>
<svg xmlns:ffdec="https://www.free-decompiler.com/flash" xmlns:xlink="http://www.w3.org/1999/xlink" ffdec:objectType="morphshape" height="66.0px" width="65.95px" xmlns="http://www.w3.org/2000/svg">
  <g transform="matrix(1.0, 0.0, 0.0, 1.0, 48.05, 50.65)">
    <path d="M-33.15 -10.75 Q-33.2 -0.8 -26.15 6.25 -19.1 13.3 -9.15 13.3 0.75 13.3 7.8 6.25 14.85 -0.8 14.85 -10.75 14.85 -20.7 7.8 -27.75 0.75 -34.75 -9.15 -34.75 -19.1 -34.75 -26.15 -27.75 -33.2 -20.7 -33.15 -10.75" fill="#999999" fill-opacity="0.8" fill-rule="evenodd" stroke="none">
      <animate attributeName="fill" dur="2.0s" repeatCount="indefinite" values="#999999;#99999a"/>
      <animate attributeName="fill-opacity" dur="2.0s" repeatCount="indefinite" values="0.8;0.050980393"/>
      <animate attributeName="d" dur="2.0s" repeatCount="indefinite" values="M-33.15 -10.75 Q-33.2 -0.8 -26.15 6.25 -19.1 13.3 -9.15 13.3 0.75 13.3 7.8 6.25 14.85 -0.8 14.85 -10.75 14.85 -20.7 7.8 -27.75 0.75 -34.75 -9.15 -34.75 -19.1 -34.75 -26.15 -27.75 -33.2 -20.7 -33.15 -10.75;M-48.05 -17.65 Q-48.1 -3.95 -38.4 5.7 -28.75 15.35 -15.05 15.35 -1.4 15.35 8.25 5.7 17.9 -3.95 17.9 -17.65 17.9 -31.35 8.25 -41.0 -1.4 -50.65 -15.05 -50.65 -28.75 -50.65 -38.4 -41.0 -48.1 -31.35 -48.05 -17.65"/>
    </path>
    <path d="M-33.15 -10.75 Q-33.2 -20.7 -26.15 -27.75 -19.1 -34.75 -9.15 -34.75 0.75 -34.75 7.8 -27.75 14.85 -20.7 14.85 -10.75 14.85 -0.8 7.8 6.25 0.75 13.3 -9.15 13.3 -19.1 13.3 -26.15 6.25 -33.2 -0.8 -33.15 -10.75 Z" fill="none" stroke="#000000" stroke-linecap="round" stroke-linejoin="round" stroke-opacity="0.0" stroke-width="0.0">
      <animate attributeName="stroke" dur="2.0s" repeatCount="indefinite" values="#000000;#000001"/>
      <animate attributeName="stroke-width" dur="2.0s" repeatCount="indefinite" values="0.0;0.0"/>
      <animate attributeName="fill-opacity" dur="2.0s" repeatCount="indefinite" values="0.0;0.0"/>
      <animate attributeName="d" dur="2.0s" repeatCount="indefinite" values="M-33.15 -10.75 Q-33.2 -20.7 -26.15 -27.75 -19.1 -34.75 -9.15 -34.75 0.75 -34.75 7.8 -27.75 14.85 -20.7 14.85 -10.75 14.85 -0.8 7.8 6.25 0.75 13.3 -9.15 13.3 -19.1 13.3 -26.15 6.25 -33.2 -0.8 -33.15 -10.75 Z;M-48.05 -17.65 Q-48.1 -31.35 -38.4 -41.0 -28.75 -50.65 -15.05 -50.65 -1.4 -50.65 8.25 -41.0 17.9 -31.35 17.9 -17.65 17.9 -3.95 8.25 5.7 -1.4 15.35 -15.05 15.35 -28.75 15.35 -38.4 5.7 -48.1 -3.95 -48.05 -17.65 Z"/>
    </path>
  </g>
</svg>
