<?xml version="1.0" encoding="UTF-8" standalone="no"?>
<svg xmlns:ffdec="https://www.free-decompiler.com/flash" xmlns:xlink="http://www.w3.org/1999/xlink" ffdec:objectType="morphshape" height="15.3px" width="9.95px" xmlns="http://www.w3.org/2000/svg">
  <g transform="matrix(1.0, 0.0, 0.0, 1.0, -0.15, 7.7)">
    <path d="M0.15 2.8 Q0.15 4.8 1.55 6.2 2.95 7.6 4.95 7.6 6.95 7.6 8.35 6.2 9.75 4.8 9.75 2.8 9.75 0.8 8.35 -0.6 6.95 -2.0 4.95 -2.0 2.95 -2.0 1.55 -0.6 0.15 0.8 0.15 2.8" fill="#ffffff" fill-rule="evenodd" stroke="none">
      <animate attributeName="fill" dur="2.0s" repeatCount="indefinite" values="#ffffff;#ffffff"/>
      <animate attributeName="fill-opacity" dur="2.0s" repeatCount="indefinite" values="1.0;1.0"/>
      <animate attributeName="d" dur="2.0s" repeatCount="indefinite" values="M0.15 2.8 Q0.15 4.8 1.55 6.2 2.95 7.6 4.95 7.6 6.95 7.6 8.35 6.2 9.75 4.8 9.75 2.8 9.75 0.8 8.35 -0.6 6.95 -2.0 4.95 -2.0 2.95 -2.0 1.55 -0.6 0.15 0.8 0.15 2.8;M0.5 -2.9 Q0.5 -0.9 1.9 0.5 3.3 1.9 5.3 1.9 7.3 1.9 8.7 0.5 10.1 -0.9 10.1 -2.9 10.1 -4.9 8.7 -6.3 7.3 -7.7 5.3 -7.7 3.3 -7.7 1.9 -6.3 0.5 -4.9 0.5 -2.9"/>
    </path>
    <path d="M0.15 2.8 Q0.15 0.8 1.55 -0.6 2.95 -2.0 4.95 -2.0 6.95 -2.0 8.35 -0.6 9.75 0.8 9.75 2.8 9.75 4.8 8.35 6.2 6.95 7.6 4.95 7.6 2.95 7.6 1.55 6.2 0.15 4.8 0.15 2.8 Z" fill="none" stroke="#000000" stroke-linecap="round" stroke-linejoin="round" stroke-opacity="0.0" stroke-width="0.0">
      <animate attributeName="stroke" dur="2.0s" repeatCount="indefinite" values="#000000;#000001"/>
      <animate attributeName="stroke-width" dur="2.0s" repeatCount="indefinite" values="0.0;0.0"/>
      <animate attributeName="fill-opacity" dur="2.0s" repeatCount="indefinite" values="0.0;0.0"/>
      <animate attributeName="d" dur="2.0s" repeatCount="indefinite" values="M0.15 2.8 Q0.15 0.8 1.55 -0.6 2.95 -2.0 4.95 -2.0 6.95 -2.0 8.35 -0.6 9.75 0.8 9.75 2.8 9.75 4.8 8.35 6.2 6.95 7.6 4.95 7.6 2.95 7.6 1.55 6.2 0.15 4.8 0.15 2.8 Z;M0.5 -2.9 Q0.5 -4.9 1.9 -6.3 3.3 -7.7 5.3 -7.7 7.3 -7.7 8.7 -6.3 10.1 -4.9 10.1 -2.9 10.1 -0.9 8.7 0.5 7.3 1.9 5.3 1.9 3.3 1.9 1.9 0.5 0.5 -0.9 0.5 -2.9 Z"/>
    </path>
  </g>
</svg>
