<?xml version="1.0" encoding="UTF-8" standalone="no"?>
<svg xmlns:ffdec="https://www.free-decompiler.com/flash" xmlns:xlink="http://www.w3.org/1999/xlink" ffdec:objectType="morphshape" height="20.5px" width="11.75px" xmlns="http://www.w3.org/2000/svg">
  <g transform="matrix(1.0, 0.0, 0.0, 1.0, 3.5, 9.8)">
    <path d="M-3.5 -5.0 Q-3.5 -3.0 -2.1 -1.6 -0.7 -0.2 1.3 -0.2 3.3 -0.2 4.7 -1.6 6.1 -3.0 6.1 -5.0 6.1 -7.0 4.7 -8.4 3.3 -9.8 1.3 -9.8 -0.7 -9.8 -2.1 -8.4 -3.5 -7.0 -3.5 -5.0" fill="#ffffff" fill-rule="evenodd" stroke="none">
      <animate attributeName="fill" dur="2.0s" repeatCount="indefinite" values="#ffffff;#ffffff"/>
      <animate attributeName="fill-opacity" dur="2.0s" repeatCount="indefinite" values="1.0;1.0"/>
      <animate attributeName="d" dur="2.0s" repeatCount="indefinite" values="M-3.5 -5.0 Q-3.5 -3.0 -2.1 -1.6 -0.7 -0.2 1.3 -0.2 3.3 -0.2 4.7 -1.6 6.1 -3.0 6.1 -5.0 6.1 -7.0 4.7 -8.4 3.3 -9.8 1.3 -9.8 -0.7 -9.8 -2.1 -8.4 -3.5 -7.0 -3.5 -5.0;M-1.35 5.9 Q-1.35 7.9 0.05 9.3 1.45 10.7 3.45 10.7 5.45 10.7 6.85 9.3 8.25 7.9 8.25 5.9 8.25 3.9 6.85 2.5 5.45 1.1 3.45 1.1 1.45 1.1 0.05 2.5 -1.35 3.9 -1.35 5.9"/>
    </path>
    <path d="M-3.5 -5.0 Q-3.5 -7.0 -2.1 -8.4 -0.7 -9.8 1.3 -9.8 3.3 -9.8 4.7 -8.4 6.1 -7.0 6.1 -5.0 6.1 -3.0 4.7 -1.6 3.3 -0.2 1.3 -0.2 -0.7 -0.2 -2.1 -1.6 -3.5 -3.0 -3.5 -5.0 Z" fill="none" stroke="#000000" stroke-linecap="round" stroke-linejoin="round" stroke-opacity="0.0" stroke-width="0.0">
      <animate attributeName="stroke" dur="2.0s" repeatCount="indefinite" values="#000000;#000001"/>
      <animate attributeName="stroke-width" dur="2.0s" repeatCount="indefinite" values="0.0;0.0"/>
      <animate attributeName="fill-opacity" dur="2.0s" repeatCount="indefinite" values="0.0;0.0"/>
      <animate attributeName="d" dur="2.0s" repeatCount="indefinite" values="M-3.5 -5.0 Q-3.5 -7.0 -2.1 -8.4 -0.7 -9.8 1.3 -9.8 3.3 -9.8 4.7 -8.4 6.1 -7.0 6.1 -5.0 6.1 -3.0 4.7 -1.6 3.3 -0.2 1.3 -0.2 -0.7 -0.2 -2.1 -1.6 -3.5 -3.0 -3.5 -5.0 Z;M-1.35 5.9 Q-1.35 3.9 0.05 2.5 1.45 1.1 3.45 1.1 5.45 1.1 6.85 2.5 8.25 3.9 8.25 5.9 8.25 7.9 6.85 9.3 5.45 10.7 3.45 10.7 1.45 10.7 0.05 9.3 -1.35 7.9 -1.35 5.9 Z"/>
    </path>
  </g>
</svg>
