<?xml version="1.0" encoding="UTF-8" standalone="no"?>
<svg xmlns:ffdec="https://www.free-decompiler.com/flash" xmlns:xlink="http://www.w3.org/1999/xlink" ffdec:objectType="morphshape" height="12.55px" width="11.4px" xmlns="http://www.w3.org/2000/svg">
  <g transform="matrix(1.0, 0.0, 0.0, 1.0, 9.1, 5.5)">
    <path d="M-7.3 2.25 Q-7.3 4.25 -5.9 5.65 -4.5 7.05 -2.5 7.05 -0.5 7.05 0.9 5.65 2.3 4.25 2.3 2.25 2.3 0.25 0.9 -1.15 -0.5 -2.55 -2.5 -2.55 -4.5 -2.55 -5.9 -1.15 -7.3 0.25 -7.3 2.25" fill="#ffffff" fill-rule="evenodd" stroke="none">
      <animate attributeName="fill" dur="2.0s" repeatCount="indefinite" values="#ffffff;#ffffff"/>
      <animate attributeName="fill-opacity" dur="2.0s" repeatCount="indefinite" values="1.0;1.0"/>
      <animate attributeName="d" dur="2.0s" repeatCount="indefinite" values="M-7.3 2.25 Q-7.3 4.25 -5.9 5.65 -4.5 7.05 -2.5 7.05 -0.5 7.05 0.9 5.65 2.3 4.25 2.3 2.25 2.3 0.25 0.9 -1.15 -0.5 -2.55 -2.5 -2.55 -4.5 -2.55 -5.9 -1.15 -7.3 0.25 -7.3 2.25;M-9.1 -0.7 Q-9.1 1.3 -7.7 2.7 -6.3 4.1 -4.3 4.1 -2.3 4.1 -0.9 2.7 0.5 1.3 0.5 -0.7 0.5 -2.7 -0.9 -4.1 -2.3 -5.5 -4.3 -5.5 -6.3 -5.5 -7.7 -4.1 -9.1 -2.7 -9.1 -0.7"/>
    </path>
    <path d="M-7.3 2.25 Q-7.3 0.25 -5.9 -1.15 -4.5 -2.55 -2.5 -2.55 -0.5 -2.55 0.9 -1.15 2.3 0.25 2.3 2.25 2.3 4.25 0.9 5.65 -0.5 7.05 -2.5 7.05 -4.5 7.05 -5.9 5.65 -7.3 4.25 -7.3 2.25 Z" fill="none" stroke="#000000" stroke-linecap="round" stroke-linejoin="round" stroke-opacity="0.0" stroke-width="0.0">
      <animate attributeName="stroke" dur="2.0s" repeatCount="indefinite" values="#000000;#000001"/>
      <animate attributeName="stroke-width" dur="2.0s" repeatCount="indefinite" values="0.0;0.0"/>
      <animate attributeName="fill-opacity" dur="2.0s" repeatCount="indefinite" values="0.0;0.0"/>
      <animate attributeName="d" dur="2.0s" repeatCount="indefinite" values="M-7.3 2.25 Q-7.3 0.25 -5.9 -1.15 -4.5 -2.55 -2.5 -2.55 -0.5 -2.55 0.9 -1.15 2.3 0.25 2.3 2.25 2.3 4.25 0.9 5.65 -0.5 7.05 -2.5 7.05 -4.5 7.05 -5.9 5.65 -7.3 4.25 -7.3 2.25 Z;M-9.1 -0.7 Q-9.1 -2.7 -7.7 -4.1 -6.3 -5.5 -4.3 -5.5 -2.3 -5.5 -0.9 -4.1 0.5 -2.7 0.5 -0.7 0.5 1.3 -0.9 2.7 -2.3 4.1 -4.3 4.1 -6.3 4.1 -7.7 2.7 -9.1 1.3 -9.1 -0.7 Z"/>
    </path>
  </g>
</svg>
